G04 #@! TF.FileFunction,Other,Fab,Top*
%FSLAX46Y46*%
G04 Gerber Fmt 4.6, Leading zero omitted, Abs format (unit mm)*
G04 Created by KiCad (PCBNEW (2016-08-15 BZR 7057)-product) date Tue Nov  8 12:42:18 2016*
%MOMM*%
%LPD*%
G01*
G04 APERTURE LIST*
%ADD10C,0.100000*%
%ADD11C,0.150000*%
%ADD12C,0.300000*%
%ADD13C,0.400000*%
G04 APERTURE END LIST*
D10*
D11*
X177002200Y-166007200D02*
X177002200Y-198007200D01*
X285002200Y-198007200D01*
X285002200Y-166007200D01*
X177002200Y-166007200D01*
D10*
D11*
X10000000Y-10000000D02*
X10000000Y-200007200D01*
X287002200Y-200007200D01*
X287002200Y-10000000D01*
X10000000Y-10000000D01*
D10*
D11*
X12000000Y-12000000D02*
X12000000Y-198007200D01*
X285002200Y-198007200D01*
X285002200Y-12000000D01*
X12000000Y-12000000D01*
D10*
D11*
X60000000Y-12000000D02*
X60000000Y-10000000D01*
D10*
D11*
X110000000Y-12000000D02*
X110000000Y-10000000D01*
D10*
D11*
X160000000Y-12000000D02*
X160000000Y-10000000D01*
D10*
D11*
X210000000Y-12000000D02*
X210000000Y-10000000D01*
D10*
D11*
X260000000Y-12000000D02*
X260000000Y-10000000D01*
D10*
D11*
X36065476Y-11588095D02*
X35322619Y-11588095D01*
X35694047Y-11588095D02*
X35694047Y-10288095D01*
X35570238Y-10473809D01*
X35446428Y-10597619D01*
X35322619Y-10659523D01*
D10*
D11*
X85322619Y-10411904D02*
X85384523Y-10350000D01*
X85508333Y-10288095D01*
X85817857Y-10288095D01*
X85941666Y-10350000D01*
X86003571Y-10411904D01*
X86065476Y-10535714D01*
X86065476Y-10659523D01*
X86003571Y-10845238D01*
X85260714Y-11588095D01*
X86065476Y-11588095D01*
D10*
D11*
X135260714Y-10288095D02*
X136065476Y-10288095D01*
X135632142Y-10783333D01*
X135817857Y-10783333D01*
X135941666Y-10845238D01*
X136003571Y-10907142D01*
X136065476Y-11030952D01*
X136065476Y-11340476D01*
X136003571Y-11464285D01*
X135941666Y-11526190D01*
X135817857Y-11588095D01*
X135446428Y-11588095D01*
X135322619Y-11526190D01*
X135260714Y-11464285D01*
D10*
D11*
X185941666Y-10721428D02*
X185941666Y-11588095D01*
X185632142Y-10226190D02*
X185322619Y-11154761D01*
X186127380Y-11154761D01*
D10*
D11*
X236003571Y-10288095D02*
X235384523Y-10288095D01*
X235322619Y-10907142D01*
X235384523Y-10845238D01*
X235508333Y-10783333D01*
X235817857Y-10783333D01*
X235941666Y-10845238D01*
X236003571Y-10907142D01*
X236065476Y-11030952D01*
X236065476Y-11340476D01*
X236003571Y-11464285D01*
X235941666Y-11526190D01*
X235817857Y-11588095D01*
X235508333Y-11588095D01*
X235384523Y-11526190D01*
X235322619Y-11464285D01*
D10*
D11*
X285941666Y-10288095D02*
X285694047Y-10288095D01*
X285570238Y-10350000D01*
X285508333Y-10411904D01*
X285384523Y-10597619D01*
X285322619Y-10845238D01*
X285322619Y-11340476D01*
X285384523Y-11464285D01*
X285446428Y-11526190D01*
X285570238Y-11588095D01*
X285817857Y-11588095D01*
X285941666Y-11526190D01*
X286003571Y-11464285D01*
X286065476Y-11340476D01*
X286065476Y-11030952D01*
X286003571Y-10907142D01*
X285941666Y-10845238D01*
X285817857Y-10783333D01*
X285570238Y-10783333D01*
X285446428Y-10845238D01*
X285384523Y-10907142D01*
X285322619Y-11030952D01*
D10*
D11*
X60000000Y-198007200D02*
X60000000Y-200007200D01*
D10*
D11*
X110000000Y-198007200D02*
X110000000Y-200007200D01*
D10*
D11*
X160000000Y-198007200D02*
X160000000Y-200007200D01*
D10*
D11*
X210000000Y-198007200D02*
X210000000Y-200007200D01*
D10*
D11*
X260000000Y-198007200D02*
X260000000Y-200007200D01*
D10*
D11*
X36065476Y-199595295D02*
X35322619Y-199595295D01*
X35694047Y-199595295D02*
X35694047Y-198295295D01*
X35570238Y-198481009D01*
X35446428Y-198604819D01*
X35322619Y-198666723D01*
D10*
D11*
X85322619Y-198419104D02*
X85384523Y-198357200D01*
X85508333Y-198295295D01*
X85817857Y-198295295D01*
X85941666Y-198357200D01*
X86003571Y-198419104D01*
X86065476Y-198542914D01*
X86065476Y-198666723D01*
X86003571Y-198852438D01*
X85260714Y-199595295D01*
X86065476Y-199595295D01*
D10*
D11*
X135260714Y-198295295D02*
X136065476Y-198295295D01*
X135632142Y-198790533D01*
X135817857Y-198790533D01*
X135941666Y-198852438D01*
X136003571Y-198914342D01*
X136065476Y-199038152D01*
X136065476Y-199347676D01*
X136003571Y-199471485D01*
X135941666Y-199533390D01*
X135817857Y-199595295D01*
X135446428Y-199595295D01*
X135322619Y-199533390D01*
X135260714Y-199471485D01*
D10*
D11*
X185941666Y-198728628D02*
X185941666Y-199595295D01*
X185632142Y-198233390D02*
X185322619Y-199161961D01*
X186127380Y-199161961D01*
D10*
D11*
X236003571Y-198295295D02*
X235384523Y-198295295D01*
X235322619Y-198914342D01*
X235384523Y-198852438D01*
X235508333Y-198790533D01*
X235817857Y-198790533D01*
X235941666Y-198852438D01*
X236003571Y-198914342D01*
X236065476Y-199038152D01*
X236065476Y-199347676D01*
X236003571Y-199471485D01*
X235941666Y-199533390D01*
X235817857Y-199595295D01*
X235508333Y-199595295D01*
X235384523Y-199533390D01*
X235322619Y-199471485D01*
D10*
D11*
X285941666Y-198295295D02*
X285694047Y-198295295D01*
X285570238Y-198357200D01*
X285508333Y-198419104D01*
X285384523Y-198604819D01*
X285322619Y-198852438D01*
X285322619Y-199347676D01*
X285384523Y-199471485D01*
X285446428Y-199533390D01*
X285570238Y-199595295D01*
X285817857Y-199595295D01*
X285941666Y-199533390D01*
X286003571Y-199471485D01*
X286065476Y-199347676D01*
X286065476Y-199038152D01*
X286003571Y-198914342D01*
X285941666Y-198852438D01*
X285817857Y-198790533D01*
X285570238Y-198790533D01*
X285446428Y-198852438D01*
X285384523Y-198914342D01*
X285322619Y-199038152D01*
D10*
D11*
X10000000Y-60000000D02*
X12000000Y-60000000D01*
D10*
D11*
X10000000Y-110000000D02*
X12000000Y-110000000D01*
D10*
D11*
X10000000Y-160000000D02*
X12000000Y-160000000D01*
D10*
D11*
X10690476Y-35216666D02*
X11309523Y-35216666D01*
X10566666Y-35588095D02*
X11000000Y-34288095D01*
X11433333Y-35588095D01*
D10*
D11*
X11092857Y-84907142D02*
X11278571Y-84969047D01*
X11340476Y-85030952D01*
X11402380Y-85154761D01*
X11402380Y-85340476D01*
X11340476Y-85464285D01*
X11278571Y-85526190D01*
X11154761Y-85588095D01*
X10659523Y-85588095D01*
X10659523Y-84288095D01*
X11092857Y-84288095D01*
X11216666Y-84350000D01*
X11278571Y-84411904D01*
X11340476Y-84535714D01*
X11340476Y-84659523D01*
X11278571Y-84783333D01*
X11216666Y-84845238D01*
X11092857Y-84907142D01*
X10659523Y-84907142D01*
D10*
D11*
X11402380Y-135464285D02*
X11340476Y-135526190D01*
X11154761Y-135588095D01*
X11030952Y-135588095D01*
X10845238Y-135526190D01*
X10721428Y-135402380D01*
X10659523Y-135278571D01*
X10597619Y-135030952D01*
X10597619Y-134845238D01*
X10659523Y-134597619D01*
X10721428Y-134473809D01*
X10845238Y-134350000D01*
X11030952Y-134288095D01*
X11154761Y-134288095D01*
X11340476Y-134350000D01*
X11402380Y-134411904D01*
D10*
D11*
X10659523Y-185588095D02*
X10659523Y-184288095D01*
X10969047Y-184288095D01*
X11154761Y-184350000D01*
X11278571Y-184473809D01*
X11340476Y-184597619D01*
X11402380Y-184845238D01*
X11402380Y-185030952D01*
X11340476Y-185278571D01*
X11278571Y-185402380D01*
X11154761Y-185526190D01*
X10969047Y-185588095D01*
X10659523Y-185588095D01*
D10*
D11*
X287002200Y-60000000D02*
X285002200Y-60000000D01*
D10*
D11*
X287002200Y-110000000D02*
X285002200Y-110000000D01*
D10*
D11*
X287002200Y-160000000D02*
X285002200Y-160000000D01*
D10*
D11*
X285692676Y-35216666D02*
X286311723Y-35216666D01*
X285568866Y-35588095D02*
X286002200Y-34288095D01*
X286435533Y-35588095D01*
D10*
D11*
X286095057Y-84907142D02*
X286280771Y-84969047D01*
X286342676Y-85030952D01*
X286404580Y-85154761D01*
X286404580Y-85340476D01*
X286342676Y-85464285D01*
X286280771Y-85526190D01*
X286156961Y-85588095D01*
X285661723Y-85588095D01*
X285661723Y-84288095D01*
X286095057Y-84288095D01*
X286218866Y-84350000D01*
X286280771Y-84411904D01*
X286342676Y-84535714D01*
X286342676Y-84659523D01*
X286280771Y-84783333D01*
X286218866Y-84845238D01*
X286095057Y-84907142D01*
X285661723Y-84907142D01*
D10*
D11*
X286404580Y-135464285D02*
X286342676Y-135526190D01*
X286156961Y-135588095D01*
X286033152Y-135588095D01*
X285847438Y-135526190D01*
X285723628Y-135402380D01*
X285661723Y-135278571D01*
X285599819Y-135030952D01*
X285599819Y-134845238D01*
X285661723Y-134597619D01*
X285723628Y-134473809D01*
X285847438Y-134350000D01*
X286033152Y-134288095D01*
X286156961Y-134288095D01*
X286342676Y-134350000D01*
X286404580Y-134411904D01*
D10*
D11*
X285661723Y-185588095D02*
X285661723Y-184288095D01*
X285971247Y-184288095D01*
X286156961Y-184350000D01*
X286280771Y-184473809D01*
X286342676Y-184597619D01*
X286404580Y-184845238D01*
X286404580Y-185030952D01*
X286342676Y-185278571D01*
X286280771Y-185402380D01*
X286156961Y-185526190D01*
X285971247Y-185588095D01*
X285661723Y-185588095D01*
D10*
D11*
X200434342Y-193785771D02*
X200434342Y-192285771D01*
X200791485Y-192285771D01*
X201005771Y-192357200D01*
X201148628Y-192500057D01*
X201220057Y-192642914D01*
X201291485Y-192928628D01*
X201291485Y-193142914D01*
X201220057Y-193428628D01*
X201148628Y-193571485D01*
X201005771Y-193714342D01*
X200791485Y-193785771D01*
X200434342Y-193785771D01*
X202577200Y-193785771D02*
X202577200Y-193000057D01*
X202505771Y-192857200D01*
X202362914Y-192785771D01*
X202077200Y-192785771D01*
X201934342Y-192857200D01*
X202577200Y-193714342D02*
X202434342Y-193785771D01*
X202077200Y-193785771D01*
X201934342Y-193714342D01*
X201862914Y-193571485D01*
X201862914Y-193428628D01*
X201934342Y-193285771D01*
X202077200Y-193214342D01*
X202434342Y-193214342D01*
X202577200Y-193142914D01*
X203077200Y-192785771D02*
X203648628Y-192785771D01*
X203291485Y-192285771D02*
X203291485Y-193571485D01*
X203362914Y-193714342D01*
X203505771Y-193785771D01*
X203648628Y-193785771D01*
X204720057Y-193714342D02*
X204577200Y-193785771D01*
X204291485Y-193785771D01*
X204148628Y-193714342D01*
X204077200Y-193571485D01*
X204077200Y-193000057D01*
X204148628Y-192857200D01*
X204291485Y-192785771D01*
X204577200Y-192785771D01*
X204720057Y-192857200D01*
X204791485Y-193000057D01*
X204791485Y-193142914D01*
X204077200Y-193285771D01*
X205434342Y-193642914D02*
X205505771Y-193714342D01*
X205434342Y-193785771D01*
X205362914Y-193714342D01*
X205434342Y-193642914D01*
X205434342Y-193785771D01*
X205434342Y-192857200D02*
X205505771Y-192928628D01*
X205434342Y-193000057D01*
X205362914Y-192928628D01*
X205434342Y-192857200D01*
X205434342Y-193000057D01*
D10*
D11*
X177002200Y-194507200D02*
X285002200Y-194507200D01*
D10*
D11*
X178434342Y-196585771D02*
X178434342Y-195085771D01*
X179291485Y-196585771D02*
X178648628Y-195728628D01*
X179291485Y-195085771D02*
X178434342Y-195942914D01*
X179934342Y-196585771D02*
X179934342Y-195585771D01*
X179934342Y-195085771D02*
X179862914Y-195157200D01*
X179934342Y-195228628D01*
X180005771Y-195157200D01*
X179934342Y-195085771D01*
X179934342Y-195228628D01*
X181505771Y-196442914D02*
X181434342Y-196514342D01*
X181220057Y-196585771D01*
X181077200Y-196585771D01*
X180862914Y-196514342D01*
X180720057Y-196371485D01*
X180648628Y-196228628D01*
X180577200Y-195942914D01*
X180577200Y-195728628D01*
X180648628Y-195442914D01*
X180720057Y-195300057D01*
X180862914Y-195157200D01*
X181077200Y-195085771D01*
X181220057Y-195085771D01*
X181434342Y-195157200D01*
X181505771Y-195228628D01*
X182791485Y-196585771D02*
X182791485Y-195800057D01*
X182720057Y-195657200D01*
X182577200Y-195585771D01*
X182291485Y-195585771D01*
X182148628Y-195657200D01*
X182791485Y-196514342D02*
X182648628Y-196585771D01*
X182291485Y-196585771D01*
X182148628Y-196514342D01*
X182077200Y-196371485D01*
X182077200Y-196228628D01*
X182148628Y-196085771D01*
X182291485Y-196014342D01*
X182648628Y-196014342D01*
X182791485Y-195942914D01*
X184148628Y-196585771D02*
X184148628Y-195085771D01*
X184148628Y-196514342D02*
X184005771Y-196585771D01*
X183720057Y-196585771D01*
X183577200Y-196514342D01*
X183505771Y-196442914D01*
X183434342Y-196300057D01*
X183434342Y-195871485D01*
X183505771Y-195728628D01*
X183577200Y-195657200D01*
X183720057Y-195585771D01*
X184005771Y-195585771D01*
X184148628Y-195657200D01*
X186005771Y-195800057D02*
X186505771Y-195800057D01*
X186720057Y-196585771D02*
X186005771Y-196585771D01*
X186005771Y-195085771D01*
X186720057Y-195085771D01*
X187362914Y-196442914D02*
X187434342Y-196514342D01*
X187362914Y-196585771D01*
X187291485Y-196514342D01*
X187362914Y-196442914D01*
X187362914Y-196585771D01*
X188077200Y-196585771D02*
X188077200Y-195085771D01*
X188434342Y-195085771D01*
X188648628Y-195157200D01*
X188791485Y-195300057D01*
X188862914Y-195442914D01*
X188934342Y-195728628D01*
X188934342Y-195942914D01*
X188862914Y-196228628D01*
X188791485Y-196371485D01*
X188648628Y-196514342D01*
X188434342Y-196585771D01*
X188077200Y-196585771D01*
X189577200Y-196442914D02*
X189648628Y-196514342D01*
X189577200Y-196585771D01*
X189505771Y-196514342D01*
X189577200Y-196442914D01*
X189577200Y-196585771D01*
X190220057Y-196157200D02*
X190934342Y-196157200D01*
X190077200Y-196585771D02*
X190577200Y-195085771D01*
X191077200Y-196585771D01*
X191577200Y-196442914D02*
X191648628Y-196514342D01*
X191577200Y-196585771D01*
X191505771Y-196514342D01*
X191577200Y-196442914D01*
X191577200Y-196585771D01*
X194577200Y-196585771D02*
X194577200Y-195085771D01*
X194720057Y-196014342D02*
X195148628Y-196585771D01*
X195148628Y-195585771D02*
X194577200Y-196157200D01*
X195791485Y-196585771D02*
X195791485Y-195585771D01*
X195791485Y-195085771D02*
X195720057Y-195157200D01*
X195791485Y-195228628D01*
X195862914Y-195157200D01*
X195791485Y-195085771D01*
X195791485Y-195228628D01*
X197148628Y-196514342D02*
X197005771Y-196585771D01*
X196720057Y-196585771D01*
X196577200Y-196514342D01*
X196505771Y-196442914D01*
X196434342Y-196300057D01*
X196434342Y-195871485D01*
X196505771Y-195728628D01*
X196577200Y-195657200D01*
X196720057Y-195585771D01*
X197005771Y-195585771D01*
X197148628Y-195657200D01*
X198434342Y-196585771D02*
X198434342Y-195800057D01*
X198362914Y-195657200D01*
X198220057Y-195585771D01*
X197934342Y-195585771D01*
X197791485Y-195657200D01*
X198434342Y-196514342D02*
X198291485Y-196585771D01*
X197934342Y-196585771D01*
X197791485Y-196514342D01*
X197720057Y-196371485D01*
X197720057Y-196228628D01*
X197791485Y-196085771D01*
X197934342Y-196014342D01*
X198291485Y-196014342D01*
X198434342Y-195942914D01*
X199791485Y-196585771D02*
X199791485Y-195085771D01*
X199791485Y-196514342D02*
X199648628Y-196585771D01*
X199362914Y-196585771D01*
X199220057Y-196514342D01*
X199148628Y-196442914D01*
X199077200Y-196300057D01*
X199077200Y-195871485D01*
X199148628Y-195728628D01*
X199220057Y-195657200D01*
X199362914Y-195585771D01*
X199648628Y-195585771D01*
X199791485Y-195657200D01*
X202077200Y-197157200D02*
X202005771Y-197085771D01*
X201862914Y-196871485D01*
X201791485Y-196728628D01*
X201720057Y-196514342D01*
X201648628Y-196157200D01*
X201648628Y-195871485D01*
X201720057Y-195514342D01*
X201791485Y-195300057D01*
X201862914Y-195157200D01*
X202005771Y-194942914D01*
X202077200Y-194871485D01*
X202577200Y-195228628D02*
X202648628Y-195157200D01*
X202791485Y-195085771D01*
X203148628Y-195085771D01*
X203291485Y-195157200D01*
X203362914Y-195228628D01*
X203434342Y-195371485D01*
X203434342Y-195514342D01*
X203362914Y-195728628D01*
X202505771Y-196585771D01*
X203434342Y-196585771D01*
X204362914Y-195085771D02*
X204505771Y-195085771D01*
X204648628Y-195157200D01*
X204720057Y-195228628D01*
X204791485Y-195371485D01*
X204862914Y-195657200D01*
X204862914Y-196014342D01*
X204791485Y-196300057D01*
X204720057Y-196442914D01*
X204648628Y-196514342D01*
X204505771Y-196585771D01*
X204362914Y-196585771D01*
X204220057Y-196514342D01*
X204148628Y-196442914D01*
X204077200Y-196300057D01*
X204005771Y-196014342D01*
X204005771Y-195657200D01*
X204077200Y-195371485D01*
X204148628Y-195228628D01*
X204220057Y-195157200D01*
X204362914Y-195085771D01*
X206291485Y-196585771D02*
X205434342Y-196585771D01*
X205862914Y-196585771D02*
X205862914Y-195085771D01*
X205720057Y-195300057D01*
X205577200Y-195442914D01*
X205434342Y-195514342D01*
X207577200Y-195085771D02*
X207291485Y-195085771D01*
X207148628Y-195157200D01*
X207077200Y-195228628D01*
X206934342Y-195442914D01*
X206862914Y-195728628D01*
X206862914Y-196300057D01*
X206934342Y-196442914D01*
X207005771Y-196514342D01*
X207148628Y-196585771D01*
X207434342Y-196585771D01*
X207577200Y-196514342D01*
X207648628Y-196442914D01*
X207720057Y-196300057D01*
X207720057Y-195942914D01*
X207648628Y-195800057D01*
X207577200Y-195728628D01*
X207434342Y-195657200D01*
X207148628Y-195657200D01*
X207005771Y-195728628D01*
X206934342Y-195800057D01*
X206862914Y-195942914D01*
X208362914Y-196014342D02*
X209505771Y-196014342D01*
X210505771Y-195085771D02*
X210648628Y-195085771D01*
X210791485Y-195157200D01*
X210862914Y-195228628D01*
X210934342Y-195371485D01*
X211005771Y-195657200D01*
X211005771Y-196014342D01*
X210934342Y-196300057D01*
X210862914Y-196442914D01*
X210791485Y-196514342D01*
X210648628Y-196585771D01*
X210505771Y-196585771D01*
X210362914Y-196514342D01*
X210291485Y-196442914D01*
X210220057Y-196300057D01*
X210148628Y-196014342D01*
X210148628Y-195657200D01*
X210220057Y-195371485D01*
X210291485Y-195228628D01*
X210362914Y-195157200D01*
X210505771Y-195085771D01*
X211862914Y-195728628D02*
X211720057Y-195657200D01*
X211648628Y-195585771D01*
X211577200Y-195442914D01*
X211577200Y-195371485D01*
X211648628Y-195228628D01*
X211720057Y-195157200D01*
X211862914Y-195085771D01*
X212148628Y-195085771D01*
X212291485Y-195157200D01*
X212362914Y-195228628D01*
X212434342Y-195371485D01*
X212434342Y-195442914D01*
X212362914Y-195585771D01*
X212291485Y-195657200D01*
X212148628Y-195728628D01*
X211862914Y-195728628D01*
X211720057Y-195800057D01*
X211648628Y-195871485D01*
X211577200Y-196014342D01*
X211577200Y-196300057D01*
X211648628Y-196442914D01*
X211720057Y-196514342D01*
X211862914Y-196585771D01*
X212148628Y-196585771D01*
X212291485Y-196514342D01*
X212362914Y-196442914D01*
X212434342Y-196300057D01*
X212434342Y-196014342D01*
X212362914Y-195871485D01*
X212291485Y-195800057D01*
X212148628Y-195728628D01*
X213077200Y-196014342D02*
X214220057Y-196014342D01*
X215720057Y-196585771D02*
X214862914Y-196585771D01*
X215291485Y-196585771D02*
X215291485Y-195085771D01*
X215148628Y-195300057D01*
X215005771Y-195442914D01*
X214862914Y-195514342D01*
X217077200Y-195085771D02*
X216362914Y-195085771D01*
X216291485Y-195800057D01*
X216362914Y-195728628D01*
X216505771Y-195657200D01*
X216862914Y-195657200D01*
X217005771Y-195728628D01*
X217077200Y-195800057D01*
X217148628Y-195942914D01*
X217148628Y-196300057D01*
X217077200Y-196442914D01*
X217005771Y-196514342D01*
X216862914Y-196585771D01*
X216505771Y-196585771D01*
X216362914Y-196514342D01*
X216291485Y-196442914D01*
X219434342Y-195800057D02*
X219648628Y-195871485D01*
X219720057Y-195942914D01*
X219791485Y-196085771D01*
X219791485Y-196300057D01*
X219720057Y-196442914D01*
X219648628Y-196514342D01*
X219505771Y-196585771D01*
X218934342Y-196585771D01*
X218934342Y-195085771D01*
X219434342Y-195085771D01*
X219577200Y-195157200D01*
X219648628Y-195228628D01*
X219720057Y-195371485D01*
X219720057Y-195514342D01*
X219648628Y-195657200D01*
X219577200Y-195728628D01*
X219434342Y-195800057D01*
X218934342Y-195800057D01*
X220291485Y-195085771D02*
X221291485Y-195085771D01*
X220291485Y-196585771D01*
X221291485Y-196585771D01*
X222720057Y-196585771D02*
X222220057Y-195871485D01*
X221862914Y-196585771D02*
X221862914Y-195085771D01*
X222434342Y-195085771D01*
X222577200Y-195157200D01*
X222648628Y-195228628D01*
X222720057Y-195371485D01*
X222720057Y-195585771D01*
X222648628Y-195728628D01*
X222577200Y-195800057D01*
X222434342Y-195871485D01*
X221862914Y-195871485D01*
X224362914Y-195085771D02*
X225362914Y-195085771D01*
X224720057Y-196585771D01*
X226220057Y-195085771D02*
X226362914Y-195085771D01*
X226505771Y-195157200D01*
X226577200Y-195228628D01*
X226648628Y-195371485D01*
X226720057Y-195657200D01*
X226720057Y-196014342D01*
X226648628Y-196300057D01*
X226577200Y-196442914D01*
X226505771Y-196514342D01*
X226362914Y-196585771D01*
X226220057Y-196585771D01*
X226077200Y-196514342D01*
X226005771Y-196442914D01*
X225934342Y-196300057D01*
X225862914Y-196014342D01*
X225862914Y-195657200D01*
X225934342Y-195371485D01*
X226005771Y-195228628D01*
X226077200Y-195157200D01*
X226220057Y-195085771D01*
X228077200Y-195085771D02*
X227362914Y-195085771D01*
X227291485Y-195800057D01*
X227362914Y-195728628D01*
X227505771Y-195657200D01*
X227862914Y-195657200D01*
X228005771Y-195728628D01*
X228077200Y-195800057D01*
X228148628Y-195942914D01*
X228148628Y-196300057D01*
X228077200Y-196442914D01*
X228005771Y-196514342D01*
X227862914Y-196585771D01*
X227505771Y-196585771D01*
X227362914Y-196514342D01*
X227291485Y-196442914D01*
X228648628Y-195085771D02*
X229648628Y-195085771D01*
X229005771Y-196585771D01*
X230077199Y-197157200D02*
X230148628Y-197085771D01*
X230291485Y-196871485D01*
X230362914Y-196728628D01*
X230434342Y-196514342D01*
X230505771Y-196157200D01*
X230505771Y-195871485D01*
X230434342Y-195514342D01*
X230362914Y-195300057D01*
X230291485Y-195157200D01*
X230148628Y-194942914D01*
X230077199Y-194871485D01*
X231220057Y-196014342D02*
X232362914Y-196014342D01*
X233077199Y-195585771D02*
X233077199Y-197085771D01*
X233077199Y-195657200D02*
X233220057Y-195585771D01*
X233505771Y-195585771D01*
X233648628Y-195657200D01*
X233720057Y-195728628D01*
X233791485Y-195871485D01*
X233791485Y-196300057D01*
X233720057Y-196442914D01*
X233648628Y-196514342D01*
X233505771Y-196585771D01*
X233220057Y-196585771D01*
X233077199Y-196514342D01*
X234434342Y-196585771D02*
X234434342Y-195585771D01*
X234434342Y-195871485D02*
X234505771Y-195728628D01*
X234577199Y-195657200D01*
X234720057Y-195585771D01*
X234862914Y-195585771D01*
X235577199Y-196585771D02*
X235434342Y-196514342D01*
X235362914Y-196442914D01*
X235291485Y-196300057D01*
X235291485Y-195871485D01*
X235362914Y-195728628D01*
X235434342Y-195657200D01*
X235577199Y-195585771D01*
X235791485Y-195585771D01*
X235934342Y-195657200D01*
X236005771Y-195728628D01*
X236077199Y-195871485D01*
X236077199Y-196300057D01*
X236005771Y-196442914D01*
X235934342Y-196514342D01*
X235791485Y-196585771D01*
X235577199Y-196585771D01*
X237362914Y-196585771D02*
X237362914Y-195085771D01*
X237362914Y-196514342D02*
X237220057Y-196585771D01*
X236934342Y-196585771D01*
X236791485Y-196514342D01*
X236720057Y-196442914D01*
X236648628Y-196300057D01*
X236648628Y-195871485D01*
X236720057Y-195728628D01*
X236791485Y-195657200D01*
X236934342Y-195585771D01*
X237220057Y-195585771D01*
X237362914Y-195657200D01*
X238720057Y-195585771D02*
X238720057Y-196585771D01*
X238077199Y-195585771D02*
X238077199Y-196371485D01*
X238148628Y-196514342D01*
X238291485Y-196585771D01*
X238505771Y-196585771D01*
X238648628Y-196514342D01*
X238720057Y-196442914D01*
X240077199Y-196514342D02*
X239934342Y-196585771D01*
X239648628Y-196585771D01*
X239505771Y-196514342D01*
X239434342Y-196442914D01*
X239362914Y-196300057D01*
X239362914Y-195871485D01*
X239434342Y-195728628D01*
X239505771Y-195657200D01*
X239648628Y-195585771D01*
X239934342Y-195585771D01*
X240077199Y-195657200D01*
X240505771Y-195585771D02*
X241077199Y-195585771D01*
X240720057Y-195085771D02*
X240720057Y-196371485D01*
X240791485Y-196514342D01*
X240934342Y-196585771D01*
X241077199Y-196585771D01*
D10*
D11*
X177002200Y-191507200D02*
X285002200Y-191507200D01*
D10*
D12*
X264411485Y-193785771D02*
X263911485Y-193071485D01*
X263554342Y-193785771D02*
X263554342Y-192285771D01*
X264125771Y-192285771D01*
X264268628Y-192357200D01*
X264340057Y-192428628D01*
X264411485Y-192571485D01*
X264411485Y-192785771D01*
X264340057Y-192928628D01*
X264268628Y-193000057D01*
X264125771Y-193071485D01*
X263554342Y-193071485D01*
X265625771Y-193714342D02*
X265482914Y-193785771D01*
X265197200Y-193785771D01*
X265054342Y-193714342D01*
X264982914Y-193571485D01*
X264982914Y-193000057D01*
X265054342Y-192857200D01*
X265197200Y-192785771D01*
X265482914Y-192785771D01*
X265625771Y-192857200D01*
X265697200Y-193000057D01*
X265697200Y-193142914D01*
X264982914Y-193285771D01*
X266197200Y-192785771D02*
X266554342Y-193785771D01*
X266911485Y-192785771D01*
X267482914Y-193642914D02*
X267554342Y-193714342D01*
X267482914Y-193785771D01*
X267411485Y-193714342D01*
X267482914Y-193642914D01*
X267482914Y-193785771D01*
X267482914Y-192857200D02*
X267554342Y-192928628D01*
X267482914Y-193000057D01*
X267411485Y-192928628D01*
X267482914Y-192857200D01*
X267482914Y-193000057D01*
D10*
D11*
X178362914Y-193714342D02*
X178577200Y-193785771D01*
X178934342Y-193785771D01*
X179077200Y-193714342D01*
X179148628Y-193642914D01*
X179220057Y-193500057D01*
X179220057Y-193357200D01*
X179148628Y-193214342D01*
X179077200Y-193142914D01*
X178934342Y-193071485D01*
X178648628Y-193000057D01*
X178505771Y-192928628D01*
X178434342Y-192857200D01*
X178362914Y-192714342D01*
X178362914Y-192571485D01*
X178434342Y-192428628D01*
X178505771Y-192357200D01*
X178648628Y-192285771D01*
X179005771Y-192285771D01*
X179220057Y-192357200D01*
X179862914Y-193785771D02*
X179862914Y-192785771D01*
X179862914Y-192285771D02*
X179791485Y-192357200D01*
X179862914Y-192428628D01*
X179934342Y-192357200D01*
X179862914Y-192285771D01*
X179862914Y-192428628D01*
X180434342Y-192785771D02*
X181220057Y-192785771D01*
X180434342Y-193785771D01*
X181220057Y-193785771D01*
X182362914Y-193714342D02*
X182220057Y-193785771D01*
X181934342Y-193785771D01*
X181791485Y-193714342D01*
X181720057Y-193571485D01*
X181720057Y-193000057D01*
X181791485Y-192857200D01*
X181934342Y-192785771D01*
X182220057Y-192785771D01*
X182362914Y-192857200D01*
X182434342Y-193000057D01*
X182434342Y-193142914D01*
X181720057Y-193285771D01*
X183077200Y-193642914D02*
X183148628Y-193714342D01*
X183077200Y-193785771D01*
X183005771Y-193714342D01*
X183077200Y-193642914D01*
X183077200Y-193785771D01*
X183077200Y-192857200D02*
X183148628Y-192928628D01*
X183077200Y-193000057D01*
X183005771Y-192928628D01*
X183077200Y-192857200D01*
X183077200Y-193000057D01*
X184862914Y-193357200D02*
X185577200Y-193357200D01*
X184720057Y-193785771D02*
X185220057Y-192285771D01*
X185720057Y-193785771D01*
X186862914Y-192785771D02*
X186862914Y-193785771D01*
X186505771Y-192214342D02*
X186148628Y-193285771D01*
X187077200Y-193285771D01*
D10*
D11*
X263434342Y-196585771D02*
X263434342Y-195085771D01*
X264791485Y-196585771D02*
X264791485Y-195085771D01*
X264791485Y-196514342D02*
X264648628Y-196585771D01*
X264362914Y-196585771D01*
X264220057Y-196514342D01*
X264148628Y-196442914D01*
X264077200Y-196300057D01*
X264077200Y-195871485D01*
X264148628Y-195728628D01*
X264220057Y-195657200D01*
X264362914Y-195585771D01*
X264648628Y-195585771D01*
X264791485Y-195657200D01*
X265505771Y-196442914D02*
X265577200Y-196514342D01*
X265505771Y-196585771D01*
X265434342Y-196514342D01*
X265505771Y-196442914D01*
X265505771Y-196585771D01*
X265505771Y-195657200D02*
X265577200Y-195728628D01*
X265505771Y-195800057D01*
X265434342Y-195728628D01*
X265505771Y-195657200D01*
X265505771Y-195800057D01*
X268148628Y-196585771D02*
X267291485Y-196585771D01*
X267720057Y-196585771D02*
X267720057Y-195085771D01*
X267577200Y-195300057D01*
X267434342Y-195442914D01*
X267291485Y-195514342D01*
X269862914Y-195014342D02*
X268577200Y-196942914D01*
X271148628Y-196585771D02*
X270291485Y-196585771D01*
X270720057Y-196585771D02*
X270720057Y-195085771D01*
X270577200Y-195300057D01*
X270434342Y-195442914D01*
X270291485Y-195514342D01*
D10*
D11*
X177002200Y-187507200D02*
X285002200Y-187507200D01*
D10*
D13*
X178714580Y-188211961D02*
X179857438Y-188211961D01*
X179036009Y-190211961D02*
X179286009Y-188211961D01*
X180274104Y-190211961D02*
X180440771Y-188878628D01*
X180524104Y-188211961D02*
X180416961Y-188307200D01*
X180500295Y-188402438D01*
X180607438Y-188307200D01*
X180524104Y-188211961D01*
X180500295Y-188402438D01*
X181107438Y-188878628D02*
X181869342Y-188878628D01*
X181476485Y-188211961D02*
X181262200Y-189926247D01*
X181333628Y-190116723D01*
X181512200Y-190211961D01*
X181702676Y-190211961D01*
X182655057Y-190211961D02*
X182476485Y-190116723D01*
X182405057Y-189926247D01*
X182619342Y-188211961D01*
X184190771Y-190116723D02*
X183988390Y-190211961D01*
X183607438Y-190211961D01*
X183428866Y-190116723D01*
X183357438Y-189926247D01*
X183452676Y-189164342D01*
X183571723Y-188973866D01*
X183774104Y-188878628D01*
X184155057Y-188878628D01*
X184333628Y-188973866D01*
X184405057Y-189164342D01*
X184381247Y-189354819D01*
X183405057Y-189545295D01*
X185155057Y-190021485D02*
X185238390Y-190116723D01*
X185131247Y-190211961D01*
X185047914Y-190116723D01*
X185155057Y-190021485D01*
X185131247Y-190211961D01*
X185286009Y-188973866D02*
X185369342Y-189069104D01*
X185262200Y-189164342D01*
X185178866Y-189069104D01*
X185286009Y-188973866D01*
X185262200Y-189164342D01*
D10*
D11*
X178934342Y-185600057D02*
X178434342Y-185600057D01*
X178434342Y-186385771D02*
X178434342Y-184885771D01*
X179148628Y-184885771D01*
X179720057Y-186385771D02*
X179720057Y-185385771D01*
X179720057Y-184885771D02*
X179648628Y-184957200D01*
X179720057Y-185028628D01*
X179791485Y-184957200D01*
X179720057Y-184885771D01*
X179720057Y-185028628D01*
X180648628Y-186385771D02*
X180505771Y-186314342D01*
X180434342Y-186171485D01*
X180434342Y-184885771D01*
X181791485Y-186314342D02*
X181648628Y-186385771D01*
X181362914Y-186385771D01*
X181220057Y-186314342D01*
X181148628Y-186171485D01*
X181148628Y-185600057D01*
X181220057Y-185457200D01*
X181362914Y-185385771D01*
X181648628Y-185385771D01*
X181791485Y-185457200D01*
X181862914Y-185600057D01*
X181862914Y-185742914D01*
X181148628Y-185885771D01*
X182505771Y-186242914D02*
X182577200Y-186314342D01*
X182505771Y-186385771D01*
X182434342Y-186314342D01*
X182505771Y-186242914D01*
X182505771Y-186385771D01*
X182505771Y-185457200D02*
X182577200Y-185528628D01*
X182505771Y-185600057D01*
X182434342Y-185528628D01*
X182505771Y-185457200D01*
X182505771Y-185600057D01*
X184291485Y-186314342D02*
X184434342Y-186385771D01*
X184720057Y-186385771D01*
X184862914Y-186314342D01*
X184934342Y-186171485D01*
X184934342Y-186100057D01*
X184862914Y-185957200D01*
X184720057Y-185885771D01*
X184505771Y-185885771D01*
X184362914Y-185814342D01*
X184291485Y-185671485D01*
X184291485Y-185600057D01*
X184362914Y-185457200D01*
X184505771Y-185385771D01*
X184720057Y-185385771D01*
X184862914Y-185457200D01*
X185362914Y-185385771D02*
X185934342Y-185385771D01*
X185577200Y-184885771D02*
X185577200Y-186171485D01*
X185648628Y-186314342D01*
X185791485Y-186385771D01*
X185934342Y-186385771D01*
X187005771Y-186314342D02*
X186862914Y-186385771D01*
X186577200Y-186385771D01*
X186434342Y-186314342D01*
X186362914Y-186171485D01*
X186362914Y-185600057D01*
X186434342Y-185457200D01*
X186577200Y-185385771D01*
X186862914Y-185385771D01*
X187005771Y-185457200D01*
X187077200Y-185600057D01*
X187077200Y-185742914D01*
X186362914Y-185885771D01*
X187720057Y-185385771D02*
X187720057Y-186885771D01*
X187720057Y-185457200D02*
X187862914Y-185385771D01*
X188148628Y-185385771D01*
X188291485Y-185457200D01*
X188362914Y-185528628D01*
X188434342Y-185671485D01*
X188434342Y-186100057D01*
X188362914Y-186242914D01*
X188291485Y-186314342D01*
X188148628Y-186385771D01*
X187862914Y-186385771D01*
X187720057Y-186314342D01*
X189077200Y-185385771D02*
X189077200Y-186885771D01*
X189077200Y-185457200D02*
X189220057Y-185385771D01*
X189505771Y-185385771D01*
X189648628Y-185457200D01*
X189720057Y-185528628D01*
X189791485Y-185671485D01*
X189791485Y-186100057D01*
X189720057Y-186242914D01*
X189648628Y-186314342D01*
X189505771Y-186385771D01*
X189220057Y-186385771D01*
X189077200Y-186314342D01*
X191005771Y-186314342D02*
X190862914Y-186385771D01*
X190577200Y-186385771D01*
X190434342Y-186314342D01*
X190362914Y-186171485D01*
X190362914Y-185600057D01*
X190434342Y-185457200D01*
X190577200Y-185385771D01*
X190862914Y-185385771D01*
X191005771Y-185457200D01*
X191077200Y-185600057D01*
X191077200Y-185742914D01*
X190362914Y-185885771D01*
X191720057Y-186385771D02*
X191720057Y-185385771D01*
X191720057Y-185671485D02*
X191791485Y-185528628D01*
X191862914Y-185457200D01*
X192005771Y-185385771D01*
X192148628Y-185385771D01*
X192648628Y-186242914D02*
X192720057Y-186314342D01*
X192648628Y-186385771D01*
X192577200Y-186314342D01*
X192648628Y-186242914D01*
X192648628Y-186385771D01*
X193362914Y-186385771D02*
X193362914Y-184885771D01*
X193505771Y-185814342D02*
X193934342Y-186385771D01*
X193934342Y-185385771D02*
X193362914Y-185957200D01*
X194577200Y-186385771D02*
X194577200Y-185385771D01*
X194577200Y-184885771D02*
X194505771Y-184957200D01*
X194577200Y-185028628D01*
X194648628Y-184957200D01*
X194577200Y-184885771D01*
X194577200Y-185028628D01*
X195934342Y-186314342D02*
X195791485Y-186385771D01*
X195505771Y-186385771D01*
X195362914Y-186314342D01*
X195291485Y-186242914D01*
X195220057Y-186100057D01*
X195220057Y-185671485D01*
X195291485Y-185528628D01*
X195362914Y-185457200D01*
X195505771Y-185385771D01*
X195791485Y-185385771D01*
X195934342Y-185457200D01*
X197220057Y-186385771D02*
X197220057Y-185600057D01*
X197148628Y-185457200D01*
X197005771Y-185385771D01*
X196720057Y-185385771D01*
X196577200Y-185457200D01*
X197220057Y-186314342D02*
X197077200Y-186385771D01*
X196720057Y-186385771D01*
X196577200Y-186314342D01*
X196505771Y-186171485D01*
X196505771Y-186028628D01*
X196577200Y-185885771D01*
X196720057Y-185814342D01*
X197077200Y-185814342D01*
X197220057Y-185742914D01*
X198577200Y-186385771D02*
X198577200Y-184885771D01*
X198577200Y-186314342D02*
X198434342Y-186385771D01*
X198148628Y-186385771D01*
X198005771Y-186314342D01*
X197934342Y-186242914D01*
X197862914Y-186100057D01*
X197862914Y-185671485D01*
X197934342Y-185528628D01*
X198005771Y-185457200D01*
X198148628Y-185385771D01*
X198434342Y-185385771D01*
X198577200Y-185457200D01*
X198934342Y-186528628D02*
X200077200Y-186528628D01*
X200434342Y-185385771D02*
X200434342Y-186885771D01*
X200434342Y-185457200D02*
X200577200Y-185385771D01*
X200862914Y-185385771D01*
X201005771Y-185457200D01*
X201077200Y-185528628D01*
X201148628Y-185671485D01*
X201148628Y-186100057D01*
X201077200Y-186242914D01*
X201005771Y-186314342D01*
X200862914Y-186385771D01*
X200577200Y-186385771D01*
X200434342Y-186314342D01*
X202434342Y-186314342D02*
X202291485Y-186385771D01*
X202005771Y-186385771D01*
X201862914Y-186314342D01*
X201791485Y-186242914D01*
X201720057Y-186100057D01*
X201720057Y-185671485D01*
X201791485Y-185528628D01*
X201862914Y-185457200D01*
X202005771Y-185385771D01*
X202291485Y-185385771D01*
X202434342Y-185457200D01*
X203077200Y-186385771D02*
X203077200Y-184885771D01*
X203077200Y-185457200D02*
X203220057Y-185385771D01*
X203505771Y-185385771D01*
X203648628Y-185457200D01*
X203720057Y-185528628D01*
X203791485Y-185671485D01*
X203791485Y-186100057D01*
X203720057Y-186242914D01*
X203648628Y-186314342D01*
X203505771Y-186385771D01*
X203220057Y-186385771D01*
X203077200Y-186314342D01*
D10*
D11*
X177002200Y-181507200D02*
X285002200Y-181507200D01*
D10*
D11*
X178362914Y-183614342D02*
X178577200Y-183685771D01*
X178934342Y-183685771D01*
X179077200Y-183614342D01*
X179148628Y-183542914D01*
X179220057Y-183400057D01*
X179220057Y-183257200D01*
X179148628Y-183114342D01*
X179077200Y-183042914D01*
X178934342Y-182971485D01*
X178648628Y-182900057D01*
X178505771Y-182828628D01*
X178434342Y-182757200D01*
X178362914Y-182614342D01*
X178362914Y-182471485D01*
X178434342Y-182328628D01*
X178505771Y-182257200D01*
X178648628Y-182185771D01*
X179005771Y-182185771D01*
X179220057Y-182257200D01*
X179862914Y-183685771D02*
X179862914Y-182185771D01*
X180505771Y-183685771D02*
X180505771Y-182900057D01*
X180434342Y-182757200D01*
X180291485Y-182685771D01*
X180077200Y-182685771D01*
X179934342Y-182757200D01*
X179862914Y-182828628D01*
X181791485Y-183614342D02*
X181648628Y-183685771D01*
X181362914Y-183685771D01*
X181220057Y-183614342D01*
X181148628Y-183471485D01*
X181148628Y-182900057D01*
X181220057Y-182757200D01*
X181362914Y-182685771D01*
X181648628Y-182685771D01*
X181791485Y-182757200D01*
X181862914Y-182900057D01*
X181862914Y-183042914D01*
X181148628Y-183185771D01*
X183077200Y-183614342D02*
X182934342Y-183685771D01*
X182648628Y-183685771D01*
X182505771Y-183614342D01*
X182434342Y-183471485D01*
X182434342Y-182900057D01*
X182505771Y-182757200D01*
X182648628Y-182685771D01*
X182934342Y-182685771D01*
X183077200Y-182757200D01*
X183148628Y-182900057D01*
X183148628Y-183042914D01*
X182434342Y-183185771D01*
X183577200Y-182685771D02*
X184148628Y-182685771D01*
X183791485Y-182185771D02*
X183791485Y-183471485D01*
X183862914Y-183614342D01*
X184005771Y-183685771D01*
X184148628Y-183685771D01*
X184648628Y-183542914D02*
X184720057Y-183614342D01*
X184648628Y-183685771D01*
X184577200Y-183614342D01*
X184648628Y-183542914D01*
X184648628Y-183685771D01*
X184648628Y-182757200D02*
X184720057Y-182828628D01*
X184648628Y-182900057D01*
X184577200Y-182828628D01*
X184648628Y-182757200D01*
X184648628Y-182900057D01*
D10*
D11*
X197002200Y-191507200D02*
X197002200Y-194507200D01*
D10*
D11*
X261002200Y-191507200D02*
X261002200Y-198007200D01*
X139700000Y-115570000D02*
G75*
G03X142240000Y-118110000I2540000J0D01*
G01*
X208280000Y-118110000D02*
G75*
G03X210820000Y-115570000I0J2540000D01*
G01*
X142240000Y-17780000D02*
G75*
G03X139700000Y-20320000I0J-2540000D01*
G01*
X210820000Y-115570000D02*
X210820000Y-20320000D01*
X210820000Y-20320000D02*
G75*
G03X208280000Y-17780000I-2540000J0D01*
G01*
X142240000Y-118110000D02*
X208280000Y-118110000D01*
X139700000Y-20320000D02*
X139700000Y-115570000D01*
X208280000Y-17780000D02*
X142240000Y-17780000D01*
X153353000Y-86162000D02*
X153353000Y-87162000D01*
X153353000Y-87162000D02*
X152353000Y-87162000D01*
X152353000Y-86162000D02*
X162353000Y-86162000D01*
X162353000Y-86162000D02*
X162353000Y-93162000D01*
X162353000Y-93162000D02*
X152353000Y-93162000D01*
X152353000Y-93162000D02*
X152353000Y-86162000D01*
X175594000Y-93162000D02*
X175594000Y-86162000D01*
X185594000Y-93162000D02*
X175594000Y-93162000D01*
X185594000Y-86162000D02*
X185594000Y-93162000D01*
X175594000Y-86162000D02*
X185594000Y-86162000D01*
X176594000Y-87162000D02*
X175594000Y-87162000D01*
X176594000Y-86162000D02*
X176594000Y-87162000D01*
X165418000Y-86162000D02*
X165418000Y-87162000D01*
X165418000Y-87162000D02*
X164418000Y-87162000D01*
X164418000Y-86162000D02*
X174418000Y-86162000D01*
X174418000Y-86162000D02*
X174418000Y-93162000D01*
X174418000Y-93162000D02*
X164418000Y-93162000D01*
X164418000Y-93162000D02*
X164418000Y-86162000D01*
X189040000Y-101910000D02*
X189040000Y-102910000D01*
X189040000Y-102910000D02*
X188040000Y-102910000D01*
X188040000Y-101910000D02*
X198040000Y-101910000D01*
X198040000Y-101910000D02*
X198040000Y-108910000D01*
X198040000Y-108910000D02*
X188040000Y-108910000D01*
X188040000Y-108910000D02*
X188040000Y-101910000D01*
X188040000Y-100972500D02*
X188040000Y-93972500D01*
X198040000Y-100972500D02*
X188040000Y-100972500D01*
X198040000Y-93972500D02*
X198040000Y-100972500D01*
X188040000Y-93972500D02*
X198040000Y-93972500D01*
X189040000Y-94972500D02*
X188040000Y-94972500D01*
X189040000Y-93972500D02*
X189040000Y-94972500D01*
X188913000Y-86162000D02*
X188913000Y-87162000D01*
X188913000Y-87162000D02*
X187913000Y-87162000D01*
X187913000Y-86162000D02*
X197913000Y-86162000D01*
X197913000Y-86162000D02*
X197913000Y-93162000D01*
X197913000Y-93162000D02*
X187913000Y-93162000D01*
X187913000Y-93162000D02*
X187913000Y-86162000D01*
X167340000Y-112795000D02*
X167940000Y-112795000D01*
X167640000Y-112695000D02*
X167340000Y-112395000D01*
X167940000Y-112395000D02*
X167640000Y-112695000D01*
X167340000Y-112395000D02*
X167940000Y-112395000D01*
X167040000Y-111395000D02*
X167040000Y-113395000D01*
X168240000Y-111395000D02*
X167040000Y-111395000D01*
X168240000Y-113395000D02*
X168240000Y-111395000D01*
X167040000Y-113395000D02*
X168240000Y-113395000D01*
X163276000Y-112668000D02*
X163876000Y-112668000D01*
X163576000Y-112568000D02*
X163276000Y-112268000D01*
X163876000Y-112268000D02*
X163576000Y-112568000D01*
X163276000Y-112268000D02*
X163876000Y-112268000D01*
X162976000Y-111268000D02*
X162976000Y-113268000D01*
X164176000Y-111268000D02*
X162976000Y-111268000D01*
X164176000Y-113268000D02*
X164176000Y-111268000D01*
X162976000Y-113268000D02*
X164176000Y-113268000D01*
X186990000Y-111962000D02*
X186390000Y-111962000D01*
X186690000Y-112062000D02*
X186990000Y-112362000D01*
X186390000Y-112362000D02*
X186690000Y-112062000D01*
X186990000Y-112362000D02*
X186390000Y-112362000D01*
X187290000Y-113362000D02*
X187290000Y-111362000D01*
X186090000Y-113362000D02*
X187290000Y-113362000D01*
X186090000Y-111362000D02*
X186090000Y-113362000D01*
X187290000Y-111362000D02*
X186090000Y-111362000D01*
X183180000Y-111995000D02*
X182580000Y-111995000D01*
X182880000Y-112095000D02*
X183180000Y-112395000D01*
X182580000Y-112395000D02*
X182880000Y-112095000D01*
X183180000Y-112395000D02*
X182580000Y-112395000D01*
X183480000Y-113395000D02*
X183480000Y-111395000D01*
X182280000Y-113395000D02*
X183480000Y-113395000D01*
X182280000Y-111395000D02*
X182280000Y-113395000D01*
X183480000Y-111395000D02*
X182280000Y-111395000D01*
X179370000Y-111995000D02*
X178770000Y-111995000D01*
X179070000Y-112095000D02*
X179370000Y-112395000D01*
X178770000Y-112395000D02*
X179070000Y-112095000D01*
X179370000Y-112395000D02*
X178770000Y-112395000D01*
X179670000Y-113395000D02*
X179670000Y-111395000D01*
X178470000Y-113395000D02*
X179670000Y-113395000D01*
X178470000Y-111395000D02*
X178470000Y-113395000D01*
X179670000Y-111395000D02*
X178470000Y-111395000D01*
X171750000Y-111995000D02*
X171150000Y-111995000D01*
X171450000Y-112095000D02*
X171750000Y-112395000D01*
X171150000Y-112395000D02*
X171450000Y-112095000D01*
X171750000Y-112395000D02*
X171150000Y-112395000D01*
X172050000Y-113395000D02*
X172050000Y-111395000D01*
X170850000Y-113395000D02*
X172050000Y-113395000D01*
X170850000Y-111395000D02*
X170850000Y-113395000D01*
X172050000Y-111395000D02*
X170850000Y-111395000D01*
X174960000Y-112795000D02*
X175560000Y-112795000D01*
X175260000Y-112695000D02*
X174960000Y-112395000D01*
X175560000Y-112395000D02*
X175260000Y-112695000D01*
X174960000Y-112395000D02*
X175560000Y-112395000D01*
X174660000Y-111395000D02*
X174660000Y-113395000D01*
X175860000Y-111395000D02*
X174660000Y-111395000D01*
X175860000Y-113395000D02*
X175860000Y-111395000D01*
X174660000Y-113395000D02*
X175860000Y-113395000D01*
X154940000Y-83312000D02*
G75*
G03X157480000Y-85852000I2540000J0D01*
G01*
X157480000Y-68072000D02*
G75*
G03X154940000Y-70612000I0J-2540000D01*
G01*
X193040000Y-85852000D02*
G75*
G03X195580000Y-83312000I0J2540000D01*
G01*
X195580000Y-70612000D02*
G75*
G03X193040000Y-68072000I-2540000J0D01*
G01*
X195580000Y-70612000D02*
X195580000Y-83312000D01*
X193040000Y-85852000D02*
X157480000Y-85852000D01*
X154940000Y-83312000D02*
X154940000Y-70612000D01*
X193040000Y-68072000D02*
X157480000Y-68072000D01*
X144709523Y-118274380D02*
X144709523Y-117274380D01*
X145042857Y-117988666D01*
X145376190Y-117274380D01*
X145376190Y-118274380D01*
X145995238Y-118274380D02*
X145900000Y-118226761D01*
X145852380Y-118179142D01*
X145804761Y-118083904D01*
X145804761Y-117798190D01*
X145852380Y-117702952D01*
X145900000Y-117655333D01*
X145995238Y-117607714D01*
X146138095Y-117607714D01*
X146233333Y-117655333D01*
X146280952Y-117702952D01*
X146328571Y-117798190D01*
X146328571Y-118083904D01*
X146280952Y-118179142D01*
X146233333Y-118226761D01*
X146138095Y-118274380D01*
X145995238Y-118274380D01*
X147185714Y-117607714D02*
X147185714Y-118274380D01*
X146757142Y-117607714D02*
X146757142Y-118131523D01*
X146804761Y-118226761D01*
X146900000Y-118274380D01*
X147042857Y-118274380D01*
X147138095Y-118226761D01*
X147185714Y-118179142D01*
X147661904Y-117607714D02*
X147661904Y-118274380D01*
X147661904Y-117702952D02*
X147709523Y-117655333D01*
X147804761Y-117607714D01*
X147947619Y-117607714D01*
X148042857Y-117655333D01*
X148090476Y-117750571D01*
X148090476Y-118274380D01*
X148423809Y-117607714D02*
X148804761Y-117607714D01*
X148566666Y-117274380D02*
X148566666Y-118131523D01*
X148614285Y-118226761D01*
X148709523Y-118274380D01*
X148804761Y-118274380D01*
X149138095Y-118274380D02*
X149138095Y-117607714D01*
X149138095Y-117274380D02*
X149090476Y-117322000D01*
X149138095Y-117369619D01*
X149185714Y-117322000D01*
X149138095Y-117274380D01*
X149138095Y-117369619D01*
X149614285Y-117607714D02*
X149614285Y-118274380D01*
X149614285Y-117702952D02*
X149661904Y-117655333D01*
X149757142Y-117607714D01*
X149900000Y-117607714D01*
X149995238Y-117655333D01*
X150042857Y-117750571D01*
X150042857Y-118274380D01*
X150947619Y-117607714D02*
X150947619Y-118417238D01*
X150900000Y-118512476D01*
X150852380Y-118560095D01*
X150757142Y-118607714D01*
X150614285Y-118607714D01*
X150519047Y-118560095D01*
X150947619Y-118226761D02*
X150852380Y-118274380D01*
X150661904Y-118274380D01*
X150566666Y-118226761D01*
X150519047Y-118179142D01*
X150471428Y-118083904D01*
X150471428Y-117798190D01*
X150519047Y-117702952D01*
X150566666Y-117655333D01*
X150661904Y-117607714D01*
X150852380Y-117607714D01*
X150947619Y-117655333D01*
X151423809Y-118274380D02*
X151423809Y-117274380D01*
X151423809Y-117750571D02*
X151995238Y-117750571D01*
X151995238Y-118274380D02*
X151995238Y-117274380D01*
X152614285Y-118274380D02*
X152519047Y-118226761D01*
X152471428Y-118179142D01*
X152423809Y-118083904D01*
X152423809Y-117798190D01*
X152471428Y-117702952D01*
X152519047Y-117655333D01*
X152614285Y-117607714D01*
X152757142Y-117607714D01*
X152852380Y-117655333D01*
X152900000Y-117702952D01*
X152947619Y-117798190D01*
X152947619Y-118083904D01*
X152900000Y-118179142D01*
X152852380Y-118226761D01*
X152757142Y-118274380D01*
X152614285Y-118274380D01*
X153519047Y-118274380D02*
X153423809Y-118226761D01*
X153376190Y-118131523D01*
X153376190Y-117274380D01*
X154280952Y-118226761D02*
X154185714Y-118274380D01*
X153995238Y-118274380D01*
X153900000Y-118226761D01*
X153852380Y-118131523D01*
X153852380Y-117750571D01*
X153900000Y-117655333D01*
X153995238Y-117607714D01*
X154185714Y-117607714D01*
X154280952Y-117655333D01*
X154328571Y-117750571D01*
X154328571Y-117845809D01*
X153852380Y-117941047D01*
X154519047Y-118369619D02*
X155280952Y-118369619D01*
X155423809Y-117274380D02*
X156042857Y-117274380D01*
X155709523Y-117655333D01*
X155852380Y-117655333D01*
X155947619Y-117702952D01*
X155995238Y-117750571D01*
X156042857Y-117845809D01*
X156042857Y-118083904D01*
X155995238Y-118179142D01*
X155947619Y-118226761D01*
X155852380Y-118274380D01*
X155566666Y-118274380D01*
X155471428Y-118226761D01*
X155423809Y-118179142D01*
X156471428Y-118179142D02*
X156519047Y-118226761D01*
X156471428Y-118274380D01*
X156423809Y-118226761D01*
X156471428Y-118179142D01*
X156471428Y-118274380D01*
X157471428Y-118274380D02*
X156900000Y-118274380D01*
X157185714Y-118274380D02*
X157185714Y-117274380D01*
X157090476Y-117417238D01*
X156995238Y-117512476D01*
X156900000Y-117560095D01*
X157900000Y-118274380D02*
X157900000Y-117607714D01*
X157900000Y-117702952D02*
X157947619Y-117655333D01*
X158042857Y-117607714D01*
X158185714Y-117607714D01*
X158280952Y-117655333D01*
X158328571Y-117750571D01*
X158328571Y-118274380D01*
X158328571Y-117750571D02*
X158376190Y-117655333D01*
X158471428Y-117607714D01*
X158614285Y-117607714D01*
X158709523Y-117655333D01*
X158757142Y-117750571D01*
X158757142Y-118274380D01*
X159233333Y-118274380D02*
X159233333Y-117607714D01*
X159233333Y-117702952D02*
X159280952Y-117655333D01*
X159376190Y-117607714D01*
X159519047Y-117607714D01*
X159614285Y-117655333D01*
X159661904Y-117750571D01*
X159661904Y-118274380D01*
X159661904Y-117750571D02*
X159709523Y-117655333D01*
X159804761Y-117607714D01*
X159947619Y-117607714D01*
X160042857Y-117655333D01*
X160090476Y-117750571D01*
X160090476Y-118274380D01*
X190429523Y-118274380D02*
X190429523Y-117274380D01*
X190762857Y-117988666D01*
X191096190Y-117274380D01*
X191096190Y-118274380D01*
X191715238Y-118274380D02*
X191620000Y-118226761D01*
X191572380Y-118179142D01*
X191524761Y-118083904D01*
X191524761Y-117798190D01*
X191572380Y-117702952D01*
X191620000Y-117655333D01*
X191715238Y-117607714D01*
X191858095Y-117607714D01*
X191953333Y-117655333D01*
X192000952Y-117702952D01*
X192048571Y-117798190D01*
X192048571Y-118083904D01*
X192000952Y-118179142D01*
X191953333Y-118226761D01*
X191858095Y-118274380D01*
X191715238Y-118274380D01*
X192905714Y-117607714D02*
X192905714Y-118274380D01*
X192477142Y-117607714D02*
X192477142Y-118131523D01*
X192524761Y-118226761D01*
X192620000Y-118274380D01*
X192762857Y-118274380D01*
X192858095Y-118226761D01*
X192905714Y-118179142D01*
X193381904Y-117607714D02*
X193381904Y-118274380D01*
X193381904Y-117702952D02*
X193429523Y-117655333D01*
X193524761Y-117607714D01*
X193667619Y-117607714D01*
X193762857Y-117655333D01*
X193810476Y-117750571D01*
X193810476Y-118274380D01*
X194143809Y-117607714D02*
X194524761Y-117607714D01*
X194286666Y-117274380D02*
X194286666Y-118131523D01*
X194334285Y-118226761D01*
X194429523Y-118274380D01*
X194524761Y-118274380D01*
X194858095Y-118274380D02*
X194858095Y-117607714D01*
X194858095Y-117274380D02*
X194810476Y-117322000D01*
X194858095Y-117369619D01*
X194905714Y-117322000D01*
X194858095Y-117274380D01*
X194858095Y-117369619D01*
X195334285Y-117607714D02*
X195334285Y-118274380D01*
X195334285Y-117702952D02*
X195381904Y-117655333D01*
X195477142Y-117607714D01*
X195620000Y-117607714D01*
X195715238Y-117655333D01*
X195762857Y-117750571D01*
X195762857Y-118274380D01*
X196667619Y-117607714D02*
X196667619Y-118417238D01*
X196620000Y-118512476D01*
X196572380Y-118560095D01*
X196477142Y-118607714D01*
X196334285Y-118607714D01*
X196239047Y-118560095D01*
X196667619Y-118226761D02*
X196572380Y-118274380D01*
X196381904Y-118274380D01*
X196286666Y-118226761D01*
X196239047Y-118179142D01*
X196191428Y-118083904D01*
X196191428Y-117798190D01*
X196239047Y-117702952D01*
X196286666Y-117655333D01*
X196381904Y-117607714D01*
X196572380Y-117607714D01*
X196667619Y-117655333D01*
X197143809Y-118274380D02*
X197143809Y-117274380D01*
X197143809Y-117750571D02*
X197715238Y-117750571D01*
X197715238Y-118274380D02*
X197715238Y-117274380D01*
X198334285Y-118274380D02*
X198239047Y-118226761D01*
X198191428Y-118179142D01*
X198143809Y-118083904D01*
X198143809Y-117798190D01*
X198191428Y-117702952D01*
X198239047Y-117655333D01*
X198334285Y-117607714D01*
X198477142Y-117607714D01*
X198572380Y-117655333D01*
X198620000Y-117702952D01*
X198667619Y-117798190D01*
X198667619Y-118083904D01*
X198620000Y-118179142D01*
X198572380Y-118226761D01*
X198477142Y-118274380D01*
X198334285Y-118274380D01*
X199239047Y-118274380D02*
X199143809Y-118226761D01*
X199096190Y-118131523D01*
X199096190Y-117274380D01*
X200000952Y-118226761D02*
X199905714Y-118274380D01*
X199715238Y-118274380D01*
X199620000Y-118226761D01*
X199572380Y-118131523D01*
X199572380Y-117750571D01*
X199620000Y-117655333D01*
X199715238Y-117607714D01*
X199905714Y-117607714D01*
X200000952Y-117655333D01*
X200048571Y-117750571D01*
X200048571Y-117845809D01*
X199572380Y-117941047D01*
X200239047Y-118369619D02*
X201000952Y-118369619D01*
X201143809Y-117274380D02*
X201762857Y-117274380D01*
X201429523Y-117655333D01*
X201572380Y-117655333D01*
X201667619Y-117702952D01*
X201715238Y-117750571D01*
X201762857Y-117845809D01*
X201762857Y-118083904D01*
X201715238Y-118179142D01*
X201667619Y-118226761D01*
X201572380Y-118274380D01*
X201286666Y-118274380D01*
X201191428Y-118226761D01*
X201143809Y-118179142D01*
X202191428Y-118179142D02*
X202239047Y-118226761D01*
X202191428Y-118274380D01*
X202143809Y-118226761D01*
X202191428Y-118179142D01*
X202191428Y-118274380D01*
X203191428Y-118274380D02*
X202620000Y-118274380D01*
X202905714Y-118274380D02*
X202905714Y-117274380D01*
X202810476Y-117417238D01*
X202715238Y-117512476D01*
X202620000Y-117560095D01*
X203620000Y-118274380D02*
X203620000Y-117607714D01*
X203620000Y-117702952D02*
X203667619Y-117655333D01*
X203762857Y-117607714D01*
X203905714Y-117607714D01*
X204000952Y-117655333D01*
X204048571Y-117750571D01*
X204048571Y-118274380D01*
X204048571Y-117750571D02*
X204096190Y-117655333D01*
X204191428Y-117607714D01*
X204334285Y-117607714D01*
X204429523Y-117655333D01*
X204477142Y-117750571D01*
X204477142Y-118274380D01*
X204953333Y-118274380D02*
X204953333Y-117607714D01*
X204953333Y-117702952D02*
X205000952Y-117655333D01*
X205096190Y-117607714D01*
X205239047Y-117607714D01*
X205334285Y-117655333D01*
X205381904Y-117750571D01*
X205381904Y-118274380D01*
X205381904Y-117750571D02*
X205429523Y-117655333D01*
X205524761Y-117607714D01*
X205667619Y-117607714D01*
X205762857Y-117655333D01*
X205810476Y-117750571D01*
X205810476Y-118274380D01*
X144709523Y-66712380D02*
X144709523Y-65712380D01*
X145042857Y-66426666D01*
X145376190Y-65712380D01*
X145376190Y-66712380D01*
X145995238Y-66712380D02*
X145900000Y-66664761D01*
X145852380Y-66617142D01*
X145804761Y-66521904D01*
X145804761Y-66236190D01*
X145852380Y-66140952D01*
X145900000Y-66093333D01*
X145995238Y-66045714D01*
X146138095Y-66045714D01*
X146233333Y-66093333D01*
X146280952Y-66140952D01*
X146328571Y-66236190D01*
X146328571Y-66521904D01*
X146280952Y-66617142D01*
X146233333Y-66664761D01*
X146138095Y-66712380D01*
X145995238Y-66712380D01*
X147185714Y-66045714D02*
X147185714Y-66712380D01*
X146757142Y-66045714D02*
X146757142Y-66569523D01*
X146804761Y-66664761D01*
X146900000Y-66712380D01*
X147042857Y-66712380D01*
X147138095Y-66664761D01*
X147185714Y-66617142D01*
X147661904Y-66045714D02*
X147661904Y-66712380D01*
X147661904Y-66140952D02*
X147709523Y-66093333D01*
X147804761Y-66045714D01*
X147947619Y-66045714D01*
X148042857Y-66093333D01*
X148090476Y-66188571D01*
X148090476Y-66712380D01*
X148423809Y-66045714D02*
X148804761Y-66045714D01*
X148566666Y-65712380D02*
X148566666Y-66569523D01*
X148614285Y-66664761D01*
X148709523Y-66712380D01*
X148804761Y-66712380D01*
X149138095Y-66712380D02*
X149138095Y-66045714D01*
X149138095Y-65712380D02*
X149090476Y-65760000D01*
X149138095Y-65807619D01*
X149185714Y-65760000D01*
X149138095Y-65712380D01*
X149138095Y-65807619D01*
X149614285Y-66045714D02*
X149614285Y-66712380D01*
X149614285Y-66140952D02*
X149661904Y-66093333D01*
X149757142Y-66045714D01*
X149900000Y-66045714D01*
X149995238Y-66093333D01*
X150042857Y-66188571D01*
X150042857Y-66712380D01*
X150947619Y-66045714D02*
X150947619Y-66855238D01*
X150900000Y-66950476D01*
X150852380Y-66998095D01*
X150757142Y-67045714D01*
X150614285Y-67045714D01*
X150519047Y-66998095D01*
X150947619Y-66664761D02*
X150852380Y-66712380D01*
X150661904Y-66712380D01*
X150566666Y-66664761D01*
X150519047Y-66617142D01*
X150471428Y-66521904D01*
X150471428Y-66236190D01*
X150519047Y-66140952D01*
X150566666Y-66093333D01*
X150661904Y-66045714D01*
X150852380Y-66045714D01*
X150947619Y-66093333D01*
X151423809Y-66712380D02*
X151423809Y-65712380D01*
X151423809Y-66188571D02*
X151995238Y-66188571D01*
X151995238Y-66712380D02*
X151995238Y-65712380D01*
X152614285Y-66712380D02*
X152519047Y-66664761D01*
X152471428Y-66617142D01*
X152423809Y-66521904D01*
X152423809Y-66236190D01*
X152471428Y-66140952D01*
X152519047Y-66093333D01*
X152614285Y-66045714D01*
X152757142Y-66045714D01*
X152852380Y-66093333D01*
X152900000Y-66140952D01*
X152947619Y-66236190D01*
X152947619Y-66521904D01*
X152900000Y-66617142D01*
X152852380Y-66664761D01*
X152757142Y-66712380D01*
X152614285Y-66712380D01*
X153519047Y-66712380D02*
X153423809Y-66664761D01*
X153376190Y-66569523D01*
X153376190Y-65712380D01*
X154280952Y-66664761D02*
X154185714Y-66712380D01*
X153995238Y-66712380D01*
X153900000Y-66664761D01*
X153852380Y-66569523D01*
X153852380Y-66188571D01*
X153900000Y-66093333D01*
X153995238Y-66045714D01*
X154185714Y-66045714D01*
X154280952Y-66093333D01*
X154328571Y-66188571D01*
X154328571Y-66283809D01*
X153852380Y-66379047D01*
X154519047Y-66807619D02*
X155280952Y-66807619D01*
X155423809Y-65712380D02*
X156042857Y-65712380D01*
X155709523Y-66093333D01*
X155852380Y-66093333D01*
X155947619Y-66140952D01*
X155995238Y-66188571D01*
X156042857Y-66283809D01*
X156042857Y-66521904D01*
X155995238Y-66617142D01*
X155947619Y-66664761D01*
X155852380Y-66712380D01*
X155566666Y-66712380D01*
X155471428Y-66664761D01*
X155423809Y-66617142D01*
X156471428Y-66617142D02*
X156519047Y-66664761D01*
X156471428Y-66712380D01*
X156423809Y-66664761D01*
X156471428Y-66617142D01*
X156471428Y-66712380D01*
X157471428Y-66712380D02*
X156900000Y-66712380D01*
X157185714Y-66712380D02*
X157185714Y-65712380D01*
X157090476Y-65855238D01*
X156995238Y-65950476D01*
X156900000Y-65998095D01*
X157900000Y-66712380D02*
X157900000Y-66045714D01*
X157900000Y-66140952D02*
X157947619Y-66093333D01*
X158042857Y-66045714D01*
X158185714Y-66045714D01*
X158280952Y-66093333D01*
X158328571Y-66188571D01*
X158328571Y-66712380D01*
X158328571Y-66188571D02*
X158376190Y-66093333D01*
X158471428Y-66045714D01*
X158614285Y-66045714D01*
X158709523Y-66093333D01*
X158757142Y-66188571D01*
X158757142Y-66712380D01*
X159233333Y-66712380D02*
X159233333Y-66045714D01*
X159233333Y-66140952D02*
X159280952Y-66093333D01*
X159376190Y-66045714D01*
X159519047Y-66045714D01*
X159614285Y-66093333D01*
X159661904Y-66188571D01*
X159661904Y-66712380D01*
X159661904Y-66188571D02*
X159709523Y-66093333D01*
X159804761Y-66045714D01*
X159947619Y-66045714D01*
X160042857Y-66093333D01*
X160090476Y-66188571D01*
X160090476Y-66712380D01*
X155600619Y-90023904D02*
X155600619Y-89223904D01*
X155905380Y-89223904D01*
X155981571Y-89262000D01*
X156019666Y-89300095D01*
X156057761Y-89376285D01*
X156057761Y-89490571D01*
X156019666Y-89566761D01*
X155981571Y-89604857D01*
X155905380Y-89642952D01*
X155600619Y-89642952D01*
X156857761Y-89947714D02*
X156819666Y-89985809D01*
X156705380Y-90023904D01*
X156629190Y-90023904D01*
X156514904Y-89985809D01*
X156438714Y-89909619D01*
X156400619Y-89833428D01*
X156362523Y-89681047D01*
X156362523Y-89566761D01*
X156400619Y-89414380D01*
X156438714Y-89338190D01*
X156514904Y-89262000D01*
X156629190Y-89223904D01*
X156705380Y-89223904D01*
X156819666Y-89262000D01*
X156857761Y-89300095D01*
X157314904Y-89566761D02*
X157238714Y-89528666D01*
X157200619Y-89490571D01*
X157162523Y-89414380D01*
X157162523Y-89376285D01*
X157200619Y-89300095D01*
X157238714Y-89262000D01*
X157314904Y-89223904D01*
X157467285Y-89223904D01*
X157543476Y-89262000D01*
X157581571Y-89300095D01*
X157619666Y-89376285D01*
X157619666Y-89414380D01*
X157581571Y-89490571D01*
X157543476Y-89528666D01*
X157467285Y-89566761D01*
X157314904Y-89566761D01*
X157238714Y-89604857D01*
X157200619Y-89642952D01*
X157162523Y-89719142D01*
X157162523Y-89871523D01*
X157200619Y-89947714D01*
X157238714Y-89985809D01*
X157314904Y-90023904D01*
X157467285Y-90023904D01*
X157543476Y-89985809D01*
X157581571Y-89947714D01*
X157619666Y-89871523D01*
X157619666Y-89719142D01*
X157581571Y-89642952D01*
X157543476Y-89604857D01*
X157467285Y-89566761D01*
X158381571Y-90023904D02*
X157924428Y-90023904D01*
X158153000Y-90023904D02*
X158153000Y-89223904D01*
X158076809Y-89338190D01*
X158000619Y-89414380D01*
X157924428Y-89452476D01*
X158648238Y-89223904D02*
X159181571Y-89223904D01*
X158838714Y-90023904D01*
X178841619Y-90023904D02*
X178841619Y-89223904D01*
X179146380Y-89223904D01*
X179222571Y-89262000D01*
X179260666Y-89300095D01*
X179298761Y-89376285D01*
X179298761Y-89490571D01*
X179260666Y-89566761D01*
X179222571Y-89604857D01*
X179146380Y-89642952D01*
X178841619Y-89642952D01*
X180098761Y-89947714D02*
X180060666Y-89985809D01*
X179946380Y-90023904D01*
X179870190Y-90023904D01*
X179755904Y-89985809D01*
X179679714Y-89909619D01*
X179641619Y-89833428D01*
X179603523Y-89681047D01*
X179603523Y-89566761D01*
X179641619Y-89414380D01*
X179679714Y-89338190D01*
X179755904Y-89262000D01*
X179870190Y-89223904D01*
X179946380Y-89223904D01*
X180060666Y-89262000D01*
X180098761Y-89300095D01*
X180555904Y-89566761D02*
X180479714Y-89528666D01*
X180441619Y-89490571D01*
X180403523Y-89414380D01*
X180403523Y-89376285D01*
X180441619Y-89300095D01*
X180479714Y-89262000D01*
X180555904Y-89223904D01*
X180708285Y-89223904D01*
X180784476Y-89262000D01*
X180822571Y-89300095D01*
X180860666Y-89376285D01*
X180860666Y-89414380D01*
X180822571Y-89490571D01*
X180784476Y-89528666D01*
X180708285Y-89566761D01*
X180555904Y-89566761D01*
X180479714Y-89604857D01*
X180441619Y-89642952D01*
X180403523Y-89719142D01*
X180403523Y-89871523D01*
X180441619Y-89947714D01*
X180479714Y-89985809D01*
X180555904Y-90023904D01*
X180708285Y-90023904D01*
X180784476Y-89985809D01*
X180822571Y-89947714D01*
X180860666Y-89871523D01*
X180860666Y-89719142D01*
X180822571Y-89642952D01*
X180784476Y-89604857D01*
X180708285Y-89566761D01*
X181622571Y-90023904D02*
X181165428Y-90023904D01*
X181394000Y-90023904D02*
X181394000Y-89223904D01*
X181317809Y-89338190D01*
X181241619Y-89414380D01*
X181165428Y-89452476D01*
X181889238Y-89223904D02*
X182422571Y-89223904D01*
X182079714Y-90023904D01*
X167665619Y-90023904D02*
X167665619Y-89223904D01*
X167970380Y-89223904D01*
X168046571Y-89262000D01*
X168084666Y-89300095D01*
X168122761Y-89376285D01*
X168122761Y-89490571D01*
X168084666Y-89566761D01*
X168046571Y-89604857D01*
X167970380Y-89642952D01*
X167665619Y-89642952D01*
X168922761Y-89947714D02*
X168884666Y-89985809D01*
X168770380Y-90023904D01*
X168694190Y-90023904D01*
X168579904Y-89985809D01*
X168503714Y-89909619D01*
X168465619Y-89833428D01*
X168427523Y-89681047D01*
X168427523Y-89566761D01*
X168465619Y-89414380D01*
X168503714Y-89338190D01*
X168579904Y-89262000D01*
X168694190Y-89223904D01*
X168770380Y-89223904D01*
X168884666Y-89262000D01*
X168922761Y-89300095D01*
X169379904Y-89566761D02*
X169303714Y-89528666D01*
X169265619Y-89490571D01*
X169227523Y-89414380D01*
X169227523Y-89376285D01*
X169265619Y-89300095D01*
X169303714Y-89262000D01*
X169379904Y-89223904D01*
X169532285Y-89223904D01*
X169608476Y-89262000D01*
X169646571Y-89300095D01*
X169684666Y-89376285D01*
X169684666Y-89414380D01*
X169646571Y-89490571D01*
X169608476Y-89528666D01*
X169532285Y-89566761D01*
X169379904Y-89566761D01*
X169303714Y-89604857D01*
X169265619Y-89642952D01*
X169227523Y-89719142D01*
X169227523Y-89871523D01*
X169265619Y-89947714D01*
X169303714Y-89985809D01*
X169379904Y-90023904D01*
X169532285Y-90023904D01*
X169608476Y-89985809D01*
X169646571Y-89947714D01*
X169684666Y-89871523D01*
X169684666Y-89719142D01*
X169646571Y-89642952D01*
X169608476Y-89604857D01*
X169532285Y-89566761D01*
X170446571Y-90023904D02*
X169989428Y-90023904D01*
X170218000Y-90023904D02*
X170218000Y-89223904D01*
X170141809Y-89338190D01*
X170065619Y-89414380D01*
X169989428Y-89452476D01*
X170713238Y-89223904D02*
X171246571Y-89223904D01*
X170903714Y-90023904D01*
X193071074Y-44727801D02*
X193213931Y-44775420D01*
X193452026Y-44775420D01*
X193547264Y-44727801D01*
X193594883Y-44680182D01*
X193642502Y-44584944D01*
X193642502Y-44489706D01*
X193594883Y-44394468D01*
X193547264Y-44346849D01*
X193452026Y-44299230D01*
X193261550Y-44251611D01*
X193166312Y-44203992D01*
X193118693Y-44156373D01*
X193071074Y-44061135D01*
X193071074Y-43965897D01*
X193118693Y-43870659D01*
X193166312Y-43823040D01*
X193261550Y-43775420D01*
X193499645Y-43775420D01*
X193642502Y-43823040D01*
X194642502Y-44775420D02*
X194309169Y-44299230D01*
X194071074Y-44775420D02*
X194071074Y-43775420D01*
X194452026Y-43775420D01*
X194547264Y-43823040D01*
X194594883Y-43870659D01*
X194642502Y-43965897D01*
X194642502Y-44108754D01*
X194594883Y-44203992D01*
X194547264Y-44251611D01*
X194452026Y-44299230D01*
X194071074Y-44299230D01*
X195499645Y-43775420D02*
X195309169Y-43775420D01*
X195213931Y-43823040D01*
X195166312Y-43870659D01*
X195071074Y-44013516D01*
X195023455Y-44203992D01*
X195023455Y-44584944D01*
X195071074Y-44680182D01*
X195118693Y-44727801D01*
X195213931Y-44775420D01*
X195404407Y-44775420D01*
X195499645Y-44727801D01*
X195547264Y-44680182D01*
X195594883Y-44584944D01*
X195594883Y-44346849D01*
X195547264Y-44251611D01*
X195499645Y-44203992D01*
X195404407Y-44156373D01*
X195213931Y-44156373D01*
X195118693Y-44203992D01*
X195071074Y-44251611D01*
X195023455Y-44346849D01*
X196213931Y-43775420D02*
X196309169Y-43775420D01*
X196404407Y-43823040D01*
X196452026Y-43870659D01*
X196499645Y-43965897D01*
X196547264Y-44156373D01*
X196547264Y-44394468D01*
X196499645Y-44584944D01*
X196452026Y-44680182D01*
X196404407Y-44727801D01*
X196309169Y-44775420D01*
X196213931Y-44775420D01*
X196118693Y-44727801D01*
X196071074Y-44680182D01*
X196023455Y-44584944D01*
X195975836Y-44394468D01*
X195975836Y-44156373D01*
X196023455Y-43965897D01*
X196071074Y-43870659D01*
X196118693Y-43823040D01*
X196213931Y-43775420D01*
X197118693Y-44203992D02*
X197023455Y-44156373D01*
X196975836Y-44108754D01*
X196928217Y-44013516D01*
X196928217Y-43965897D01*
X196975836Y-43870659D01*
X197023455Y-43823040D01*
X197118693Y-43775420D01*
X197309169Y-43775420D01*
X197404407Y-43823040D01*
X197452026Y-43870659D01*
X197499645Y-43965897D01*
X197499645Y-44013516D01*
X197452026Y-44108754D01*
X197404407Y-44156373D01*
X197309169Y-44203992D01*
X197118693Y-44203992D01*
X197023455Y-44251611D01*
X196975836Y-44299230D01*
X196928217Y-44394468D01*
X196928217Y-44584944D01*
X196975836Y-44680182D01*
X197023455Y-44727801D01*
X197118693Y-44775420D01*
X197309169Y-44775420D01*
X197404407Y-44727801D01*
X197452026Y-44680182D01*
X197499645Y-44584944D01*
X197499645Y-44394468D01*
X197452026Y-44299230D01*
X197404407Y-44251611D01*
X197309169Y-44203992D01*
X191287619Y-105771904D02*
X191287619Y-104971904D01*
X191592380Y-104971904D01*
X191668571Y-105010000D01*
X191706666Y-105048095D01*
X191744761Y-105124285D01*
X191744761Y-105238571D01*
X191706666Y-105314761D01*
X191668571Y-105352857D01*
X191592380Y-105390952D01*
X191287619Y-105390952D01*
X192544761Y-105695714D02*
X192506666Y-105733809D01*
X192392380Y-105771904D01*
X192316190Y-105771904D01*
X192201904Y-105733809D01*
X192125714Y-105657619D01*
X192087619Y-105581428D01*
X192049523Y-105429047D01*
X192049523Y-105314761D01*
X192087619Y-105162380D01*
X192125714Y-105086190D01*
X192201904Y-105010000D01*
X192316190Y-104971904D01*
X192392380Y-104971904D01*
X192506666Y-105010000D01*
X192544761Y-105048095D01*
X193001904Y-105314761D02*
X192925714Y-105276666D01*
X192887619Y-105238571D01*
X192849523Y-105162380D01*
X192849523Y-105124285D01*
X192887619Y-105048095D01*
X192925714Y-105010000D01*
X193001904Y-104971904D01*
X193154285Y-104971904D01*
X193230476Y-105010000D01*
X193268571Y-105048095D01*
X193306666Y-105124285D01*
X193306666Y-105162380D01*
X193268571Y-105238571D01*
X193230476Y-105276666D01*
X193154285Y-105314761D01*
X193001904Y-105314761D01*
X192925714Y-105352857D01*
X192887619Y-105390952D01*
X192849523Y-105467142D01*
X192849523Y-105619523D01*
X192887619Y-105695714D01*
X192925714Y-105733809D01*
X193001904Y-105771904D01*
X193154285Y-105771904D01*
X193230476Y-105733809D01*
X193268571Y-105695714D01*
X193306666Y-105619523D01*
X193306666Y-105467142D01*
X193268571Y-105390952D01*
X193230476Y-105352857D01*
X193154285Y-105314761D01*
X194068571Y-105771904D02*
X193611428Y-105771904D01*
X193840000Y-105771904D02*
X193840000Y-104971904D01*
X193763809Y-105086190D01*
X193687619Y-105162380D01*
X193611428Y-105200476D01*
X194335238Y-104971904D02*
X194868571Y-104971904D01*
X194525714Y-105771904D01*
X191287619Y-97834404D02*
X191287619Y-97034404D01*
X191592380Y-97034404D01*
X191668571Y-97072500D01*
X191706666Y-97110595D01*
X191744761Y-97186785D01*
X191744761Y-97301071D01*
X191706666Y-97377261D01*
X191668571Y-97415357D01*
X191592380Y-97453452D01*
X191287619Y-97453452D01*
X192544761Y-97758214D02*
X192506666Y-97796309D01*
X192392380Y-97834404D01*
X192316190Y-97834404D01*
X192201904Y-97796309D01*
X192125714Y-97720119D01*
X192087619Y-97643928D01*
X192049523Y-97491547D01*
X192049523Y-97377261D01*
X192087619Y-97224880D01*
X192125714Y-97148690D01*
X192201904Y-97072500D01*
X192316190Y-97034404D01*
X192392380Y-97034404D01*
X192506666Y-97072500D01*
X192544761Y-97110595D01*
X193001904Y-97377261D02*
X192925714Y-97339166D01*
X192887619Y-97301071D01*
X192849523Y-97224880D01*
X192849523Y-97186785D01*
X192887619Y-97110595D01*
X192925714Y-97072500D01*
X193001904Y-97034404D01*
X193154285Y-97034404D01*
X193230476Y-97072500D01*
X193268571Y-97110595D01*
X193306666Y-97186785D01*
X193306666Y-97224880D01*
X193268571Y-97301071D01*
X193230476Y-97339166D01*
X193154285Y-97377261D01*
X193001904Y-97377261D01*
X192925714Y-97415357D01*
X192887619Y-97453452D01*
X192849523Y-97529642D01*
X192849523Y-97682023D01*
X192887619Y-97758214D01*
X192925714Y-97796309D01*
X193001904Y-97834404D01*
X193154285Y-97834404D01*
X193230476Y-97796309D01*
X193268571Y-97758214D01*
X193306666Y-97682023D01*
X193306666Y-97529642D01*
X193268571Y-97453452D01*
X193230476Y-97415357D01*
X193154285Y-97377261D01*
X194068571Y-97834404D02*
X193611428Y-97834404D01*
X193840000Y-97834404D02*
X193840000Y-97034404D01*
X193763809Y-97148690D01*
X193687619Y-97224880D01*
X193611428Y-97262976D01*
X194335238Y-97034404D02*
X194868571Y-97034404D01*
X194525714Y-97834404D01*
X191160619Y-90023904D02*
X191160619Y-89223904D01*
X191465380Y-89223904D01*
X191541571Y-89262000D01*
X191579666Y-89300095D01*
X191617761Y-89376285D01*
X191617761Y-89490571D01*
X191579666Y-89566761D01*
X191541571Y-89604857D01*
X191465380Y-89642952D01*
X191160619Y-89642952D01*
X192417761Y-89947714D02*
X192379666Y-89985809D01*
X192265380Y-90023904D01*
X192189190Y-90023904D01*
X192074904Y-89985809D01*
X191998714Y-89909619D01*
X191960619Y-89833428D01*
X191922523Y-89681047D01*
X191922523Y-89566761D01*
X191960619Y-89414380D01*
X191998714Y-89338190D01*
X192074904Y-89262000D01*
X192189190Y-89223904D01*
X192265380Y-89223904D01*
X192379666Y-89262000D01*
X192417761Y-89300095D01*
X192874904Y-89566761D02*
X192798714Y-89528666D01*
X192760619Y-89490571D01*
X192722523Y-89414380D01*
X192722523Y-89376285D01*
X192760619Y-89300095D01*
X192798714Y-89262000D01*
X192874904Y-89223904D01*
X193027285Y-89223904D01*
X193103476Y-89262000D01*
X193141571Y-89300095D01*
X193179666Y-89376285D01*
X193179666Y-89414380D01*
X193141571Y-89490571D01*
X193103476Y-89528666D01*
X193027285Y-89566761D01*
X192874904Y-89566761D01*
X192798714Y-89604857D01*
X192760619Y-89642952D01*
X192722523Y-89719142D01*
X192722523Y-89871523D01*
X192760619Y-89947714D01*
X192798714Y-89985809D01*
X192874904Y-90023904D01*
X193027285Y-90023904D01*
X193103476Y-89985809D01*
X193141571Y-89947714D01*
X193179666Y-89871523D01*
X193179666Y-89719142D01*
X193141571Y-89642952D01*
X193103476Y-89604857D01*
X193027285Y-89566761D01*
X193941571Y-90023904D02*
X193484428Y-90023904D01*
X193713000Y-90023904D02*
X193713000Y-89223904D01*
X193636809Y-89338190D01*
X193560619Y-89414380D01*
X193484428Y-89452476D01*
X194208238Y-89223904D02*
X194741571Y-89223904D01*
X194398714Y-90023904D01*
X207422142Y-84729047D02*
X207469761Y-84776666D01*
X207517380Y-84919523D01*
X207517380Y-85014761D01*
X207469761Y-85157619D01*
X207374523Y-85252857D01*
X207279285Y-85300476D01*
X207088809Y-85348095D01*
X206945952Y-85348095D01*
X206755476Y-85300476D01*
X206660238Y-85252857D01*
X206565000Y-85157619D01*
X206517380Y-85014761D01*
X206517380Y-84919523D01*
X206565000Y-84776666D01*
X206612619Y-84729047D01*
X206517380Y-84110000D02*
X206517380Y-83919523D01*
X206565000Y-83824285D01*
X206660238Y-83729047D01*
X206850714Y-83681428D01*
X207184047Y-83681428D01*
X207374523Y-83729047D01*
X207469761Y-83824285D01*
X207517380Y-83919523D01*
X207517380Y-84110000D01*
X207469761Y-84205238D01*
X207374523Y-84300476D01*
X207184047Y-84348095D01*
X206850714Y-84348095D01*
X206660238Y-84300476D01*
X206565000Y-84205238D01*
X206517380Y-84110000D01*
X207517380Y-83252857D02*
X206517380Y-83252857D01*
X207517380Y-82681428D01*
X206517380Y-82681428D01*
X207517380Y-82205238D02*
X206517380Y-82205238D01*
X207517380Y-81633809D01*
X206517380Y-81633809D01*
X207612619Y-81395714D02*
X207612619Y-80633809D01*
X206850714Y-79967142D02*
X207517380Y-79967142D01*
X206469761Y-80205238D02*
X207184047Y-80443333D01*
X207184047Y-79824285D01*
X207422142Y-104334047D02*
X207469761Y-104381666D01*
X207517380Y-104524523D01*
X207517380Y-104619761D01*
X207469761Y-104762619D01*
X207374523Y-104857857D01*
X207279285Y-104905476D01*
X207088809Y-104953095D01*
X206945952Y-104953095D01*
X206755476Y-104905476D01*
X206660238Y-104857857D01*
X206565000Y-104762619D01*
X206517380Y-104619761D01*
X206517380Y-104524523D01*
X206565000Y-104381666D01*
X206612619Y-104334047D01*
X206517380Y-103715000D02*
X206517380Y-103524523D01*
X206565000Y-103429285D01*
X206660238Y-103334047D01*
X206850714Y-103286428D01*
X207184047Y-103286428D01*
X207374523Y-103334047D01*
X207469761Y-103429285D01*
X207517380Y-103524523D01*
X207517380Y-103715000D01*
X207469761Y-103810238D01*
X207374523Y-103905476D01*
X207184047Y-103953095D01*
X206850714Y-103953095D01*
X206660238Y-103905476D01*
X206565000Y-103810238D01*
X206517380Y-103715000D01*
X207517380Y-102857857D02*
X206517380Y-102857857D01*
X207517380Y-102286428D01*
X206517380Y-102286428D01*
X207517380Y-101810238D02*
X206517380Y-101810238D01*
X207517380Y-101238809D01*
X206517380Y-101238809D01*
X207612619Y-101000714D02*
X207612619Y-100238809D01*
X206850714Y-99572142D02*
X207517380Y-99572142D01*
X206469761Y-99810238D02*
X207184047Y-100048333D01*
X207184047Y-99429285D01*
X148322315Y-30424420D02*
X148322315Y-29424420D01*
X148655648Y-30138706D01*
X148988981Y-29424420D01*
X148988981Y-30424420D01*
X149798505Y-29900611D02*
X149941362Y-29948230D01*
X149988981Y-29995849D01*
X150036600Y-30091087D01*
X150036600Y-30233944D01*
X149988981Y-30329182D01*
X149941362Y-30376801D01*
X149846124Y-30424420D01*
X149465172Y-30424420D01*
X149465172Y-29424420D01*
X149798505Y-29424420D01*
X149893743Y-29472040D01*
X149941362Y-29519659D01*
X149988981Y-29614897D01*
X149988981Y-29710135D01*
X149941362Y-29805373D01*
X149893743Y-29852992D01*
X149798505Y-29900611D01*
X149465172Y-29900611D01*
X151036600Y-30424420D02*
X150703267Y-29948230D01*
X150465172Y-30424420D02*
X150465172Y-29424420D01*
X150846124Y-29424420D01*
X150941362Y-29472040D01*
X150988981Y-29519659D01*
X151036600Y-29614897D01*
X151036600Y-29757754D01*
X150988981Y-29852992D01*
X150941362Y-29900611D01*
X150846124Y-29948230D01*
X150465172Y-29948230D01*
X151369934Y-29424420D02*
X151988981Y-29424420D01*
X151655648Y-29805373D01*
X151798505Y-29805373D01*
X151893743Y-29852992D01*
X151941362Y-29900611D01*
X151988981Y-29995849D01*
X151988981Y-30233944D01*
X151941362Y-30329182D01*
X151893743Y-30376801D01*
X151798505Y-30424420D01*
X151512791Y-30424420D01*
X151417553Y-30376801D01*
X151369934Y-30329182D01*
X152846124Y-29424420D02*
X152655648Y-29424420D01*
X152560410Y-29472040D01*
X152512791Y-29519659D01*
X152417553Y-29662516D01*
X152369934Y-29852992D01*
X152369934Y-30233944D01*
X152417553Y-30329182D01*
X152465172Y-30376801D01*
X152560410Y-30424420D01*
X152750886Y-30424420D01*
X152846124Y-30376801D01*
X152893743Y-30329182D01*
X152941362Y-30233944D01*
X152941362Y-29995849D01*
X152893743Y-29900611D01*
X152846124Y-29852992D01*
X152750886Y-29805373D01*
X152560410Y-29805373D01*
X152465172Y-29852992D01*
X152417553Y-29900611D01*
X152369934Y-29995849D01*
X153560410Y-29424420D02*
X153655648Y-29424420D01*
X153750886Y-29472040D01*
X153798505Y-29519659D01*
X153846124Y-29614897D01*
X153893743Y-29805373D01*
X153893743Y-30043468D01*
X153846124Y-30233944D01*
X153798505Y-30329182D01*
X153750886Y-30376801D01*
X153655648Y-30424420D01*
X153560410Y-30424420D01*
X153465172Y-30376801D01*
X153417553Y-30329182D01*
X153369934Y-30233944D01*
X153322315Y-30043468D01*
X153322315Y-29805373D01*
X153369934Y-29614897D01*
X153417553Y-29519659D01*
X153465172Y-29472040D01*
X153560410Y-29424420D01*
X145090000Y-91497380D02*
X145090000Y-90497380D01*
X145661428Y-91497380D01*
X145661428Y-90497380D01*
X145899523Y-91592619D02*
X146661428Y-91592619D01*
X146899523Y-91497380D02*
X146899523Y-90497380D01*
X147232857Y-91211666D01*
X147566190Y-90497380D01*
X147566190Y-91497380D01*
X148232857Y-90497380D02*
X148423333Y-90497380D01*
X148518571Y-90545000D01*
X148613809Y-90640238D01*
X148661428Y-90830714D01*
X148661428Y-91164047D01*
X148613809Y-91354523D01*
X148518571Y-91449761D01*
X148423333Y-91497380D01*
X148232857Y-91497380D01*
X148137619Y-91449761D01*
X148042380Y-91354523D01*
X147994761Y-91164047D01*
X147994761Y-90830714D01*
X148042380Y-90640238D01*
X148137619Y-90545000D01*
X148232857Y-90497380D01*
X149042380Y-91449761D02*
X149185238Y-91497380D01*
X149423333Y-91497380D01*
X149518571Y-91449761D01*
X149566190Y-91402142D01*
X149613809Y-91306904D01*
X149613809Y-91211666D01*
X149566190Y-91116428D01*
X149518571Y-91068809D01*
X149423333Y-91021190D01*
X149232857Y-90973571D01*
X149137619Y-90925952D01*
X149090000Y-90878333D01*
X149042380Y-90783095D01*
X149042380Y-90687857D01*
X149090000Y-90592619D01*
X149137619Y-90545000D01*
X149232857Y-90497380D01*
X149470952Y-90497380D01*
X149613809Y-90545000D01*
X150375714Y-90973571D02*
X150042380Y-90973571D01*
X150042380Y-91497380D02*
X150042380Y-90497380D01*
X150518571Y-90497380D01*
X150899523Y-90973571D02*
X151232857Y-90973571D01*
X151375714Y-91497380D02*
X150899523Y-91497380D01*
X150899523Y-90497380D01*
X151375714Y-90497380D01*
X151661428Y-90497380D02*
X152232857Y-90497380D01*
X151947142Y-91497380D02*
X151947142Y-90497380D01*
X141649761Y-88335809D02*
X141697380Y-88192952D01*
X141697380Y-87954857D01*
X141649761Y-87859619D01*
X141602142Y-87812000D01*
X141506904Y-87764380D01*
X141411666Y-87764380D01*
X141316428Y-87812000D01*
X141268809Y-87859619D01*
X141221190Y-87954857D01*
X141173571Y-88145333D01*
X141125952Y-88240571D01*
X141078333Y-88288190D01*
X140983095Y-88335809D01*
X140887857Y-88335809D01*
X140792619Y-88288190D01*
X140745000Y-88240571D01*
X140697380Y-88145333D01*
X140697380Y-87907238D01*
X140745000Y-87764380D01*
X141697380Y-87335809D02*
X140697380Y-87335809D01*
X141697380Y-86764380D01*
X140697380Y-86764380D01*
X140697380Y-86383428D02*
X140697380Y-85716761D01*
X141697380Y-86145333D01*
X141030714Y-84907238D02*
X141697380Y-84907238D01*
X140649761Y-85145333D02*
X141364047Y-85383428D01*
X141364047Y-84764380D01*
X141697380Y-83907238D02*
X141697380Y-84383428D01*
X140697380Y-84383428D01*
X140697380Y-83716761D02*
X141697380Y-83383428D01*
X140697380Y-83050095D01*
X141602142Y-82145333D02*
X141649761Y-82192952D01*
X141697380Y-82335809D01*
X141697380Y-82431047D01*
X141649761Y-82573904D01*
X141554523Y-82669142D01*
X141459285Y-82716761D01*
X141268809Y-82764380D01*
X141125952Y-82764380D01*
X140935476Y-82716761D01*
X140840238Y-82669142D01*
X140745000Y-82573904D01*
X140697380Y-82431047D01*
X140697380Y-82335809D01*
X140745000Y-82192952D01*
X140792619Y-82145333D01*
X140792619Y-81764380D02*
X140745000Y-81716761D01*
X140697380Y-81621523D01*
X140697380Y-81383428D01*
X140745000Y-81288190D01*
X140792619Y-81240571D01*
X140887857Y-81192952D01*
X140983095Y-81192952D01*
X141125952Y-81240571D01*
X141697380Y-81812000D01*
X141697380Y-81192952D01*
X140745000Y-80240571D02*
X140697380Y-80335809D01*
X140697380Y-80478666D01*
X140745000Y-80621523D01*
X140840238Y-80716761D01*
X140935476Y-80764380D01*
X141125952Y-80812000D01*
X141268809Y-80812000D01*
X141459285Y-80764380D01*
X141554523Y-80716761D01*
X141649761Y-80621523D01*
X141697380Y-80478666D01*
X141697380Y-80383428D01*
X141649761Y-80240571D01*
X141602142Y-80192952D01*
X141268809Y-80192952D01*
X141268809Y-80383428D01*
X141697380Y-79240571D02*
X141697380Y-79812000D01*
X141697380Y-79526285D02*
X140697380Y-79526285D01*
X140840238Y-79621523D01*
X140935476Y-79716761D01*
X140983095Y-79812000D01*
X141030714Y-78383428D02*
X141697380Y-78383428D01*
X140649761Y-78621523D02*
X141364047Y-78859619D01*
X141364047Y-78240571D01*
X146729761Y-88208809D02*
X146777380Y-88065952D01*
X146777380Y-87827857D01*
X146729761Y-87732619D01*
X146682142Y-87685000D01*
X146586904Y-87637380D01*
X146491666Y-87637380D01*
X146396428Y-87685000D01*
X146348809Y-87732619D01*
X146301190Y-87827857D01*
X146253571Y-88018333D01*
X146205952Y-88113571D01*
X146158333Y-88161190D01*
X146063095Y-88208809D01*
X145967857Y-88208809D01*
X145872619Y-88161190D01*
X145825000Y-88113571D01*
X145777380Y-88018333D01*
X145777380Y-87780238D01*
X145825000Y-87637380D01*
X146777380Y-87208809D02*
X145777380Y-87208809D01*
X146777380Y-86637380D01*
X145777380Y-86637380D01*
X145777380Y-86256428D02*
X145777380Y-85589761D01*
X146777380Y-86018333D01*
X146110714Y-84780238D02*
X146777380Y-84780238D01*
X145729761Y-85018333D02*
X146444047Y-85256428D01*
X146444047Y-84637380D01*
X146777380Y-83780238D02*
X146777380Y-84256428D01*
X145777380Y-84256428D01*
X145777380Y-83589761D02*
X146777380Y-83256428D01*
X145777380Y-82923095D01*
X146682142Y-82018333D02*
X146729761Y-82065952D01*
X146777380Y-82208809D01*
X146777380Y-82304047D01*
X146729761Y-82446904D01*
X146634523Y-82542142D01*
X146539285Y-82589761D01*
X146348809Y-82637380D01*
X146205952Y-82637380D01*
X146015476Y-82589761D01*
X145920238Y-82542142D01*
X145825000Y-82446904D01*
X145777380Y-82304047D01*
X145777380Y-82208809D01*
X145825000Y-82065952D01*
X145872619Y-82018333D01*
X145872619Y-81637380D02*
X145825000Y-81589761D01*
X145777380Y-81494523D01*
X145777380Y-81256428D01*
X145825000Y-81161190D01*
X145872619Y-81113571D01*
X145967857Y-81065952D01*
X146063095Y-81065952D01*
X146205952Y-81113571D01*
X146777380Y-81685000D01*
X146777380Y-81065952D01*
X145825000Y-80113571D02*
X145777380Y-80208809D01*
X145777380Y-80351666D01*
X145825000Y-80494523D01*
X145920238Y-80589761D01*
X146015476Y-80637380D01*
X146205952Y-80685000D01*
X146348809Y-80685000D01*
X146539285Y-80637380D01*
X146634523Y-80589761D01*
X146729761Y-80494523D01*
X146777380Y-80351666D01*
X146777380Y-80256428D01*
X146729761Y-80113571D01*
X146682142Y-80065952D01*
X146348809Y-80065952D01*
X146348809Y-80256428D01*
X146777380Y-79113571D02*
X146777380Y-79685000D01*
X146777380Y-79399285D02*
X145777380Y-79399285D01*
X145920238Y-79494523D01*
X146015476Y-79589761D01*
X146063095Y-79685000D01*
X146110714Y-78256428D02*
X146777380Y-78256428D01*
X145729761Y-78494523D02*
X146444047Y-78732619D01*
X146444047Y-78113571D01*
X165724380Y-46834857D02*
X165724380Y-47406285D01*
X165724380Y-47120571D02*
X164724380Y-47120571D01*
X164867238Y-47215809D01*
X164962476Y-47311047D01*
X165010095Y-47406285D01*
X164724380Y-46215809D02*
X164724380Y-46120571D01*
X164772000Y-46025333D01*
X164819619Y-45977714D01*
X164914857Y-45930095D01*
X165105333Y-45882476D01*
X165343428Y-45882476D01*
X165533904Y-45930095D01*
X165629142Y-45977714D01*
X165676761Y-46025333D01*
X165724380Y-46120571D01*
X165724380Y-46215809D01*
X165676761Y-46311047D01*
X165629142Y-46358666D01*
X165533904Y-46406285D01*
X165343428Y-46453904D01*
X165105333Y-46453904D01*
X164914857Y-46406285D01*
X164819619Y-46358666D01*
X164772000Y-46311047D01*
X164724380Y-46215809D01*
X164724380Y-45263428D02*
X164724380Y-45168190D01*
X164772000Y-45072952D01*
X164819619Y-45025333D01*
X164914857Y-44977714D01*
X165105333Y-44930095D01*
X165343428Y-44930095D01*
X165533904Y-44977714D01*
X165629142Y-45025333D01*
X165676761Y-45072952D01*
X165724380Y-45168190D01*
X165724380Y-45263428D01*
X165676761Y-45358666D01*
X165629142Y-45406285D01*
X165533904Y-45453904D01*
X165343428Y-45501523D01*
X165105333Y-45501523D01*
X164914857Y-45453904D01*
X164819619Y-45406285D01*
X164772000Y-45358666D01*
X164724380Y-45263428D01*
X165057714Y-44072952D02*
X165724380Y-44072952D01*
X165057714Y-44501523D02*
X165581523Y-44501523D01*
X165676761Y-44453904D01*
X165724380Y-44358666D01*
X165724380Y-44215809D01*
X165676761Y-44120571D01*
X165629142Y-44072952D01*
X165724380Y-43596761D02*
X164724380Y-43596761D01*
X165200571Y-43596761D02*
X165200571Y-43025333D01*
X165724380Y-43025333D02*
X164724380Y-43025333D01*
X158515904Y-40105619D02*
X158563523Y-40058000D01*
X158658761Y-40010380D01*
X158896857Y-40010380D01*
X158992095Y-40058000D01*
X159039714Y-40105619D01*
X159087333Y-40200857D01*
X159087333Y-40296095D01*
X159039714Y-40438952D01*
X158468285Y-41010380D01*
X159087333Y-41010380D01*
X159706380Y-40010380D02*
X159801619Y-40010380D01*
X159896857Y-40058000D01*
X159944476Y-40105619D01*
X159992095Y-40200857D01*
X160039714Y-40391333D01*
X160039714Y-40629428D01*
X159992095Y-40819904D01*
X159944476Y-40915142D01*
X159896857Y-40962761D01*
X159801619Y-41010380D01*
X159706380Y-41010380D01*
X159611142Y-40962761D01*
X159563523Y-40915142D01*
X159515904Y-40819904D01*
X159468285Y-40629428D01*
X159468285Y-40391333D01*
X159515904Y-40200857D01*
X159563523Y-40105619D01*
X159611142Y-40058000D01*
X159706380Y-40010380D01*
X160896857Y-40343714D02*
X160896857Y-41010380D01*
X160468285Y-40343714D02*
X160468285Y-40867523D01*
X160515904Y-40962761D01*
X160611142Y-41010380D01*
X160754000Y-41010380D01*
X160849238Y-40962761D01*
X160896857Y-40915142D01*
X161373047Y-41010380D02*
X161373047Y-40010380D01*
X161373047Y-40486571D02*
X161944476Y-40486571D01*
X161944476Y-41010380D02*
X161944476Y-40010380D01*
X168779333Y-38983714D02*
X168779333Y-39650380D01*
X168541238Y-38602761D02*
X168303142Y-39317047D01*
X168922190Y-39317047D01*
X169207904Y-38650380D02*
X169874571Y-38650380D01*
X169446000Y-39650380D01*
X170684095Y-38983714D02*
X170684095Y-39650380D01*
X170255523Y-38983714D02*
X170255523Y-39507523D01*
X170303142Y-39602761D01*
X170398380Y-39650380D01*
X170541238Y-39650380D01*
X170636476Y-39602761D01*
X170684095Y-39555142D01*
X171493619Y-39126571D02*
X171160285Y-39126571D01*
X171160285Y-39650380D02*
X171160285Y-38650380D01*
X171636476Y-38650380D01*
X162238761Y-31450380D02*
X161667333Y-31450380D01*
X161953047Y-31450380D02*
X161953047Y-30450380D01*
X161857809Y-30593238D01*
X161762571Y-30688476D01*
X161667333Y-30736095D01*
X163095904Y-30783714D02*
X163095904Y-31450380D01*
X162667333Y-30783714D02*
X162667333Y-31307523D01*
X162714952Y-31402761D01*
X162810190Y-31450380D01*
X162953047Y-31450380D01*
X163048285Y-31402761D01*
X163095904Y-31355142D01*
X163905428Y-30926571D02*
X163572095Y-30926571D01*
X163572095Y-31450380D02*
X163572095Y-30450380D01*
X164048285Y-30450380D01*
X145538333Y-106420714D02*
X145538333Y-107087380D01*
X145300238Y-106039761D02*
X145062142Y-106754047D01*
X145681190Y-106754047D01*
X145966904Y-106087380D02*
X146633571Y-106087380D01*
X146205000Y-107087380D01*
X147443095Y-106420714D02*
X147443095Y-107087380D01*
X147014523Y-106420714D02*
X147014523Y-106944523D01*
X147062142Y-107039761D01*
X147157380Y-107087380D01*
X147300238Y-107087380D01*
X147395476Y-107039761D01*
X147443095Y-106992142D01*
X148252619Y-106563571D02*
X147919285Y-106563571D01*
X147919285Y-107087380D02*
X147919285Y-106087380D01*
X148395476Y-106087380D01*
X196685714Y-46560857D02*
X197352380Y-46560857D01*
X196304761Y-46798952D02*
X197019047Y-47037047D01*
X197019047Y-46418000D01*
X196352380Y-46132285D02*
X196352380Y-45465619D01*
X197352380Y-45894190D01*
X196352380Y-44894190D02*
X196352380Y-44798952D01*
X196400000Y-44703714D01*
X196447619Y-44656095D01*
X196542857Y-44608476D01*
X196733333Y-44560857D01*
X196971428Y-44560857D01*
X197161904Y-44608476D01*
X197257142Y-44656095D01*
X197304761Y-44703714D01*
X197352380Y-44798952D01*
X197352380Y-44894190D01*
X197304761Y-44989428D01*
X197257142Y-45037047D01*
X197161904Y-45084666D01*
X196971428Y-45132285D01*
X196733333Y-45132285D01*
X196542857Y-45084666D01*
X196447619Y-45037047D01*
X196400000Y-44989428D01*
X196352380Y-44894190D01*
X196685714Y-43703714D02*
X197352380Y-43703714D01*
X196685714Y-44132285D02*
X197209523Y-44132285D01*
X197304761Y-44084666D01*
X197352380Y-43989428D01*
X197352380Y-43846571D01*
X197304761Y-43751333D01*
X197257142Y-43703714D01*
X196828571Y-42894190D02*
X196828571Y-43227523D01*
X197352380Y-43227523D02*
X196352380Y-43227523D01*
X196352380Y-42751333D01*
X177136380Y-40550380D02*
X176564952Y-40550380D01*
X176850666Y-40550380D02*
X176850666Y-39550380D01*
X176755428Y-39693238D01*
X176660190Y-39788476D01*
X176564952Y-39836095D01*
X177755428Y-39550380D02*
X177850666Y-39550380D01*
X177945904Y-39598000D01*
X177993523Y-39645619D01*
X178041142Y-39740857D01*
X178088761Y-39931333D01*
X178088761Y-40169428D01*
X178041142Y-40359904D01*
X177993523Y-40455142D01*
X177945904Y-40502761D01*
X177850666Y-40550380D01*
X177755428Y-40550380D01*
X177660190Y-40502761D01*
X177612571Y-40455142D01*
X177564952Y-40359904D01*
X177517333Y-40169428D01*
X177517333Y-39931333D01*
X177564952Y-39740857D01*
X177612571Y-39645619D01*
X177660190Y-39598000D01*
X177755428Y-39550380D01*
X178707809Y-39550380D02*
X178803047Y-39550380D01*
X178898285Y-39598000D01*
X178945904Y-39645619D01*
X178993523Y-39740857D01*
X179041142Y-39931333D01*
X179041142Y-40169428D01*
X178993523Y-40359904D01*
X178945904Y-40455142D01*
X178898285Y-40502761D01*
X178803047Y-40550380D01*
X178707809Y-40550380D01*
X178612571Y-40502761D01*
X178564952Y-40455142D01*
X178517333Y-40359904D01*
X178469714Y-40169428D01*
X178469714Y-39931333D01*
X178517333Y-39740857D01*
X178564952Y-39645619D01*
X178612571Y-39598000D01*
X178707809Y-39550380D01*
X179898285Y-39883714D02*
X179898285Y-40550380D01*
X179469714Y-39883714D02*
X179469714Y-40407523D01*
X179517333Y-40502761D01*
X179612571Y-40550380D01*
X179755428Y-40550380D01*
X179850666Y-40502761D01*
X179898285Y-40455142D01*
X180707809Y-40026571D02*
X180374476Y-40026571D01*
X180374476Y-40550380D02*
X180374476Y-39550380D01*
X180850666Y-39550380D01*
X147368190Y-39110380D02*
X146796761Y-39110380D01*
X147082476Y-39110380D02*
X147082476Y-38110380D01*
X146987238Y-38253238D01*
X146892000Y-38348476D01*
X146796761Y-38396095D01*
X147987238Y-38110380D02*
X148082476Y-38110380D01*
X148177714Y-38158000D01*
X148225333Y-38205619D01*
X148272952Y-38300857D01*
X148320571Y-38491333D01*
X148320571Y-38729428D01*
X148272952Y-38919904D01*
X148225333Y-39015142D01*
X148177714Y-39062761D01*
X148082476Y-39110380D01*
X147987238Y-39110380D01*
X147892000Y-39062761D01*
X147844380Y-39015142D01*
X147796761Y-38919904D01*
X147749142Y-38729428D01*
X147749142Y-38491333D01*
X147796761Y-38300857D01*
X147844380Y-38205619D01*
X147892000Y-38158000D01*
X147987238Y-38110380D01*
X148939619Y-38110380D02*
X149034857Y-38110380D01*
X149130095Y-38158000D01*
X149177714Y-38205619D01*
X149225333Y-38300857D01*
X149272952Y-38491333D01*
X149272952Y-38729428D01*
X149225333Y-38919904D01*
X149177714Y-39015142D01*
X149130095Y-39062761D01*
X149034857Y-39110380D01*
X148939619Y-39110380D01*
X148844380Y-39062761D01*
X148796761Y-39015142D01*
X148749142Y-38919904D01*
X148701523Y-38729428D01*
X148701523Y-38491333D01*
X148749142Y-38300857D01*
X148796761Y-38205619D01*
X148844380Y-38158000D01*
X148939619Y-38110380D01*
X149892000Y-38110380D02*
X149987238Y-38110380D01*
X150082476Y-38158000D01*
X150130095Y-38205619D01*
X150177714Y-38300857D01*
X150225333Y-38491333D01*
X150225333Y-38729428D01*
X150177714Y-38919904D01*
X150130095Y-39015142D01*
X150082476Y-39062761D01*
X149987238Y-39110380D01*
X149892000Y-39110380D01*
X149796761Y-39062761D01*
X149749142Y-39015142D01*
X149701523Y-38919904D01*
X149653904Y-38729428D01*
X149653904Y-38491333D01*
X149701523Y-38300857D01*
X149749142Y-38205619D01*
X149796761Y-38158000D01*
X149892000Y-38110380D01*
X151082476Y-38443714D02*
X151082476Y-39110380D01*
X150653904Y-38443714D02*
X150653904Y-38967523D01*
X150701523Y-39062761D01*
X150796761Y-39110380D01*
X150939619Y-39110380D01*
X151034857Y-39062761D01*
X151082476Y-39015142D01*
X151892000Y-38586571D02*
X151558666Y-38586571D01*
X151558666Y-39110380D02*
X151558666Y-38110380D01*
X152034857Y-38110380D01*
X169842380Y-116633095D02*
X168842380Y-116633095D01*
X169175714Y-116156904D02*
X169842380Y-116156904D01*
X169270952Y-116156904D02*
X169223333Y-116109285D01*
X169175714Y-116014047D01*
X169175714Y-115871190D01*
X169223333Y-115775952D01*
X169318571Y-115728333D01*
X169842380Y-115728333D01*
X169842380Y-115252142D02*
X169175714Y-115252142D01*
X168842380Y-115252142D02*
X168890000Y-115299761D01*
X168937619Y-115252142D01*
X168890000Y-115204523D01*
X168842380Y-115252142D01*
X168937619Y-115252142D01*
X169175714Y-114918809D02*
X169175714Y-114537857D01*
X168842380Y-114775952D02*
X169699523Y-114775952D01*
X169794761Y-114728333D01*
X169842380Y-114633095D01*
X169842380Y-114537857D01*
X169842380Y-114204523D02*
X169175714Y-114204523D01*
X168842380Y-114204523D02*
X168890000Y-114252142D01*
X168937619Y-114204523D01*
X168890000Y-114156904D01*
X168842380Y-114204523D01*
X168937619Y-114204523D01*
X169842380Y-113299761D02*
X169318571Y-113299761D01*
X169223333Y-113347380D01*
X169175714Y-113442619D01*
X169175714Y-113633095D01*
X169223333Y-113728333D01*
X169794761Y-113299761D02*
X169842380Y-113395000D01*
X169842380Y-113633095D01*
X169794761Y-113728333D01*
X169699523Y-113775952D01*
X169604285Y-113775952D01*
X169509047Y-113728333D01*
X169461428Y-113633095D01*
X169461428Y-113395000D01*
X169413809Y-113299761D01*
X169842380Y-112680714D02*
X169794761Y-112775952D01*
X169699523Y-112823571D01*
X168842380Y-112823571D01*
X169794761Y-111585476D02*
X169842380Y-111442619D01*
X169842380Y-111204523D01*
X169794761Y-111109285D01*
X169747142Y-111061666D01*
X169651904Y-111014047D01*
X169556666Y-111014047D01*
X169461428Y-111061666D01*
X169413809Y-111109285D01*
X169366190Y-111204523D01*
X169318571Y-111395000D01*
X169270952Y-111490238D01*
X169223333Y-111537857D01*
X169128095Y-111585476D01*
X169032857Y-111585476D01*
X168937619Y-111537857D01*
X168890000Y-111490238D01*
X168842380Y-111395000D01*
X168842380Y-111156904D01*
X168890000Y-111014047D01*
X169175714Y-110728333D02*
X169175714Y-110347380D01*
X168842380Y-110585476D02*
X169699523Y-110585476D01*
X169794761Y-110537857D01*
X169842380Y-110442619D01*
X169842380Y-110347380D01*
X169842380Y-109585476D02*
X169318571Y-109585476D01*
X169223333Y-109633095D01*
X169175714Y-109728333D01*
X169175714Y-109918809D01*
X169223333Y-110014047D01*
X169794761Y-109585476D02*
X169842380Y-109680714D01*
X169842380Y-109918809D01*
X169794761Y-110014047D01*
X169699523Y-110061666D01*
X169604285Y-110061666D01*
X169509047Y-110014047D01*
X169461428Y-109918809D01*
X169461428Y-109680714D01*
X169413809Y-109585476D01*
X169175714Y-109252142D02*
X169175714Y-108871190D01*
X168842380Y-109109285D02*
X169699523Y-109109285D01*
X169794761Y-109061666D01*
X169842380Y-108966428D01*
X169842380Y-108871190D01*
X169794761Y-108156904D02*
X169842380Y-108252142D01*
X169842380Y-108442619D01*
X169794761Y-108537857D01*
X169699523Y-108585476D01*
X169318571Y-108585476D01*
X169223333Y-108537857D01*
X169175714Y-108442619D01*
X169175714Y-108252142D01*
X169223333Y-108156904D01*
X169318571Y-108109285D01*
X169413809Y-108109285D01*
X169509047Y-108585476D01*
X165778380Y-114720380D02*
X164778380Y-114720380D01*
X164778380Y-114339428D01*
X164826000Y-114244190D01*
X164873619Y-114196571D01*
X164968857Y-114148952D01*
X165111714Y-114148952D01*
X165206952Y-114196571D01*
X165254571Y-114244190D01*
X165302190Y-114339428D01*
X165302190Y-114720380D01*
X165778380Y-113720380D02*
X165111714Y-113720380D01*
X165302190Y-113720380D02*
X165206952Y-113672761D01*
X165159333Y-113625142D01*
X165111714Y-113529904D01*
X165111714Y-113434666D01*
X165778380Y-112958476D02*
X165730761Y-113053714D01*
X165683142Y-113101333D01*
X165587904Y-113148952D01*
X165302190Y-113148952D01*
X165206952Y-113101333D01*
X165159333Y-113053714D01*
X165111714Y-112958476D01*
X165111714Y-112815619D01*
X165159333Y-112720380D01*
X165206952Y-112672761D01*
X165302190Y-112625142D01*
X165587904Y-112625142D01*
X165683142Y-112672761D01*
X165730761Y-112720380D01*
X165778380Y-112815619D01*
X165778380Y-112958476D01*
X165111714Y-112339428D02*
X165111714Y-111958476D01*
X164778380Y-112196571D02*
X165635523Y-112196571D01*
X165730761Y-112148952D01*
X165778380Y-112053714D01*
X165778380Y-111958476D01*
X165730761Y-111244190D02*
X165778380Y-111339428D01*
X165778380Y-111529904D01*
X165730761Y-111625142D01*
X165635523Y-111672761D01*
X165254571Y-111672761D01*
X165159333Y-111625142D01*
X165111714Y-111529904D01*
X165111714Y-111339428D01*
X165159333Y-111244190D01*
X165254571Y-111196571D01*
X165349809Y-111196571D01*
X165445047Y-111672761D01*
X165730761Y-110339428D02*
X165778380Y-110434666D01*
X165778380Y-110625142D01*
X165730761Y-110720380D01*
X165683142Y-110768000D01*
X165587904Y-110815619D01*
X165302190Y-110815619D01*
X165206952Y-110768000D01*
X165159333Y-110720380D01*
X165111714Y-110625142D01*
X165111714Y-110434666D01*
X165159333Y-110339428D01*
X165111714Y-110053714D02*
X165111714Y-109672761D01*
X164778380Y-109910857D02*
X165635523Y-109910857D01*
X165730761Y-109863238D01*
X165778380Y-109768000D01*
X165778380Y-109672761D01*
X185392380Y-114338190D02*
X184392380Y-114338190D01*
X184392380Y-113957238D01*
X184440000Y-113862000D01*
X184487619Y-113814380D01*
X184582857Y-113766761D01*
X184725714Y-113766761D01*
X184820952Y-113814380D01*
X184868571Y-113862000D01*
X184916190Y-113957238D01*
X184916190Y-114338190D01*
X185392380Y-113195333D02*
X185344761Y-113290571D01*
X185297142Y-113338190D01*
X185201904Y-113385809D01*
X184916190Y-113385809D01*
X184820952Y-113338190D01*
X184773333Y-113290571D01*
X184725714Y-113195333D01*
X184725714Y-113052476D01*
X184773333Y-112957238D01*
X184820952Y-112909619D01*
X184916190Y-112862000D01*
X185201904Y-112862000D01*
X185297142Y-112909619D01*
X185344761Y-112957238D01*
X185392380Y-113052476D01*
X185392380Y-113195333D01*
X184725714Y-112528666D02*
X185392380Y-112338190D01*
X184916190Y-112147714D01*
X185392380Y-111957238D01*
X184725714Y-111766761D01*
X185344761Y-111004857D02*
X185392380Y-111100095D01*
X185392380Y-111290571D01*
X185344761Y-111385809D01*
X185249523Y-111433428D01*
X184868571Y-111433428D01*
X184773333Y-111385809D01*
X184725714Y-111290571D01*
X184725714Y-111100095D01*
X184773333Y-111004857D01*
X184868571Y-110957238D01*
X184963809Y-110957238D01*
X185059047Y-111433428D01*
X185392380Y-110528666D02*
X184725714Y-110528666D01*
X184916190Y-110528666D02*
X184820952Y-110481047D01*
X184773333Y-110433428D01*
X184725714Y-110338190D01*
X184725714Y-110242952D01*
X181058571Y-114656904D02*
X181058571Y-114323571D01*
X181582380Y-114180714D02*
X181582380Y-114656904D01*
X180582380Y-114656904D01*
X180582380Y-114180714D01*
X180915714Y-113752142D02*
X181582380Y-113752142D01*
X181010952Y-113752142D02*
X180963333Y-113704523D01*
X180915714Y-113609285D01*
X180915714Y-113466428D01*
X180963333Y-113371190D01*
X181058571Y-113323571D01*
X181582380Y-113323571D01*
X181582380Y-112418809D02*
X181058571Y-112418809D01*
X180963333Y-112466428D01*
X180915714Y-112561666D01*
X180915714Y-112752142D01*
X180963333Y-112847380D01*
X181534761Y-112418809D02*
X181582380Y-112514047D01*
X181582380Y-112752142D01*
X181534761Y-112847380D01*
X181439523Y-112895000D01*
X181344285Y-112895000D01*
X181249047Y-112847380D01*
X181201428Y-112752142D01*
X181201428Y-112514047D01*
X181153809Y-112418809D01*
X181582380Y-111942619D02*
X180582380Y-111942619D01*
X180963333Y-111942619D02*
X180915714Y-111847380D01*
X180915714Y-111656904D01*
X180963333Y-111561666D01*
X181010952Y-111514047D01*
X181106190Y-111466428D01*
X181391904Y-111466428D01*
X181487142Y-111514047D01*
X181534761Y-111561666D01*
X181582380Y-111656904D01*
X181582380Y-111847380D01*
X181534761Y-111942619D01*
X181582380Y-110895000D02*
X181534761Y-110990238D01*
X181439523Y-111037857D01*
X180582380Y-111037857D01*
X181534761Y-110133095D02*
X181582380Y-110228333D01*
X181582380Y-110418809D01*
X181534761Y-110514047D01*
X181439523Y-110561666D01*
X181058571Y-110561666D01*
X180963333Y-110514047D01*
X180915714Y-110418809D01*
X180915714Y-110228333D01*
X180963333Y-110133095D01*
X181058571Y-110085476D01*
X181153809Y-110085476D01*
X181249047Y-110561666D01*
X177677142Y-112990238D02*
X177724761Y-113037857D01*
X177772380Y-113180714D01*
X177772380Y-113275952D01*
X177724761Y-113418809D01*
X177629523Y-113514047D01*
X177534285Y-113561666D01*
X177343809Y-113609285D01*
X177200952Y-113609285D01*
X177010476Y-113561666D01*
X176915238Y-113514047D01*
X176820000Y-113418809D01*
X176772380Y-113275952D01*
X176772380Y-113180714D01*
X176820000Y-113037857D01*
X176867619Y-112990238D01*
X177772380Y-112085476D02*
X177772380Y-112561666D01*
X176772380Y-112561666D01*
X177772380Y-111752142D02*
X176772380Y-111752142D01*
X177772380Y-111180714D02*
X177200952Y-111609285D01*
X176772380Y-111180714D02*
X177343809Y-111752142D01*
X169628571Y-113609285D02*
X169676190Y-113466428D01*
X169723809Y-113418809D01*
X169819047Y-113371190D01*
X169961904Y-113371190D01*
X170057142Y-113418809D01*
X170104761Y-113466428D01*
X170152380Y-113561666D01*
X170152380Y-113942619D01*
X169152380Y-113942619D01*
X169152380Y-113609285D01*
X169200000Y-113514047D01*
X169247619Y-113466428D01*
X169342857Y-113418809D01*
X169438095Y-113418809D01*
X169533333Y-113466428D01*
X169580952Y-113514047D01*
X169628571Y-113609285D01*
X169628571Y-113942619D01*
X170152380Y-112514047D02*
X169628571Y-112514047D01*
X169533333Y-112561666D01*
X169485714Y-112656904D01*
X169485714Y-112847380D01*
X169533333Y-112942619D01*
X170104761Y-112514047D02*
X170152380Y-112609285D01*
X170152380Y-112847380D01*
X170104761Y-112942619D01*
X170009523Y-112990238D01*
X169914285Y-112990238D01*
X169819047Y-112942619D01*
X169771428Y-112847380D01*
X169771428Y-112609285D01*
X169723809Y-112514047D01*
X170104761Y-111609285D02*
X170152380Y-111704523D01*
X170152380Y-111895000D01*
X170104761Y-111990238D01*
X170057142Y-112037857D01*
X169961904Y-112085476D01*
X169676190Y-112085476D01*
X169580952Y-112037857D01*
X169533333Y-111990238D01*
X169485714Y-111895000D01*
X169485714Y-111704523D01*
X169533333Y-111609285D01*
X170152380Y-111180714D02*
X169152380Y-111180714D01*
X169771428Y-111085476D02*
X170152380Y-110799761D01*
X169485714Y-110799761D02*
X169866666Y-111180714D01*
X176938571Y-114752142D02*
X176938571Y-115085476D01*
X177462380Y-115085476D02*
X176462380Y-115085476D01*
X176462380Y-114609285D01*
X177462380Y-114085476D02*
X177414761Y-114180714D01*
X177367142Y-114228333D01*
X177271904Y-114275952D01*
X176986190Y-114275952D01*
X176890952Y-114228333D01*
X176843333Y-114180714D01*
X176795714Y-114085476D01*
X176795714Y-113942619D01*
X176843333Y-113847380D01*
X176890952Y-113799761D01*
X176986190Y-113752142D01*
X177271904Y-113752142D01*
X177367142Y-113799761D01*
X177414761Y-113847380D01*
X177462380Y-113942619D01*
X177462380Y-114085476D01*
X177462380Y-113323571D02*
X176795714Y-113323571D01*
X176986190Y-113323571D02*
X176890952Y-113275952D01*
X176843333Y-113228333D01*
X176795714Y-113133095D01*
X176795714Y-113037857D01*
X176795714Y-112799761D02*
X177462380Y-112609285D01*
X176986190Y-112418809D01*
X177462380Y-112228333D01*
X176795714Y-112037857D01*
X177462380Y-111228333D02*
X176938571Y-111228333D01*
X176843333Y-111275952D01*
X176795714Y-111371190D01*
X176795714Y-111561666D01*
X176843333Y-111656904D01*
X177414761Y-111228333D02*
X177462380Y-111323571D01*
X177462380Y-111561666D01*
X177414761Y-111656904D01*
X177319523Y-111704523D01*
X177224285Y-111704523D01*
X177129047Y-111656904D01*
X177081428Y-111561666D01*
X177081428Y-111323571D01*
X177033809Y-111228333D01*
X177462380Y-110752142D02*
X176795714Y-110752142D01*
X176986190Y-110752142D02*
X176890952Y-110704523D01*
X176843333Y-110656904D01*
X176795714Y-110561666D01*
X176795714Y-110466428D01*
X177462380Y-109704523D02*
X176462380Y-109704523D01*
X177414761Y-109704523D02*
X177462380Y-109799761D01*
X177462380Y-109990238D01*
X177414761Y-110085476D01*
X177367142Y-110133095D01*
X177271904Y-110180714D01*
X176986190Y-110180714D01*
X176890952Y-110133095D01*
X176843333Y-110085476D01*
X176795714Y-109990238D01*
X176795714Y-109799761D01*
X176843333Y-109704523D01*
X196405904Y-31202380D02*
X196215428Y-31202380D01*
X196120190Y-31250000D01*
X196072571Y-31297619D01*
X195977333Y-31440476D01*
X195929714Y-31630952D01*
X195929714Y-32011904D01*
X195977333Y-32107142D01*
X196024952Y-32154761D01*
X196120190Y-32202380D01*
X196310666Y-32202380D01*
X196405904Y-32154761D01*
X196453523Y-32107142D01*
X196501142Y-32011904D01*
X196501142Y-31773809D01*
X196453523Y-31678571D01*
X196405904Y-31630952D01*
X196310666Y-31583333D01*
X196120190Y-31583333D01*
X196024952Y-31630952D01*
X195977333Y-31678571D01*
X195929714Y-31773809D01*
X196882095Y-31916666D02*
X197358285Y-31916666D01*
X196786857Y-32202380D02*
X197120190Y-31202380D01*
X197453523Y-32202380D01*
X184568380Y-46637619D02*
X184568380Y-47209047D01*
X184568380Y-46923333D02*
X183568380Y-46923333D01*
X183711238Y-47018571D01*
X183806476Y-47113809D01*
X183854095Y-47209047D01*
X183568380Y-46018571D02*
X183568380Y-45923333D01*
X183616000Y-45828095D01*
X183663619Y-45780476D01*
X183758857Y-45732857D01*
X183949333Y-45685238D01*
X184187428Y-45685238D01*
X184377904Y-45732857D01*
X184473142Y-45780476D01*
X184520761Y-45828095D01*
X184568380Y-45923333D01*
X184568380Y-46018571D01*
X184520761Y-46113809D01*
X184473142Y-46161428D01*
X184377904Y-46209047D01*
X184187428Y-46256666D01*
X183949333Y-46256666D01*
X183758857Y-46209047D01*
X183663619Y-46161428D01*
X183616000Y-46113809D01*
X183568380Y-46018571D01*
X183568380Y-45066190D02*
X183568380Y-44970952D01*
X183616000Y-44875714D01*
X183663619Y-44828095D01*
X183758857Y-44780476D01*
X183949333Y-44732857D01*
X184187428Y-44732857D01*
X184377904Y-44780476D01*
X184473142Y-44828095D01*
X184520761Y-44875714D01*
X184568380Y-44970952D01*
X184568380Y-45066190D01*
X184520761Y-45161428D01*
X184473142Y-45209047D01*
X184377904Y-45256666D01*
X184187428Y-45304285D01*
X183949333Y-45304285D01*
X183758857Y-45256666D01*
X183663619Y-45209047D01*
X183616000Y-45161428D01*
X183568380Y-45066190D01*
X183901714Y-43875714D02*
X184568380Y-43875714D01*
X183901714Y-44304285D02*
X184425523Y-44304285D01*
X184520761Y-44256666D01*
X184568380Y-44161428D01*
X184568380Y-44018571D01*
X184520761Y-43923333D01*
X184473142Y-43875714D01*
X184044571Y-43066190D02*
X184044571Y-43399523D01*
X184568380Y-43399523D02*
X183568380Y-43399523D01*
X183568380Y-42923333D01*
X171870952Y-15527142D02*
X171823333Y-15574761D01*
X171680476Y-15622380D01*
X171585238Y-15622380D01*
X171442380Y-15574761D01*
X171347142Y-15479523D01*
X171299523Y-15384285D01*
X171251904Y-15193809D01*
X171251904Y-15050952D01*
X171299523Y-14860476D01*
X171347142Y-14765238D01*
X171442380Y-14670000D01*
X171585238Y-14622380D01*
X171680476Y-14622380D01*
X171823333Y-14670000D01*
X171870952Y-14717619D01*
X172490000Y-14622380D02*
X172680476Y-14622380D01*
X172775714Y-14670000D01*
X172870952Y-14765238D01*
X172918571Y-14955714D01*
X172918571Y-15289047D01*
X172870952Y-15479523D01*
X172775714Y-15574761D01*
X172680476Y-15622380D01*
X172490000Y-15622380D01*
X172394761Y-15574761D01*
X172299523Y-15479523D01*
X172251904Y-15289047D01*
X172251904Y-14955714D01*
X172299523Y-14765238D01*
X172394761Y-14670000D01*
X172490000Y-14622380D01*
X173347142Y-15622380D02*
X173347142Y-14622380D01*
X173918571Y-15622380D01*
X173918571Y-14622380D01*
X174394761Y-15622380D02*
X174394761Y-14622380D01*
X174966190Y-15622380D01*
X174966190Y-14622380D01*
X175204285Y-15717619D02*
X175966190Y-15717619D01*
X176156666Y-14717619D02*
X176204285Y-14670000D01*
X176299523Y-14622380D01*
X176537619Y-14622380D01*
X176632857Y-14670000D01*
X176680476Y-14717619D01*
X176728095Y-14812857D01*
X176728095Y-14908095D01*
X176680476Y-15050952D01*
X176109047Y-15622380D01*
X176728095Y-15622380D01*
X153455952Y-15527142D02*
X153408333Y-15574761D01*
X153265476Y-15622380D01*
X153170238Y-15622380D01*
X153027380Y-15574761D01*
X152932142Y-15479523D01*
X152884523Y-15384285D01*
X152836904Y-15193809D01*
X152836904Y-15050952D01*
X152884523Y-14860476D01*
X152932142Y-14765238D01*
X153027380Y-14670000D01*
X153170238Y-14622380D01*
X153265476Y-14622380D01*
X153408333Y-14670000D01*
X153455952Y-14717619D01*
X154075000Y-14622380D02*
X154265476Y-14622380D01*
X154360714Y-14670000D01*
X154455952Y-14765238D01*
X154503571Y-14955714D01*
X154503571Y-15289047D01*
X154455952Y-15479523D01*
X154360714Y-15574761D01*
X154265476Y-15622380D01*
X154075000Y-15622380D01*
X153979761Y-15574761D01*
X153884523Y-15479523D01*
X153836904Y-15289047D01*
X153836904Y-14955714D01*
X153884523Y-14765238D01*
X153979761Y-14670000D01*
X154075000Y-14622380D01*
X154932142Y-15622380D02*
X154932142Y-14622380D01*
X155503571Y-15622380D01*
X155503571Y-14622380D01*
X155979761Y-15622380D02*
X155979761Y-14622380D01*
X156551190Y-15622380D01*
X156551190Y-14622380D01*
X156789285Y-15717619D02*
X157551190Y-15717619D01*
X158217857Y-14955714D02*
X158217857Y-15622380D01*
X157979761Y-14574761D02*
X157741666Y-15289047D01*
X158360714Y-15289047D01*
X158661904Y-57300880D02*
X158757142Y-57300880D01*
X158852380Y-57348500D01*
X158900000Y-57396119D01*
X158947619Y-57491357D01*
X158995238Y-57681833D01*
X158995238Y-57919928D01*
X158947619Y-58110404D01*
X158900000Y-58205642D01*
X158852380Y-58253261D01*
X158757142Y-58300880D01*
X158661904Y-58300880D01*
X158566666Y-58253261D01*
X158519047Y-58205642D01*
X158471428Y-58110404D01*
X158423809Y-57919928D01*
X158423809Y-57681833D01*
X158471428Y-57491357D01*
X158519047Y-57396119D01*
X158566666Y-57348500D01*
X158661904Y-57300880D01*
X159423809Y-58205642D02*
X159471428Y-58253261D01*
X159423809Y-58300880D01*
X159376190Y-58253261D01*
X159423809Y-58205642D01*
X159423809Y-58300880D01*
X159852380Y-57396119D02*
X159900000Y-57348500D01*
X159995238Y-57300880D01*
X160233333Y-57300880D01*
X160328571Y-57348500D01*
X160376190Y-57396119D01*
X160423809Y-57491357D01*
X160423809Y-57586595D01*
X160376190Y-57729452D01*
X159804761Y-58300880D01*
X160423809Y-58300880D01*
X160900000Y-58300880D02*
X161090476Y-58300880D01*
X161185714Y-58253261D01*
X161233333Y-58205642D01*
X161328571Y-58062785D01*
X161376190Y-57872309D01*
X161376190Y-57491357D01*
X161328571Y-57396119D01*
X161280952Y-57348500D01*
X161185714Y-57300880D01*
X160995238Y-57300880D01*
X160900000Y-57348500D01*
X160852380Y-57396119D01*
X160804761Y-57491357D01*
X160804761Y-57729452D01*
X160852380Y-57824690D01*
X160900000Y-57872309D01*
X160995238Y-57919928D01*
X161185714Y-57919928D01*
X161280952Y-57872309D01*
X161328571Y-57824690D01*
X161376190Y-57729452D01*
X189395904Y-49299880D02*
X189491142Y-49299880D01*
X189586380Y-49347500D01*
X189634000Y-49395119D01*
X189681619Y-49490357D01*
X189729238Y-49680833D01*
X189729238Y-49918928D01*
X189681619Y-50109404D01*
X189634000Y-50204642D01*
X189586380Y-50252261D01*
X189491142Y-50299880D01*
X189395904Y-50299880D01*
X189300666Y-50252261D01*
X189253047Y-50204642D01*
X189205428Y-50109404D01*
X189157809Y-49918928D01*
X189157809Y-49680833D01*
X189205428Y-49490357D01*
X189253047Y-49395119D01*
X189300666Y-49347500D01*
X189395904Y-49299880D01*
X190157809Y-50204642D02*
X190205428Y-50252261D01*
X190157809Y-50299880D01*
X190110190Y-50252261D01*
X190157809Y-50204642D01*
X190157809Y-50299880D01*
X190586380Y-49395119D02*
X190634000Y-49347500D01*
X190729238Y-49299880D01*
X190967333Y-49299880D01*
X191062571Y-49347500D01*
X191110190Y-49395119D01*
X191157809Y-49490357D01*
X191157809Y-49585595D01*
X191110190Y-49728452D01*
X190538761Y-50299880D01*
X191157809Y-50299880D01*
X191634000Y-50299880D02*
X191824476Y-50299880D01*
X191919714Y-50252261D01*
X191967333Y-50204642D01*
X192062571Y-50061785D01*
X192110190Y-49871309D01*
X192110190Y-49490357D01*
X192062571Y-49395119D01*
X192014952Y-49347500D01*
X191919714Y-49299880D01*
X191729238Y-49299880D01*
X191634000Y-49347500D01*
X191586380Y-49395119D01*
X191538761Y-49490357D01*
X191538761Y-49728452D01*
X191586380Y-49823690D01*
X191634000Y-49871309D01*
X191729238Y-49918928D01*
X191919714Y-49918928D01*
X192014952Y-49871309D01*
X192062571Y-49823690D01*
X192110190Y-49728452D01*
X190429523Y-66712380D02*
X190429523Y-65712380D01*
X190762857Y-66426666D01*
X191096190Y-65712380D01*
X191096190Y-66712380D01*
X191715238Y-66712380D02*
X191620000Y-66664761D01*
X191572380Y-66617142D01*
X191524761Y-66521904D01*
X191524761Y-66236190D01*
X191572380Y-66140952D01*
X191620000Y-66093333D01*
X191715238Y-66045714D01*
X191858095Y-66045714D01*
X191953333Y-66093333D01*
X192000952Y-66140952D01*
X192048571Y-66236190D01*
X192048571Y-66521904D01*
X192000952Y-66617142D01*
X191953333Y-66664761D01*
X191858095Y-66712380D01*
X191715238Y-66712380D01*
X192905714Y-66045714D02*
X192905714Y-66712380D01*
X192477142Y-66045714D02*
X192477142Y-66569523D01*
X192524761Y-66664761D01*
X192620000Y-66712380D01*
X192762857Y-66712380D01*
X192858095Y-66664761D01*
X192905714Y-66617142D01*
X193381904Y-66045714D02*
X193381904Y-66712380D01*
X193381904Y-66140952D02*
X193429523Y-66093333D01*
X193524761Y-66045714D01*
X193667619Y-66045714D01*
X193762857Y-66093333D01*
X193810476Y-66188571D01*
X193810476Y-66712380D01*
X194143809Y-66045714D02*
X194524761Y-66045714D01*
X194286666Y-65712380D02*
X194286666Y-66569523D01*
X194334285Y-66664761D01*
X194429523Y-66712380D01*
X194524761Y-66712380D01*
X194858095Y-66712380D02*
X194858095Y-66045714D01*
X194858095Y-65712380D02*
X194810476Y-65760000D01*
X194858095Y-65807619D01*
X194905714Y-65760000D01*
X194858095Y-65712380D01*
X194858095Y-65807619D01*
X195334285Y-66045714D02*
X195334285Y-66712380D01*
X195334285Y-66140952D02*
X195381904Y-66093333D01*
X195477142Y-66045714D01*
X195620000Y-66045714D01*
X195715238Y-66093333D01*
X195762857Y-66188571D01*
X195762857Y-66712380D01*
X196667619Y-66045714D02*
X196667619Y-66855238D01*
X196620000Y-66950476D01*
X196572380Y-66998095D01*
X196477142Y-67045714D01*
X196334285Y-67045714D01*
X196239047Y-66998095D01*
X196667619Y-66664761D02*
X196572380Y-66712380D01*
X196381904Y-66712380D01*
X196286666Y-66664761D01*
X196239047Y-66617142D01*
X196191428Y-66521904D01*
X196191428Y-66236190D01*
X196239047Y-66140952D01*
X196286666Y-66093333D01*
X196381904Y-66045714D01*
X196572380Y-66045714D01*
X196667619Y-66093333D01*
X197143809Y-66712380D02*
X197143809Y-65712380D01*
X197143809Y-66188571D02*
X197715238Y-66188571D01*
X197715238Y-66712380D02*
X197715238Y-65712380D01*
X198334285Y-66712380D02*
X198239047Y-66664761D01*
X198191428Y-66617142D01*
X198143809Y-66521904D01*
X198143809Y-66236190D01*
X198191428Y-66140952D01*
X198239047Y-66093333D01*
X198334285Y-66045714D01*
X198477142Y-66045714D01*
X198572380Y-66093333D01*
X198620000Y-66140952D01*
X198667619Y-66236190D01*
X198667619Y-66521904D01*
X198620000Y-66617142D01*
X198572380Y-66664761D01*
X198477142Y-66712380D01*
X198334285Y-66712380D01*
X199239047Y-66712380D02*
X199143809Y-66664761D01*
X199096190Y-66569523D01*
X199096190Y-65712380D01*
X200000952Y-66664761D02*
X199905714Y-66712380D01*
X199715238Y-66712380D01*
X199620000Y-66664761D01*
X199572380Y-66569523D01*
X199572380Y-66188571D01*
X199620000Y-66093333D01*
X199715238Y-66045714D01*
X199905714Y-66045714D01*
X200000952Y-66093333D01*
X200048571Y-66188571D01*
X200048571Y-66283809D01*
X199572380Y-66379047D01*
X200239047Y-66807619D02*
X201000952Y-66807619D01*
X201143809Y-65712380D02*
X201762857Y-65712380D01*
X201429523Y-66093333D01*
X201572380Y-66093333D01*
X201667619Y-66140952D01*
X201715238Y-66188571D01*
X201762857Y-66283809D01*
X201762857Y-66521904D01*
X201715238Y-66617142D01*
X201667619Y-66664761D01*
X201572380Y-66712380D01*
X201286666Y-66712380D01*
X201191428Y-66664761D01*
X201143809Y-66617142D01*
X202191428Y-66617142D02*
X202239047Y-66664761D01*
X202191428Y-66712380D01*
X202143809Y-66664761D01*
X202191428Y-66617142D01*
X202191428Y-66712380D01*
X203191428Y-66712380D02*
X202620000Y-66712380D01*
X202905714Y-66712380D02*
X202905714Y-65712380D01*
X202810476Y-65855238D01*
X202715238Y-65950476D01*
X202620000Y-65998095D01*
X203620000Y-66712380D02*
X203620000Y-66045714D01*
X203620000Y-66140952D02*
X203667619Y-66093333D01*
X203762857Y-66045714D01*
X203905714Y-66045714D01*
X204000952Y-66093333D01*
X204048571Y-66188571D01*
X204048571Y-66712380D01*
X204048571Y-66188571D02*
X204096190Y-66093333D01*
X204191428Y-66045714D01*
X204334285Y-66045714D01*
X204429523Y-66093333D01*
X204477142Y-66188571D01*
X204477142Y-66712380D01*
X204953333Y-66712380D02*
X204953333Y-66045714D01*
X204953333Y-66140952D02*
X205000952Y-66093333D01*
X205096190Y-66045714D01*
X205239047Y-66045714D01*
X205334285Y-66093333D01*
X205381904Y-66188571D01*
X205381904Y-66712380D01*
X205381904Y-66188571D02*
X205429523Y-66093333D01*
X205524761Y-66045714D01*
X205667619Y-66045714D01*
X205762857Y-66093333D01*
X205810476Y-66188571D01*
X205810476Y-66712380D01*
X139787380Y-95087380D02*
X139787380Y-95277857D01*
X139835000Y-95373095D01*
X139882619Y-95420714D01*
X140025476Y-95515952D01*
X140215952Y-95563571D01*
X140596904Y-95563571D01*
X140692142Y-95515952D01*
X140739761Y-95468333D01*
X140787380Y-95373095D01*
X140787380Y-95182619D01*
X140739761Y-95087380D01*
X140692142Y-95039761D01*
X140596904Y-94992142D01*
X140358809Y-94992142D01*
X140263571Y-95039761D01*
X140215952Y-95087380D01*
X140168333Y-95182619D01*
X140168333Y-95373095D01*
X140215952Y-95468333D01*
X140263571Y-95515952D01*
X140358809Y-95563571D01*
X140692142Y-94563571D02*
X140739761Y-94515952D01*
X140787380Y-94563571D01*
X140739761Y-94611190D01*
X140692142Y-94563571D01*
X140787380Y-94563571D01*
X139882619Y-94135000D02*
X139835000Y-94087380D01*
X139787380Y-93992142D01*
X139787380Y-93754047D01*
X139835000Y-93658809D01*
X139882619Y-93611190D01*
X139977857Y-93563571D01*
X140073095Y-93563571D01*
X140215952Y-93611190D01*
X140787380Y-94182619D01*
X140787380Y-93563571D01*
X139787380Y-93277857D02*
X140787380Y-92944523D01*
X139787380Y-92611190D01*
X141497380Y-93503095D02*
X140497380Y-93503095D01*
X140497380Y-93265000D01*
X140545000Y-93122142D01*
X140640238Y-93026904D01*
X140735476Y-92979285D01*
X140925952Y-92931666D01*
X141068809Y-92931666D01*
X141259285Y-92979285D01*
X141354523Y-93026904D01*
X141449761Y-93122142D01*
X141497380Y-93265000D01*
X141497380Y-93503095D01*
X141449761Y-92122142D02*
X141497380Y-92217380D01*
X141497380Y-92407857D01*
X141449761Y-92503095D01*
X141354523Y-92550714D01*
X140973571Y-92550714D01*
X140878333Y-92503095D01*
X140830714Y-92407857D01*
X140830714Y-92217380D01*
X140878333Y-92122142D01*
X140973571Y-92074523D01*
X141068809Y-92074523D01*
X141164047Y-92550714D01*
X141497380Y-91503095D02*
X141449761Y-91598333D01*
X141354523Y-91645952D01*
X140497380Y-91645952D01*
X141497380Y-90693571D02*
X140973571Y-90693571D01*
X140878333Y-90741190D01*
X140830714Y-90836428D01*
X140830714Y-91026904D01*
X140878333Y-91122142D01*
X141449761Y-90693571D02*
X141497380Y-90788809D01*
X141497380Y-91026904D01*
X141449761Y-91122142D01*
X141354523Y-91169761D01*
X141259285Y-91169761D01*
X141164047Y-91122142D01*
X141116428Y-91026904D01*
X141116428Y-90788809D01*
X141068809Y-90693571D01*
X140830714Y-90312619D02*
X141497380Y-90074523D01*
X140830714Y-89836428D02*
X141497380Y-90074523D01*
X141735476Y-90169761D01*
X141783095Y-90217380D01*
X141830714Y-90312619D01*
X141449761Y-88741190D02*
X141497380Y-88598333D01*
X141497380Y-88360238D01*
X141449761Y-88265000D01*
X141402142Y-88217380D01*
X141306904Y-88169761D01*
X141211666Y-88169761D01*
X141116428Y-88217380D01*
X141068809Y-88265000D01*
X141021190Y-88360238D01*
X140973571Y-88550714D01*
X140925952Y-88645952D01*
X140878333Y-88693571D01*
X140783095Y-88741190D01*
X140687857Y-88741190D01*
X140592619Y-88693571D01*
X140545000Y-88645952D01*
X140497380Y-88550714D01*
X140497380Y-88312619D01*
X140545000Y-88169761D01*
X141449761Y-87360238D02*
X141497380Y-87455476D01*
X141497380Y-87645952D01*
X141449761Y-87741190D01*
X141354523Y-87788809D01*
X140973571Y-87788809D01*
X140878333Y-87741190D01*
X140830714Y-87645952D01*
X140830714Y-87455476D01*
X140878333Y-87360238D01*
X140973571Y-87312619D01*
X141068809Y-87312619D01*
X141164047Y-87788809D01*
X141497380Y-86741190D02*
X141449761Y-86836428D01*
X141354523Y-86884047D01*
X140497380Y-86884047D01*
X141449761Y-85979285D02*
X141497380Y-86074523D01*
X141497380Y-86265000D01*
X141449761Y-86360238D01*
X141354523Y-86407857D01*
X140973571Y-86407857D01*
X140878333Y-86360238D01*
X140830714Y-86265000D01*
X140830714Y-86074523D01*
X140878333Y-85979285D01*
X140973571Y-85931666D01*
X141068809Y-85931666D01*
X141164047Y-86407857D01*
X141449761Y-85074523D02*
X141497380Y-85169761D01*
X141497380Y-85360238D01*
X141449761Y-85455476D01*
X141402142Y-85503095D01*
X141306904Y-85550714D01*
X141021190Y-85550714D01*
X140925952Y-85503095D01*
X140878333Y-85455476D01*
X140830714Y-85360238D01*
X140830714Y-85169761D01*
X140878333Y-85074523D01*
X140830714Y-84788809D02*
X140830714Y-84407857D01*
X140497380Y-84645952D02*
X141354523Y-84645952D01*
X141449761Y-84598333D01*
X141497380Y-84503095D01*
X141497380Y-84407857D01*
X141497380Y-83931666D02*
X141449761Y-84026904D01*
X141402142Y-84074523D01*
X141306904Y-84122142D01*
X141021190Y-84122142D01*
X140925952Y-84074523D01*
X140878333Y-84026904D01*
X140830714Y-83931666D01*
X140830714Y-83788809D01*
X140878333Y-83693571D01*
X140925952Y-83645952D01*
X141021190Y-83598333D01*
X141306904Y-83598333D01*
X141402142Y-83645952D01*
X141449761Y-83693571D01*
X141497380Y-83788809D01*
X141497380Y-83931666D01*
X141497380Y-83169761D02*
X140830714Y-83169761D01*
X141021190Y-83169761D02*
X140925952Y-83122142D01*
X140878333Y-83074523D01*
X140830714Y-82979285D01*
X140830714Y-82884047D01*
X186641952Y-38590480D02*
X186165761Y-38590480D01*
X186165761Y-37590480D01*
X186975285Y-38590480D02*
X186975285Y-37590480D01*
X187308619Y-38304766D01*
X187641952Y-37590480D01*
X187641952Y-38590480D01*
X188070523Y-37685719D02*
X188118142Y-37638100D01*
X188213380Y-37590480D01*
X188451476Y-37590480D01*
X188546714Y-37638100D01*
X188594333Y-37685719D01*
X188641952Y-37780957D01*
X188641952Y-37876195D01*
X188594333Y-38019052D01*
X188022904Y-38590480D01*
X188641952Y-38590480D01*
X189546714Y-37590480D02*
X189070523Y-37590480D01*
X189022904Y-38066671D01*
X189070523Y-38019052D01*
X189165761Y-37971433D01*
X189403857Y-37971433D01*
X189499095Y-38019052D01*
X189546714Y-38066671D01*
X189594333Y-38161909D01*
X189594333Y-38400004D01*
X189546714Y-38495242D01*
X189499095Y-38542861D01*
X189403857Y-38590480D01*
X189165761Y-38590480D01*
X189070523Y-38542861D01*
X189022904Y-38495242D01*
X189927666Y-37590480D02*
X190594333Y-37590480D01*
X190165761Y-38590480D01*
X191403857Y-37590480D02*
X191213380Y-37590480D01*
X191118142Y-37638100D01*
X191070523Y-37685719D01*
X190975285Y-37828576D01*
X190927666Y-38019052D01*
X190927666Y-38400004D01*
X190975285Y-38495242D01*
X191022904Y-38542861D01*
X191118142Y-38590480D01*
X191308619Y-38590480D01*
X191403857Y-38542861D01*
X191451476Y-38495242D01*
X191499095Y-38400004D01*
X191499095Y-38161909D01*
X191451476Y-38066671D01*
X191403857Y-38019052D01*
X191308619Y-37971433D01*
X191118142Y-37971433D01*
X191022904Y-38019052D01*
X190975285Y-38066671D01*
X190927666Y-38161909D01*
X191927666Y-38590480D02*
X191927666Y-37590480D01*
X191927666Y-38066671D02*
X192499095Y-38066671D01*
X192499095Y-38590480D02*
X192499095Y-37590480D01*
X192832428Y-37590480D02*
X193165761Y-38590480D01*
X193499095Y-37590480D01*
M02*
