G04 #@! TF.FileFunction,Legend,Top*
%FSLAX46Y46*%
G04 Gerber Fmt 4.6, Leading zero omitted, Abs format (unit mm)*
G04 Created by KiCad (PCBNEW (2016-08-15 BZR 7057)-product) date Tue Nov  8 12:42:18 2016*
%MOMM*%
%LPD*%
G01*
G04 APERTURE LIST*
%ADD10C,0.100000*%
%ADD11C,0.150000*%
%ADD12C,0.300000*%
%ADD13C,0.400000*%
%ADD14C,0.304800*%
%ADD15C,0.350000*%
%ADD16C,0.066040*%
%ADD17C,0.152400*%
%ADD18C,0.088900*%
G04 APERTURE END LIST*
D10*
D11*
X177002200Y-166007200D02*
X177002200Y-198007200D01*
X285002200Y-198007200D01*
X285002200Y-166007200D01*
X177002200Y-166007200D01*
D10*
D11*
X10000000Y-10000000D02*
X10000000Y-200007200D01*
X287002200Y-200007200D01*
X287002200Y-10000000D01*
X10000000Y-10000000D01*
D10*
D11*
X12000000Y-12000000D02*
X12000000Y-198007200D01*
X285002200Y-198007200D01*
X285002200Y-12000000D01*
X12000000Y-12000000D01*
D10*
D11*
X60000000Y-12000000D02*
X60000000Y-10000000D01*
D10*
D11*
X110000000Y-12000000D02*
X110000000Y-10000000D01*
D10*
D11*
X160000000Y-12000000D02*
X160000000Y-10000000D01*
D10*
D11*
X210000000Y-12000000D02*
X210000000Y-10000000D01*
D10*
D11*
X260000000Y-12000000D02*
X260000000Y-10000000D01*
D10*
D11*
X36065476Y-11588095D02*
X35322619Y-11588095D01*
X35694047Y-11588095D02*
X35694047Y-10288095D01*
X35570238Y-10473809D01*
X35446428Y-10597619D01*
X35322619Y-10659523D01*
D10*
D11*
X85322619Y-10411904D02*
X85384523Y-10350000D01*
X85508333Y-10288095D01*
X85817857Y-10288095D01*
X85941666Y-10350000D01*
X86003571Y-10411904D01*
X86065476Y-10535714D01*
X86065476Y-10659523D01*
X86003571Y-10845238D01*
X85260714Y-11588095D01*
X86065476Y-11588095D01*
D10*
D11*
X135260714Y-10288095D02*
X136065476Y-10288095D01*
X135632142Y-10783333D01*
X135817857Y-10783333D01*
X135941666Y-10845238D01*
X136003571Y-10907142D01*
X136065476Y-11030952D01*
X136065476Y-11340476D01*
X136003571Y-11464285D01*
X135941666Y-11526190D01*
X135817857Y-11588095D01*
X135446428Y-11588095D01*
X135322619Y-11526190D01*
X135260714Y-11464285D01*
D10*
D11*
X185941666Y-10721428D02*
X185941666Y-11588095D01*
X185632142Y-10226190D02*
X185322619Y-11154761D01*
X186127380Y-11154761D01*
D10*
D11*
X236003571Y-10288095D02*
X235384523Y-10288095D01*
X235322619Y-10907142D01*
X235384523Y-10845238D01*
X235508333Y-10783333D01*
X235817857Y-10783333D01*
X235941666Y-10845238D01*
X236003571Y-10907142D01*
X236065476Y-11030952D01*
X236065476Y-11340476D01*
X236003571Y-11464285D01*
X235941666Y-11526190D01*
X235817857Y-11588095D01*
X235508333Y-11588095D01*
X235384523Y-11526190D01*
X235322619Y-11464285D01*
D10*
D11*
X285941666Y-10288095D02*
X285694047Y-10288095D01*
X285570238Y-10350000D01*
X285508333Y-10411904D01*
X285384523Y-10597619D01*
X285322619Y-10845238D01*
X285322619Y-11340476D01*
X285384523Y-11464285D01*
X285446428Y-11526190D01*
X285570238Y-11588095D01*
X285817857Y-11588095D01*
X285941666Y-11526190D01*
X286003571Y-11464285D01*
X286065476Y-11340476D01*
X286065476Y-11030952D01*
X286003571Y-10907142D01*
X285941666Y-10845238D01*
X285817857Y-10783333D01*
X285570238Y-10783333D01*
X285446428Y-10845238D01*
X285384523Y-10907142D01*
X285322619Y-11030952D01*
D10*
D11*
X60000000Y-198007200D02*
X60000000Y-200007200D01*
D10*
D11*
X110000000Y-198007200D02*
X110000000Y-200007200D01*
D10*
D11*
X160000000Y-198007200D02*
X160000000Y-200007200D01*
D10*
D11*
X210000000Y-198007200D02*
X210000000Y-200007200D01*
D10*
D11*
X260000000Y-198007200D02*
X260000000Y-200007200D01*
D10*
D11*
X36065476Y-199595295D02*
X35322619Y-199595295D01*
X35694047Y-199595295D02*
X35694047Y-198295295D01*
X35570238Y-198481009D01*
X35446428Y-198604819D01*
X35322619Y-198666723D01*
D10*
D11*
X85322619Y-198419104D02*
X85384523Y-198357200D01*
X85508333Y-198295295D01*
X85817857Y-198295295D01*
X85941666Y-198357200D01*
X86003571Y-198419104D01*
X86065476Y-198542914D01*
X86065476Y-198666723D01*
X86003571Y-198852438D01*
X85260714Y-199595295D01*
X86065476Y-199595295D01*
D10*
D11*
X135260714Y-198295295D02*
X136065476Y-198295295D01*
X135632142Y-198790533D01*
X135817857Y-198790533D01*
X135941666Y-198852438D01*
X136003571Y-198914342D01*
X136065476Y-199038152D01*
X136065476Y-199347676D01*
X136003571Y-199471485D01*
X135941666Y-199533390D01*
X135817857Y-199595295D01*
X135446428Y-199595295D01*
X135322619Y-199533390D01*
X135260714Y-199471485D01*
D10*
D11*
X185941666Y-198728628D02*
X185941666Y-199595295D01*
X185632142Y-198233390D02*
X185322619Y-199161961D01*
X186127380Y-199161961D01*
D10*
D11*
X236003571Y-198295295D02*
X235384523Y-198295295D01*
X235322619Y-198914342D01*
X235384523Y-198852438D01*
X235508333Y-198790533D01*
X235817857Y-198790533D01*
X235941666Y-198852438D01*
X236003571Y-198914342D01*
X236065476Y-199038152D01*
X236065476Y-199347676D01*
X236003571Y-199471485D01*
X235941666Y-199533390D01*
X235817857Y-199595295D01*
X235508333Y-199595295D01*
X235384523Y-199533390D01*
X235322619Y-199471485D01*
D10*
D11*
X285941666Y-198295295D02*
X285694047Y-198295295D01*
X285570238Y-198357200D01*
X285508333Y-198419104D01*
X285384523Y-198604819D01*
X285322619Y-198852438D01*
X285322619Y-199347676D01*
X285384523Y-199471485D01*
X285446428Y-199533390D01*
X285570238Y-199595295D01*
X285817857Y-199595295D01*
X285941666Y-199533390D01*
X286003571Y-199471485D01*
X286065476Y-199347676D01*
X286065476Y-199038152D01*
X286003571Y-198914342D01*
X285941666Y-198852438D01*
X285817857Y-198790533D01*
X285570238Y-198790533D01*
X285446428Y-198852438D01*
X285384523Y-198914342D01*
X285322619Y-199038152D01*
D10*
D11*
X10000000Y-60000000D02*
X12000000Y-60000000D01*
D10*
D11*
X10000000Y-110000000D02*
X12000000Y-110000000D01*
D10*
D11*
X10000000Y-160000000D02*
X12000000Y-160000000D01*
D10*
D11*
X10690476Y-35216666D02*
X11309523Y-35216666D01*
X10566666Y-35588095D02*
X11000000Y-34288095D01*
X11433333Y-35588095D01*
D10*
D11*
X11092857Y-84907142D02*
X11278571Y-84969047D01*
X11340476Y-85030952D01*
X11402380Y-85154761D01*
X11402380Y-85340476D01*
X11340476Y-85464285D01*
X11278571Y-85526190D01*
X11154761Y-85588095D01*
X10659523Y-85588095D01*
X10659523Y-84288095D01*
X11092857Y-84288095D01*
X11216666Y-84350000D01*
X11278571Y-84411904D01*
X11340476Y-84535714D01*
X11340476Y-84659523D01*
X11278571Y-84783333D01*
X11216666Y-84845238D01*
X11092857Y-84907142D01*
X10659523Y-84907142D01*
D10*
D11*
X11402380Y-135464285D02*
X11340476Y-135526190D01*
X11154761Y-135588095D01*
X11030952Y-135588095D01*
X10845238Y-135526190D01*
X10721428Y-135402380D01*
X10659523Y-135278571D01*
X10597619Y-135030952D01*
X10597619Y-134845238D01*
X10659523Y-134597619D01*
X10721428Y-134473809D01*
X10845238Y-134350000D01*
X11030952Y-134288095D01*
X11154761Y-134288095D01*
X11340476Y-134350000D01*
X11402380Y-134411904D01*
D10*
D11*
X10659523Y-185588095D02*
X10659523Y-184288095D01*
X10969047Y-184288095D01*
X11154761Y-184350000D01*
X11278571Y-184473809D01*
X11340476Y-184597619D01*
X11402380Y-184845238D01*
X11402380Y-185030952D01*
X11340476Y-185278571D01*
X11278571Y-185402380D01*
X11154761Y-185526190D01*
X10969047Y-185588095D01*
X10659523Y-185588095D01*
D10*
D11*
X287002200Y-60000000D02*
X285002200Y-60000000D01*
D10*
D11*
X287002200Y-110000000D02*
X285002200Y-110000000D01*
D10*
D11*
X287002200Y-160000000D02*
X285002200Y-160000000D01*
D10*
D11*
X285692676Y-35216666D02*
X286311723Y-35216666D01*
X285568866Y-35588095D02*
X286002200Y-34288095D01*
X286435533Y-35588095D01*
D10*
D11*
X286095057Y-84907142D02*
X286280771Y-84969047D01*
X286342676Y-85030952D01*
X286404580Y-85154761D01*
X286404580Y-85340476D01*
X286342676Y-85464285D01*
X286280771Y-85526190D01*
X286156961Y-85588095D01*
X285661723Y-85588095D01*
X285661723Y-84288095D01*
X286095057Y-84288095D01*
X286218866Y-84350000D01*
X286280771Y-84411904D01*
X286342676Y-84535714D01*
X286342676Y-84659523D01*
X286280771Y-84783333D01*
X286218866Y-84845238D01*
X286095057Y-84907142D01*
X285661723Y-84907142D01*
D10*
D11*
X286404580Y-135464285D02*
X286342676Y-135526190D01*
X286156961Y-135588095D01*
X286033152Y-135588095D01*
X285847438Y-135526190D01*
X285723628Y-135402380D01*
X285661723Y-135278571D01*
X285599819Y-135030952D01*
X285599819Y-134845238D01*
X285661723Y-134597619D01*
X285723628Y-134473809D01*
X285847438Y-134350000D01*
X286033152Y-134288095D01*
X286156961Y-134288095D01*
X286342676Y-134350000D01*
X286404580Y-134411904D01*
D10*
D11*
X285661723Y-185588095D02*
X285661723Y-184288095D01*
X285971247Y-184288095D01*
X286156961Y-184350000D01*
X286280771Y-184473809D01*
X286342676Y-184597619D01*
X286404580Y-184845238D01*
X286404580Y-185030952D01*
X286342676Y-185278571D01*
X286280771Y-185402380D01*
X286156961Y-185526190D01*
X285971247Y-185588095D01*
X285661723Y-185588095D01*
D10*
D11*
X200434342Y-193785771D02*
X200434342Y-192285771D01*
X200791485Y-192285771D01*
X201005771Y-192357200D01*
X201148628Y-192500057D01*
X201220057Y-192642914D01*
X201291485Y-192928628D01*
X201291485Y-193142914D01*
X201220057Y-193428628D01*
X201148628Y-193571485D01*
X201005771Y-193714342D01*
X200791485Y-193785771D01*
X200434342Y-193785771D01*
X202577200Y-193785771D02*
X202577200Y-193000057D01*
X202505771Y-192857200D01*
X202362914Y-192785771D01*
X202077200Y-192785771D01*
X201934342Y-192857200D01*
X202577200Y-193714342D02*
X202434342Y-193785771D01*
X202077200Y-193785771D01*
X201934342Y-193714342D01*
X201862914Y-193571485D01*
X201862914Y-193428628D01*
X201934342Y-193285771D01*
X202077200Y-193214342D01*
X202434342Y-193214342D01*
X202577200Y-193142914D01*
X203077200Y-192785771D02*
X203648628Y-192785771D01*
X203291485Y-192285771D02*
X203291485Y-193571485D01*
X203362914Y-193714342D01*
X203505771Y-193785771D01*
X203648628Y-193785771D01*
X204720057Y-193714342D02*
X204577200Y-193785771D01*
X204291485Y-193785771D01*
X204148628Y-193714342D01*
X204077200Y-193571485D01*
X204077200Y-193000057D01*
X204148628Y-192857200D01*
X204291485Y-192785771D01*
X204577200Y-192785771D01*
X204720057Y-192857200D01*
X204791485Y-193000057D01*
X204791485Y-193142914D01*
X204077200Y-193285771D01*
X205434342Y-193642914D02*
X205505771Y-193714342D01*
X205434342Y-193785771D01*
X205362914Y-193714342D01*
X205434342Y-193642914D01*
X205434342Y-193785771D01*
X205434342Y-192857200D02*
X205505771Y-192928628D01*
X205434342Y-193000057D01*
X205362914Y-192928628D01*
X205434342Y-192857200D01*
X205434342Y-193000057D01*
D10*
D11*
X177002200Y-194507200D02*
X285002200Y-194507200D01*
D10*
D11*
X178434342Y-196585771D02*
X178434342Y-195085771D01*
X179291485Y-196585771D02*
X178648628Y-195728628D01*
X179291485Y-195085771D02*
X178434342Y-195942914D01*
X179934342Y-196585771D02*
X179934342Y-195585771D01*
X179934342Y-195085771D02*
X179862914Y-195157200D01*
X179934342Y-195228628D01*
X180005771Y-195157200D01*
X179934342Y-195085771D01*
X179934342Y-195228628D01*
X181505771Y-196442914D02*
X181434342Y-196514342D01*
X181220057Y-196585771D01*
X181077200Y-196585771D01*
X180862914Y-196514342D01*
X180720057Y-196371485D01*
X180648628Y-196228628D01*
X180577200Y-195942914D01*
X180577200Y-195728628D01*
X180648628Y-195442914D01*
X180720057Y-195300057D01*
X180862914Y-195157200D01*
X181077200Y-195085771D01*
X181220057Y-195085771D01*
X181434342Y-195157200D01*
X181505771Y-195228628D01*
X182791485Y-196585771D02*
X182791485Y-195800057D01*
X182720057Y-195657200D01*
X182577200Y-195585771D01*
X182291485Y-195585771D01*
X182148628Y-195657200D01*
X182791485Y-196514342D02*
X182648628Y-196585771D01*
X182291485Y-196585771D01*
X182148628Y-196514342D01*
X182077200Y-196371485D01*
X182077200Y-196228628D01*
X182148628Y-196085771D01*
X182291485Y-196014342D01*
X182648628Y-196014342D01*
X182791485Y-195942914D01*
X184148628Y-196585771D02*
X184148628Y-195085771D01*
X184148628Y-196514342D02*
X184005771Y-196585771D01*
X183720057Y-196585771D01*
X183577200Y-196514342D01*
X183505771Y-196442914D01*
X183434342Y-196300057D01*
X183434342Y-195871485D01*
X183505771Y-195728628D01*
X183577200Y-195657200D01*
X183720057Y-195585771D01*
X184005771Y-195585771D01*
X184148628Y-195657200D01*
X186005771Y-195800057D02*
X186505771Y-195800057D01*
X186720057Y-196585771D02*
X186005771Y-196585771D01*
X186005771Y-195085771D01*
X186720057Y-195085771D01*
X187362914Y-196442914D02*
X187434342Y-196514342D01*
X187362914Y-196585771D01*
X187291485Y-196514342D01*
X187362914Y-196442914D01*
X187362914Y-196585771D01*
X188077200Y-196585771D02*
X188077200Y-195085771D01*
X188434342Y-195085771D01*
X188648628Y-195157200D01*
X188791485Y-195300057D01*
X188862914Y-195442914D01*
X188934342Y-195728628D01*
X188934342Y-195942914D01*
X188862914Y-196228628D01*
X188791485Y-196371485D01*
X188648628Y-196514342D01*
X188434342Y-196585771D01*
X188077200Y-196585771D01*
X189577200Y-196442914D02*
X189648628Y-196514342D01*
X189577200Y-196585771D01*
X189505771Y-196514342D01*
X189577200Y-196442914D01*
X189577200Y-196585771D01*
X190220057Y-196157200D02*
X190934342Y-196157200D01*
X190077200Y-196585771D02*
X190577200Y-195085771D01*
X191077200Y-196585771D01*
X191577200Y-196442914D02*
X191648628Y-196514342D01*
X191577200Y-196585771D01*
X191505771Y-196514342D01*
X191577200Y-196442914D01*
X191577200Y-196585771D01*
X194577200Y-196585771D02*
X194577200Y-195085771D01*
X194720057Y-196014342D02*
X195148628Y-196585771D01*
X195148628Y-195585771D02*
X194577200Y-196157200D01*
X195791485Y-196585771D02*
X195791485Y-195585771D01*
X195791485Y-195085771D02*
X195720057Y-195157200D01*
X195791485Y-195228628D01*
X195862914Y-195157200D01*
X195791485Y-195085771D01*
X195791485Y-195228628D01*
X197148628Y-196514342D02*
X197005771Y-196585771D01*
X196720057Y-196585771D01*
X196577200Y-196514342D01*
X196505771Y-196442914D01*
X196434342Y-196300057D01*
X196434342Y-195871485D01*
X196505771Y-195728628D01*
X196577200Y-195657200D01*
X196720057Y-195585771D01*
X197005771Y-195585771D01*
X197148628Y-195657200D01*
X198434342Y-196585771D02*
X198434342Y-195800057D01*
X198362914Y-195657200D01*
X198220057Y-195585771D01*
X197934342Y-195585771D01*
X197791485Y-195657200D01*
X198434342Y-196514342D02*
X198291485Y-196585771D01*
X197934342Y-196585771D01*
X197791485Y-196514342D01*
X197720057Y-196371485D01*
X197720057Y-196228628D01*
X197791485Y-196085771D01*
X197934342Y-196014342D01*
X198291485Y-196014342D01*
X198434342Y-195942914D01*
X199791485Y-196585771D02*
X199791485Y-195085771D01*
X199791485Y-196514342D02*
X199648628Y-196585771D01*
X199362914Y-196585771D01*
X199220057Y-196514342D01*
X199148628Y-196442914D01*
X199077200Y-196300057D01*
X199077200Y-195871485D01*
X199148628Y-195728628D01*
X199220057Y-195657200D01*
X199362914Y-195585771D01*
X199648628Y-195585771D01*
X199791485Y-195657200D01*
X202077200Y-197157200D02*
X202005771Y-197085771D01*
X201862914Y-196871485D01*
X201791485Y-196728628D01*
X201720057Y-196514342D01*
X201648628Y-196157200D01*
X201648628Y-195871485D01*
X201720057Y-195514342D01*
X201791485Y-195300057D01*
X201862914Y-195157200D01*
X202005771Y-194942914D01*
X202077200Y-194871485D01*
X202577200Y-195228628D02*
X202648628Y-195157200D01*
X202791485Y-195085771D01*
X203148628Y-195085771D01*
X203291485Y-195157200D01*
X203362914Y-195228628D01*
X203434342Y-195371485D01*
X203434342Y-195514342D01*
X203362914Y-195728628D01*
X202505771Y-196585771D01*
X203434342Y-196585771D01*
X204362914Y-195085771D02*
X204505771Y-195085771D01*
X204648628Y-195157200D01*
X204720057Y-195228628D01*
X204791485Y-195371485D01*
X204862914Y-195657200D01*
X204862914Y-196014342D01*
X204791485Y-196300057D01*
X204720057Y-196442914D01*
X204648628Y-196514342D01*
X204505771Y-196585771D01*
X204362914Y-196585771D01*
X204220057Y-196514342D01*
X204148628Y-196442914D01*
X204077200Y-196300057D01*
X204005771Y-196014342D01*
X204005771Y-195657200D01*
X204077200Y-195371485D01*
X204148628Y-195228628D01*
X204220057Y-195157200D01*
X204362914Y-195085771D01*
X206291485Y-196585771D02*
X205434342Y-196585771D01*
X205862914Y-196585771D02*
X205862914Y-195085771D01*
X205720057Y-195300057D01*
X205577200Y-195442914D01*
X205434342Y-195514342D01*
X207577200Y-195085771D02*
X207291485Y-195085771D01*
X207148628Y-195157200D01*
X207077200Y-195228628D01*
X206934342Y-195442914D01*
X206862914Y-195728628D01*
X206862914Y-196300057D01*
X206934342Y-196442914D01*
X207005771Y-196514342D01*
X207148628Y-196585771D01*
X207434342Y-196585771D01*
X207577200Y-196514342D01*
X207648628Y-196442914D01*
X207720057Y-196300057D01*
X207720057Y-195942914D01*
X207648628Y-195800057D01*
X207577200Y-195728628D01*
X207434342Y-195657200D01*
X207148628Y-195657200D01*
X207005771Y-195728628D01*
X206934342Y-195800057D01*
X206862914Y-195942914D01*
X208362914Y-196014342D02*
X209505771Y-196014342D01*
X210505771Y-195085771D02*
X210648628Y-195085771D01*
X210791485Y-195157200D01*
X210862914Y-195228628D01*
X210934342Y-195371485D01*
X211005771Y-195657200D01*
X211005771Y-196014342D01*
X210934342Y-196300057D01*
X210862914Y-196442914D01*
X210791485Y-196514342D01*
X210648628Y-196585771D01*
X210505771Y-196585771D01*
X210362914Y-196514342D01*
X210291485Y-196442914D01*
X210220057Y-196300057D01*
X210148628Y-196014342D01*
X210148628Y-195657200D01*
X210220057Y-195371485D01*
X210291485Y-195228628D01*
X210362914Y-195157200D01*
X210505771Y-195085771D01*
X211862914Y-195728628D02*
X211720057Y-195657200D01*
X211648628Y-195585771D01*
X211577200Y-195442914D01*
X211577200Y-195371485D01*
X211648628Y-195228628D01*
X211720057Y-195157200D01*
X211862914Y-195085771D01*
X212148628Y-195085771D01*
X212291485Y-195157200D01*
X212362914Y-195228628D01*
X212434342Y-195371485D01*
X212434342Y-195442914D01*
X212362914Y-195585771D01*
X212291485Y-195657200D01*
X212148628Y-195728628D01*
X211862914Y-195728628D01*
X211720057Y-195800057D01*
X211648628Y-195871485D01*
X211577200Y-196014342D01*
X211577200Y-196300057D01*
X211648628Y-196442914D01*
X211720057Y-196514342D01*
X211862914Y-196585771D01*
X212148628Y-196585771D01*
X212291485Y-196514342D01*
X212362914Y-196442914D01*
X212434342Y-196300057D01*
X212434342Y-196014342D01*
X212362914Y-195871485D01*
X212291485Y-195800057D01*
X212148628Y-195728628D01*
X213077200Y-196014342D02*
X214220057Y-196014342D01*
X215720057Y-196585771D02*
X214862914Y-196585771D01*
X215291485Y-196585771D02*
X215291485Y-195085771D01*
X215148628Y-195300057D01*
X215005771Y-195442914D01*
X214862914Y-195514342D01*
X217077200Y-195085771D02*
X216362914Y-195085771D01*
X216291485Y-195800057D01*
X216362914Y-195728628D01*
X216505771Y-195657200D01*
X216862914Y-195657200D01*
X217005771Y-195728628D01*
X217077200Y-195800057D01*
X217148628Y-195942914D01*
X217148628Y-196300057D01*
X217077200Y-196442914D01*
X217005771Y-196514342D01*
X216862914Y-196585771D01*
X216505771Y-196585771D01*
X216362914Y-196514342D01*
X216291485Y-196442914D01*
X219434342Y-195800057D02*
X219648628Y-195871485D01*
X219720057Y-195942914D01*
X219791485Y-196085771D01*
X219791485Y-196300057D01*
X219720057Y-196442914D01*
X219648628Y-196514342D01*
X219505771Y-196585771D01*
X218934342Y-196585771D01*
X218934342Y-195085771D01*
X219434342Y-195085771D01*
X219577200Y-195157200D01*
X219648628Y-195228628D01*
X219720057Y-195371485D01*
X219720057Y-195514342D01*
X219648628Y-195657200D01*
X219577200Y-195728628D01*
X219434342Y-195800057D01*
X218934342Y-195800057D01*
X220291485Y-195085771D02*
X221291485Y-195085771D01*
X220291485Y-196585771D01*
X221291485Y-196585771D01*
X222720057Y-196585771D02*
X222220057Y-195871485D01*
X221862914Y-196585771D02*
X221862914Y-195085771D01*
X222434342Y-195085771D01*
X222577200Y-195157200D01*
X222648628Y-195228628D01*
X222720057Y-195371485D01*
X222720057Y-195585771D01*
X222648628Y-195728628D01*
X222577200Y-195800057D01*
X222434342Y-195871485D01*
X221862914Y-195871485D01*
X224362914Y-195085771D02*
X225362914Y-195085771D01*
X224720057Y-196585771D01*
X226220057Y-195085771D02*
X226362914Y-195085771D01*
X226505771Y-195157200D01*
X226577200Y-195228628D01*
X226648628Y-195371485D01*
X226720057Y-195657200D01*
X226720057Y-196014342D01*
X226648628Y-196300057D01*
X226577200Y-196442914D01*
X226505771Y-196514342D01*
X226362914Y-196585771D01*
X226220057Y-196585771D01*
X226077200Y-196514342D01*
X226005771Y-196442914D01*
X225934342Y-196300057D01*
X225862914Y-196014342D01*
X225862914Y-195657200D01*
X225934342Y-195371485D01*
X226005771Y-195228628D01*
X226077200Y-195157200D01*
X226220057Y-195085771D01*
X228077200Y-195085771D02*
X227362914Y-195085771D01*
X227291485Y-195800057D01*
X227362914Y-195728628D01*
X227505771Y-195657200D01*
X227862914Y-195657200D01*
X228005771Y-195728628D01*
X228077200Y-195800057D01*
X228148628Y-195942914D01*
X228148628Y-196300057D01*
X228077200Y-196442914D01*
X228005771Y-196514342D01*
X227862914Y-196585771D01*
X227505771Y-196585771D01*
X227362914Y-196514342D01*
X227291485Y-196442914D01*
X228648628Y-195085771D02*
X229648628Y-195085771D01*
X229005771Y-196585771D01*
X230077199Y-197157200D02*
X230148628Y-197085771D01*
X230291485Y-196871485D01*
X230362914Y-196728628D01*
X230434342Y-196514342D01*
X230505771Y-196157200D01*
X230505771Y-195871485D01*
X230434342Y-195514342D01*
X230362914Y-195300057D01*
X230291485Y-195157200D01*
X230148628Y-194942914D01*
X230077199Y-194871485D01*
X231220057Y-196014342D02*
X232362914Y-196014342D01*
X233077199Y-195585771D02*
X233077199Y-197085771D01*
X233077199Y-195657200D02*
X233220057Y-195585771D01*
X233505771Y-195585771D01*
X233648628Y-195657200D01*
X233720057Y-195728628D01*
X233791485Y-195871485D01*
X233791485Y-196300057D01*
X233720057Y-196442914D01*
X233648628Y-196514342D01*
X233505771Y-196585771D01*
X233220057Y-196585771D01*
X233077199Y-196514342D01*
X234434342Y-196585771D02*
X234434342Y-195585771D01*
X234434342Y-195871485D02*
X234505771Y-195728628D01*
X234577199Y-195657200D01*
X234720057Y-195585771D01*
X234862914Y-195585771D01*
X235577199Y-196585771D02*
X235434342Y-196514342D01*
X235362914Y-196442914D01*
X235291485Y-196300057D01*
X235291485Y-195871485D01*
X235362914Y-195728628D01*
X235434342Y-195657200D01*
X235577199Y-195585771D01*
X235791485Y-195585771D01*
X235934342Y-195657200D01*
X236005771Y-195728628D01*
X236077199Y-195871485D01*
X236077199Y-196300057D01*
X236005771Y-196442914D01*
X235934342Y-196514342D01*
X235791485Y-196585771D01*
X235577199Y-196585771D01*
X237362914Y-196585771D02*
X237362914Y-195085771D01*
X237362914Y-196514342D02*
X237220057Y-196585771D01*
X236934342Y-196585771D01*
X236791485Y-196514342D01*
X236720057Y-196442914D01*
X236648628Y-196300057D01*
X236648628Y-195871485D01*
X236720057Y-195728628D01*
X236791485Y-195657200D01*
X236934342Y-195585771D01*
X237220057Y-195585771D01*
X237362914Y-195657200D01*
X238720057Y-195585771D02*
X238720057Y-196585771D01*
X238077199Y-195585771D02*
X238077199Y-196371485D01*
X238148628Y-196514342D01*
X238291485Y-196585771D01*
X238505771Y-196585771D01*
X238648628Y-196514342D01*
X238720057Y-196442914D01*
X240077199Y-196514342D02*
X239934342Y-196585771D01*
X239648628Y-196585771D01*
X239505771Y-196514342D01*
X239434342Y-196442914D01*
X239362914Y-196300057D01*
X239362914Y-195871485D01*
X239434342Y-195728628D01*
X239505771Y-195657200D01*
X239648628Y-195585771D01*
X239934342Y-195585771D01*
X240077199Y-195657200D01*
X240505771Y-195585771D02*
X241077199Y-195585771D01*
X240720057Y-195085771D02*
X240720057Y-196371485D01*
X240791485Y-196514342D01*
X240934342Y-196585771D01*
X241077199Y-196585771D01*
D10*
D11*
X177002200Y-191507200D02*
X285002200Y-191507200D01*
D10*
D12*
X264411485Y-193785771D02*
X263911485Y-193071485D01*
X263554342Y-193785771D02*
X263554342Y-192285771D01*
X264125771Y-192285771D01*
X264268628Y-192357200D01*
X264340057Y-192428628D01*
X264411485Y-192571485D01*
X264411485Y-192785771D01*
X264340057Y-192928628D01*
X264268628Y-193000057D01*
X264125771Y-193071485D01*
X263554342Y-193071485D01*
X265625771Y-193714342D02*
X265482914Y-193785771D01*
X265197200Y-193785771D01*
X265054342Y-193714342D01*
X264982914Y-193571485D01*
X264982914Y-193000057D01*
X265054342Y-192857200D01*
X265197200Y-192785771D01*
X265482914Y-192785771D01*
X265625771Y-192857200D01*
X265697200Y-193000057D01*
X265697200Y-193142914D01*
X264982914Y-193285771D01*
X266197200Y-192785771D02*
X266554342Y-193785771D01*
X266911485Y-192785771D01*
X267482914Y-193642914D02*
X267554342Y-193714342D01*
X267482914Y-193785771D01*
X267411485Y-193714342D01*
X267482914Y-193642914D01*
X267482914Y-193785771D01*
X267482914Y-192857200D02*
X267554342Y-192928628D01*
X267482914Y-193000057D01*
X267411485Y-192928628D01*
X267482914Y-192857200D01*
X267482914Y-193000057D01*
D10*
D11*
X178362914Y-193714342D02*
X178577200Y-193785771D01*
X178934342Y-193785771D01*
X179077200Y-193714342D01*
X179148628Y-193642914D01*
X179220057Y-193500057D01*
X179220057Y-193357200D01*
X179148628Y-193214342D01*
X179077200Y-193142914D01*
X178934342Y-193071485D01*
X178648628Y-193000057D01*
X178505771Y-192928628D01*
X178434342Y-192857200D01*
X178362914Y-192714342D01*
X178362914Y-192571485D01*
X178434342Y-192428628D01*
X178505771Y-192357200D01*
X178648628Y-192285771D01*
X179005771Y-192285771D01*
X179220057Y-192357200D01*
X179862914Y-193785771D02*
X179862914Y-192785771D01*
X179862914Y-192285771D02*
X179791485Y-192357200D01*
X179862914Y-192428628D01*
X179934342Y-192357200D01*
X179862914Y-192285771D01*
X179862914Y-192428628D01*
X180434342Y-192785771D02*
X181220057Y-192785771D01*
X180434342Y-193785771D01*
X181220057Y-193785771D01*
X182362914Y-193714342D02*
X182220057Y-193785771D01*
X181934342Y-193785771D01*
X181791485Y-193714342D01*
X181720057Y-193571485D01*
X181720057Y-193000057D01*
X181791485Y-192857200D01*
X181934342Y-192785771D01*
X182220057Y-192785771D01*
X182362914Y-192857200D01*
X182434342Y-193000057D01*
X182434342Y-193142914D01*
X181720057Y-193285771D01*
X183077200Y-193642914D02*
X183148628Y-193714342D01*
X183077200Y-193785771D01*
X183005771Y-193714342D01*
X183077200Y-193642914D01*
X183077200Y-193785771D01*
X183077200Y-192857200D02*
X183148628Y-192928628D01*
X183077200Y-193000057D01*
X183005771Y-192928628D01*
X183077200Y-192857200D01*
X183077200Y-193000057D01*
X184862914Y-193357200D02*
X185577200Y-193357200D01*
X184720057Y-193785771D02*
X185220057Y-192285771D01*
X185720057Y-193785771D01*
X186862914Y-192785771D02*
X186862914Y-193785771D01*
X186505771Y-192214342D02*
X186148628Y-193285771D01*
X187077200Y-193285771D01*
D10*
D11*
X263434342Y-196585771D02*
X263434342Y-195085771D01*
X264791485Y-196585771D02*
X264791485Y-195085771D01*
X264791485Y-196514342D02*
X264648628Y-196585771D01*
X264362914Y-196585771D01*
X264220057Y-196514342D01*
X264148628Y-196442914D01*
X264077200Y-196300057D01*
X264077200Y-195871485D01*
X264148628Y-195728628D01*
X264220057Y-195657200D01*
X264362914Y-195585771D01*
X264648628Y-195585771D01*
X264791485Y-195657200D01*
X265505771Y-196442914D02*
X265577200Y-196514342D01*
X265505771Y-196585771D01*
X265434342Y-196514342D01*
X265505771Y-196442914D01*
X265505771Y-196585771D01*
X265505771Y-195657200D02*
X265577200Y-195728628D01*
X265505771Y-195800057D01*
X265434342Y-195728628D01*
X265505771Y-195657200D01*
X265505771Y-195800057D01*
X268148628Y-196585771D02*
X267291485Y-196585771D01*
X267720057Y-196585771D02*
X267720057Y-195085771D01*
X267577200Y-195300057D01*
X267434342Y-195442914D01*
X267291485Y-195514342D01*
X269862914Y-195014342D02*
X268577200Y-196942914D01*
X271148628Y-196585771D02*
X270291485Y-196585771D01*
X270720057Y-196585771D02*
X270720057Y-195085771D01*
X270577200Y-195300057D01*
X270434342Y-195442914D01*
X270291485Y-195514342D01*
D10*
D11*
X177002200Y-187507200D02*
X285002200Y-187507200D01*
D10*
D13*
X178714580Y-188211961D02*
X179857438Y-188211961D01*
X179036009Y-190211961D02*
X179286009Y-188211961D01*
X180274104Y-190211961D02*
X180440771Y-188878628D01*
X180524104Y-188211961D02*
X180416961Y-188307200D01*
X180500295Y-188402438D01*
X180607438Y-188307200D01*
X180524104Y-188211961D01*
X180500295Y-188402438D01*
X181107438Y-188878628D02*
X181869342Y-188878628D01*
X181476485Y-188211961D02*
X181262200Y-189926247D01*
X181333628Y-190116723D01*
X181512200Y-190211961D01*
X181702676Y-190211961D01*
X182655057Y-190211961D02*
X182476485Y-190116723D01*
X182405057Y-189926247D01*
X182619342Y-188211961D01*
X184190771Y-190116723D02*
X183988390Y-190211961D01*
X183607438Y-190211961D01*
X183428866Y-190116723D01*
X183357438Y-189926247D01*
X183452676Y-189164342D01*
X183571723Y-188973866D01*
X183774104Y-188878628D01*
X184155057Y-188878628D01*
X184333628Y-188973866D01*
X184405057Y-189164342D01*
X184381247Y-189354819D01*
X183405057Y-189545295D01*
X185155057Y-190021485D02*
X185238390Y-190116723D01*
X185131247Y-190211961D01*
X185047914Y-190116723D01*
X185155057Y-190021485D01*
X185131247Y-190211961D01*
X185286009Y-188973866D02*
X185369342Y-189069104D01*
X185262200Y-189164342D01*
X185178866Y-189069104D01*
X185286009Y-188973866D01*
X185262200Y-189164342D01*
D10*
D11*
X178934342Y-185600057D02*
X178434342Y-185600057D01*
X178434342Y-186385771D02*
X178434342Y-184885771D01*
X179148628Y-184885771D01*
X179720057Y-186385771D02*
X179720057Y-185385771D01*
X179720057Y-184885771D02*
X179648628Y-184957200D01*
X179720057Y-185028628D01*
X179791485Y-184957200D01*
X179720057Y-184885771D01*
X179720057Y-185028628D01*
X180648628Y-186385771D02*
X180505771Y-186314342D01*
X180434342Y-186171485D01*
X180434342Y-184885771D01*
X181791485Y-186314342D02*
X181648628Y-186385771D01*
X181362914Y-186385771D01*
X181220057Y-186314342D01*
X181148628Y-186171485D01*
X181148628Y-185600057D01*
X181220057Y-185457200D01*
X181362914Y-185385771D01*
X181648628Y-185385771D01*
X181791485Y-185457200D01*
X181862914Y-185600057D01*
X181862914Y-185742914D01*
X181148628Y-185885771D01*
X182505771Y-186242914D02*
X182577200Y-186314342D01*
X182505771Y-186385771D01*
X182434342Y-186314342D01*
X182505771Y-186242914D01*
X182505771Y-186385771D01*
X182505771Y-185457200D02*
X182577200Y-185528628D01*
X182505771Y-185600057D01*
X182434342Y-185528628D01*
X182505771Y-185457200D01*
X182505771Y-185600057D01*
X184291485Y-186314342D02*
X184434342Y-186385771D01*
X184720057Y-186385771D01*
X184862914Y-186314342D01*
X184934342Y-186171485D01*
X184934342Y-186100057D01*
X184862914Y-185957200D01*
X184720057Y-185885771D01*
X184505771Y-185885771D01*
X184362914Y-185814342D01*
X184291485Y-185671485D01*
X184291485Y-185600057D01*
X184362914Y-185457200D01*
X184505771Y-185385771D01*
X184720057Y-185385771D01*
X184862914Y-185457200D01*
X185362914Y-185385771D02*
X185934342Y-185385771D01*
X185577200Y-184885771D02*
X185577200Y-186171485D01*
X185648628Y-186314342D01*
X185791485Y-186385771D01*
X185934342Y-186385771D01*
X187005771Y-186314342D02*
X186862914Y-186385771D01*
X186577200Y-186385771D01*
X186434342Y-186314342D01*
X186362914Y-186171485D01*
X186362914Y-185600057D01*
X186434342Y-185457200D01*
X186577200Y-185385771D01*
X186862914Y-185385771D01*
X187005771Y-185457200D01*
X187077200Y-185600057D01*
X187077200Y-185742914D01*
X186362914Y-185885771D01*
X187720057Y-185385771D02*
X187720057Y-186885771D01*
X187720057Y-185457200D02*
X187862914Y-185385771D01*
X188148628Y-185385771D01*
X188291485Y-185457200D01*
X188362914Y-185528628D01*
X188434342Y-185671485D01*
X188434342Y-186100057D01*
X188362914Y-186242914D01*
X188291485Y-186314342D01*
X188148628Y-186385771D01*
X187862914Y-186385771D01*
X187720057Y-186314342D01*
X189077200Y-185385771D02*
X189077200Y-186885771D01*
X189077200Y-185457200D02*
X189220057Y-185385771D01*
X189505771Y-185385771D01*
X189648628Y-185457200D01*
X189720057Y-185528628D01*
X189791485Y-185671485D01*
X189791485Y-186100057D01*
X189720057Y-186242914D01*
X189648628Y-186314342D01*
X189505771Y-186385771D01*
X189220057Y-186385771D01*
X189077200Y-186314342D01*
X191005771Y-186314342D02*
X190862914Y-186385771D01*
X190577200Y-186385771D01*
X190434342Y-186314342D01*
X190362914Y-186171485D01*
X190362914Y-185600057D01*
X190434342Y-185457200D01*
X190577200Y-185385771D01*
X190862914Y-185385771D01*
X191005771Y-185457200D01*
X191077200Y-185600057D01*
X191077200Y-185742914D01*
X190362914Y-185885771D01*
X191720057Y-186385771D02*
X191720057Y-185385771D01*
X191720057Y-185671485D02*
X191791485Y-185528628D01*
X191862914Y-185457200D01*
X192005771Y-185385771D01*
X192148628Y-185385771D01*
X192648628Y-186242914D02*
X192720057Y-186314342D01*
X192648628Y-186385771D01*
X192577200Y-186314342D01*
X192648628Y-186242914D01*
X192648628Y-186385771D01*
X193362914Y-186385771D02*
X193362914Y-184885771D01*
X193505771Y-185814342D02*
X193934342Y-186385771D01*
X193934342Y-185385771D02*
X193362914Y-185957200D01*
X194577200Y-186385771D02*
X194577200Y-185385771D01*
X194577200Y-184885771D02*
X194505771Y-184957200D01*
X194577200Y-185028628D01*
X194648628Y-184957200D01*
X194577200Y-184885771D01*
X194577200Y-185028628D01*
X195934342Y-186314342D02*
X195791485Y-186385771D01*
X195505771Y-186385771D01*
X195362914Y-186314342D01*
X195291485Y-186242914D01*
X195220057Y-186100057D01*
X195220057Y-185671485D01*
X195291485Y-185528628D01*
X195362914Y-185457200D01*
X195505771Y-185385771D01*
X195791485Y-185385771D01*
X195934342Y-185457200D01*
X197220057Y-186385771D02*
X197220057Y-185600057D01*
X197148628Y-185457200D01*
X197005771Y-185385771D01*
X196720057Y-185385771D01*
X196577200Y-185457200D01*
X197220057Y-186314342D02*
X197077200Y-186385771D01*
X196720057Y-186385771D01*
X196577200Y-186314342D01*
X196505771Y-186171485D01*
X196505771Y-186028628D01*
X196577200Y-185885771D01*
X196720057Y-185814342D01*
X197077200Y-185814342D01*
X197220057Y-185742914D01*
X198577200Y-186385771D02*
X198577200Y-184885771D01*
X198577200Y-186314342D02*
X198434342Y-186385771D01*
X198148628Y-186385771D01*
X198005771Y-186314342D01*
X197934342Y-186242914D01*
X197862914Y-186100057D01*
X197862914Y-185671485D01*
X197934342Y-185528628D01*
X198005771Y-185457200D01*
X198148628Y-185385771D01*
X198434342Y-185385771D01*
X198577200Y-185457200D01*
X198934342Y-186528628D02*
X200077200Y-186528628D01*
X200434342Y-185385771D02*
X200434342Y-186885771D01*
X200434342Y-185457200D02*
X200577200Y-185385771D01*
X200862914Y-185385771D01*
X201005771Y-185457200D01*
X201077200Y-185528628D01*
X201148628Y-185671485D01*
X201148628Y-186100057D01*
X201077200Y-186242914D01*
X201005771Y-186314342D01*
X200862914Y-186385771D01*
X200577200Y-186385771D01*
X200434342Y-186314342D01*
X202434342Y-186314342D02*
X202291485Y-186385771D01*
X202005771Y-186385771D01*
X201862914Y-186314342D01*
X201791485Y-186242914D01*
X201720057Y-186100057D01*
X201720057Y-185671485D01*
X201791485Y-185528628D01*
X201862914Y-185457200D01*
X202005771Y-185385771D01*
X202291485Y-185385771D01*
X202434342Y-185457200D01*
X203077200Y-186385771D02*
X203077200Y-184885771D01*
X203077200Y-185457200D02*
X203220057Y-185385771D01*
X203505771Y-185385771D01*
X203648628Y-185457200D01*
X203720057Y-185528628D01*
X203791485Y-185671485D01*
X203791485Y-186100057D01*
X203720057Y-186242914D01*
X203648628Y-186314342D01*
X203505771Y-186385771D01*
X203220057Y-186385771D01*
X203077200Y-186314342D01*
D10*
D11*
X177002200Y-181507200D02*
X285002200Y-181507200D01*
D10*
D11*
X178362914Y-183614342D02*
X178577200Y-183685771D01*
X178934342Y-183685771D01*
X179077200Y-183614342D01*
X179148628Y-183542914D01*
X179220057Y-183400057D01*
X179220057Y-183257200D01*
X179148628Y-183114342D01*
X179077200Y-183042914D01*
X178934342Y-182971485D01*
X178648628Y-182900057D01*
X178505771Y-182828628D01*
X178434342Y-182757200D01*
X178362914Y-182614342D01*
X178362914Y-182471485D01*
X178434342Y-182328628D01*
X178505771Y-182257200D01*
X178648628Y-182185771D01*
X179005771Y-182185771D01*
X179220057Y-182257200D01*
X179862914Y-183685771D02*
X179862914Y-182185771D01*
X180505771Y-183685771D02*
X180505771Y-182900057D01*
X180434342Y-182757200D01*
X180291485Y-182685771D01*
X180077200Y-182685771D01*
X179934342Y-182757200D01*
X179862914Y-182828628D01*
X181791485Y-183614342D02*
X181648628Y-183685771D01*
X181362914Y-183685771D01*
X181220057Y-183614342D01*
X181148628Y-183471485D01*
X181148628Y-182900057D01*
X181220057Y-182757200D01*
X181362914Y-182685771D01*
X181648628Y-182685771D01*
X181791485Y-182757200D01*
X181862914Y-182900057D01*
X181862914Y-183042914D01*
X181148628Y-183185771D01*
X183077200Y-183614342D02*
X182934342Y-183685771D01*
X182648628Y-183685771D01*
X182505771Y-183614342D01*
X182434342Y-183471485D01*
X182434342Y-182900057D01*
X182505771Y-182757200D01*
X182648628Y-182685771D01*
X182934342Y-182685771D01*
X183077200Y-182757200D01*
X183148628Y-182900057D01*
X183148628Y-183042914D01*
X182434342Y-183185771D01*
X183577200Y-182685771D02*
X184148628Y-182685771D01*
X183791485Y-182185771D02*
X183791485Y-183471485D01*
X183862914Y-183614342D01*
X184005771Y-183685771D01*
X184148628Y-183685771D01*
X184648628Y-183542914D02*
X184720057Y-183614342D01*
X184648628Y-183685771D01*
X184577200Y-183614342D01*
X184648628Y-183542914D01*
X184648628Y-183685771D01*
X184648628Y-182757200D02*
X184720057Y-182828628D01*
X184648628Y-182900057D01*
X184577200Y-182828628D01*
X184648628Y-182757200D01*
X184648628Y-182900057D01*
D10*
D11*
X197002200Y-191507200D02*
X197002200Y-194507200D01*
D10*
D11*
X261002200Y-191507200D02*
X261002200Y-198007200D01*
X139700000Y-115570000D02*
G75*
G03X142240000Y-118110000I2540000J0D01*
G01*
X208280000Y-118110000D02*
G75*
G03X210820000Y-115570000I0J2540000D01*
G01*
X142240000Y-17780000D02*
G75*
G03X139700000Y-20320000I0J-2540000D01*
G01*
X210820000Y-115570000D02*
X210820000Y-20320000D01*
X210820000Y-20320000D02*
G75*
G03X208280000Y-17780000I-2540000J0D01*
G01*
X142240000Y-118110000D02*
X208280000Y-118110000D01*
X139700000Y-20320000D02*
X139700000Y-115570000D01*
X208280000Y-17780000D02*
X142240000Y-17780000D01*
D14*
X163322000Y-103759000D02*
X163322000Y-101219000D01*
X163322000Y-101219000D02*
X170942000Y-101219000D01*
X170942000Y-101219000D02*
X170942000Y-103759000D01*
X170942000Y-103759000D02*
X163322000Y-103759000D01*
X162052000Y-97409000D02*
X172212000Y-97409000D01*
X172212000Y-97409000D02*
X172212000Y-107569000D01*
X172212000Y-107569000D02*
X162052000Y-107569000D01*
X162052000Y-107569000D02*
X162052000Y-97409000D01*
X165862000Y-101219000D02*
X165862000Y-103759000D01*
X168402000Y-101219000D02*
X168402000Y-103759000D01*
X181610000Y-101219000D02*
X181610000Y-103759000D01*
X179070000Y-101219000D02*
X179070000Y-103759000D01*
X175260000Y-107569000D02*
X175260000Y-97409000D01*
X185420000Y-107569000D02*
X175260000Y-107569000D01*
X185420000Y-97409000D02*
X185420000Y-107569000D01*
X175260000Y-97409000D02*
X185420000Y-97409000D01*
X184150000Y-103759000D02*
X176530000Y-103759000D01*
X184150000Y-101219000D02*
X184150000Y-103759000D01*
X176530000Y-101219000D02*
X184150000Y-101219000D01*
X176530000Y-103759000D02*
X176530000Y-101219000D01*
D15*
X152353000Y-87662000D02*
X152353000Y-89162000D01*
X158623000Y-86487000D02*
X158623000Y-87122000D01*
X158623000Y-87122000D02*
X156083000Y-87122000D01*
X156083000Y-87122000D02*
X156083000Y-86487000D01*
X160528000Y-87122000D02*
X160528000Y-86487000D01*
X160528000Y-86487000D02*
X154178000Y-86487000D01*
X154178000Y-86487000D02*
X154178000Y-87122000D01*
X154178000Y-92202000D02*
X154178000Y-92837000D01*
X154178000Y-92837000D02*
X160528000Y-92837000D01*
X160528000Y-92837000D02*
X160528000Y-92202000D01*
X183769000Y-92837000D02*
X183769000Y-92202000D01*
X177419000Y-92837000D02*
X183769000Y-92837000D01*
X177419000Y-92202000D02*
X177419000Y-92837000D01*
X177419000Y-86487000D02*
X177419000Y-87122000D01*
X183769000Y-86487000D02*
X177419000Y-86487000D01*
X183769000Y-87122000D02*
X183769000Y-86487000D01*
X179324000Y-87122000D02*
X179324000Y-86487000D01*
X181864000Y-87122000D02*
X179324000Y-87122000D01*
X181864000Y-86487000D02*
X181864000Y-87122000D01*
X175594000Y-87662000D02*
X175594000Y-89162000D01*
X164418000Y-87662000D02*
X164418000Y-89162000D01*
X170688000Y-86487000D02*
X170688000Y-87122000D01*
X170688000Y-87122000D02*
X168148000Y-87122000D01*
X168148000Y-87122000D02*
X168148000Y-86487000D01*
X172593000Y-87122000D02*
X172593000Y-86487000D01*
X172593000Y-86487000D02*
X166243000Y-86487000D01*
X166243000Y-86487000D02*
X166243000Y-87122000D01*
X166243000Y-92202000D02*
X166243000Y-92837000D01*
X166243000Y-92837000D02*
X172593000Y-92837000D01*
X172593000Y-92837000D02*
X172593000Y-92202000D01*
D11*
X191008000Y-34798040D02*
X188214000Y-34798040D01*
X201168000Y-34671040D02*
X203708000Y-34671040D01*
X191008000Y-29718040D02*
X201168000Y-29718040D01*
X191008000Y-39878040D02*
X201168000Y-39878040D01*
X199263000Y-39878040D02*
X199263000Y-29718040D01*
X199898000Y-39878040D02*
X199898000Y-29718040D01*
X200533000Y-39878040D02*
X200533000Y-29718040D01*
X191008000Y-39878040D02*
X191008000Y-29718040D01*
X201168000Y-39878040D02*
X201168000Y-29718040D01*
D15*
X188040000Y-103410000D02*
X188040000Y-104910000D01*
X194310000Y-102235000D02*
X194310000Y-102870000D01*
X194310000Y-102870000D02*
X191770000Y-102870000D01*
X191770000Y-102870000D02*
X191770000Y-102235000D01*
X196215000Y-102870000D02*
X196215000Y-102235000D01*
X196215000Y-102235000D02*
X189865000Y-102235000D01*
X189865000Y-102235000D02*
X189865000Y-102870000D01*
X189865000Y-107950000D02*
X189865000Y-108585000D01*
X189865000Y-108585000D02*
X196215000Y-108585000D01*
X196215000Y-108585000D02*
X196215000Y-107950000D01*
X196215000Y-100647500D02*
X196215000Y-100012500D01*
X189865000Y-100647500D02*
X196215000Y-100647500D01*
X189865000Y-100012500D02*
X189865000Y-100647500D01*
X189865000Y-94297500D02*
X189865000Y-94932500D01*
X196215000Y-94297500D02*
X189865000Y-94297500D01*
X196215000Y-94932500D02*
X196215000Y-94297500D01*
X191770000Y-94932500D02*
X191770000Y-94297500D01*
X194310000Y-94932500D02*
X191770000Y-94932500D01*
X194310000Y-94297500D02*
X194310000Y-94932500D01*
X188040000Y-95472500D02*
X188040000Y-96972500D01*
X187913000Y-87662000D02*
X187913000Y-89162000D01*
X194183000Y-86487000D02*
X194183000Y-87122000D01*
X194183000Y-87122000D02*
X191643000Y-87122000D01*
X191643000Y-87122000D02*
X191643000Y-86487000D01*
X196088000Y-87122000D02*
X196088000Y-86487000D01*
X196088000Y-86487000D02*
X189738000Y-86487000D01*
X189738000Y-86487000D02*
X189738000Y-87122000D01*
X189738000Y-92202000D02*
X189738000Y-92837000D01*
X189738000Y-92837000D02*
X196088000Y-92837000D01*
X196088000Y-92837000D02*
X196088000Y-92202000D01*
D11*
X199215000Y-86060000D02*
X199815000Y-86360000D01*
X199215000Y-86660000D02*
X199215000Y-86060000D01*
X199815000Y-86360000D02*
X199215000Y-86660000D01*
X205315000Y-77060000D02*
X205315000Y-82610000D01*
X202365000Y-77060000D02*
X205315000Y-77060000D01*
X202365000Y-76310000D02*
X202365000Y-77060000D01*
X205315000Y-88160000D02*
X205315000Y-82610000D01*
X202365000Y-88160000D02*
X205315000Y-88160000D01*
X202365000Y-88910000D02*
X202365000Y-88160000D01*
X200115000Y-76310000D02*
X200115000Y-78110000D01*
X200865000Y-76310000D02*
X200115000Y-76310000D01*
X200865000Y-78110000D02*
X200865000Y-76310000D01*
X200115000Y-78110000D02*
X200865000Y-78110000D01*
X200115000Y-87110000D02*
X200115000Y-88910000D01*
X200865000Y-87110000D02*
X200115000Y-87110000D01*
X200865000Y-88910000D02*
X200865000Y-87110000D01*
X200115000Y-88910000D02*
X200865000Y-88910000D01*
X200115000Y-79610000D02*
X200115000Y-85610000D01*
X200865000Y-79610000D02*
X200115000Y-79610000D01*
X200865000Y-85610000D02*
X200865000Y-79610000D01*
X200115000Y-85610000D02*
X200865000Y-85610000D01*
X200115000Y-76310000D02*
X200115000Y-88910000D01*
X206065000Y-76310000D02*
X200115000Y-76310000D01*
X206065000Y-88910000D02*
X206065000Y-76310000D01*
X200115000Y-88910000D02*
X206065000Y-88910000D01*
X200115000Y-108515000D02*
X206065000Y-108515000D01*
X206065000Y-108515000D02*
X206065000Y-95915000D01*
X206065000Y-95915000D02*
X200115000Y-95915000D01*
X200115000Y-95915000D02*
X200115000Y-108515000D01*
X200115000Y-105215000D02*
X200865000Y-105215000D01*
X200865000Y-105215000D02*
X200865000Y-99215000D01*
X200865000Y-99215000D02*
X200115000Y-99215000D01*
X200115000Y-99215000D02*
X200115000Y-105215000D01*
X200115000Y-108515000D02*
X200865000Y-108515000D01*
X200865000Y-108515000D02*
X200865000Y-106715000D01*
X200865000Y-106715000D02*
X200115000Y-106715000D01*
X200115000Y-106715000D02*
X200115000Y-108515000D01*
X200115000Y-97715000D02*
X200865000Y-97715000D01*
X200865000Y-97715000D02*
X200865000Y-95915000D01*
X200865000Y-95915000D02*
X200115000Y-95915000D01*
X200115000Y-95915000D02*
X200115000Y-97715000D01*
X202365000Y-108515000D02*
X202365000Y-107765000D01*
X202365000Y-107765000D02*
X205315000Y-107765000D01*
X205315000Y-107765000D02*
X205315000Y-102215000D01*
X202365000Y-95915000D02*
X202365000Y-96665000D01*
X202365000Y-96665000D02*
X205315000Y-96665000D01*
X205315000Y-96665000D02*
X205315000Y-102215000D01*
X199815000Y-105965000D02*
X199215000Y-106265000D01*
X199215000Y-106265000D02*
X199215000Y-105665000D01*
X199215000Y-105665000D02*
X199815000Y-105965000D01*
X155448220Y-34798040D02*
X156972220Y-34798040D01*
X146304220Y-34798040D02*
X144780220Y-34798040D01*
X147320220Y-32004040D02*
X147320220Y-37592040D01*
X147066220Y-32004040D02*
X147066220Y-37592040D01*
X146812220Y-32004040D02*
X146812220Y-37592040D01*
X146304220Y-37592040D02*
X146304220Y-32004040D01*
X146304220Y-32004040D02*
X155448220Y-32004040D01*
X155448220Y-32004040D02*
X155448220Y-37592040D01*
X155448220Y-37592040D02*
X146304220Y-37592040D01*
X147290840Y-93995240D02*
X147339100Y-93995240D01*
X150089820Y-93294200D02*
X150089820Y-93995240D01*
X150089820Y-93995240D02*
X149840900Y-93995240D01*
X147290840Y-93995240D02*
X147090180Y-93995240D01*
X147090180Y-93995240D02*
X147090180Y-93294200D01*
X145945000Y-82912000D02*
G75*
G03X145945000Y-82912000I-100000J0D01*
G01*
X145595000Y-83562000D02*
X145595000Y-83062000D01*
X142695000Y-83562000D02*
X145595000Y-83562000D01*
X142695000Y-83062000D02*
X142695000Y-83562000D01*
X145595000Y-83062000D02*
X142695000Y-83062000D01*
X151025000Y-82785000D02*
G75*
G03X151025000Y-82785000I-100000J0D01*
G01*
X150675000Y-83435000D02*
X150675000Y-82935000D01*
X147775000Y-83435000D02*
X150675000Y-83435000D01*
X147775000Y-82935000D02*
X147775000Y-83435000D01*
X150675000Y-82935000D02*
X147775000Y-82935000D01*
D16*
X151511000Y-104825800D02*
X152019000Y-104825800D01*
X152781000Y-104825800D02*
X153289000Y-104825800D01*
X154051000Y-104800400D02*
X154559000Y-104800400D01*
X155321000Y-104825800D02*
X155829000Y-104825800D01*
X151511000Y-100914200D02*
X152019000Y-100914200D01*
X156591000Y-104825800D02*
X157099000Y-104825800D01*
X157861000Y-104825800D02*
X158369000Y-104825800D01*
X159131000Y-104825800D02*
X159639000Y-104825800D01*
D17*
X159639000Y-100914200D02*
X151511000Y-100914200D01*
X151511000Y-104825800D02*
X159639000Y-104825800D01*
X160020000Y-104444800D02*
X160020000Y-101295200D01*
X151130000Y-101295200D02*
X151130000Y-104444800D01*
X151130000Y-104470200D02*
X160020000Y-104470200D01*
X159639000Y-104825800D02*
G75*
G03X160020000Y-104444800I0J381000D01*
G01*
X151511000Y-100914200D02*
G75*
G03X151130000Y-101295200I0J-381000D01*
G01*
X160020000Y-101295200D02*
G75*
G03X159639000Y-100914200I-381000J0D01*
G01*
X151130000Y-104444800D02*
G75*
G03X151511000Y-104825800I381000J0D01*
G01*
X151130000Y-103378000D02*
G75*
G03X151130000Y-102362000I0J508000D01*
G01*
D11*
X172821000Y-45267000D02*
X166523000Y-45267000D01*
X172815000Y-45407000D02*
X166529000Y-45407000D01*
X172802000Y-45547000D02*
X170118000Y-45547000D01*
X169226000Y-45547000D02*
X166542000Y-45547000D01*
X172783000Y-45687000D02*
X170328000Y-45687000D01*
X169016000Y-45687000D02*
X166561000Y-45687000D01*
X172757000Y-45827000D02*
X170461000Y-45827000D01*
X168883000Y-45827000D02*
X166587000Y-45827000D01*
X172725000Y-45967000D02*
X170552000Y-45967000D01*
X168792000Y-45967000D02*
X166619000Y-45967000D01*
X172686000Y-46107000D02*
X170614000Y-46107000D01*
X168730000Y-46107000D02*
X166658000Y-46107000D01*
X172640000Y-46247000D02*
X170653000Y-46247000D01*
X168691000Y-46247000D02*
X166704000Y-46247000D01*
X172587000Y-46387000D02*
X170670000Y-46387000D01*
X168674000Y-46387000D02*
X166757000Y-46387000D01*
X172525000Y-46527000D02*
X170668000Y-46527000D01*
X168676000Y-46527000D02*
X166819000Y-46527000D01*
X172455000Y-46667000D02*
X170646000Y-46667000D01*
X168698000Y-46667000D02*
X166889000Y-46667000D01*
X172376000Y-46807000D02*
X170603000Y-46807000D01*
X168741000Y-46807000D02*
X166968000Y-46807000D01*
X172288000Y-46947000D02*
X170535000Y-46947000D01*
X168809000Y-46947000D02*
X167056000Y-46947000D01*
X172188000Y-47087000D02*
X170436000Y-47087000D01*
X168908000Y-47087000D02*
X167156000Y-47087000D01*
X172076000Y-47227000D02*
X170291000Y-47227000D01*
X169053000Y-47227000D02*
X167268000Y-47227000D01*
X171951000Y-47367000D02*
X170052000Y-47367000D01*
X169292000Y-47367000D02*
X167393000Y-47367000D01*
X171808000Y-47507000D02*
X167536000Y-47507000D01*
X171646000Y-47647000D02*
X167698000Y-47647000D01*
X171458000Y-47787000D02*
X167886000Y-47787000D01*
X171235000Y-47927000D02*
X168109000Y-47927000D01*
X170959000Y-48067000D02*
X168385000Y-48067000D01*
X170584000Y-48207000D02*
X168760000Y-48207000D01*
X170672000Y-46442000D02*
G75*
G03X170672000Y-46442000I-1000000J0D01*
G01*
X172859500Y-45192000D02*
G75*
G03X172859500Y-45192000I-3187500J0D01*
G01*
X160179000Y-48107000D02*
X160179000Y-41809000D01*
X160039000Y-48101000D02*
X160039000Y-41815000D01*
X159899000Y-48088000D02*
X159899000Y-45404000D01*
X159899000Y-44512000D02*
X159899000Y-41828000D01*
X159759000Y-48069000D02*
X159759000Y-45614000D01*
X159759000Y-44302000D02*
X159759000Y-41847000D01*
X159619000Y-48043000D02*
X159619000Y-45747000D01*
X159619000Y-44169000D02*
X159619000Y-41873000D01*
X159479000Y-48011000D02*
X159479000Y-45838000D01*
X159479000Y-44078000D02*
X159479000Y-41905000D01*
X159339000Y-47972000D02*
X159339000Y-45900000D01*
X159339000Y-44016000D02*
X159339000Y-41944000D01*
X159199000Y-47926000D02*
X159199000Y-45939000D01*
X159199000Y-43977000D02*
X159199000Y-41990000D01*
X159059000Y-47873000D02*
X159059000Y-45956000D01*
X159059000Y-43960000D02*
X159059000Y-42043000D01*
X158919000Y-47811000D02*
X158919000Y-45954000D01*
X158919000Y-43962000D02*
X158919000Y-42105000D01*
X158779000Y-47741000D02*
X158779000Y-45932000D01*
X158779000Y-43984000D02*
X158779000Y-42175000D01*
X158639000Y-47662000D02*
X158639000Y-45889000D01*
X158639000Y-44027000D02*
X158639000Y-42254000D01*
X158499000Y-47574000D02*
X158499000Y-45821000D01*
X158499000Y-44095000D02*
X158499000Y-42342000D01*
X158359000Y-47474000D02*
X158359000Y-45722000D01*
X158359000Y-44194000D02*
X158359000Y-42442000D01*
X158219000Y-47362000D02*
X158219000Y-45577000D01*
X158219000Y-44339000D02*
X158219000Y-42554000D01*
X158079000Y-47237000D02*
X158079000Y-45338000D01*
X158079000Y-44578000D02*
X158079000Y-42679000D01*
X157939000Y-47094000D02*
X157939000Y-42822000D01*
X157799000Y-46932000D02*
X157799000Y-42984000D01*
X157659000Y-46744000D02*
X157659000Y-43172000D01*
X157519000Y-46521000D02*
X157519000Y-43395000D01*
X157379000Y-46245000D02*
X157379000Y-43671000D01*
X157239000Y-45870000D02*
X157239000Y-44046000D01*
X160004000Y-44958000D02*
G75*
G03X160004000Y-44958000I-1000000J0D01*
G01*
X163441500Y-44958000D02*
G75*
G03X163441500Y-44958000I-3187500J0D01*
G01*
X170021000Y-31649000D02*
X170021000Y-37947000D01*
X170161000Y-31655000D02*
X170161000Y-37941000D01*
X170301000Y-31668000D02*
X170301000Y-34352000D01*
X170301000Y-35244000D02*
X170301000Y-37928000D01*
X170441000Y-31687000D02*
X170441000Y-34142000D01*
X170441000Y-35454000D02*
X170441000Y-37909000D01*
X170581000Y-31713000D02*
X170581000Y-34009000D01*
X170581000Y-35587000D02*
X170581000Y-37883000D01*
X170721000Y-31745000D02*
X170721000Y-33918000D01*
X170721000Y-35678000D02*
X170721000Y-37851000D01*
X170861000Y-31784000D02*
X170861000Y-33856000D01*
X170861000Y-35740000D02*
X170861000Y-37812000D01*
X171001000Y-31830000D02*
X171001000Y-33817000D01*
X171001000Y-35779000D02*
X171001000Y-37766000D01*
X171141000Y-31883000D02*
X171141000Y-33800000D01*
X171141000Y-35796000D02*
X171141000Y-37713000D01*
X171281000Y-31945000D02*
X171281000Y-33802000D01*
X171281000Y-35794000D02*
X171281000Y-37651000D01*
X171421000Y-32015000D02*
X171421000Y-33824000D01*
X171421000Y-35772000D02*
X171421000Y-37581000D01*
X171561000Y-32094000D02*
X171561000Y-33867000D01*
X171561000Y-35729000D02*
X171561000Y-37502000D01*
X171701000Y-32182000D02*
X171701000Y-33935000D01*
X171701000Y-35661000D02*
X171701000Y-37414000D01*
X171841000Y-32282000D02*
X171841000Y-34034000D01*
X171841000Y-35562000D02*
X171841000Y-37314000D01*
X171981000Y-32394000D02*
X171981000Y-34179000D01*
X171981000Y-35417000D02*
X171981000Y-37202000D01*
X172121000Y-32519000D02*
X172121000Y-34418000D01*
X172121000Y-35178000D02*
X172121000Y-37077000D01*
X172261000Y-32662000D02*
X172261000Y-36934000D01*
X172401000Y-32824000D02*
X172401000Y-36772000D01*
X172541000Y-33012000D02*
X172541000Y-36584000D01*
X172681000Y-33235000D02*
X172681000Y-36361000D01*
X172821000Y-33511000D02*
X172821000Y-36085000D01*
X172961000Y-33886000D02*
X172961000Y-35710000D01*
X172196000Y-34798000D02*
G75*
G03X172196000Y-34798000I-1000000J0D01*
G01*
X173133500Y-34798000D02*
G75*
G03X173133500Y-34798000I-3187500J0D01*
G01*
X162759000Y-37297000D02*
X162759000Y-32299000D01*
X162619000Y-37289000D02*
X162619000Y-32307000D01*
X162479000Y-37273000D02*
X162479000Y-34893000D01*
X162479000Y-34703000D02*
X162479000Y-32323000D01*
X162339000Y-37249000D02*
X162339000Y-35288000D01*
X162339000Y-34308000D02*
X162339000Y-32347000D01*
X162199000Y-37216000D02*
X162199000Y-35455000D01*
X162199000Y-34141000D02*
X162199000Y-32380000D01*
X162059000Y-37175000D02*
X162059000Y-35562000D01*
X162059000Y-34034000D02*
X162059000Y-32421000D01*
X161919000Y-37125000D02*
X161919000Y-35633000D01*
X161919000Y-33963000D02*
X161919000Y-32471000D01*
X161779000Y-37064000D02*
X161779000Y-35677000D01*
X161779000Y-33919000D02*
X161779000Y-32532000D01*
X161639000Y-36994000D02*
X161639000Y-35696000D01*
X161639000Y-33900000D02*
X161639000Y-32602000D01*
X161499000Y-36912000D02*
X161499000Y-35694000D01*
X161499000Y-33902000D02*
X161499000Y-32684000D01*
X161359000Y-36817000D02*
X161359000Y-35669000D01*
X161359000Y-33927000D02*
X161359000Y-32779000D01*
X161219000Y-36706000D02*
X161219000Y-35621000D01*
X161219000Y-33975000D02*
X161219000Y-32890000D01*
X161079000Y-36578000D02*
X161079000Y-35543000D01*
X161079000Y-34053000D02*
X161079000Y-33018000D01*
X160939000Y-36429000D02*
X160939000Y-35426000D01*
X160939000Y-34170000D02*
X160939000Y-33167000D01*
X160799000Y-36250000D02*
X160799000Y-35238000D01*
X160799000Y-34358000D02*
X160799000Y-33346000D01*
X160659000Y-36031000D02*
X160659000Y-33565000D01*
X160519000Y-35742000D02*
X160519000Y-33854000D01*
X160379000Y-35270000D02*
X160379000Y-34326000D01*
X162484000Y-34798000D02*
G75*
G03X162484000Y-34798000I-900000J0D01*
G01*
X165371500Y-34798000D02*
G75*
G03X165371500Y-34798000I-2537500J0D01*
G01*
X146780000Y-99086000D02*
X146780000Y-105384000D01*
X146920000Y-99092000D02*
X146920000Y-105378000D01*
X147060000Y-99105000D02*
X147060000Y-101789000D01*
X147060000Y-102681000D02*
X147060000Y-105365000D01*
X147200000Y-99124000D02*
X147200000Y-101579000D01*
X147200000Y-102891000D02*
X147200000Y-105346000D01*
X147340000Y-99150000D02*
X147340000Y-101446000D01*
X147340000Y-103024000D02*
X147340000Y-105320000D01*
X147480000Y-99182000D02*
X147480000Y-101355000D01*
X147480000Y-103115000D02*
X147480000Y-105288000D01*
X147620000Y-99221000D02*
X147620000Y-101293000D01*
X147620000Y-103177000D02*
X147620000Y-105249000D01*
X147760000Y-99267000D02*
X147760000Y-101254000D01*
X147760000Y-103216000D02*
X147760000Y-105203000D01*
X147900000Y-99320000D02*
X147900000Y-101237000D01*
X147900000Y-103233000D02*
X147900000Y-105150000D01*
X148040000Y-99382000D02*
X148040000Y-101239000D01*
X148040000Y-103231000D02*
X148040000Y-105088000D01*
X148180000Y-99452000D02*
X148180000Y-101261000D01*
X148180000Y-103209000D02*
X148180000Y-105018000D01*
X148320000Y-99531000D02*
X148320000Y-101304000D01*
X148320000Y-103166000D02*
X148320000Y-104939000D01*
X148460000Y-99619000D02*
X148460000Y-101372000D01*
X148460000Y-103098000D02*
X148460000Y-104851000D01*
X148600000Y-99719000D02*
X148600000Y-101471000D01*
X148600000Y-102999000D02*
X148600000Y-104751000D01*
X148740000Y-99831000D02*
X148740000Y-101616000D01*
X148740000Y-102854000D02*
X148740000Y-104639000D01*
X148880000Y-99956000D02*
X148880000Y-101855000D01*
X148880000Y-102615000D02*
X148880000Y-104514000D01*
X149020000Y-100099000D02*
X149020000Y-104371000D01*
X149160000Y-100261000D02*
X149160000Y-104209000D01*
X149300000Y-100449000D02*
X149300000Y-104021000D01*
X149440000Y-100672000D02*
X149440000Y-103798000D01*
X149580000Y-100948000D02*
X149580000Y-103522000D01*
X149720000Y-101323000D02*
X149720000Y-103147000D01*
X148955000Y-102235000D02*
G75*
G03X148955000Y-102235000I-1000000J0D01*
G01*
X149892500Y-102235000D02*
G75*
G03X149892500Y-102235000I-3187500J0D01*
G01*
X208199000Y-44993000D02*
X198201000Y-44993000D01*
X208195000Y-45133000D02*
X198205000Y-45133000D01*
X208187000Y-45273000D02*
X198213000Y-45273000D01*
X208175000Y-45413000D02*
X198225000Y-45413000D01*
X208160000Y-45553000D02*
X198240000Y-45553000D01*
X208140000Y-45693000D02*
X198260000Y-45693000D01*
X208116000Y-45833000D02*
X198284000Y-45833000D01*
X208087000Y-45973000D02*
X198313000Y-45973000D01*
X208055000Y-46113000D02*
X198345000Y-46113000D01*
X208018000Y-46253000D02*
X198382000Y-46253000D01*
X207977000Y-46393000D02*
X198423000Y-46393000D01*
X207932000Y-46533000D02*
X203666000Y-46533000D01*
X202734000Y-46533000D02*
X198468000Y-46533000D01*
X207882000Y-46673000D02*
X203867000Y-46673000D01*
X202533000Y-46673000D02*
X198518000Y-46673000D01*
X207827000Y-46813000D02*
X203996000Y-46813000D01*
X202404000Y-46813000D02*
X198573000Y-46813000D01*
X207767000Y-46953000D02*
X204085000Y-46953000D01*
X202315000Y-46953000D02*
X198633000Y-46953000D01*
X207702000Y-47093000D02*
X204146000Y-47093000D01*
X202254000Y-47093000D02*
X198698000Y-47093000D01*
X207632000Y-47233000D02*
X204183000Y-47233000D01*
X202217000Y-47233000D02*
X198768000Y-47233000D01*
X207556000Y-47373000D02*
X204199000Y-47373000D01*
X202201000Y-47373000D02*
X198844000Y-47373000D01*
X207474000Y-47513000D02*
X204195000Y-47513000D01*
X202205000Y-47513000D02*
X198926000Y-47513000D01*
X207386000Y-47653000D02*
X204172000Y-47653000D01*
X202228000Y-47653000D02*
X199014000Y-47653000D01*
X207291000Y-47793000D02*
X204127000Y-47793000D01*
X202273000Y-47793000D02*
X199109000Y-47793000D01*
X207189000Y-47933000D02*
X204057000Y-47933000D01*
X202343000Y-47933000D02*
X199211000Y-47933000D01*
X207079000Y-48073000D02*
X203956000Y-48073000D01*
X202444000Y-48073000D02*
X199321000Y-48073000D01*
X206961000Y-48213000D02*
X203807000Y-48213000D01*
X202593000Y-48213000D02*
X199439000Y-48213000D01*
X206833000Y-48353000D02*
X203555000Y-48353000D01*
X202845000Y-48353000D02*
X199567000Y-48353000D01*
X206696000Y-48493000D02*
X199704000Y-48493000D01*
X206546000Y-48633000D02*
X199854000Y-48633000D01*
X206384000Y-48773000D02*
X200016000Y-48773000D01*
X206207000Y-48913000D02*
X200193000Y-48913000D01*
X206011000Y-49053000D02*
X200389000Y-49053000D01*
X205793000Y-49193000D02*
X200607000Y-49193000D01*
X205547000Y-49333000D02*
X200853000Y-49333000D01*
X205262000Y-49473000D02*
X201138000Y-49473000D01*
X204920000Y-49613000D02*
X201480000Y-49613000D01*
X204474000Y-49753000D02*
X201926000Y-49753000D01*
X203699000Y-49893000D02*
X202701000Y-49893000D01*
X204200000Y-47418000D02*
G75*
G03X204200000Y-47418000I-1000000J0D01*
G01*
X208237500Y-44918000D02*
G75*
G03X208237500Y-44918000I-5037500J0D01*
G01*
X178759000Y-30799000D02*
X178759000Y-38797000D01*
X178899000Y-30804000D02*
X178899000Y-38792000D01*
X179039000Y-30814000D02*
X179039000Y-38782000D01*
X179179000Y-30829000D02*
X179179000Y-38767000D01*
X179319000Y-30849000D02*
X179319000Y-38747000D01*
X179459000Y-30874000D02*
X179459000Y-38722000D01*
X179599000Y-30904000D02*
X179599000Y-34625000D01*
X179599000Y-34971000D02*
X179599000Y-38692000D01*
X179739000Y-30940000D02*
X179739000Y-34263000D01*
X179739000Y-35333000D02*
X179739000Y-38656000D01*
X179879000Y-30981000D02*
X179879000Y-34089000D01*
X179879000Y-35507000D02*
X179879000Y-38615000D01*
X180019000Y-31027000D02*
X180019000Y-33973000D01*
X180019000Y-35623000D02*
X180019000Y-38569000D01*
X180159000Y-31080000D02*
X180159000Y-33893000D01*
X180159000Y-35703000D02*
X180159000Y-38516000D01*
X180299000Y-31139000D02*
X180299000Y-33839000D01*
X180299000Y-35757000D02*
X180299000Y-38457000D01*
X180439000Y-31204000D02*
X180439000Y-33809000D01*
X180439000Y-35787000D02*
X180439000Y-38392000D01*
X180579000Y-31275000D02*
X180579000Y-33798000D01*
X180579000Y-35798000D02*
X180579000Y-38321000D01*
X180719000Y-31354000D02*
X180719000Y-33807000D01*
X180719000Y-35789000D02*
X180719000Y-38242000D01*
X180859000Y-31441000D02*
X180859000Y-33837000D01*
X180859000Y-35759000D02*
X180859000Y-38155000D01*
X180999000Y-31536000D02*
X180999000Y-33888000D01*
X180999000Y-35708000D02*
X180999000Y-38060000D01*
X181139000Y-31640000D02*
X181139000Y-33966000D01*
X181139000Y-35630000D02*
X181139000Y-37956000D01*
X181279000Y-31754000D02*
X181279000Y-34079000D01*
X181279000Y-35517000D02*
X181279000Y-37842000D01*
X181419000Y-31879000D02*
X181419000Y-34248000D01*
X181419000Y-35348000D02*
X181419000Y-37717000D01*
X181559000Y-32017000D02*
X181559000Y-34576000D01*
X181559000Y-35020000D02*
X181559000Y-37579000D01*
X181699000Y-32169000D02*
X181699000Y-37427000D01*
X181839000Y-32339000D02*
X181839000Y-37257000D01*
X181979000Y-32530000D02*
X181979000Y-37066000D01*
X182119000Y-32748000D02*
X182119000Y-36848000D01*
X182259000Y-33004000D02*
X182259000Y-36592000D01*
X182399000Y-33315000D02*
X182399000Y-36281000D01*
X182539000Y-33731000D02*
X182539000Y-35865000D01*
X182679000Y-34598000D02*
X182679000Y-34998000D01*
X181584000Y-34798000D02*
G75*
G03X181584000Y-34798000I-1000000J0D01*
G01*
X182721500Y-34798000D02*
G75*
G03X182721500Y-34798000I-4037500J0D01*
G01*
X149317000Y-49957000D02*
X149317000Y-39959000D01*
X149177000Y-49953000D02*
X149177000Y-39963000D01*
X149037000Y-49945000D02*
X149037000Y-39971000D01*
X148897000Y-49933000D02*
X148897000Y-39983000D01*
X148757000Y-49918000D02*
X148757000Y-39998000D01*
X148617000Y-49898000D02*
X148617000Y-40018000D01*
X148477000Y-49874000D02*
X148477000Y-40042000D01*
X148337000Y-49845000D02*
X148337000Y-40071000D01*
X148197000Y-49813000D02*
X148197000Y-40103000D01*
X148057000Y-49776000D02*
X148057000Y-40140000D01*
X147917000Y-49735000D02*
X147917000Y-40181000D01*
X147777000Y-49690000D02*
X147777000Y-45424000D01*
X147777000Y-44492000D02*
X147777000Y-40226000D01*
X147637000Y-49640000D02*
X147637000Y-45625000D01*
X147637000Y-44291000D02*
X147637000Y-40276000D01*
X147497000Y-49585000D02*
X147497000Y-45754000D01*
X147497000Y-44162000D02*
X147497000Y-40331000D01*
X147357000Y-49525000D02*
X147357000Y-45843000D01*
X147357000Y-44073000D02*
X147357000Y-40391000D01*
X147217000Y-49460000D02*
X147217000Y-45904000D01*
X147217000Y-44012000D02*
X147217000Y-40456000D01*
X147077000Y-49390000D02*
X147077000Y-45941000D01*
X147077000Y-43975000D02*
X147077000Y-40526000D01*
X146937000Y-49314000D02*
X146937000Y-45957000D01*
X146937000Y-43959000D02*
X146937000Y-40602000D01*
X146797000Y-49232000D02*
X146797000Y-45953000D01*
X146797000Y-43963000D02*
X146797000Y-40684000D01*
X146657000Y-49144000D02*
X146657000Y-45930000D01*
X146657000Y-43986000D02*
X146657000Y-40772000D01*
X146517000Y-49049000D02*
X146517000Y-45885000D01*
X146517000Y-44031000D02*
X146517000Y-40867000D01*
X146377000Y-48947000D02*
X146377000Y-45815000D01*
X146377000Y-44101000D02*
X146377000Y-40969000D01*
X146237000Y-48837000D02*
X146237000Y-45714000D01*
X146237000Y-44202000D02*
X146237000Y-41079000D01*
X146097000Y-48719000D02*
X146097000Y-45565000D01*
X146097000Y-44351000D02*
X146097000Y-41197000D01*
X145957000Y-48591000D02*
X145957000Y-45313000D01*
X145957000Y-44603000D02*
X145957000Y-41325000D01*
X145817000Y-48454000D02*
X145817000Y-41462000D01*
X145677000Y-48304000D02*
X145677000Y-41612000D01*
X145537000Y-48142000D02*
X145537000Y-41774000D01*
X145397000Y-47965000D02*
X145397000Y-41951000D01*
X145257000Y-47769000D02*
X145257000Y-42147000D01*
X145117000Y-47551000D02*
X145117000Y-42365000D01*
X144977000Y-47305000D02*
X144977000Y-42611000D01*
X144837000Y-47020000D02*
X144837000Y-42896000D01*
X144697000Y-46678000D02*
X144697000Y-43238000D01*
X144557000Y-46232000D02*
X144557000Y-43684000D01*
X144417000Y-45457000D02*
X144417000Y-44459000D01*
X147892000Y-44958000D02*
G75*
G03X147892000Y-44958000I-1000000J0D01*
G01*
X154429500Y-44958000D02*
G75*
G03X154429500Y-44958000I-5037500J0D01*
G01*
X168390000Y-113995000D02*
X168390000Y-111295000D01*
X166890000Y-113995000D02*
X166890000Y-111295000D01*
X167790000Y-112495000D02*
X167540000Y-112495000D01*
X167540000Y-112495000D02*
X167690000Y-112645000D01*
X167290000Y-112745000D02*
X167990000Y-112745000D01*
X167640000Y-112395000D02*
X167640000Y-112045000D01*
X167640000Y-112745000D02*
X167290000Y-112395000D01*
X167290000Y-112395000D02*
X167990000Y-112395000D01*
X167990000Y-112395000D02*
X167640000Y-112745000D01*
X164326000Y-113868000D02*
X164326000Y-111168000D01*
X162826000Y-113868000D02*
X162826000Y-111168000D01*
X163726000Y-112368000D02*
X163476000Y-112368000D01*
X163476000Y-112368000D02*
X163626000Y-112518000D01*
X163226000Y-112618000D02*
X163926000Y-112618000D01*
X163576000Y-112268000D02*
X163576000Y-111918000D01*
X163576000Y-112618000D02*
X163226000Y-112268000D01*
X163226000Y-112268000D02*
X163926000Y-112268000D01*
X163926000Y-112268000D02*
X163576000Y-112618000D01*
X185940000Y-110762000D02*
X185940000Y-113462000D01*
X187440000Y-110762000D02*
X187440000Y-113462000D01*
X186540000Y-112262000D02*
X186790000Y-112262000D01*
X186790000Y-112262000D02*
X186640000Y-112112000D01*
X187040000Y-112012000D02*
X186340000Y-112012000D01*
X186690000Y-112362000D02*
X186690000Y-112712000D01*
X186690000Y-112012000D02*
X187040000Y-112362000D01*
X187040000Y-112362000D02*
X186340000Y-112362000D01*
X186340000Y-112362000D02*
X186690000Y-112012000D01*
X182130000Y-110795000D02*
X182130000Y-113495000D01*
X183630000Y-110795000D02*
X183630000Y-113495000D01*
X182730000Y-112295000D02*
X182980000Y-112295000D01*
X182980000Y-112295000D02*
X182830000Y-112145000D01*
X183230000Y-112045000D02*
X182530000Y-112045000D01*
X182880000Y-112395000D02*
X182880000Y-112745000D01*
X182880000Y-112045000D02*
X183230000Y-112395000D01*
X183230000Y-112395000D02*
X182530000Y-112395000D01*
X182530000Y-112395000D02*
X182880000Y-112045000D01*
X178320000Y-110795000D02*
X178320000Y-113495000D01*
X179820000Y-110795000D02*
X179820000Y-113495000D01*
X178920000Y-112295000D02*
X179170000Y-112295000D01*
X179170000Y-112295000D02*
X179020000Y-112145000D01*
X179420000Y-112045000D02*
X178720000Y-112045000D01*
X179070000Y-112395000D02*
X179070000Y-112745000D01*
X179070000Y-112045000D02*
X179420000Y-112395000D01*
X179420000Y-112395000D02*
X178720000Y-112395000D01*
X178720000Y-112395000D02*
X179070000Y-112045000D01*
X170700000Y-110795000D02*
X170700000Y-113495000D01*
X172200000Y-110795000D02*
X172200000Y-113495000D01*
X171300000Y-112295000D02*
X171550000Y-112295000D01*
X171550000Y-112295000D02*
X171400000Y-112145000D01*
X171800000Y-112045000D02*
X171100000Y-112045000D01*
X171450000Y-112395000D02*
X171450000Y-112745000D01*
X171450000Y-112045000D02*
X171800000Y-112395000D01*
X171800000Y-112395000D02*
X171100000Y-112395000D01*
X171100000Y-112395000D02*
X171450000Y-112045000D01*
X176010000Y-113995000D02*
X176010000Y-111295000D01*
X174510000Y-113995000D02*
X174510000Y-111295000D01*
X175410000Y-112495000D02*
X175160000Y-112495000D01*
X175160000Y-112495000D02*
X175310000Y-112645000D01*
X174910000Y-112745000D02*
X175610000Y-112745000D01*
X175260000Y-112395000D02*
X175260000Y-112045000D01*
X175260000Y-112745000D02*
X174910000Y-112395000D01*
X174910000Y-112395000D02*
X175610000Y-112395000D01*
X175610000Y-112395000D02*
X175260000Y-112745000D01*
X189374520Y-21630640D02*
X189374520Y-19128740D01*
X189374520Y-29131260D02*
X189374520Y-26629360D01*
X201373480Y-29131260D02*
X201373480Y-26629360D01*
X201373480Y-19128740D02*
X201373480Y-21630640D01*
X190873120Y-24130000D02*
X199874880Y-24130000D01*
X190873120Y-21630640D02*
X190873120Y-26629360D01*
X199874880Y-21630640D02*
X199874880Y-26629360D01*
X205373980Y-22230080D02*
X205373980Y-21630640D01*
X185374020Y-26029920D02*
X185374020Y-26629360D01*
X185374020Y-26629360D02*
X205373980Y-26629360D01*
X205373980Y-26629360D02*
X205373980Y-26029920D01*
X205373980Y-21630640D02*
X185374020Y-21630640D01*
X185374020Y-21630640D02*
X185374020Y-22230080D01*
X207372960Y-22230080D02*
X207372960Y-19128740D01*
X183375040Y-26029920D02*
X183375040Y-29131260D01*
X183375040Y-29131260D02*
X207372960Y-29131260D01*
X207372960Y-29131260D02*
X207372960Y-26029920D01*
X207372960Y-19128740D02*
X183375040Y-19128740D01*
X183375040Y-19128740D02*
X183375040Y-22230080D01*
X174817000Y-45015000D02*
X182815000Y-45015000D01*
X174822000Y-44875000D02*
X182810000Y-44875000D01*
X174832000Y-44735000D02*
X182800000Y-44735000D01*
X174847000Y-44595000D02*
X182785000Y-44595000D01*
X174867000Y-44455000D02*
X182765000Y-44455000D01*
X174892000Y-44315000D02*
X182740000Y-44315000D01*
X174922000Y-44175000D02*
X178643000Y-44175000D01*
X178989000Y-44175000D02*
X182710000Y-44175000D01*
X174958000Y-44035000D02*
X178281000Y-44035000D01*
X179351000Y-44035000D02*
X182674000Y-44035000D01*
X174999000Y-43895000D02*
X178107000Y-43895000D01*
X179525000Y-43895000D02*
X182633000Y-43895000D01*
X175045000Y-43755000D02*
X177991000Y-43755000D01*
X179641000Y-43755000D02*
X182587000Y-43755000D01*
X175098000Y-43615000D02*
X177911000Y-43615000D01*
X179721000Y-43615000D02*
X182534000Y-43615000D01*
X175157000Y-43475000D02*
X177857000Y-43475000D01*
X179775000Y-43475000D02*
X182475000Y-43475000D01*
X175222000Y-43335000D02*
X177827000Y-43335000D01*
X179805000Y-43335000D02*
X182410000Y-43335000D01*
X175293000Y-43195000D02*
X177816000Y-43195000D01*
X179816000Y-43195000D02*
X182339000Y-43195000D01*
X175372000Y-43055000D02*
X177825000Y-43055000D01*
X179807000Y-43055000D02*
X182260000Y-43055000D01*
X175459000Y-42915000D02*
X177855000Y-42915000D01*
X179777000Y-42915000D02*
X182173000Y-42915000D01*
X175554000Y-42775000D02*
X177906000Y-42775000D01*
X179726000Y-42775000D02*
X182078000Y-42775000D01*
X175658000Y-42635000D02*
X177984000Y-42635000D01*
X179648000Y-42635000D02*
X181974000Y-42635000D01*
X175772000Y-42495000D02*
X178097000Y-42495000D01*
X179535000Y-42495000D02*
X181860000Y-42495000D01*
X175897000Y-42355000D02*
X178266000Y-42355000D01*
X179366000Y-42355000D02*
X181735000Y-42355000D01*
X176035000Y-42215000D02*
X178594000Y-42215000D01*
X179038000Y-42215000D02*
X181597000Y-42215000D01*
X176187000Y-42075000D02*
X181445000Y-42075000D01*
X176357000Y-41935000D02*
X181275000Y-41935000D01*
X176548000Y-41795000D02*
X181084000Y-41795000D01*
X176766000Y-41655000D02*
X180866000Y-41655000D01*
X177022000Y-41515000D02*
X180610000Y-41515000D01*
X177333000Y-41375000D02*
X180299000Y-41375000D01*
X177749000Y-41235000D02*
X179883000Y-41235000D01*
X178616000Y-41095000D02*
X179016000Y-41095000D01*
X179816000Y-43190000D02*
G75*
G03X179816000Y-43190000I-1000000J0D01*
G01*
X182853500Y-45090000D02*
G75*
G03X182853500Y-45090000I-4037500J0D01*
G01*
X180150000Y-28750000D02*
X180150000Y-16590000D01*
X180150000Y-16590000D02*
X167830000Y-16590000D01*
X167830000Y-16590000D02*
X167830000Y-28750000D01*
X167830000Y-28750000D02*
X180150000Y-28750000D01*
X180150000Y-18090000D02*
X180150000Y-19890000D01*
X180150000Y-19890000D02*
X167830000Y-19890000D01*
X167830000Y-19890000D02*
X167830000Y-18090000D01*
X167830000Y-18090000D02*
X180150000Y-18090000D01*
X177530000Y-16590000D02*
X175530000Y-16590000D01*
X175530000Y-16590000D02*
X175780000Y-18090000D01*
X175780000Y-18090000D02*
X177280000Y-18090000D01*
X177280000Y-18090000D02*
X177530000Y-16590000D01*
X172450000Y-16590000D02*
X170450000Y-16590000D01*
X170450000Y-16590000D02*
X170700000Y-18090000D01*
X170700000Y-18090000D02*
X172200000Y-18090000D01*
X172200000Y-18090000D02*
X172450000Y-16590000D01*
X176530000Y-29170000D02*
X176230000Y-29770000D01*
X176230000Y-29770000D02*
X176830000Y-29770000D01*
X176830000Y-29770000D02*
X176530000Y-29170000D01*
X166815000Y-28750000D02*
X166815000Y-16590000D01*
X166815000Y-16590000D02*
X144335000Y-16590000D01*
X144335000Y-16590000D02*
X144335000Y-28750000D01*
X144335000Y-28750000D02*
X166815000Y-28750000D01*
X166815000Y-18090000D02*
X166815000Y-19890000D01*
X166815000Y-19890000D02*
X144335000Y-19890000D01*
X144335000Y-19890000D02*
X144335000Y-18090000D01*
X144335000Y-18090000D02*
X166815000Y-18090000D01*
X164195000Y-16590000D02*
X162195000Y-16590000D01*
X162195000Y-16590000D02*
X162445000Y-18090000D01*
X162445000Y-18090000D02*
X163945000Y-18090000D01*
X163945000Y-18090000D02*
X164195000Y-16590000D01*
X159115000Y-16590000D02*
X157115000Y-16590000D01*
X157115000Y-16590000D02*
X157365000Y-18090000D01*
X157365000Y-18090000D02*
X158865000Y-18090000D01*
X158865000Y-18090000D02*
X159115000Y-16590000D01*
X154035000Y-16590000D02*
X152035000Y-16590000D01*
X152035000Y-16590000D02*
X152285000Y-18090000D01*
X152285000Y-18090000D02*
X153785000Y-18090000D01*
X153785000Y-18090000D02*
X154035000Y-16590000D01*
X148955000Y-16590000D02*
X146955000Y-16590000D01*
X146955000Y-16590000D02*
X147205000Y-18090000D01*
X147205000Y-18090000D02*
X148705000Y-18090000D01*
X148705000Y-18090000D02*
X148955000Y-16590000D01*
X163195000Y-29170000D02*
X162895000Y-29770000D01*
X162895000Y-29770000D02*
X163495000Y-29770000D01*
X163495000Y-29770000D02*
X163195000Y-29170000D01*
X154820000Y-52578000D02*
X154820000Y-55118000D01*
X154820000Y-55118000D02*
X164980000Y-55118000D01*
X164980000Y-55118000D02*
X164980000Y-52578000D01*
X164980000Y-52578000D02*
X154820000Y-52578000D01*
X166130000Y-53848000D02*
X164980000Y-53848000D01*
X153670000Y-53848000D02*
X154820000Y-53848000D01*
X195714000Y-55118000D02*
X195714000Y-52578000D01*
X195714000Y-52578000D02*
X185554000Y-52578000D01*
X185554000Y-52578000D02*
X185554000Y-55118000D01*
X185554000Y-55118000D02*
X195714000Y-55118000D01*
X184404000Y-53848000D02*
X185554000Y-53848000D01*
X196864000Y-53848000D02*
X195714000Y-53848000D01*
X144094200Y-93734760D02*
X144995000Y-94735520D01*
X144995000Y-94735520D02*
X143295000Y-94735520D01*
X143295000Y-94735520D02*
X144145000Y-93734760D01*
X144995000Y-93734760D02*
X143295000Y-93734760D01*
X145415000Y-89535000D02*
X150495000Y-89535000D01*
X150495000Y-89535000D02*
X150495000Y-86995000D01*
X150495000Y-86995000D02*
X145415000Y-86995000D01*
X142595000Y-86715000D02*
X144145000Y-86715000D01*
X145415000Y-86995000D02*
X145415000Y-89535000D01*
X144145000Y-89815000D02*
X142595000Y-89815000D01*
X142595000Y-89815000D02*
X142595000Y-86715000D01*
X154940000Y-83312000D02*
G75*
G03X157480000Y-85852000I2540000J0D01*
G01*
X157480000Y-68072000D02*
G75*
G03X154940000Y-70612000I0J-2540000D01*
G01*
X193040000Y-85852000D02*
G75*
G03X195580000Y-83312000I0J2540000D01*
G01*
X195580000Y-70612000D02*
G75*
G03X193040000Y-68072000I-2540000J0D01*
G01*
X195580000Y-70612000D02*
X195580000Y-83312000D01*
X193040000Y-85852000D02*
X157480000Y-85852000D01*
X154940000Y-83312000D02*
X154940000Y-70612000D01*
X193040000Y-68072000D02*
X157480000Y-68072000D01*
X187729000Y-43980100D02*
X185697000Y-43980100D01*
X191539000Y-43980100D02*
X190523000Y-43980100D01*
X196365000Y-43980100D02*
X194460000Y-43980100D01*
X192555000Y-48806100D02*
X192555000Y-47663100D01*
X189507000Y-48806100D02*
X189507000Y-47663100D01*
X185697000Y-47663100D02*
X185697000Y-43980100D01*
X196365000Y-43980100D02*
X196365000Y-47663100D01*
X185697000Y-48806100D02*
X185697000Y-47663100D01*
X185697000Y-47663100D02*
X196365000Y-47663100D01*
X196365000Y-47663100D02*
X196365000Y-48806100D01*
X191031000Y-48806100D02*
X196365000Y-48806100D01*
X191031000Y-48806100D02*
X185697000Y-48806100D01*
D10*
X167971000Y-106299000D02*
G75*
G03X167971000Y-106299000I-839000J0D01*
G01*
X170511000Y-106299000D02*
G75*
G03X170511000Y-106299000I-839000J0D01*
G01*
X170511000Y-98679000D02*
G75*
G03X170511000Y-98679000I-839000J0D01*
G01*
X167971000Y-98679000D02*
G75*
G03X167971000Y-98679000I-839000J0D01*
G01*
X165431000Y-98679000D02*
G75*
G03X165431000Y-98679000I-839000J0D01*
G01*
X178639000Y-98679000D02*
G75*
G03X178639000Y-98679000I-839000J0D01*
G01*
X181179000Y-98679000D02*
G75*
G03X181179000Y-98679000I-839000J0D01*
G01*
X183719000Y-98679000D02*
G75*
G03X183719000Y-98679000I-839000J0D01*
G01*
X183719000Y-106299000D02*
G75*
G03X183719000Y-106299000I-839000J0D01*
G01*
X181179000Y-106299000D02*
G75*
G03X181179000Y-106299000I-839000J0D01*
G01*
X153304000Y-91532000D02*
X153782000Y-91532000D01*
X153304000Y-90332000D02*
X153782000Y-90332000D01*
X153782000Y-91532000D02*
G75*
G03X153782000Y-90332000I0J600000D01*
G01*
X153304000Y-90332000D02*
G75*
G03X153304000Y-91532000I0J-600000D01*
G01*
X160924000Y-91532000D02*
X161402000Y-91532000D01*
X160924000Y-90332000D02*
X161402000Y-90332000D01*
X161402000Y-91532000D02*
G75*
G03X161402000Y-90332000I0J600000D01*
G01*
X160924000Y-90332000D02*
G75*
G03X160924000Y-91532000I0J-600000D01*
G01*
X160924000Y-88992000D02*
X161402000Y-88992000D01*
X160924000Y-87792000D02*
X161402000Y-87792000D01*
X161402000Y-88992000D02*
G75*
G03X161402000Y-87792000I0J600000D01*
G01*
X160924000Y-87792000D02*
G75*
G03X160924000Y-88992000I0J-600000D01*
G01*
X184165000Y-88992000D02*
X184643000Y-88992000D01*
X184165000Y-87792000D02*
X184643000Y-87792000D01*
X184643000Y-88992000D02*
G75*
G03X184643000Y-87792000I0J600000D01*
G01*
X184165000Y-87792000D02*
G75*
G03X184165000Y-88992000I0J-600000D01*
G01*
X184165000Y-91532000D02*
X184643000Y-91532000D01*
X184165000Y-90332000D02*
X184643000Y-90332000D01*
X184643000Y-91532000D02*
G75*
G03X184643000Y-90332000I0J600000D01*
G01*
X184165000Y-90332000D02*
G75*
G03X184165000Y-91532000I0J-600000D01*
G01*
X176545000Y-91532000D02*
X177023000Y-91532000D01*
X176545000Y-90332000D02*
X177023000Y-90332000D01*
X177023000Y-91532000D02*
G75*
G03X177023000Y-90332000I0J600000D01*
G01*
X176545000Y-90332000D02*
G75*
G03X176545000Y-91532000I0J-600000D01*
G01*
X165369000Y-91532000D02*
X165847000Y-91532000D01*
X165369000Y-90332000D02*
X165847000Y-90332000D01*
X165847000Y-91532000D02*
G75*
G03X165847000Y-90332000I0J600000D01*
G01*
X165369000Y-90332000D02*
G75*
G03X165369000Y-91532000I0J-600000D01*
G01*
X172989000Y-91532000D02*
X173467000Y-91532000D01*
X172989000Y-90332000D02*
X173467000Y-90332000D01*
X173467000Y-91532000D02*
G75*
G03X173467000Y-90332000I0J600000D01*
G01*
X172989000Y-90332000D02*
G75*
G03X172989000Y-91532000I0J-600000D01*
G01*
X172989000Y-88992000D02*
X173467000Y-88992000D01*
X172989000Y-87792000D02*
X173467000Y-87792000D01*
X173467000Y-88992000D02*
G75*
G03X173467000Y-87792000I0J600000D01*
G01*
X172989000Y-87792000D02*
G75*
G03X172989000Y-88992000I0J-600000D01*
G01*
X187648380Y-34798040D02*
G75*
G03X187648380Y-34798040I-1720380J0D01*
G01*
X188991000Y-107280000D02*
X189469000Y-107280000D01*
X188991000Y-106080000D02*
X189469000Y-106080000D01*
X189469000Y-107280000D02*
G75*
G03X189469000Y-106080000I0J600000D01*
G01*
X188991000Y-106080000D02*
G75*
G03X188991000Y-107280000I0J-600000D01*
G01*
X196611000Y-107280000D02*
X197089000Y-107280000D01*
X196611000Y-106080000D02*
X197089000Y-106080000D01*
X197089000Y-107280000D02*
G75*
G03X197089000Y-106080000I0J600000D01*
G01*
X196611000Y-106080000D02*
G75*
G03X196611000Y-107280000I0J-600000D01*
G01*
X196611000Y-104740000D02*
X197089000Y-104740000D01*
X196611000Y-103540000D02*
X197089000Y-103540000D01*
X197089000Y-104740000D02*
G75*
G03X197089000Y-103540000I0J600000D01*
G01*
X196611000Y-103540000D02*
G75*
G03X196611000Y-104740000I0J-600000D01*
G01*
X196611000Y-96802500D02*
X197089000Y-96802500D01*
X196611000Y-95602500D02*
X197089000Y-95602500D01*
X197089000Y-96802500D02*
G75*
G03X197089000Y-95602500I0J600000D01*
G01*
X196611000Y-95602500D02*
G75*
G03X196611000Y-96802500I0J-600000D01*
G01*
X196611000Y-99342500D02*
X197089000Y-99342500D01*
X196611000Y-98142500D02*
X197089000Y-98142500D01*
X197089000Y-99342500D02*
G75*
G03X197089000Y-98142500I0J600000D01*
G01*
X196611000Y-98142500D02*
G75*
G03X196611000Y-99342500I0J-600000D01*
G01*
X188991000Y-99342500D02*
X189469000Y-99342500D01*
X188991000Y-98142500D02*
X189469000Y-98142500D01*
X189469000Y-99342500D02*
G75*
G03X189469000Y-98142500I0J600000D01*
G01*
X188991000Y-98142500D02*
G75*
G03X188991000Y-99342500I0J-600000D01*
G01*
X188864000Y-91532000D02*
X189342000Y-91532000D01*
X188864000Y-90332000D02*
X189342000Y-90332000D01*
X189342000Y-91532000D02*
G75*
G03X189342000Y-90332000I0J600000D01*
G01*
X188864000Y-90332000D02*
G75*
G03X188864000Y-91532000I0J-600000D01*
G01*
X196484000Y-91532000D02*
X196962000Y-91532000D01*
X196484000Y-90332000D02*
X196962000Y-90332000D01*
X196962000Y-91532000D02*
G75*
G03X196962000Y-90332000I0J600000D01*
G01*
X196484000Y-90332000D02*
G75*
G03X196484000Y-91532000I0J-600000D01*
G01*
X196484000Y-88992000D02*
X196962000Y-88992000D01*
X196484000Y-87792000D02*
X196962000Y-87792000D01*
X196962000Y-88992000D02*
G75*
G03X196962000Y-87792000I0J600000D01*
G01*
X196484000Y-87792000D02*
G75*
G03X196484000Y-88992000I0J-600000D01*
G01*
X159716220Y-34798040D02*
G75*
G03X159716220Y-34798040I-1220000J0D01*
G01*
X170272000Y-46442000D02*
G75*
G03X170272000Y-46442000I-600000J0D01*
G01*
X159604000Y-44958000D02*
G75*
G03X159604000Y-44958000I-600000J0D01*
G01*
X171796000Y-34798000D02*
G75*
G03X171796000Y-34798000I-600000J0D01*
G01*
X162184000Y-34798000D02*
G75*
G03X162184000Y-34798000I-600000J0D01*
G01*
X148555000Y-102235000D02*
G75*
G03X148555000Y-102235000I-600000J0D01*
G01*
X203800000Y-47418000D02*
G75*
G03X203800000Y-47418000I-600000J0D01*
G01*
X181184000Y-34798000D02*
G75*
G03X181184000Y-34798000I-600000J0D01*
G01*
X147492000Y-44958000D02*
G75*
G03X147492000Y-44958000I-600000J0D01*
G01*
X207125310Y-22930320D02*
X205624170Y-22930320D01*
X207125310Y-25329680D02*
X205624170Y-25329680D01*
X205624170Y-22930320D02*
G75*
G03X205624170Y-25329680I0J-1199680D01*
G01*
X207125310Y-25329680D02*
G75*
G03X207125310Y-22930320I0J1199680D01*
G01*
X185123830Y-22930320D02*
X183622690Y-22930320D01*
X185123830Y-25329680D02*
X183622690Y-25329680D01*
X183622690Y-22930320D02*
G75*
G03X183622690Y-25329680I0J-1199680D01*
G01*
X185123830Y-25329680D02*
G75*
G03X185123830Y-22930320I0J1199680D01*
G01*
X179416000Y-43190000D02*
G75*
G03X179416000Y-43190000I-600000J0D01*
G01*
X153349490Y-53848000D02*
G75*
G03X153349490Y-53848000I-949490J0D01*
G01*
X168349490Y-53848000D02*
G75*
G03X168349490Y-53848000I-949490J0D01*
G01*
X199083490Y-53848000D02*
G75*
G03X199083490Y-53848000I-949490J0D01*
G01*
X184083490Y-53848000D02*
G75*
G03X184083490Y-53848000I-949490J0D01*
G01*
X147498600Y-88417400D02*
X147498600Y-88112600D01*
X145871400Y-88417400D02*
X145871400Y-88112600D01*
X147498600Y-88112600D02*
G75*
G03X145871400Y-88112600I-813600J0D01*
G01*
X145871400Y-88417400D02*
G75*
G03X147498600Y-88417400I813600J0D01*
G01*
X150038600Y-88417400D02*
X150038600Y-88112600D01*
X148411400Y-88417400D02*
X148411400Y-88112600D01*
X150038600Y-88112600D02*
G75*
G03X148411400Y-88112600I-813600J0D01*
G01*
X148411400Y-88417400D02*
G75*
G03X150038600Y-88417400I813600J0D01*
G01*
X190180570Y-41609010D02*
X190180570Y-42307510D01*
X191881430Y-41609010D02*
X191881430Y-42307510D01*
X190180570Y-42307510D02*
G75*
G03X191881430Y-42307510I850430J0D01*
G01*
X191881430Y-41609010D02*
G75*
G03X190180570Y-41609010I-850430J0D01*
G01*
X193680690Y-41609010D02*
X193680690Y-42307510D01*
X195381550Y-41609010D02*
X195381550Y-42307510D01*
X193680690Y-42307510D02*
G75*
G03X195381550Y-42307510I850430J0D01*
G01*
X195381550Y-41609010D02*
G75*
G03X193680690Y-41609010I-850430J0D01*
G01*
X186680450Y-41609010D02*
X186680450Y-42307510D01*
X188381310Y-41609010D02*
X188381310Y-42307510D01*
X186680450Y-42307510D02*
G75*
G03X188381310Y-42307510I850430J0D01*
G01*
X188381310Y-41609010D02*
G75*
G03X186680450Y-41609010I-850430J0D01*
G01*
X188379710Y-44608750D02*
X188379710Y-45307250D01*
X190080570Y-44608750D02*
X190080570Y-45307250D01*
X188379710Y-45307250D02*
G75*
G03X190080570Y-45307250I850430J0D01*
G01*
X190080570Y-44608750D02*
G75*
G03X188379710Y-44608750I-850430J0D01*
G01*
X191981430Y-44608750D02*
X191981430Y-45307250D01*
X193682290Y-44608750D02*
X193682290Y-45307250D01*
X191981430Y-45307250D02*
G75*
G03X193682290Y-45307250I850430J0D01*
G01*
X193682290Y-44608750D02*
G75*
G03X191981430Y-44608750I-850430J0D01*
G01*
D14*
X165100000Y-109353047D02*
X165317714Y-109413523D01*
X165680571Y-109413523D01*
X165825714Y-109353047D01*
X165898285Y-109292571D01*
X165970857Y-109171619D01*
X165970857Y-109050666D01*
X165898285Y-108929714D01*
X165825714Y-108869238D01*
X165680571Y-108808761D01*
X165390285Y-108748285D01*
X165245142Y-108687809D01*
X165172571Y-108627333D01*
X165100000Y-108506380D01*
X165100000Y-108385428D01*
X165172571Y-108264476D01*
X165245142Y-108204000D01*
X165390285Y-108143523D01*
X165753142Y-108143523D01*
X165970857Y-108204000D01*
X166478857Y-108143523D02*
X166841714Y-109413523D01*
X167132000Y-108506380D01*
X167422285Y-109413523D01*
X167785142Y-108143523D01*
X169164000Y-109413523D02*
X168293142Y-109413523D01*
X168728571Y-109413523D02*
X168728571Y-108143523D01*
X168583428Y-108324952D01*
X168438285Y-108445904D01*
X168293142Y-108506380D01*
X178308000Y-109353047D02*
X178525714Y-109413523D01*
X178888571Y-109413523D01*
X179033714Y-109353047D01*
X179106285Y-109292571D01*
X179178857Y-109171619D01*
X179178857Y-109050666D01*
X179106285Y-108929714D01*
X179033714Y-108869238D01*
X178888571Y-108808761D01*
X178598285Y-108748285D01*
X178453142Y-108687809D01*
X178380571Y-108627333D01*
X178308000Y-108506380D01*
X178308000Y-108385428D01*
X178380571Y-108264476D01*
X178453142Y-108204000D01*
X178598285Y-108143523D01*
X178961142Y-108143523D01*
X179178857Y-108204000D01*
X179686857Y-108143523D02*
X180049714Y-109413523D01*
X180340000Y-108506380D01*
X180630285Y-109413523D01*
X180993142Y-108143523D01*
X181501142Y-108264476D02*
X181573714Y-108204000D01*
X181718857Y-108143523D01*
X182081714Y-108143523D01*
X182226857Y-108204000D01*
X182299428Y-108264476D01*
X182372000Y-108385428D01*
X182372000Y-108506380D01*
X182299428Y-108687809D01*
X181428571Y-109413523D01*
X182372000Y-109413523D01*
D11*
X156572047Y-90023904D02*
X156572047Y-89223904D01*
X157410142Y-89947714D02*
X157372047Y-89985809D01*
X157257761Y-90023904D01*
X157181571Y-90023904D01*
X157067285Y-89985809D01*
X156991095Y-89909619D01*
X156953000Y-89833428D01*
X156914904Y-89681047D01*
X156914904Y-89566761D01*
X156953000Y-89414380D01*
X156991095Y-89338190D01*
X157067285Y-89262000D01*
X157181571Y-89223904D01*
X157257761Y-89223904D01*
X157372047Y-89262000D01*
X157410142Y-89300095D01*
X158172047Y-90023904D02*
X157714904Y-90023904D01*
X157943476Y-90023904D02*
X157943476Y-89223904D01*
X157867285Y-89338190D01*
X157791095Y-89414380D01*
X157714904Y-89452476D01*
X179813047Y-90023904D02*
X179813047Y-89223904D01*
X180651142Y-89947714D02*
X180613047Y-89985809D01*
X180498761Y-90023904D01*
X180422571Y-90023904D01*
X180308285Y-89985809D01*
X180232095Y-89909619D01*
X180194000Y-89833428D01*
X180155904Y-89681047D01*
X180155904Y-89566761D01*
X180194000Y-89414380D01*
X180232095Y-89338190D01*
X180308285Y-89262000D01*
X180422571Y-89223904D01*
X180498761Y-89223904D01*
X180613047Y-89262000D01*
X180651142Y-89300095D01*
X180955904Y-89300095D02*
X180994000Y-89262000D01*
X181070190Y-89223904D01*
X181260666Y-89223904D01*
X181336857Y-89262000D01*
X181374952Y-89300095D01*
X181413047Y-89376285D01*
X181413047Y-89452476D01*
X181374952Y-89566761D01*
X180917809Y-90023904D01*
X181413047Y-90023904D01*
X168637047Y-90023904D02*
X168637047Y-89223904D01*
X169475142Y-89947714D02*
X169437047Y-89985809D01*
X169322761Y-90023904D01*
X169246571Y-90023904D01*
X169132285Y-89985809D01*
X169056095Y-89909619D01*
X169018000Y-89833428D01*
X168979904Y-89681047D01*
X168979904Y-89566761D01*
X169018000Y-89414380D01*
X169056095Y-89338190D01*
X169132285Y-89262000D01*
X169246571Y-89223904D01*
X169322761Y-89223904D01*
X169437047Y-89262000D01*
X169475142Y-89300095D01*
X169741809Y-89223904D02*
X170237047Y-89223904D01*
X169970380Y-89528666D01*
X170084666Y-89528666D01*
X170160857Y-89566761D01*
X170198952Y-89604857D01*
X170237047Y-89681047D01*
X170237047Y-89871523D01*
X170198952Y-89947714D01*
X170160857Y-89985809D01*
X170084666Y-90023904D01*
X169856095Y-90023904D01*
X169779904Y-89985809D01*
X169741809Y-89947714D01*
X189285619Y-30249944D02*
X190285619Y-30249944D01*
X190285619Y-30488040D01*
X190238000Y-30630897D01*
X190142761Y-30726135D01*
X190047523Y-30773754D01*
X189857047Y-30821373D01*
X189714190Y-30821373D01*
X189523714Y-30773754D01*
X189428476Y-30726135D01*
X189333238Y-30630897D01*
X189285619Y-30488040D01*
X189285619Y-30249944D01*
X189857047Y-31392801D02*
X189904666Y-31297563D01*
X189952285Y-31249944D01*
X190047523Y-31202325D01*
X190095142Y-31202325D01*
X190190380Y-31249944D01*
X190238000Y-31297563D01*
X190285619Y-31392801D01*
X190285619Y-31583278D01*
X190238000Y-31678516D01*
X190190380Y-31726135D01*
X190095142Y-31773754D01*
X190047523Y-31773754D01*
X189952285Y-31726135D01*
X189904666Y-31678516D01*
X189857047Y-31583278D01*
X189857047Y-31392801D01*
X189809428Y-31297563D01*
X189761809Y-31249944D01*
X189666571Y-31202325D01*
X189476095Y-31202325D01*
X189380857Y-31249944D01*
X189333238Y-31297563D01*
X189285619Y-31392801D01*
X189285619Y-31583278D01*
X189333238Y-31678516D01*
X189380857Y-31726135D01*
X189476095Y-31773754D01*
X189666571Y-31773754D01*
X189761809Y-31726135D01*
X189809428Y-31678516D01*
X189857047Y-31583278D01*
X192259047Y-105771904D02*
X192259047Y-104971904D01*
X193097142Y-105695714D02*
X193059047Y-105733809D01*
X192944761Y-105771904D01*
X192868571Y-105771904D01*
X192754285Y-105733809D01*
X192678095Y-105657619D01*
X192640000Y-105581428D01*
X192601904Y-105429047D01*
X192601904Y-105314761D01*
X192640000Y-105162380D01*
X192678095Y-105086190D01*
X192754285Y-105010000D01*
X192868571Y-104971904D01*
X192944761Y-104971904D01*
X193059047Y-105010000D01*
X193097142Y-105048095D01*
X193782857Y-105238571D02*
X193782857Y-105771904D01*
X193592380Y-104933809D02*
X193401904Y-105505238D01*
X193897142Y-105505238D01*
X192259047Y-97834404D02*
X192259047Y-97034404D01*
X193097142Y-97758214D02*
X193059047Y-97796309D01*
X192944761Y-97834404D01*
X192868571Y-97834404D01*
X192754285Y-97796309D01*
X192678095Y-97720119D01*
X192640000Y-97643928D01*
X192601904Y-97491547D01*
X192601904Y-97377261D01*
X192640000Y-97224880D01*
X192678095Y-97148690D01*
X192754285Y-97072500D01*
X192868571Y-97034404D01*
X192944761Y-97034404D01*
X193059047Y-97072500D01*
X193097142Y-97110595D01*
X193820952Y-97034404D02*
X193440000Y-97034404D01*
X193401904Y-97415357D01*
X193440000Y-97377261D01*
X193516190Y-97339166D01*
X193706666Y-97339166D01*
X193782857Y-97377261D01*
X193820952Y-97415357D01*
X193859047Y-97491547D01*
X193859047Y-97682023D01*
X193820952Y-97758214D01*
X193782857Y-97796309D01*
X193706666Y-97834404D01*
X193516190Y-97834404D01*
X193440000Y-97796309D01*
X193401904Y-97758214D01*
X192132047Y-90023904D02*
X192132047Y-89223904D01*
X192970142Y-89947714D02*
X192932047Y-89985809D01*
X192817761Y-90023904D01*
X192741571Y-90023904D01*
X192627285Y-89985809D01*
X192551095Y-89909619D01*
X192513000Y-89833428D01*
X192474904Y-89681047D01*
X192474904Y-89566761D01*
X192513000Y-89414380D01*
X192551095Y-89338190D01*
X192627285Y-89262000D01*
X192741571Y-89223904D01*
X192817761Y-89223904D01*
X192932047Y-89262000D01*
X192970142Y-89300095D01*
X193655857Y-89223904D02*
X193503476Y-89223904D01*
X193427285Y-89262000D01*
X193389190Y-89300095D01*
X193313000Y-89414380D01*
X193274904Y-89566761D01*
X193274904Y-89871523D01*
X193313000Y-89947714D01*
X193351095Y-89985809D01*
X193427285Y-90023904D01*
X193579666Y-90023904D01*
X193655857Y-89985809D01*
X193693952Y-89947714D01*
X193732047Y-89871523D01*
X193732047Y-89681047D01*
X193693952Y-89604857D01*
X193655857Y-89566761D01*
X193579666Y-89528666D01*
X193427285Y-89528666D01*
X193351095Y-89566761D01*
X193313000Y-89604857D01*
X193274904Y-89681047D01*
X199517380Y-83348095D02*
X198517380Y-83348095D01*
X198517380Y-82967142D01*
X198565000Y-82871904D01*
X198612619Y-82824285D01*
X198707857Y-82776666D01*
X198850714Y-82776666D01*
X198945952Y-82824285D01*
X198993571Y-82871904D01*
X199041190Y-82967142D01*
X199041190Y-83348095D01*
X198517380Y-82443333D02*
X198517380Y-81824285D01*
X198898333Y-82157619D01*
X198898333Y-82014761D01*
X198945952Y-81919523D01*
X198993571Y-81871904D01*
X199088809Y-81824285D01*
X199326904Y-81824285D01*
X199422142Y-81871904D01*
X199469761Y-81919523D01*
X199517380Y-82014761D01*
X199517380Y-82300476D01*
X199469761Y-82395714D01*
X199422142Y-82443333D01*
X199517380Y-102953095D02*
X198517380Y-102953095D01*
X198517380Y-102572142D01*
X198565000Y-102476904D01*
X198612619Y-102429285D01*
X198707857Y-102381666D01*
X198850714Y-102381666D01*
X198945952Y-102429285D01*
X198993571Y-102476904D01*
X199041190Y-102572142D01*
X199041190Y-102953095D01*
X198850714Y-101524523D02*
X199517380Y-101524523D01*
X198469761Y-101762619D02*
X199184047Y-102000714D01*
X199184047Y-101381666D01*
X149107934Y-40330420D02*
X149107934Y-39330420D01*
X149346029Y-39330420D01*
X149488886Y-39378040D01*
X149584124Y-39473278D01*
X149631743Y-39568516D01*
X149679362Y-39758992D01*
X149679362Y-39901849D01*
X149631743Y-40092325D01*
X149584124Y-40187563D01*
X149488886Y-40282801D01*
X149346029Y-40330420D01*
X149107934Y-40330420D01*
X150631743Y-40330420D02*
X150060315Y-40330420D01*
X150346029Y-40330420D02*
X150346029Y-39330420D01*
X150250791Y-39473278D01*
X150155553Y-39568516D01*
X150060315Y-39616135D01*
X151250791Y-39330420D02*
X151346029Y-39330420D01*
X151441267Y-39378040D01*
X151488886Y-39425659D01*
X151536505Y-39520897D01*
X151584124Y-39711373D01*
X151584124Y-39949468D01*
X151536505Y-40139944D01*
X151488886Y-40235182D01*
X151441267Y-40282801D01*
X151346029Y-40330420D01*
X151250791Y-40330420D01*
X151155553Y-40282801D01*
X151107934Y-40235182D01*
X151060315Y-40139944D01*
X151012696Y-39949468D01*
X151012696Y-39711373D01*
X151060315Y-39520897D01*
X151107934Y-39425659D01*
X151155553Y-39378040D01*
X151250791Y-39330420D01*
X148494761Y-96142619D02*
X148399523Y-96095000D01*
X148304285Y-95999761D01*
X148161428Y-95856904D01*
X148066190Y-95809285D01*
X147970952Y-95809285D01*
X148018571Y-96047380D02*
X147923333Y-95999761D01*
X147828095Y-95904523D01*
X147780476Y-95714047D01*
X147780476Y-95380714D01*
X147828095Y-95190238D01*
X147923333Y-95095000D01*
X148018571Y-95047380D01*
X148209047Y-95047380D01*
X148304285Y-95095000D01*
X148399523Y-95190238D01*
X148447142Y-95380714D01*
X148447142Y-95714047D01*
X148399523Y-95904523D01*
X148304285Y-95999761D01*
X148209047Y-96047380D01*
X148018571Y-96047380D01*
X149399523Y-96047380D02*
X148828095Y-96047380D01*
X149113809Y-96047380D02*
X149113809Y-95047380D01*
X149018571Y-95190238D01*
X148923333Y-95285476D01*
X148828095Y-95333095D01*
X146497380Y-84073904D02*
X147306904Y-84073904D01*
X147402142Y-84026285D01*
X147449761Y-83978666D01*
X147497380Y-83883428D01*
X147497380Y-83692952D01*
X147449761Y-83597714D01*
X147402142Y-83550095D01*
X147306904Y-83502476D01*
X146497380Y-83502476D01*
X147497380Y-82502476D02*
X147497380Y-83073904D01*
X147497380Y-82788190D02*
X146497380Y-82788190D01*
X146640238Y-82883428D01*
X146735476Y-82978666D01*
X146783095Y-83073904D01*
X151577380Y-83946904D02*
X152386904Y-83946904D01*
X152482142Y-83899285D01*
X152529761Y-83851666D01*
X152577380Y-83756428D01*
X152577380Y-83565952D01*
X152529761Y-83470714D01*
X152482142Y-83423095D01*
X152386904Y-83375476D01*
X151577380Y-83375476D01*
X151672619Y-82946904D02*
X151625000Y-82899285D01*
X151577380Y-82804047D01*
X151577380Y-82565952D01*
X151625000Y-82470714D01*
X151672619Y-82423095D01*
X151767857Y-82375476D01*
X151863095Y-82375476D01*
X152005952Y-82423095D01*
X152577380Y-82994523D01*
X152577380Y-82375476D01*
D18*
X157401380Y-103444523D02*
X157401380Y-104472619D01*
X157461857Y-104593571D01*
X157522333Y-104654047D01*
X157643285Y-104714523D01*
X157885190Y-104714523D01*
X158006142Y-104654047D01*
X158066619Y-104593571D01*
X158127095Y-104472619D01*
X158127095Y-103444523D01*
X158610904Y-103444523D02*
X159397095Y-103444523D01*
X158973761Y-103928333D01*
X159155190Y-103928333D01*
X159276142Y-103988809D01*
X159336619Y-104049285D01*
X159397095Y-104170238D01*
X159397095Y-104472619D01*
X159336619Y-104593571D01*
X159276142Y-104654047D01*
X159155190Y-104714523D01*
X158792333Y-104714523D01*
X158671380Y-104654047D01*
X158610904Y-104593571D01*
D11*
X174524380Y-45358666D02*
X174524380Y-45834857D01*
X173524380Y-45834857D01*
X174524380Y-44501523D02*
X174524380Y-45072952D01*
X174524380Y-44787238D02*
X173524380Y-44787238D01*
X173667238Y-44882476D01*
X173762476Y-44977714D01*
X173810095Y-45072952D01*
X160087333Y-49810380D02*
X159611142Y-49810380D01*
X159611142Y-48810380D01*
X160373047Y-48905619D02*
X160420666Y-48858000D01*
X160515904Y-48810380D01*
X160754000Y-48810380D01*
X160849238Y-48858000D01*
X160896857Y-48905619D01*
X160944476Y-49000857D01*
X160944476Y-49096095D01*
X160896857Y-49238952D01*
X160325428Y-49810380D01*
X160944476Y-49810380D01*
X169779333Y-30755142D02*
X169731714Y-30802761D01*
X169588857Y-30850380D01*
X169493619Y-30850380D01*
X169350761Y-30802761D01*
X169255523Y-30707523D01*
X169207904Y-30612285D01*
X169160285Y-30421809D01*
X169160285Y-30278952D01*
X169207904Y-30088476D01*
X169255523Y-29993238D01*
X169350761Y-29898000D01*
X169493619Y-29850380D01*
X169588857Y-29850380D01*
X169731714Y-29898000D01*
X169779333Y-29945619D01*
X170684095Y-29850380D02*
X170207904Y-29850380D01*
X170160285Y-30326571D01*
X170207904Y-30278952D01*
X170303142Y-30231333D01*
X170541238Y-30231333D01*
X170636476Y-30278952D01*
X170684095Y-30326571D01*
X170731714Y-30421809D01*
X170731714Y-30659904D01*
X170684095Y-30755142D01*
X170636476Y-30802761D01*
X170541238Y-30850380D01*
X170303142Y-30850380D01*
X170207904Y-30802761D01*
X170160285Y-30755142D01*
X162667333Y-38955142D02*
X162619714Y-39002761D01*
X162476857Y-39050380D01*
X162381619Y-39050380D01*
X162238761Y-39002761D01*
X162143523Y-38907523D01*
X162095904Y-38812285D01*
X162048285Y-38621809D01*
X162048285Y-38478952D01*
X162095904Y-38288476D01*
X162143523Y-38193238D01*
X162238761Y-38098000D01*
X162381619Y-38050380D01*
X162476857Y-38050380D01*
X162619714Y-38098000D01*
X162667333Y-38145619D01*
X163524476Y-38050380D02*
X163334000Y-38050380D01*
X163238761Y-38098000D01*
X163191142Y-38145619D01*
X163095904Y-38288476D01*
X163048285Y-38478952D01*
X163048285Y-38859904D01*
X163095904Y-38955142D01*
X163143523Y-39002761D01*
X163238761Y-39050380D01*
X163429238Y-39050380D01*
X163524476Y-39002761D01*
X163572095Y-38955142D01*
X163619714Y-38859904D01*
X163619714Y-38621809D01*
X163572095Y-38526571D01*
X163524476Y-38478952D01*
X163429238Y-38431333D01*
X163238761Y-38431333D01*
X163143523Y-38478952D01*
X163095904Y-38526571D01*
X163048285Y-38621809D01*
X146538333Y-98192142D02*
X146490714Y-98239761D01*
X146347857Y-98287380D01*
X146252619Y-98287380D01*
X146109761Y-98239761D01*
X146014523Y-98144523D01*
X145966904Y-98049285D01*
X145919285Y-97858809D01*
X145919285Y-97715952D01*
X145966904Y-97525476D01*
X146014523Y-97430238D01*
X146109761Y-97335000D01*
X146252619Y-97287380D01*
X146347857Y-97287380D01*
X146490714Y-97335000D01*
X146538333Y-97382619D01*
X146871666Y-97287380D02*
X147538333Y-97287380D01*
X147109761Y-98287380D01*
X209857142Y-45084666D02*
X209904761Y-45132285D01*
X209952380Y-45275142D01*
X209952380Y-45370380D01*
X209904761Y-45513238D01*
X209809523Y-45608476D01*
X209714285Y-45656095D01*
X209523809Y-45703714D01*
X209380952Y-45703714D01*
X209190476Y-45656095D01*
X209095238Y-45608476D01*
X209000000Y-45513238D01*
X208952380Y-45370380D01*
X208952380Y-45275142D01*
X209000000Y-45132285D01*
X209047619Y-45084666D01*
X209952380Y-44608476D02*
X209952380Y-44418000D01*
X209904761Y-44322761D01*
X209857142Y-44275142D01*
X209714285Y-44179904D01*
X209523809Y-44132285D01*
X209142857Y-44132285D01*
X209047619Y-44179904D01*
X209000000Y-44227523D01*
X208952380Y-44322761D01*
X208952380Y-44513238D01*
X209000000Y-44608476D01*
X209047619Y-44656095D01*
X209142857Y-44703714D01*
X209380952Y-44703714D01*
X209476190Y-44656095D01*
X209523809Y-44608476D01*
X209571428Y-44513238D01*
X209571428Y-44322761D01*
X209523809Y-44227523D01*
X209476190Y-44179904D01*
X209380952Y-44132285D01*
X178041142Y-29855142D02*
X177993523Y-29902761D01*
X177850666Y-29950380D01*
X177755428Y-29950380D01*
X177612571Y-29902761D01*
X177517333Y-29807523D01*
X177469714Y-29712285D01*
X177422095Y-29521809D01*
X177422095Y-29378952D01*
X177469714Y-29188476D01*
X177517333Y-29093238D01*
X177612571Y-28998000D01*
X177755428Y-28950380D01*
X177850666Y-28950380D01*
X177993523Y-28998000D01*
X178041142Y-29045619D01*
X178993523Y-29950380D02*
X178422095Y-29950380D01*
X178707809Y-29950380D02*
X178707809Y-28950380D01*
X178612571Y-29093238D01*
X178517333Y-29188476D01*
X178422095Y-29236095D01*
X179612571Y-28950380D02*
X179707809Y-28950380D01*
X179803047Y-28998000D01*
X179850666Y-29045619D01*
X179898285Y-29140857D01*
X179945904Y-29331333D01*
X179945904Y-29569428D01*
X179898285Y-29759904D01*
X179850666Y-29855142D01*
X179803047Y-29902761D01*
X179707809Y-29950380D01*
X179612571Y-29950380D01*
X179517333Y-29902761D01*
X179469714Y-29855142D01*
X179422095Y-29759904D01*
X179374476Y-29569428D01*
X179374476Y-29331333D01*
X179422095Y-29140857D01*
X179469714Y-29045619D01*
X179517333Y-28998000D01*
X179612571Y-28950380D01*
X148749142Y-51615142D02*
X148701523Y-51662761D01*
X148558666Y-51710380D01*
X148463428Y-51710380D01*
X148320571Y-51662761D01*
X148225333Y-51567523D01*
X148177714Y-51472285D01*
X148130095Y-51281809D01*
X148130095Y-51138952D01*
X148177714Y-50948476D01*
X148225333Y-50853238D01*
X148320571Y-50758000D01*
X148463428Y-50710380D01*
X148558666Y-50710380D01*
X148701523Y-50758000D01*
X148749142Y-50805619D01*
X149701523Y-51710380D02*
X149130095Y-51710380D01*
X149415809Y-51710380D02*
X149415809Y-50710380D01*
X149320571Y-50853238D01*
X149225333Y-50948476D01*
X149130095Y-50996095D01*
X150034857Y-50710380D02*
X150653904Y-50710380D01*
X150320571Y-51091333D01*
X150463428Y-51091333D01*
X150558666Y-51138952D01*
X150606285Y-51186571D01*
X150653904Y-51281809D01*
X150653904Y-51519904D01*
X150606285Y-51615142D01*
X150558666Y-51662761D01*
X150463428Y-51710380D01*
X150177714Y-51710380D01*
X150082476Y-51662761D01*
X150034857Y-51615142D01*
X166342380Y-113133095D02*
X165342380Y-113133095D01*
X165342380Y-112895000D01*
X165390000Y-112752142D01*
X165485238Y-112656904D01*
X165580476Y-112609285D01*
X165770952Y-112561666D01*
X165913809Y-112561666D01*
X166104285Y-112609285D01*
X166199523Y-112656904D01*
X166294761Y-112752142D01*
X166342380Y-112895000D01*
X166342380Y-113133095D01*
X166342380Y-111609285D02*
X166342380Y-112180714D01*
X166342380Y-111895000D02*
X165342380Y-111895000D01*
X165485238Y-111990238D01*
X165580476Y-112085476D01*
X165628095Y-112180714D01*
X162278380Y-113006095D02*
X161278380Y-113006095D01*
X161278380Y-112768000D01*
X161326000Y-112625142D01*
X161421238Y-112529904D01*
X161516476Y-112482285D01*
X161706952Y-112434666D01*
X161849809Y-112434666D01*
X162040285Y-112482285D01*
X162135523Y-112529904D01*
X162230761Y-112625142D01*
X162278380Y-112768000D01*
X162278380Y-113006095D01*
X161373619Y-112053714D02*
X161326000Y-112006095D01*
X161278380Y-111910857D01*
X161278380Y-111672761D01*
X161326000Y-111577523D01*
X161373619Y-111529904D01*
X161468857Y-111482285D01*
X161564095Y-111482285D01*
X161706952Y-111529904D01*
X162278380Y-112101333D01*
X162278380Y-111482285D01*
X188892380Y-113100095D02*
X187892380Y-113100095D01*
X187892380Y-112862000D01*
X187940000Y-112719142D01*
X188035238Y-112623904D01*
X188130476Y-112576285D01*
X188320952Y-112528666D01*
X188463809Y-112528666D01*
X188654285Y-112576285D01*
X188749523Y-112623904D01*
X188844761Y-112719142D01*
X188892380Y-112862000D01*
X188892380Y-113100095D01*
X187892380Y-112195333D02*
X187892380Y-111576285D01*
X188273333Y-111909619D01*
X188273333Y-111766761D01*
X188320952Y-111671523D01*
X188368571Y-111623904D01*
X188463809Y-111576285D01*
X188701904Y-111576285D01*
X188797142Y-111623904D01*
X188844761Y-111671523D01*
X188892380Y-111766761D01*
X188892380Y-112052476D01*
X188844761Y-112147714D01*
X188797142Y-112195333D01*
X185082380Y-113133095D02*
X184082380Y-113133095D01*
X184082380Y-112895000D01*
X184130000Y-112752142D01*
X184225238Y-112656904D01*
X184320476Y-112609285D01*
X184510952Y-112561666D01*
X184653809Y-112561666D01*
X184844285Y-112609285D01*
X184939523Y-112656904D01*
X185034761Y-112752142D01*
X185082380Y-112895000D01*
X185082380Y-113133095D01*
X184415714Y-111704523D02*
X185082380Y-111704523D01*
X184034761Y-111942619D02*
X184749047Y-112180714D01*
X184749047Y-111561666D01*
X181272380Y-113133095D02*
X180272380Y-113133095D01*
X180272380Y-112895000D01*
X180320000Y-112752142D01*
X180415238Y-112656904D01*
X180510476Y-112609285D01*
X180700952Y-112561666D01*
X180843809Y-112561666D01*
X181034285Y-112609285D01*
X181129523Y-112656904D01*
X181224761Y-112752142D01*
X181272380Y-112895000D01*
X181272380Y-113133095D01*
X180272380Y-111656904D02*
X180272380Y-112133095D01*
X180748571Y-112180714D01*
X180700952Y-112133095D01*
X180653333Y-112037857D01*
X180653333Y-111799761D01*
X180700952Y-111704523D01*
X180748571Y-111656904D01*
X180843809Y-111609285D01*
X181081904Y-111609285D01*
X181177142Y-111656904D01*
X181224761Y-111704523D01*
X181272380Y-111799761D01*
X181272380Y-112037857D01*
X181224761Y-112133095D01*
X181177142Y-112180714D01*
X173652380Y-113133095D02*
X172652380Y-113133095D01*
X172652380Y-112895000D01*
X172700000Y-112752142D01*
X172795238Y-112656904D01*
X172890476Y-112609285D01*
X173080952Y-112561666D01*
X173223809Y-112561666D01*
X173414285Y-112609285D01*
X173509523Y-112656904D01*
X173604761Y-112752142D01*
X173652380Y-112895000D01*
X173652380Y-113133095D01*
X172652380Y-111704523D02*
X172652380Y-111895000D01*
X172700000Y-111990238D01*
X172747619Y-112037857D01*
X172890476Y-112133095D01*
X173080952Y-112180714D01*
X173461904Y-112180714D01*
X173557142Y-112133095D01*
X173604761Y-112085476D01*
X173652380Y-111990238D01*
X173652380Y-111799761D01*
X173604761Y-111704523D01*
X173557142Y-111656904D01*
X173461904Y-111609285D01*
X173223809Y-111609285D01*
X173128571Y-111656904D01*
X173080952Y-111704523D01*
X173033333Y-111799761D01*
X173033333Y-111990238D01*
X173080952Y-112085476D01*
X173128571Y-112133095D01*
X173223809Y-112180714D01*
X173962380Y-113133095D02*
X172962380Y-113133095D01*
X172962380Y-112895000D01*
X173010000Y-112752142D01*
X173105238Y-112656904D01*
X173200476Y-112609285D01*
X173390952Y-112561666D01*
X173533809Y-112561666D01*
X173724285Y-112609285D01*
X173819523Y-112656904D01*
X173914761Y-112752142D01*
X173962380Y-112895000D01*
X173962380Y-113133095D01*
X172962380Y-112228333D02*
X172962380Y-111561666D01*
X173962380Y-111990238D01*
X195040666Y-16438571D02*
X194707333Y-16438571D01*
X194707333Y-16962380D02*
X194707333Y-15962380D01*
X195183523Y-15962380D01*
X196088285Y-16962380D02*
X195516857Y-16962380D01*
X195802571Y-16962380D02*
X195802571Y-15962380D01*
X195707333Y-16105238D01*
X195612095Y-16200476D01*
X195516857Y-16248095D01*
X173873142Y-45732857D02*
X173920761Y-45780476D01*
X173968380Y-45923333D01*
X173968380Y-46018571D01*
X173920761Y-46161428D01*
X173825523Y-46256666D01*
X173730285Y-46304285D01*
X173539809Y-46351904D01*
X173396952Y-46351904D01*
X173206476Y-46304285D01*
X173111238Y-46256666D01*
X173016000Y-46161428D01*
X172968380Y-46018571D01*
X172968380Y-45923333D01*
X173016000Y-45780476D01*
X173063619Y-45732857D01*
X173968380Y-44780476D02*
X173968380Y-45351904D01*
X173968380Y-45066190D02*
X172968380Y-45066190D01*
X173111238Y-45161428D01*
X173206476Y-45256666D01*
X173254095Y-45351904D01*
X172968380Y-43875714D02*
X172968380Y-44351904D01*
X173444571Y-44399523D01*
X173396952Y-44351904D01*
X173349333Y-44256666D01*
X173349333Y-44018571D01*
X173396952Y-43923333D01*
X173444571Y-43875714D01*
X173539809Y-43828095D01*
X173777904Y-43828095D01*
X173873142Y-43875714D01*
X173920761Y-43923333D01*
X173968380Y-44018571D01*
X173968380Y-44256666D01*
X173920761Y-44351904D01*
X173873142Y-44399523D01*
X172251904Y-30322380D02*
X172251904Y-29322380D01*
X172632857Y-29322380D01*
X172728095Y-29370000D01*
X172775714Y-29417619D01*
X172823333Y-29512857D01*
X172823333Y-29655714D01*
X172775714Y-29750952D01*
X172728095Y-29798571D01*
X172632857Y-29846190D01*
X172251904Y-29846190D01*
X173775714Y-30322380D02*
X173204285Y-30322380D01*
X173490000Y-30322380D02*
X173490000Y-29322380D01*
X173394761Y-29465238D01*
X173299523Y-29560476D01*
X173204285Y-29608095D01*
X154836904Y-30322380D02*
X154836904Y-29322380D01*
X155217857Y-29322380D01*
X155313095Y-29370000D01*
X155360714Y-29417619D01*
X155408333Y-29512857D01*
X155408333Y-29655714D01*
X155360714Y-29750952D01*
X155313095Y-29798571D01*
X155217857Y-29846190D01*
X154836904Y-29846190D01*
X156313095Y-29322380D02*
X155836904Y-29322380D01*
X155789285Y-29798571D01*
X155836904Y-29750952D01*
X155932142Y-29703333D01*
X156170238Y-29703333D01*
X156265476Y-29750952D01*
X156313095Y-29798571D01*
X156360714Y-29893809D01*
X156360714Y-30131904D01*
X156313095Y-30227142D01*
X156265476Y-30274761D01*
X156170238Y-30322380D01*
X155932142Y-30322380D01*
X155836904Y-30274761D01*
X155789285Y-30227142D01*
X159257142Y-50551340D02*
X158923809Y-50075150D01*
X158685714Y-50551340D02*
X158685714Y-49551340D01*
X159066666Y-49551340D01*
X159161904Y-49598960D01*
X159209523Y-49646579D01*
X159257142Y-49741817D01*
X159257142Y-49884674D01*
X159209523Y-49979912D01*
X159161904Y-50027531D01*
X159066666Y-50075150D01*
X158685714Y-50075150D01*
X159590476Y-49551340D02*
X160209523Y-49551340D01*
X159876190Y-49932293D01*
X160019047Y-49932293D01*
X160114285Y-49979912D01*
X160161904Y-50027531D01*
X160209523Y-50122769D01*
X160209523Y-50360864D01*
X160161904Y-50456102D01*
X160114285Y-50503721D01*
X160019047Y-50551340D01*
X159733333Y-50551340D01*
X159638095Y-50503721D01*
X159590476Y-50456102D01*
X160590476Y-49646579D02*
X160638095Y-49598960D01*
X160733333Y-49551340D01*
X160971428Y-49551340D01*
X161066666Y-49598960D01*
X161114285Y-49646579D01*
X161161904Y-49741817D01*
X161161904Y-49837055D01*
X161114285Y-49979912D01*
X160542857Y-50551340D01*
X161161904Y-50551340D01*
X189991142Y-58049420D02*
X189657809Y-57573230D01*
X189419714Y-58049420D02*
X189419714Y-57049420D01*
X189800666Y-57049420D01*
X189895904Y-57097040D01*
X189943523Y-57144659D01*
X189991142Y-57239897D01*
X189991142Y-57382754D01*
X189943523Y-57477992D01*
X189895904Y-57525611D01*
X189800666Y-57573230D01*
X189419714Y-57573230D01*
X190324476Y-57049420D02*
X190943523Y-57049420D01*
X190610190Y-57430373D01*
X190753047Y-57430373D01*
X190848285Y-57477992D01*
X190895904Y-57525611D01*
X190943523Y-57620849D01*
X190943523Y-57858944D01*
X190895904Y-57954182D01*
X190848285Y-58001801D01*
X190753047Y-58049420D01*
X190467333Y-58049420D01*
X190372095Y-58001801D01*
X190324476Y-57954182D01*
X191276857Y-57049420D02*
X191895904Y-57049420D01*
X191562571Y-57430373D01*
X191705428Y-57430373D01*
X191800666Y-57477992D01*
X191848285Y-57525611D01*
X191895904Y-57620849D01*
X191895904Y-57858944D01*
X191848285Y-57954182D01*
X191800666Y-58001801D01*
X191705428Y-58049420D01*
X191419714Y-58049420D01*
X191324476Y-58001801D01*
X191276857Y-57954182D01*
X142692380Y-94873095D02*
X141692380Y-94873095D01*
X141692380Y-94635000D01*
X141740000Y-94492142D01*
X141835238Y-94396904D01*
X141930476Y-94349285D01*
X142120952Y-94301666D01*
X142263809Y-94301666D01*
X142454285Y-94349285D01*
X142549523Y-94396904D01*
X142644761Y-94492142D01*
X142692380Y-94635000D01*
X142692380Y-94873095D01*
X142692380Y-93825476D02*
X142692380Y-93635000D01*
X142644761Y-93539761D01*
X142597142Y-93492142D01*
X142454285Y-93396904D01*
X142263809Y-93349285D01*
X141882857Y-93349285D01*
X141787619Y-93396904D01*
X141740000Y-93444523D01*
X141692380Y-93539761D01*
X141692380Y-93730238D01*
X141740000Y-93825476D01*
X141787619Y-93873095D01*
X141882857Y-93920714D01*
X142120952Y-93920714D01*
X142216190Y-93873095D01*
X142263809Y-93825476D01*
X142311428Y-93730238D01*
X142311428Y-93539761D01*
X142263809Y-93444523D01*
X142216190Y-93396904D01*
X142120952Y-93349285D01*
X142647380Y-92596904D02*
X141647380Y-92596904D01*
X142647380Y-92025476D02*
X142075952Y-92454047D01*
X141647380Y-92025476D02*
X142218809Y-92596904D01*
X142361666Y-96173095D02*
X142361666Y-95696904D01*
X142647380Y-96268333D02*
X141647380Y-95935000D01*
X142647380Y-95601666D01*
X145946904Y-86177380D02*
X145946904Y-85177380D01*
X146518333Y-86177380D02*
X146089761Y-85605952D01*
X146518333Y-85177380D02*
X145946904Y-85748809D01*
X147470714Y-86177380D02*
X146899285Y-86177380D01*
X147185000Y-86177380D02*
X147185000Y-85177380D01*
X147089761Y-85320238D01*
X146994523Y-85415476D01*
X146899285Y-85463095D01*
D14*
X174098857Y-87049428D02*
X174098857Y-88283142D01*
X174171428Y-88428285D01*
X174244000Y-88500857D01*
X174389142Y-88573428D01*
X174679428Y-88573428D01*
X174824571Y-88500857D01*
X174897142Y-88428285D01*
X174969714Y-88283142D01*
X174969714Y-87049428D01*
X176421142Y-87049428D02*
X175695428Y-87049428D01*
X175622857Y-87775142D01*
X175695428Y-87702571D01*
X175840571Y-87630000D01*
X176203428Y-87630000D01*
X176348571Y-87702571D01*
X176421142Y-87775142D01*
X176493714Y-87920285D01*
X176493714Y-88283142D01*
X176421142Y-88428285D01*
X176348571Y-88500857D01*
X176203428Y-88573428D01*
X175840571Y-88573428D01*
X175695428Y-88500857D01*
X175622857Y-88428285D01*
X168910000Y-58601428D02*
X169780857Y-58601428D01*
X169345428Y-60125428D02*
X169345428Y-58601428D01*
X170796857Y-59327142D02*
X171014571Y-59399714D01*
X171087142Y-59472285D01*
X171159714Y-59617428D01*
X171159714Y-59835142D01*
X171087142Y-59980285D01*
X171014571Y-60052857D01*
X170869428Y-60125428D01*
X170288857Y-60125428D01*
X170288857Y-58601428D01*
X170796857Y-58601428D01*
X170942000Y-58674000D01*
X171014571Y-58746571D01*
X171087142Y-58891714D01*
X171087142Y-59036857D01*
X171014571Y-59182000D01*
X170942000Y-59254571D01*
X170796857Y-59327142D01*
X170288857Y-59327142D01*
X172466000Y-58601428D02*
X172175714Y-58601428D01*
X172030571Y-58674000D01*
X171958000Y-58746571D01*
X171812857Y-58964285D01*
X171740285Y-59254571D01*
X171740285Y-59835142D01*
X171812857Y-59980285D01*
X171885428Y-60052857D01*
X172030571Y-60125428D01*
X172320857Y-60125428D01*
X172466000Y-60052857D01*
X172538571Y-59980285D01*
X172611142Y-59835142D01*
X172611142Y-59472285D01*
X172538571Y-59327142D01*
X172466000Y-59254571D01*
X172320857Y-59182000D01*
X172030571Y-59182000D01*
X171885428Y-59254571D01*
X171812857Y-59327142D01*
X171740285Y-59472285D01*
X173990000Y-58601428D02*
X173264285Y-58601428D01*
X173191714Y-59327142D01*
X173264285Y-59254571D01*
X173409428Y-59182000D01*
X173772285Y-59182000D01*
X173917428Y-59254571D01*
X173990000Y-59327142D01*
X174062571Y-59472285D01*
X174062571Y-59835142D01*
X173990000Y-59980285D01*
X173917428Y-60052857D01*
X173772285Y-60125428D01*
X173409428Y-60125428D01*
X173264285Y-60052857D01*
X173191714Y-59980285D01*
X175368857Y-58601428D02*
X175078571Y-58601428D01*
X174933428Y-58674000D01*
X174860857Y-58746571D01*
X174715714Y-58964285D01*
X174643142Y-59254571D01*
X174643142Y-59835142D01*
X174715714Y-59980285D01*
X174788285Y-60052857D01*
X174933428Y-60125428D01*
X175223714Y-60125428D01*
X175368857Y-60052857D01*
X175441428Y-59980285D01*
X175514000Y-59835142D01*
X175514000Y-59472285D01*
X175441428Y-59327142D01*
X175368857Y-59254571D01*
X175223714Y-59182000D01*
X174933428Y-59182000D01*
X174788285Y-59254571D01*
X174715714Y-59327142D01*
X174643142Y-59472285D01*
X176457428Y-58601428D02*
X176602571Y-58601428D01*
X176747714Y-58674000D01*
X176820285Y-58746571D01*
X176892857Y-58891714D01*
X176965428Y-59182000D01*
X176965428Y-59544857D01*
X176892857Y-59835142D01*
X176820285Y-59980285D01*
X176747714Y-60052857D01*
X176602571Y-60125428D01*
X176457428Y-60125428D01*
X176312285Y-60052857D01*
X176239714Y-59980285D01*
X176167142Y-59835142D01*
X176094571Y-59544857D01*
X176094571Y-59182000D01*
X176167142Y-58891714D01*
X176239714Y-58746571D01*
X176312285Y-58674000D01*
X176457428Y-58601428D01*
X177546000Y-59690000D02*
X178271714Y-59690000D01*
X177400857Y-60125428D02*
X177908857Y-58601428D01*
X178416857Y-60125428D01*
X178924857Y-60125428D02*
X178924857Y-58601428D01*
X178924857Y-59327142D02*
X179795714Y-59327142D01*
X179795714Y-60125428D02*
X179795714Y-58601428D01*
X181537428Y-60270571D02*
X181392285Y-60198000D01*
X181247142Y-60052857D01*
X181029428Y-59835142D01*
X180884285Y-59762571D01*
X180739142Y-59762571D01*
X180811714Y-60125428D02*
X180666571Y-60052857D01*
X180521428Y-59907714D01*
X180448857Y-59617428D01*
X180448857Y-59109428D01*
X180521428Y-58819142D01*
X180666571Y-58674000D01*
X180811714Y-58601428D01*
X181102000Y-58601428D01*
X181247142Y-58674000D01*
X181392285Y-58819142D01*
X181464857Y-59109428D01*
X181464857Y-59617428D01*
X181392285Y-59907714D01*
X181247142Y-60052857D01*
X181102000Y-60125428D01*
X180811714Y-60125428D01*
D11*
X190269095Y-50290480D02*
X190269095Y-51100004D01*
X190316714Y-51195242D01*
X190364333Y-51242861D01*
X190459571Y-51290480D01*
X190650047Y-51290480D01*
X190745285Y-51242861D01*
X190792904Y-51195242D01*
X190840523Y-51100004D01*
X190840523Y-50290480D01*
X191745285Y-50623814D02*
X191745285Y-51290480D01*
X191507190Y-50242861D02*
X191269095Y-50957147D01*
X191888142Y-50957147D01*
X197666714Y-42400480D02*
X197095285Y-42400480D01*
X197381000Y-42400480D02*
X197381000Y-41400480D01*
X197285761Y-41543338D01*
X197190523Y-41638576D01*
X197095285Y-41686195D01*
M02*
