G04 #@! TF.FileFunction,Legend,Bot*
%FSLAX46Y46*%
G04 Gerber Fmt 4.6, Leading zero omitted, Abs format (unit mm)*
G04 Created by KiCad (PCBNEW (2016-08-15 BZR 7057)-product) date Tue Nov  8 12:42:18 2016*
%MOMM*%
%LPD*%
G01*
G04 APERTURE LIST*
%ADD10C,0.100000*%
%ADD11C,0.150000*%
%ADD12C,0.300000*%
%ADD13C,0.400000*%
G04 APERTURE END LIST*
D10*
D11*
X177002200Y-166007200D02*
X177002200Y-198007200D01*
X285002200Y-198007200D01*
X285002200Y-166007200D01*
X177002200Y-166007200D01*
D10*
D11*
X10000000Y-10000000D02*
X10000000Y-200007200D01*
X287002200Y-200007200D01*
X287002200Y-10000000D01*
X10000000Y-10000000D01*
D10*
D11*
X12000000Y-12000000D02*
X12000000Y-198007200D01*
X285002200Y-198007200D01*
X285002200Y-12000000D01*
X12000000Y-12000000D01*
D10*
D11*
X60000000Y-12000000D02*
X60000000Y-10000000D01*
D10*
D11*
X110000000Y-12000000D02*
X110000000Y-10000000D01*
D10*
D11*
X160000000Y-12000000D02*
X160000000Y-10000000D01*
D10*
D11*
X210000000Y-12000000D02*
X210000000Y-10000000D01*
D10*
D11*
X260000000Y-12000000D02*
X260000000Y-10000000D01*
D10*
D11*
X36065476Y-11588095D02*
X35322619Y-11588095D01*
X35694047Y-11588095D02*
X35694047Y-10288095D01*
X35570238Y-10473809D01*
X35446428Y-10597619D01*
X35322619Y-10659523D01*
D10*
D11*
X85322619Y-10411904D02*
X85384523Y-10350000D01*
X85508333Y-10288095D01*
X85817857Y-10288095D01*
X85941666Y-10350000D01*
X86003571Y-10411904D01*
X86065476Y-10535714D01*
X86065476Y-10659523D01*
X86003571Y-10845238D01*
X85260714Y-11588095D01*
X86065476Y-11588095D01*
D10*
D11*
X135260714Y-10288095D02*
X136065476Y-10288095D01*
X135632142Y-10783333D01*
X135817857Y-10783333D01*
X135941666Y-10845238D01*
X136003571Y-10907142D01*
X136065476Y-11030952D01*
X136065476Y-11340476D01*
X136003571Y-11464285D01*
X135941666Y-11526190D01*
X135817857Y-11588095D01*
X135446428Y-11588095D01*
X135322619Y-11526190D01*
X135260714Y-11464285D01*
D10*
D11*
X185941666Y-10721428D02*
X185941666Y-11588095D01*
X185632142Y-10226190D02*
X185322619Y-11154761D01*
X186127380Y-11154761D01*
D10*
D11*
X236003571Y-10288095D02*
X235384523Y-10288095D01*
X235322619Y-10907142D01*
X235384523Y-10845238D01*
X235508333Y-10783333D01*
X235817857Y-10783333D01*
X235941666Y-10845238D01*
X236003571Y-10907142D01*
X236065476Y-11030952D01*
X236065476Y-11340476D01*
X236003571Y-11464285D01*
X235941666Y-11526190D01*
X235817857Y-11588095D01*
X235508333Y-11588095D01*
X235384523Y-11526190D01*
X235322619Y-11464285D01*
D10*
D11*
X285941666Y-10288095D02*
X285694047Y-10288095D01*
X285570238Y-10350000D01*
X285508333Y-10411904D01*
X285384523Y-10597619D01*
X285322619Y-10845238D01*
X285322619Y-11340476D01*
X285384523Y-11464285D01*
X285446428Y-11526190D01*
X285570238Y-11588095D01*
X285817857Y-11588095D01*
X285941666Y-11526190D01*
X286003571Y-11464285D01*
X286065476Y-11340476D01*
X286065476Y-11030952D01*
X286003571Y-10907142D01*
X285941666Y-10845238D01*
X285817857Y-10783333D01*
X285570238Y-10783333D01*
X285446428Y-10845238D01*
X285384523Y-10907142D01*
X285322619Y-11030952D01*
D10*
D11*
X60000000Y-198007200D02*
X60000000Y-200007200D01*
D10*
D11*
X110000000Y-198007200D02*
X110000000Y-200007200D01*
D10*
D11*
X160000000Y-198007200D02*
X160000000Y-200007200D01*
D10*
D11*
X210000000Y-198007200D02*
X210000000Y-200007200D01*
D10*
D11*
X260000000Y-198007200D02*
X260000000Y-200007200D01*
D10*
D11*
X36065476Y-199595295D02*
X35322619Y-199595295D01*
X35694047Y-199595295D02*
X35694047Y-198295295D01*
X35570238Y-198481009D01*
X35446428Y-198604819D01*
X35322619Y-198666723D01*
D10*
D11*
X85322619Y-198419104D02*
X85384523Y-198357200D01*
X85508333Y-198295295D01*
X85817857Y-198295295D01*
X85941666Y-198357200D01*
X86003571Y-198419104D01*
X86065476Y-198542914D01*
X86065476Y-198666723D01*
X86003571Y-198852438D01*
X85260714Y-199595295D01*
X86065476Y-199595295D01*
D10*
D11*
X135260714Y-198295295D02*
X136065476Y-198295295D01*
X135632142Y-198790533D01*
X135817857Y-198790533D01*
X135941666Y-198852438D01*
X136003571Y-198914342D01*
X136065476Y-199038152D01*
X136065476Y-199347676D01*
X136003571Y-199471485D01*
X135941666Y-199533390D01*
X135817857Y-199595295D01*
X135446428Y-199595295D01*
X135322619Y-199533390D01*
X135260714Y-199471485D01*
D10*
D11*
X185941666Y-198728628D02*
X185941666Y-199595295D01*
X185632142Y-198233390D02*
X185322619Y-199161961D01*
X186127380Y-199161961D01*
D10*
D11*
X236003571Y-198295295D02*
X235384523Y-198295295D01*
X235322619Y-198914342D01*
X235384523Y-198852438D01*
X235508333Y-198790533D01*
X235817857Y-198790533D01*
X235941666Y-198852438D01*
X236003571Y-198914342D01*
X236065476Y-199038152D01*
X236065476Y-199347676D01*
X236003571Y-199471485D01*
X235941666Y-199533390D01*
X235817857Y-199595295D01*
X235508333Y-199595295D01*
X235384523Y-199533390D01*
X235322619Y-199471485D01*
D10*
D11*
X285941666Y-198295295D02*
X285694047Y-198295295D01*
X285570238Y-198357200D01*
X285508333Y-198419104D01*
X285384523Y-198604819D01*
X285322619Y-198852438D01*
X285322619Y-199347676D01*
X285384523Y-199471485D01*
X285446428Y-199533390D01*
X285570238Y-199595295D01*
X285817857Y-199595295D01*
X285941666Y-199533390D01*
X286003571Y-199471485D01*
X286065476Y-199347676D01*
X286065476Y-199038152D01*
X286003571Y-198914342D01*
X285941666Y-198852438D01*
X285817857Y-198790533D01*
X285570238Y-198790533D01*
X285446428Y-198852438D01*
X285384523Y-198914342D01*
X285322619Y-199038152D01*
D10*
D11*
X10000000Y-60000000D02*
X12000000Y-60000000D01*
D10*
D11*
X10000000Y-110000000D02*
X12000000Y-110000000D01*
D10*
D11*
X10000000Y-160000000D02*
X12000000Y-160000000D01*
D10*
D11*
X10690476Y-35216666D02*
X11309523Y-35216666D01*
X10566666Y-35588095D02*
X11000000Y-34288095D01*
X11433333Y-35588095D01*
D10*
D11*
X11092857Y-84907142D02*
X11278571Y-84969047D01*
X11340476Y-85030952D01*
X11402380Y-85154761D01*
X11402380Y-85340476D01*
X11340476Y-85464285D01*
X11278571Y-85526190D01*
X11154761Y-85588095D01*
X10659523Y-85588095D01*
X10659523Y-84288095D01*
X11092857Y-84288095D01*
X11216666Y-84350000D01*
X11278571Y-84411904D01*
X11340476Y-84535714D01*
X11340476Y-84659523D01*
X11278571Y-84783333D01*
X11216666Y-84845238D01*
X11092857Y-84907142D01*
X10659523Y-84907142D01*
D10*
D11*
X11402380Y-135464285D02*
X11340476Y-135526190D01*
X11154761Y-135588095D01*
X11030952Y-135588095D01*
X10845238Y-135526190D01*
X10721428Y-135402380D01*
X10659523Y-135278571D01*
X10597619Y-135030952D01*
X10597619Y-134845238D01*
X10659523Y-134597619D01*
X10721428Y-134473809D01*
X10845238Y-134350000D01*
X11030952Y-134288095D01*
X11154761Y-134288095D01*
X11340476Y-134350000D01*
X11402380Y-134411904D01*
D10*
D11*
X10659523Y-185588095D02*
X10659523Y-184288095D01*
X10969047Y-184288095D01*
X11154761Y-184350000D01*
X11278571Y-184473809D01*
X11340476Y-184597619D01*
X11402380Y-184845238D01*
X11402380Y-185030952D01*
X11340476Y-185278571D01*
X11278571Y-185402380D01*
X11154761Y-185526190D01*
X10969047Y-185588095D01*
X10659523Y-185588095D01*
D10*
D11*
X287002200Y-60000000D02*
X285002200Y-60000000D01*
D10*
D11*
X287002200Y-110000000D02*
X285002200Y-110000000D01*
D10*
D11*
X287002200Y-160000000D02*
X285002200Y-160000000D01*
D10*
D11*
X285692676Y-35216666D02*
X286311723Y-35216666D01*
X285568866Y-35588095D02*
X286002200Y-34288095D01*
X286435533Y-35588095D01*
D10*
D11*
X286095057Y-84907142D02*
X286280771Y-84969047D01*
X286342676Y-85030952D01*
X286404580Y-85154761D01*
X286404580Y-85340476D01*
X286342676Y-85464285D01*
X286280771Y-85526190D01*
X286156961Y-85588095D01*
X285661723Y-85588095D01*
X285661723Y-84288095D01*
X286095057Y-84288095D01*
X286218866Y-84350000D01*
X286280771Y-84411904D01*
X286342676Y-84535714D01*
X286342676Y-84659523D01*
X286280771Y-84783333D01*
X286218866Y-84845238D01*
X286095057Y-84907142D01*
X285661723Y-84907142D01*
D10*
D11*
X286404580Y-135464285D02*
X286342676Y-135526190D01*
X286156961Y-135588095D01*
X286033152Y-135588095D01*
X285847438Y-135526190D01*
X285723628Y-135402380D01*
X285661723Y-135278571D01*
X285599819Y-135030952D01*
X285599819Y-134845238D01*
X285661723Y-134597619D01*
X285723628Y-134473809D01*
X285847438Y-134350000D01*
X286033152Y-134288095D01*
X286156961Y-134288095D01*
X286342676Y-134350000D01*
X286404580Y-134411904D01*
D10*
D11*
X285661723Y-185588095D02*
X285661723Y-184288095D01*
X285971247Y-184288095D01*
X286156961Y-184350000D01*
X286280771Y-184473809D01*
X286342676Y-184597619D01*
X286404580Y-184845238D01*
X286404580Y-185030952D01*
X286342676Y-185278571D01*
X286280771Y-185402380D01*
X286156961Y-185526190D01*
X285971247Y-185588095D01*
X285661723Y-185588095D01*
D10*
D11*
X200434342Y-193785771D02*
X200434342Y-192285771D01*
X200791485Y-192285771D01*
X201005771Y-192357200D01*
X201148628Y-192500057D01*
X201220057Y-192642914D01*
X201291485Y-192928628D01*
X201291485Y-193142914D01*
X201220057Y-193428628D01*
X201148628Y-193571485D01*
X201005771Y-193714342D01*
X200791485Y-193785771D01*
X200434342Y-193785771D01*
X202577200Y-193785771D02*
X202577200Y-193000057D01*
X202505771Y-192857200D01*
X202362914Y-192785771D01*
X202077200Y-192785771D01*
X201934342Y-192857200D01*
X202577200Y-193714342D02*
X202434342Y-193785771D01*
X202077200Y-193785771D01*
X201934342Y-193714342D01*
X201862914Y-193571485D01*
X201862914Y-193428628D01*
X201934342Y-193285771D01*
X202077200Y-193214342D01*
X202434342Y-193214342D01*
X202577200Y-193142914D01*
X203077200Y-192785771D02*
X203648628Y-192785771D01*
X203291485Y-192285771D02*
X203291485Y-193571485D01*
X203362914Y-193714342D01*
X203505771Y-193785771D01*
X203648628Y-193785771D01*
X204720057Y-193714342D02*
X204577200Y-193785771D01*
X204291485Y-193785771D01*
X204148628Y-193714342D01*
X204077200Y-193571485D01*
X204077200Y-193000057D01*
X204148628Y-192857200D01*
X204291485Y-192785771D01*
X204577200Y-192785771D01*
X204720057Y-192857200D01*
X204791485Y-193000057D01*
X204791485Y-193142914D01*
X204077200Y-193285771D01*
X205434342Y-193642914D02*
X205505771Y-193714342D01*
X205434342Y-193785771D01*
X205362914Y-193714342D01*
X205434342Y-193642914D01*
X205434342Y-193785771D01*
X205434342Y-192857200D02*
X205505771Y-192928628D01*
X205434342Y-193000057D01*
X205362914Y-192928628D01*
X205434342Y-192857200D01*
X205434342Y-193000057D01*
D10*
D11*
X177002200Y-194507200D02*
X285002200Y-194507200D01*
D10*
D11*
X178434342Y-196585771D02*
X178434342Y-195085771D01*
X179291485Y-196585771D02*
X178648628Y-195728628D01*
X179291485Y-195085771D02*
X178434342Y-195942914D01*
X179934342Y-196585771D02*
X179934342Y-195585771D01*
X179934342Y-195085771D02*
X179862914Y-195157200D01*
X179934342Y-195228628D01*
X180005771Y-195157200D01*
X179934342Y-195085771D01*
X179934342Y-195228628D01*
X181505771Y-196442914D02*
X181434342Y-196514342D01*
X181220057Y-196585771D01*
X181077200Y-196585771D01*
X180862914Y-196514342D01*
X180720057Y-196371485D01*
X180648628Y-196228628D01*
X180577200Y-195942914D01*
X180577200Y-195728628D01*
X180648628Y-195442914D01*
X180720057Y-195300057D01*
X180862914Y-195157200D01*
X181077200Y-195085771D01*
X181220057Y-195085771D01*
X181434342Y-195157200D01*
X181505771Y-195228628D01*
X182791485Y-196585771D02*
X182791485Y-195800057D01*
X182720057Y-195657200D01*
X182577200Y-195585771D01*
X182291485Y-195585771D01*
X182148628Y-195657200D01*
X182791485Y-196514342D02*
X182648628Y-196585771D01*
X182291485Y-196585771D01*
X182148628Y-196514342D01*
X182077200Y-196371485D01*
X182077200Y-196228628D01*
X182148628Y-196085771D01*
X182291485Y-196014342D01*
X182648628Y-196014342D01*
X182791485Y-195942914D01*
X184148628Y-196585771D02*
X184148628Y-195085771D01*
X184148628Y-196514342D02*
X184005771Y-196585771D01*
X183720057Y-196585771D01*
X183577200Y-196514342D01*
X183505771Y-196442914D01*
X183434342Y-196300057D01*
X183434342Y-195871485D01*
X183505771Y-195728628D01*
X183577200Y-195657200D01*
X183720057Y-195585771D01*
X184005771Y-195585771D01*
X184148628Y-195657200D01*
X186005771Y-195800057D02*
X186505771Y-195800057D01*
X186720057Y-196585771D02*
X186005771Y-196585771D01*
X186005771Y-195085771D01*
X186720057Y-195085771D01*
X187362914Y-196442914D02*
X187434342Y-196514342D01*
X187362914Y-196585771D01*
X187291485Y-196514342D01*
X187362914Y-196442914D01*
X187362914Y-196585771D01*
X188077200Y-196585771D02*
X188077200Y-195085771D01*
X188434342Y-195085771D01*
X188648628Y-195157200D01*
X188791485Y-195300057D01*
X188862914Y-195442914D01*
X188934342Y-195728628D01*
X188934342Y-195942914D01*
X188862914Y-196228628D01*
X188791485Y-196371485D01*
X188648628Y-196514342D01*
X188434342Y-196585771D01*
X188077200Y-196585771D01*
X189577200Y-196442914D02*
X189648628Y-196514342D01*
X189577200Y-196585771D01*
X189505771Y-196514342D01*
X189577200Y-196442914D01*
X189577200Y-196585771D01*
X190220057Y-196157200D02*
X190934342Y-196157200D01*
X190077200Y-196585771D02*
X190577200Y-195085771D01*
X191077200Y-196585771D01*
X191577200Y-196442914D02*
X191648628Y-196514342D01*
X191577200Y-196585771D01*
X191505771Y-196514342D01*
X191577200Y-196442914D01*
X191577200Y-196585771D01*
X194577200Y-196585771D02*
X194577200Y-195085771D01*
X194720057Y-196014342D02*
X195148628Y-196585771D01*
X195148628Y-195585771D02*
X194577200Y-196157200D01*
X195791485Y-196585771D02*
X195791485Y-195585771D01*
X195791485Y-195085771D02*
X195720057Y-195157200D01*
X195791485Y-195228628D01*
X195862914Y-195157200D01*
X195791485Y-195085771D01*
X195791485Y-195228628D01*
X197148628Y-196514342D02*
X197005771Y-196585771D01*
X196720057Y-196585771D01*
X196577200Y-196514342D01*
X196505771Y-196442914D01*
X196434342Y-196300057D01*
X196434342Y-195871485D01*
X196505771Y-195728628D01*
X196577200Y-195657200D01*
X196720057Y-195585771D01*
X197005771Y-195585771D01*
X197148628Y-195657200D01*
X198434342Y-196585771D02*
X198434342Y-195800057D01*
X198362914Y-195657200D01*
X198220057Y-195585771D01*
X197934342Y-195585771D01*
X197791485Y-195657200D01*
X198434342Y-196514342D02*
X198291485Y-196585771D01*
X197934342Y-196585771D01*
X197791485Y-196514342D01*
X197720057Y-196371485D01*
X197720057Y-196228628D01*
X197791485Y-196085771D01*
X197934342Y-196014342D01*
X198291485Y-196014342D01*
X198434342Y-195942914D01*
X199791485Y-196585771D02*
X199791485Y-195085771D01*
X199791485Y-196514342D02*
X199648628Y-196585771D01*
X199362914Y-196585771D01*
X199220057Y-196514342D01*
X199148628Y-196442914D01*
X199077200Y-196300057D01*
X199077200Y-195871485D01*
X199148628Y-195728628D01*
X199220057Y-195657200D01*
X199362914Y-195585771D01*
X199648628Y-195585771D01*
X199791485Y-195657200D01*
X202077200Y-197157200D02*
X202005771Y-197085771D01*
X201862914Y-196871485D01*
X201791485Y-196728628D01*
X201720057Y-196514342D01*
X201648628Y-196157200D01*
X201648628Y-195871485D01*
X201720057Y-195514342D01*
X201791485Y-195300057D01*
X201862914Y-195157200D01*
X202005771Y-194942914D01*
X202077200Y-194871485D01*
X202577200Y-195228628D02*
X202648628Y-195157200D01*
X202791485Y-195085771D01*
X203148628Y-195085771D01*
X203291485Y-195157200D01*
X203362914Y-195228628D01*
X203434342Y-195371485D01*
X203434342Y-195514342D01*
X203362914Y-195728628D01*
X202505771Y-196585771D01*
X203434342Y-196585771D01*
X204362914Y-195085771D02*
X204505771Y-195085771D01*
X204648628Y-195157200D01*
X204720057Y-195228628D01*
X204791485Y-195371485D01*
X204862914Y-195657200D01*
X204862914Y-196014342D01*
X204791485Y-196300057D01*
X204720057Y-196442914D01*
X204648628Y-196514342D01*
X204505771Y-196585771D01*
X204362914Y-196585771D01*
X204220057Y-196514342D01*
X204148628Y-196442914D01*
X204077200Y-196300057D01*
X204005771Y-196014342D01*
X204005771Y-195657200D01*
X204077200Y-195371485D01*
X204148628Y-195228628D01*
X204220057Y-195157200D01*
X204362914Y-195085771D01*
X206291485Y-196585771D02*
X205434342Y-196585771D01*
X205862914Y-196585771D02*
X205862914Y-195085771D01*
X205720057Y-195300057D01*
X205577200Y-195442914D01*
X205434342Y-195514342D01*
X207577200Y-195085771D02*
X207291485Y-195085771D01*
X207148628Y-195157200D01*
X207077200Y-195228628D01*
X206934342Y-195442914D01*
X206862914Y-195728628D01*
X206862914Y-196300057D01*
X206934342Y-196442914D01*
X207005771Y-196514342D01*
X207148628Y-196585771D01*
X207434342Y-196585771D01*
X207577200Y-196514342D01*
X207648628Y-196442914D01*
X207720057Y-196300057D01*
X207720057Y-195942914D01*
X207648628Y-195800057D01*
X207577200Y-195728628D01*
X207434342Y-195657200D01*
X207148628Y-195657200D01*
X207005771Y-195728628D01*
X206934342Y-195800057D01*
X206862914Y-195942914D01*
X208362914Y-196014342D02*
X209505771Y-196014342D01*
X210505771Y-195085771D02*
X210648628Y-195085771D01*
X210791485Y-195157200D01*
X210862914Y-195228628D01*
X210934342Y-195371485D01*
X211005771Y-195657200D01*
X211005771Y-196014342D01*
X210934342Y-196300057D01*
X210862914Y-196442914D01*
X210791485Y-196514342D01*
X210648628Y-196585771D01*
X210505771Y-196585771D01*
X210362914Y-196514342D01*
X210291485Y-196442914D01*
X210220057Y-196300057D01*
X210148628Y-196014342D01*
X210148628Y-195657200D01*
X210220057Y-195371485D01*
X210291485Y-195228628D01*
X210362914Y-195157200D01*
X210505771Y-195085771D01*
X211862914Y-195728628D02*
X211720057Y-195657200D01*
X211648628Y-195585771D01*
X211577200Y-195442914D01*
X211577200Y-195371485D01*
X211648628Y-195228628D01*
X211720057Y-195157200D01*
X211862914Y-195085771D01*
X212148628Y-195085771D01*
X212291485Y-195157200D01*
X212362914Y-195228628D01*
X212434342Y-195371485D01*
X212434342Y-195442914D01*
X212362914Y-195585771D01*
X212291485Y-195657200D01*
X212148628Y-195728628D01*
X211862914Y-195728628D01*
X211720057Y-195800057D01*
X211648628Y-195871485D01*
X211577200Y-196014342D01*
X211577200Y-196300057D01*
X211648628Y-196442914D01*
X211720057Y-196514342D01*
X211862914Y-196585771D01*
X212148628Y-196585771D01*
X212291485Y-196514342D01*
X212362914Y-196442914D01*
X212434342Y-196300057D01*
X212434342Y-196014342D01*
X212362914Y-195871485D01*
X212291485Y-195800057D01*
X212148628Y-195728628D01*
X213077200Y-196014342D02*
X214220057Y-196014342D01*
X215720057Y-196585771D02*
X214862914Y-196585771D01*
X215291485Y-196585771D02*
X215291485Y-195085771D01*
X215148628Y-195300057D01*
X215005771Y-195442914D01*
X214862914Y-195514342D01*
X217077200Y-195085771D02*
X216362914Y-195085771D01*
X216291485Y-195800057D01*
X216362914Y-195728628D01*
X216505771Y-195657200D01*
X216862914Y-195657200D01*
X217005771Y-195728628D01*
X217077200Y-195800057D01*
X217148628Y-195942914D01*
X217148628Y-196300057D01*
X217077200Y-196442914D01*
X217005771Y-196514342D01*
X216862914Y-196585771D01*
X216505771Y-196585771D01*
X216362914Y-196514342D01*
X216291485Y-196442914D01*
X219434342Y-195800057D02*
X219648628Y-195871485D01*
X219720057Y-195942914D01*
X219791485Y-196085771D01*
X219791485Y-196300057D01*
X219720057Y-196442914D01*
X219648628Y-196514342D01*
X219505771Y-196585771D01*
X218934342Y-196585771D01*
X218934342Y-195085771D01*
X219434342Y-195085771D01*
X219577200Y-195157200D01*
X219648628Y-195228628D01*
X219720057Y-195371485D01*
X219720057Y-195514342D01*
X219648628Y-195657200D01*
X219577200Y-195728628D01*
X219434342Y-195800057D01*
X218934342Y-195800057D01*
X220291485Y-195085771D02*
X221291485Y-195085771D01*
X220291485Y-196585771D01*
X221291485Y-196585771D01*
X222720057Y-196585771D02*
X222220057Y-195871485D01*
X221862914Y-196585771D02*
X221862914Y-195085771D01*
X222434342Y-195085771D01*
X222577200Y-195157200D01*
X222648628Y-195228628D01*
X222720057Y-195371485D01*
X222720057Y-195585771D01*
X222648628Y-195728628D01*
X222577200Y-195800057D01*
X222434342Y-195871485D01*
X221862914Y-195871485D01*
X224362914Y-195085771D02*
X225362914Y-195085771D01*
X224720057Y-196585771D01*
X226220057Y-195085771D02*
X226362914Y-195085771D01*
X226505771Y-195157200D01*
X226577200Y-195228628D01*
X226648628Y-195371485D01*
X226720057Y-195657200D01*
X226720057Y-196014342D01*
X226648628Y-196300057D01*
X226577200Y-196442914D01*
X226505771Y-196514342D01*
X226362914Y-196585771D01*
X226220057Y-196585771D01*
X226077200Y-196514342D01*
X226005771Y-196442914D01*
X225934342Y-196300057D01*
X225862914Y-196014342D01*
X225862914Y-195657200D01*
X225934342Y-195371485D01*
X226005771Y-195228628D01*
X226077200Y-195157200D01*
X226220057Y-195085771D01*
X228077200Y-195085771D02*
X227362914Y-195085771D01*
X227291485Y-195800057D01*
X227362914Y-195728628D01*
X227505771Y-195657200D01*
X227862914Y-195657200D01*
X228005771Y-195728628D01*
X228077200Y-195800057D01*
X228148628Y-195942914D01*
X228148628Y-196300057D01*
X228077200Y-196442914D01*
X228005771Y-196514342D01*
X227862914Y-196585771D01*
X227505771Y-196585771D01*
X227362914Y-196514342D01*
X227291485Y-196442914D01*
X228648628Y-195085771D02*
X229648628Y-195085771D01*
X229005771Y-196585771D01*
X230077199Y-197157200D02*
X230148628Y-197085771D01*
X230291485Y-196871485D01*
X230362914Y-196728628D01*
X230434342Y-196514342D01*
X230505771Y-196157200D01*
X230505771Y-195871485D01*
X230434342Y-195514342D01*
X230362914Y-195300057D01*
X230291485Y-195157200D01*
X230148628Y-194942914D01*
X230077199Y-194871485D01*
X231220057Y-196014342D02*
X232362914Y-196014342D01*
X233077199Y-195585771D02*
X233077199Y-197085771D01*
X233077199Y-195657200D02*
X233220057Y-195585771D01*
X233505771Y-195585771D01*
X233648628Y-195657200D01*
X233720057Y-195728628D01*
X233791485Y-195871485D01*
X233791485Y-196300057D01*
X233720057Y-196442914D01*
X233648628Y-196514342D01*
X233505771Y-196585771D01*
X233220057Y-196585771D01*
X233077199Y-196514342D01*
X234434342Y-196585771D02*
X234434342Y-195585771D01*
X234434342Y-195871485D02*
X234505771Y-195728628D01*
X234577199Y-195657200D01*
X234720057Y-195585771D01*
X234862914Y-195585771D01*
X235577199Y-196585771D02*
X235434342Y-196514342D01*
X235362914Y-196442914D01*
X235291485Y-196300057D01*
X235291485Y-195871485D01*
X235362914Y-195728628D01*
X235434342Y-195657200D01*
X235577199Y-195585771D01*
X235791485Y-195585771D01*
X235934342Y-195657200D01*
X236005771Y-195728628D01*
X236077199Y-195871485D01*
X236077199Y-196300057D01*
X236005771Y-196442914D01*
X235934342Y-196514342D01*
X235791485Y-196585771D01*
X235577199Y-196585771D01*
X237362914Y-196585771D02*
X237362914Y-195085771D01*
X237362914Y-196514342D02*
X237220057Y-196585771D01*
X236934342Y-196585771D01*
X236791485Y-196514342D01*
X236720057Y-196442914D01*
X236648628Y-196300057D01*
X236648628Y-195871485D01*
X236720057Y-195728628D01*
X236791485Y-195657200D01*
X236934342Y-195585771D01*
X237220057Y-195585771D01*
X237362914Y-195657200D01*
X238720057Y-195585771D02*
X238720057Y-196585771D01*
X238077199Y-195585771D02*
X238077199Y-196371485D01*
X238148628Y-196514342D01*
X238291485Y-196585771D01*
X238505771Y-196585771D01*
X238648628Y-196514342D01*
X238720057Y-196442914D01*
X240077199Y-196514342D02*
X239934342Y-196585771D01*
X239648628Y-196585771D01*
X239505771Y-196514342D01*
X239434342Y-196442914D01*
X239362914Y-196300057D01*
X239362914Y-195871485D01*
X239434342Y-195728628D01*
X239505771Y-195657200D01*
X239648628Y-195585771D01*
X239934342Y-195585771D01*
X240077199Y-195657200D01*
X240505771Y-195585771D02*
X241077199Y-195585771D01*
X240720057Y-195085771D02*
X240720057Y-196371485D01*
X240791485Y-196514342D01*
X240934342Y-196585771D01*
X241077199Y-196585771D01*
D10*
D11*
X177002200Y-191507200D02*
X285002200Y-191507200D01*
D10*
D12*
X264411485Y-193785771D02*
X263911485Y-193071485D01*
X263554342Y-193785771D02*
X263554342Y-192285771D01*
X264125771Y-192285771D01*
X264268628Y-192357200D01*
X264340057Y-192428628D01*
X264411485Y-192571485D01*
X264411485Y-192785771D01*
X264340057Y-192928628D01*
X264268628Y-193000057D01*
X264125771Y-193071485D01*
X263554342Y-193071485D01*
X265625771Y-193714342D02*
X265482914Y-193785771D01*
X265197200Y-193785771D01*
X265054342Y-193714342D01*
X264982914Y-193571485D01*
X264982914Y-193000057D01*
X265054342Y-192857200D01*
X265197200Y-192785771D01*
X265482914Y-192785771D01*
X265625771Y-192857200D01*
X265697200Y-193000057D01*
X265697200Y-193142914D01*
X264982914Y-193285771D01*
X266197200Y-192785771D02*
X266554342Y-193785771D01*
X266911485Y-192785771D01*
X267482914Y-193642914D02*
X267554342Y-193714342D01*
X267482914Y-193785771D01*
X267411485Y-193714342D01*
X267482914Y-193642914D01*
X267482914Y-193785771D01*
X267482914Y-192857200D02*
X267554342Y-192928628D01*
X267482914Y-193000057D01*
X267411485Y-192928628D01*
X267482914Y-192857200D01*
X267482914Y-193000057D01*
D10*
D11*
X178362914Y-193714342D02*
X178577200Y-193785771D01*
X178934342Y-193785771D01*
X179077200Y-193714342D01*
X179148628Y-193642914D01*
X179220057Y-193500057D01*
X179220057Y-193357200D01*
X179148628Y-193214342D01*
X179077200Y-193142914D01*
X178934342Y-193071485D01*
X178648628Y-193000057D01*
X178505771Y-192928628D01*
X178434342Y-192857200D01*
X178362914Y-192714342D01*
X178362914Y-192571485D01*
X178434342Y-192428628D01*
X178505771Y-192357200D01*
X178648628Y-192285771D01*
X179005771Y-192285771D01*
X179220057Y-192357200D01*
X179862914Y-193785771D02*
X179862914Y-192785771D01*
X179862914Y-192285771D02*
X179791485Y-192357200D01*
X179862914Y-192428628D01*
X179934342Y-192357200D01*
X179862914Y-192285771D01*
X179862914Y-192428628D01*
X180434342Y-192785771D02*
X181220057Y-192785771D01*
X180434342Y-193785771D01*
X181220057Y-193785771D01*
X182362914Y-193714342D02*
X182220057Y-193785771D01*
X181934342Y-193785771D01*
X181791485Y-193714342D01*
X181720057Y-193571485D01*
X181720057Y-193000057D01*
X181791485Y-192857200D01*
X181934342Y-192785771D01*
X182220057Y-192785771D01*
X182362914Y-192857200D01*
X182434342Y-193000057D01*
X182434342Y-193142914D01*
X181720057Y-193285771D01*
X183077200Y-193642914D02*
X183148628Y-193714342D01*
X183077200Y-193785771D01*
X183005771Y-193714342D01*
X183077200Y-193642914D01*
X183077200Y-193785771D01*
X183077200Y-192857200D02*
X183148628Y-192928628D01*
X183077200Y-193000057D01*
X183005771Y-192928628D01*
X183077200Y-192857200D01*
X183077200Y-193000057D01*
X184862914Y-193357200D02*
X185577200Y-193357200D01*
X184720057Y-193785771D02*
X185220057Y-192285771D01*
X185720057Y-193785771D01*
X186862914Y-192785771D02*
X186862914Y-193785771D01*
X186505771Y-192214342D02*
X186148628Y-193285771D01*
X187077200Y-193285771D01*
D10*
D11*
X263434342Y-196585771D02*
X263434342Y-195085771D01*
X264791485Y-196585771D02*
X264791485Y-195085771D01*
X264791485Y-196514342D02*
X264648628Y-196585771D01*
X264362914Y-196585771D01*
X264220057Y-196514342D01*
X264148628Y-196442914D01*
X264077200Y-196300057D01*
X264077200Y-195871485D01*
X264148628Y-195728628D01*
X264220057Y-195657200D01*
X264362914Y-195585771D01*
X264648628Y-195585771D01*
X264791485Y-195657200D01*
X265505771Y-196442914D02*
X265577200Y-196514342D01*
X265505771Y-196585771D01*
X265434342Y-196514342D01*
X265505771Y-196442914D01*
X265505771Y-196585771D01*
X265505771Y-195657200D02*
X265577200Y-195728628D01*
X265505771Y-195800057D01*
X265434342Y-195728628D01*
X265505771Y-195657200D01*
X265505771Y-195800057D01*
X268148628Y-196585771D02*
X267291485Y-196585771D01*
X267720057Y-196585771D02*
X267720057Y-195085771D01*
X267577200Y-195300057D01*
X267434342Y-195442914D01*
X267291485Y-195514342D01*
X269862914Y-195014342D02*
X268577200Y-196942914D01*
X271148628Y-196585771D02*
X270291485Y-196585771D01*
X270720057Y-196585771D02*
X270720057Y-195085771D01*
X270577200Y-195300057D01*
X270434342Y-195442914D01*
X270291485Y-195514342D01*
D10*
D11*
X177002200Y-187507200D02*
X285002200Y-187507200D01*
D10*
D13*
X178714580Y-188211961D02*
X179857438Y-188211961D01*
X179036009Y-190211961D02*
X179286009Y-188211961D01*
X180274104Y-190211961D02*
X180440771Y-188878628D01*
X180524104Y-188211961D02*
X180416961Y-188307200D01*
X180500295Y-188402438D01*
X180607438Y-188307200D01*
X180524104Y-188211961D01*
X180500295Y-188402438D01*
X181107438Y-188878628D02*
X181869342Y-188878628D01*
X181476485Y-188211961D02*
X181262200Y-189926247D01*
X181333628Y-190116723D01*
X181512200Y-190211961D01*
X181702676Y-190211961D01*
X182655057Y-190211961D02*
X182476485Y-190116723D01*
X182405057Y-189926247D01*
X182619342Y-188211961D01*
X184190771Y-190116723D02*
X183988390Y-190211961D01*
X183607438Y-190211961D01*
X183428866Y-190116723D01*
X183357438Y-189926247D01*
X183452676Y-189164342D01*
X183571723Y-188973866D01*
X183774104Y-188878628D01*
X184155057Y-188878628D01*
X184333628Y-188973866D01*
X184405057Y-189164342D01*
X184381247Y-189354819D01*
X183405057Y-189545295D01*
X185155057Y-190021485D02*
X185238390Y-190116723D01*
X185131247Y-190211961D01*
X185047914Y-190116723D01*
X185155057Y-190021485D01*
X185131247Y-190211961D01*
X185286009Y-188973866D02*
X185369342Y-189069104D01*
X185262200Y-189164342D01*
X185178866Y-189069104D01*
X185286009Y-188973866D01*
X185262200Y-189164342D01*
D10*
D11*
X178934342Y-185600057D02*
X178434342Y-185600057D01*
X178434342Y-186385771D02*
X178434342Y-184885771D01*
X179148628Y-184885771D01*
X179720057Y-186385771D02*
X179720057Y-185385771D01*
X179720057Y-184885771D02*
X179648628Y-184957200D01*
X179720057Y-185028628D01*
X179791485Y-184957200D01*
X179720057Y-184885771D01*
X179720057Y-185028628D01*
X180648628Y-186385771D02*
X180505771Y-186314342D01*
X180434342Y-186171485D01*
X180434342Y-184885771D01*
X181791485Y-186314342D02*
X181648628Y-186385771D01*
X181362914Y-186385771D01*
X181220057Y-186314342D01*
X181148628Y-186171485D01*
X181148628Y-185600057D01*
X181220057Y-185457200D01*
X181362914Y-185385771D01*
X181648628Y-185385771D01*
X181791485Y-185457200D01*
X181862914Y-185600057D01*
X181862914Y-185742914D01*
X181148628Y-185885771D01*
X182505771Y-186242914D02*
X182577200Y-186314342D01*
X182505771Y-186385771D01*
X182434342Y-186314342D01*
X182505771Y-186242914D01*
X182505771Y-186385771D01*
X182505771Y-185457200D02*
X182577200Y-185528628D01*
X182505771Y-185600057D01*
X182434342Y-185528628D01*
X182505771Y-185457200D01*
X182505771Y-185600057D01*
X184291485Y-186314342D02*
X184434342Y-186385771D01*
X184720057Y-186385771D01*
X184862914Y-186314342D01*
X184934342Y-186171485D01*
X184934342Y-186100057D01*
X184862914Y-185957200D01*
X184720057Y-185885771D01*
X184505771Y-185885771D01*
X184362914Y-185814342D01*
X184291485Y-185671485D01*
X184291485Y-185600057D01*
X184362914Y-185457200D01*
X184505771Y-185385771D01*
X184720057Y-185385771D01*
X184862914Y-185457200D01*
X185362914Y-185385771D02*
X185934342Y-185385771D01*
X185577200Y-184885771D02*
X185577200Y-186171485D01*
X185648628Y-186314342D01*
X185791485Y-186385771D01*
X185934342Y-186385771D01*
X187005771Y-186314342D02*
X186862914Y-186385771D01*
X186577200Y-186385771D01*
X186434342Y-186314342D01*
X186362914Y-186171485D01*
X186362914Y-185600057D01*
X186434342Y-185457200D01*
X186577200Y-185385771D01*
X186862914Y-185385771D01*
X187005771Y-185457200D01*
X187077200Y-185600057D01*
X187077200Y-185742914D01*
X186362914Y-185885771D01*
X187720057Y-185385771D02*
X187720057Y-186885771D01*
X187720057Y-185457200D02*
X187862914Y-185385771D01*
X188148628Y-185385771D01*
X188291485Y-185457200D01*
X188362914Y-185528628D01*
X188434342Y-185671485D01*
X188434342Y-186100057D01*
X188362914Y-186242914D01*
X188291485Y-186314342D01*
X188148628Y-186385771D01*
X187862914Y-186385771D01*
X187720057Y-186314342D01*
X189077200Y-185385771D02*
X189077200Y-186885771D01*
X189077200Y-185457200D02*
X189220057Y-185385771D01*
X189505771Y-185385771D01*
X189648628Y-185457200D01*
X189720057Y-185528628D01*
X189791485Y-185671485D01*
X189791485Y-186100057D01*
X189720057Y-186242914D01*
X189648628Y-186314342D01*
X189505771Y-186385771D01*
X189220057Y-186385771D01*
X189077200Y-186314342D01*
X191005771Y-186314342D02*
X190862914Y-186385771D01*
X190577200Y-186385771D01*
X190434342Y-186314342D01*
X190362914Y-186171485D01*
X190362914Y-185600057D01*
X190434342Y-185457200D01*
X190577200Y-185385771D01*
X190862914Y-185385771D01*
X191005771Y-185457200D01*
X191077200Y-185600057D01*
X191077200Y-185742914D01*
X190362914Y-185885771D01*
X191720057Y-186385771D02*
X191720057Y-185385771D01*
X191720057Y-185671485D02*
X191791485Y-185528628D01*
X191862914Y-185457200D01*
X192005771Y-185385771D01*
X192148628Y-185385771D01*
X192648628Y-186242914D02*
X192720057Y-186314342D01*
X192648628Y-186385771D01*
X192577200Y-186314342D01*
X192648628Y-186242914D01*
X192648628Y-186385771D01*
X193362914Y-186385771D02*
X193362914Y-184885771D01*
X193505771Y-185814342D02*
X193934342Y-186385771D01*
X193934342Y-185385771D02*
X193362914Y-185957200D01*
X194577200Y-186385771D02*
X194577200Y-185385771D01*
X194577200Y-184885771D02*
X194505771Y-184957200D01*
X194577200Y-185028628D01*
X194648628Y-184957200D01*
X194577200Y-184885771D01*
X194577200Y-185028628D01*
X195934342Y-186314342D02*
X195791485Y-186385771D01*
X195505771Y-186385771D01*
X195362914Y-186314342D01*
X195291485Y-186242914D01*
X195220057Y-186100057D01*
X195220057Y-185671485D01*
X195291485Y-185528628D01*
X195362914Y-185457200D01*
X195505771Y-185385771D01*
X195791485Y-185385771D01*
X195934342Y-185457200D01*
X197220057Y-186385771D02*
X197220057Y-185600057D01*
X197148628Y-185457200D01*
X197005771Y-185385771D01*
X196720057Y-185385771D01*
X196577200Y-185457200D01*
X197220057Y-186314342D02*
X197077200Y-186385771D01*
X196720057Y-186385771D01*
X196577200Y-186314342D01*
X196505771Y-186171485D01*
X196505771Y-186028628D01*
X196577200Y-185885771D01*
X196720057Y-185814342D01*
X197077200Y-185814342D01*
X197220057Y-185742914D01*
X198577200Y-186385771D02*
X198577200Y-184885771D01*
X198577200Y-186314342D02*
X198434342Y-186385771D01*
X198148628Y-186385771D01*
X198005771Y-186314342D01*
X197934342Y-186242914D01*
X197862914Y-186100057D01*
X197862914Y-185671485D01*
X197934342Y-185528628D01*
X198005771Y-185457200D01*
X198148628Y-185385771D01*
X198434342Y-185385771D01*
X198577200Y-185457200D01*
X198934342Y-186528628D02*
X200077200Y-186528628D01*
X200434342Y-185385771D02*
X200434342Y-186885771D01*
X200434342Y-185457200D02*
X200577200Y-185385771D01*
X200862914Y-185385771D01*
X201005771Y-185457200D01*
X201077200Y-185528628D01*
X201148628Y-185671485D01*
X201148628Y-186100057D01*
X201077200Y-186242914D01*
X201005771Y-186314342D01*
X200862914Y-186385771D01*
X200577200Y-186385771D01*
X200434342Y-186314342D01*
X202434342Y-186314342D02*
X202291485Y-186385771D01*
X202005771Y-186385771D01*
X201862914Y-186314342D01*
X201791485Y-186242914D01*
X201720057Y-186100057D01*
X201720057Y-185671485D01*
X201791485Y-185528628D01*
X201862914Y-185457200D01*
X202005771Y-185385771D01*
X202291485Y-185385771D01*
X202434342Y-185457200D01*
X203077200Y-186385771D02*
X203077200Y-184885771D01*
X203077200Y-185457200D02*
X203220057Y-185385771D01*
X203505771Y-185385771D01*
X203648628Y-185457200D01*
X203720057Y-185528628D01*
X203791485Y-185671485D01*
X203791485Y-186100057D01*
X203720057Y-186242914D01*
X203648628Y-186314342D01*
X203505771Y-186385771D01*
X203220057Y-186385771D01*
X203077200Y-186314342D01*
D10*
D11*
X177002200Y-181507200D02*
X285002200Y-181507200D01*
D10*
D11*
X178362914Y-183614342D02*
X178577200Y-183685771D01*
X178934342Y-183685771D01*
X179077200Y-183614342D01*
X179148628Y-183542914D01*
X179220057Y-183400057D01*
X179220057Y-183257200D01*
X179148628Y-183114342D01*
X179077200Y-183042914D01*
X178934342Y-182971485D01*
X178648628Y-182900057D01*
X178505771Y-182828628D01*
X178434342Y-182757200D01*
X178362914Y-182614342D01*
X178362914Y-182471485D01*
X178434342Y-182328628D01*
X178505771Y-182257200D01*
X178648628Y-182185771D01*
X179005771Y-182185771D01*
X179220057Y-182257200D01*
X179862914Y-183685771D02*
X179862914Y-182185771D01*
X180505771Y-183685771D02*
X180505771Y-182900057D01*
X180434342Y-182757200D01*
X180291485Y-182685771D01*
X180077200Y-182685771D01*
X179934342Y-182757200D01*
X179862914Y-182828628D01*
X181791485Y-183614342D02*
X181648628Y-183685771D01*
X181362914Y-183685771D01*
X181220057Y-183614342D01*
X181148628Y-183471485D01*
X181148628Y-182900057D01*
X181220057Y-182757200D01*
X181362914Y-182685771D01*
X181648628Y-182685771D01*
X181791485Y-182757200D01*
X181862914Y-182900057D01*
X181862914Y-183042914D01*
X181148628Y-183185771D01*
X183077200Y-183614342D02*
X182934342Y-183685771D01*
X182648628Y-183685771D01*
X182505771Y-183614342D01*
X182434342Y-183471485D01*
X182434342Y-182900057D01*
X182505771Y-182757200D01*
X182648628Y-182685771D01*
X182934342Y-182685771D01*
X183077200Y-182757200D01*
X183148628Y-182900057D01*
X183148628Y-183042914D01*
X182434342Y-183185771D01*
X183577200Y-182685771D02*
X184148628Y-182685771D01*
X183791485Y-182185771D02*
X183791485Y-183471485D01*
X183862914Y-183614342D01*
X184005771Y-183685771D01*
X184148628Y-183685771D01*
X184648628Y-183542914D02*
X184720057Y-183614342D01*
X184648628Y-183685771D01*
X184577200Y-183614342D01*
X184648628Y-183542914D01*
X184648628Y-183685771D01*
X184648628Y-182757200D02*
X184720057Y-182828628D01*
X184648628Y-182900057D01*
X184577200Y-182828628D01*
X184648628Y-182757200D01*
X184648628Y-182900057D01*
D10*
D11*
X197002200Y-191507200D02*
X197002200Y-194507200D01*
D10*
D11*
X261002200Y-191507200D02*
X261002200Y-198007200D01*
X139700000Y-115570000D02*
G75*
G03X142240000Y-118110000I2540000J0D01*
G01*
X208280000Y-118110000D02*
G75*
G03X210820000Y-115570000I0J2540000D01*
G01*
X142240000Y-17780000D02*
G75*
G03X139700000Y-20320000I0J-2540000D01*
G01*
X210820000Y-115570000D02*
X210820000Y-20320000D01*
X210820000Y-20320000D02*
G75*
G03X208280000Y-17780000I-2540000J0D01*
G01*
X142240000Y-118110000D02*
X208280000Y-118110000D01*
X139700000Y-20320000D02*
X139700000Y-115570000D01*
X208280000Y-17780000D02*
X142240000Y-17780000D01*
X149725000Y-84035000D02*
X148725000Y-84035000D01*
X148725000Y-82335000D02*
X149725000Y-82335000D01*
X166737000Y-103089000D02*
X166737000Y-101889000D01*
X164987000Y-101889000D02*
X164987000Y-103089000D01*
X167527000Y-101889000D02*
X167527000Y-103089000D01*
X169277000Y-103089000D02*
X169277000Y-101889000D01*
X180735000Y-101889000D02*
X180735000Y-103089000D01*
X182485000Y-103089000D02*
X182485000Y-101889000D01*
X185025000Y-103089000D02*
X185025000Y-101889000D01*
X183275000Y-101889000D02*
X183275000Y-103089000D01*
X168515000Y-112995000D02*
X168515000Y-111795000D01*
X166765000Y-111795000D02*
X166765000Y-112995000D01*
X193395000Y-102983000D02*
X194595000Y-102983000D01*
X194595000Y-101233000D02*
X193395000Y-101233000D01*
X144995000Y-82812000D02*
X144995000Y-83812000D01*
X143295000Y-83812000D02*
X143295000Y-82812000D01*
X164705000Y-112995000D02*
X164705000Y-111795000D01*
X162955000Y-111795000D02*
X162955000Y-112995000D01*
X159145000Y-111795000D02*
X159145000Y-112995000D01*
X160895000Y-112995000D02*
X160895000Y-111795000D01*
X187565000Y-112995000D02*
X187565000Y-111795000D01*
X185815000Y-111795000D02*
X185815000Y-112995000D01*
X200240000Y-96020000D02*
X200240000Y-97020000D01*
X198540000Y-97020000D02*
X198540000Y-96020000D01*
X153440000Y-98210000D02*
X154440000Y-98210000D01*
X154440000Y-99910000D02*
X153440000Y-99910000D01*
X170600000Y-112895000D02*
X170600000Y-111895000D01*
X172300000Y-111895000D02*
X172300000Y-112895000D01*
X192825000Y-64905000D02*
X192825000Y-63905000D01*
X194525000Y-63905000D02*
X194525000Y-64905000D01*
X182005000Y-111795000D02*
X182005000Y-112995000D01*
X183755000Y-112995000D02*
X183755000Y-111795000D01*
X178195000Y-111795000D02*
X178195000Y-112995000D01*
X179945000Y-112995000D02*
X179945000Y-111795000D01*
X176135000Y-112995000D02*
X176135000Y-111795000D01*
X174385000Y-111795000D02*
X174385000Y-112995000D01*
X177405000Y-103089000D02*
X177405000Y-101889000D01*
X175655000Y-101889000D02*
X175655000Y-103089000D01*
X179945000Y-103089000D02*
X179945000Y-101889000D01*
X178195000Y-101889000D02*
X178195000Y-103089000D01*
X155208000Y-89697000D02*
X155208000Y-90897000D01*
X156958000Y-90897000D02*
X156958000Y-89697000D01*
X192518000Y-107026000D02*
X192518000Y-105826000D01*
X190768000Y-105826000D02*
X190768000Y-107026000D01*
X180453000Y-90897000D02*
X180453000Y-89697000D01*
X178703000Y-89697000D02*
X178703000Y-90897000D01*
X190768000Y-97253500D02*
X190768000Y-98453500D01*
X192518000Y-98453500D02*
X192518000Y-97253500D01*
X167273000Y-89697000D02*
X167273000Y-90897000D01*
X169023000Y-90897000D02*
X169023000Y-89697000D01*
X192518000Y-90897000D02*
X192518000Y-89697000D01*
X190768000Y-89697000D02*
X190768000Y-90897000D01*
X149825000Y-82310000D02*
X148625000Y-82310000D01*
X148625000Y-84060000D02*
X149825000Y-84060000D01*
X149190000Y-91911400D02*
X147990000Y-91911400D01*
X147990000Y-93661400D02*
X149190000Y-93661400D01*
X157748000Y-89697000D02*
X157748000Y-90897000D01*
X159498000Y-90897000D02*
X159498000Y-89697000D01*
X181243000Y-89697000D02*
X181243000Y-90897000D01*
X182993000Y-90897000D02*
X182993000Y-89697000D01*
X195058000Y-98453500D02*
X195058000Y-97253500D01*
X193308000Y-97253500D02*
X193308000Y-98453500D01*
X171563000Y-90897000D02*
X171563000Y-89697000D01*
X169813000Y-89697000D02*
X169813000Y-90897000D01*
X193308000Y-89697000D02*
X193308000Y-90897000D01*
X195058000Y-90897000D02*
X195058000Y-89697000D01*
X195058000Y-107026000D02*
X195058000Y-105826000D01*
X193308000Y-105826000D02*
X193308000Y-107026000D01*
X149190000Y-95086000D02*
X147990000Y-95086000D01*
X147990000Y-96836000D02*
X149190000Y-96836000D01*
X187605000Y-48655000D02*
X186405000Y-48655000D01*
X186405000Y-50405000D02*
X187605000Y-50405000D01*
X160298000Y-52871000D02*
X161298000Y-52871000D01*
X161298000Y-54571000D02*
X160298000Y-54571000D01*
X160298000Y-50331000D02*
X161298000Y-50331000D01*
X161298000Y-52031000D02*
X160298000Y-52031000D01*
X160298000Y-55411000D02*
X161298000Y-55411000D01*
X161298000Y-57111000D02*
X160298000Y-57111000D01*
X191415000Y-48655000D02*
X190215000Y-48655000D01*
X190215000Y-50405000D02*
X191415000Y-50405000D01*
X164172000Y-101989000D02*
X164172000Y-102989000D01*
X162472000Y-102989000D02*
X162472000Y-101989000D01*
X172300000Y-101989000D02*
X172300000Y-102989000D01*
X170600000Y-102989000D02*
X170600000Y-101989000D01*
X205740000Y-71120000D02*
X205740000Y-53340000D01*
X205740000Y-53340000D02*
X203200000Y-53340000D01*
X203200000Y-53340000D02*
X203200000Y-71120000D01*
X206020000Y-73940000D02*
X206020000Y-72390000D01*
X205740000Y-71120000D02*
X203200000Y-71120000D01*
X202920000Y-72390000D02*
X202920000Y-73940000D01*
X202920000Y-73940000D02*
X206020000Y-73940000D01*
X147320000Y-71120000D02*
X147320000Y-53340000D01*
X147320000Y-53340000D02*
X144780000Y-53340000D01*
X144780000Y-53340000D02*
X144780000Y-71120000D01*
X147600000Y-73940000D02*
X147600000Y-72390000D01*
X147320000Y-71120000D02*
X144780000Y-71120000D01*
X144500000Y-72390000D02*
X144500000Y-73940000D01*
X144500000Y-73940000D02*
X147600000Y-73940000D01*
X154940000Y-83312000D02*
G75*
G03X157480000Y-85852000I2540000J0D01*
G01*
X157480000Y-68072000D02*
G75*
G03X154940000Y-70612000I0J-2540000D01*
G01*
X193040000Y-85852000D02*
G75*
G03X195580000Y-83312000I0J2540000D01*
G01*
X195580000Y-70612000D02*
G75*
G03X193040000Y-68072000I-2540000J0D01*
G01*
X195580000Y-70612000D02*
X195580000Y-83312000D01*
X193040000Y-85852000D02*
X157480000Y-85852000D01*
X154940000Y-83312000D02*
X154940000Y-70612000D01*
X193040000Y-68072000D02*
X157480000Y-68072000D01*
D10*
X204317600Y-70663600D02*
X204622400Y-70663600D01*
X204317600Y-69036400D02*
X204622400Y-69036400D01*
X204622400Y-70663600D02*
G75*
G03X204622400Y-69036400I0J813600D01*
G01*
X204317600Y-69036400D02*
G75*
G03X204317600Y-70663600I0J-813600D01*
G01*
X204317600Y-68123600D02*
X204622400Y-68123600D01*
X204317600Y-66496400D02*
X204622400Y-66496400D01*
X204622400Y-68123600D02*
G75*
G03X204622400Y-66496400I0J813600D01*
G01*
X204317600Y-66496400D02*
G75*
G03X204317600Y-68123600I0J-813600D01*
G01*
X204317600Y-65583600D02*
X204622400Y-65583600D01*
X204317600Y-63956400D02*
X204622400Y-63956400D01*
X204622400Y-65583600D02*
G75*
G03X204622400Y-63956400I0J813600D01*
G01*
X204317600Y-63956400D02*
G75*
G03X204317600Y-65583600I0J-813600D01*
G01*
X204317600Y-63043600D02*
X204622400Y-63043600D01*
X204317600Y-61416400D02*
X204622400Y-61416400D01*
X204622400Y-63043600D02*
G75*
G03X204622400Y-61416400I0J813600D01*
G01*
X204317600Y-61416400D02*
G75*
G03X204317600Y-63043600I0J-813600D01*
G01*
X204317600Y-60503600D02*
X204622400Y-60503600D01*
X204317600Y-58876400D02*
X204622400Y-58876400D01*
X204622400Y-60503600D02*
G75*
G03X204622400Y-58876400I0J813600D01*
G01*
X204317600Y-58876400D02*
G75*
G03X204317600Y-60503600I0J-813600D01*
G01*
X204317600Y-57963600D02*
X204622400Y-57963600D01*
X204317600Y-56336400D02*
X204622400Y-56336400D01*
X204622400Y-57963600D02*
G75*
G03X204622400Y-56336400I0J813600D01*
G01*
X204317600Y-56336400D02*
G75*
G03X204317600Y-57963600I0J-813600D01*
G01*
X204317600Y-55423600D02*
X204622400Y-55423600D01*
X204317600Y-53796400D02*
X204622400Y-53796400D01*
X204622400Y-55423600D02*
G75*
G03X204622400Y-53796400I0J813600D01*
G01*
X204317600Y-53796400D02*
G75*
G03X204317600Y-55423600I0J-813600D01*
G01*
X153349490Y-53848000D02*
G75*
G03X153349490Y-53848000I-949490J0D01*
G01*
X168349490Y-53848000D02*
G75*
G03X168349490Y-53848000I-949490J0D01*
G01*
X199083490Y-53848000D02*
G75*
G03X199083490Y-53848000I-949490J0D01*
G01*
X184083490Y-53848000D02*
G75*
G03X184083490Y-53848000I-949490J0D01*
G01*
X145897600Y-70663600D02*
X146202400Y-70663600D01*
X145897600Y-69036400D02*
X146202400Y-69036400D01*
X146202400Y-70663600D02*
G75*
G03X146202400Y-69036400I0J813600D01*
G01*
X145897600Y-69036400D02*
G75*
G03X145897600Y-70663600I0J-813600D01*
G01*
X145897600Y-68123600D02*
X146202400Y-68123600D01*
X145897600Y-66496400D02*
X146202400Y-66496400D01*
X146202400Y-68123600D02*
G75*
G03X146202400Y-66496400I0J813600D01*
G01*
X145897600Y-66496400D02*
G75*
G03X145897600Y-68123600I0J-813600D01*
G01*
X145897600Y-65583600D02*
X146202400Y-65583600D01*
X145897600Y-63956400D02*
X146202400Y-63956400D01*
X146202400Y-65583600D02*
G75*
G03X146202400Y-63956400I0J813600D01*
G01*
X145897600Y-63956400D02*
G75*
G03X145897600Y-65583600I0J-813600D01*
G01*
X145897600Y-63043600D02*
X146202400Y-63043600D01*
X145897600Y-61416400D02*
X146202400Y-61416400D01*
X146202400Y-63043600D02*
G75*
G03X146202400Y-61416400I0J813600D01*
G01*
X145897600Y-61416400D02*
G75*
G03X145897600Y-63043600I0J-813600D01*
G01*
X145897600Y-60503600D02*
X146202400Y-60503600D01*
X145897600Y-58876400D02*
X146202400Y-58876400D01*
X146202400Y-60503600D02*
G75*
G03X146202400Y-58876400I0J813600D01*
G01*
X145897600Y-58876400D02*
G75*
G03X145897600Y-60503600I0J-813600D01*
G01*
X145897600Y-57963600D02*
X146202400Y-57963600D01*
X145897600Y-56336400D02*
X146202400Y-56336400D01*
X146202400Y-57963600D02*
G75*
G03X146202400Y-56336400I0J813600D01*
G01*
X145897600Y-56336400D02*
G75*
G03X145897600Y-57963600I0J-813600D01*
G01*
X145897600Y-55423600D02*
X146202400Y-55423600D01*
X145897600Y-53796400D02*
X146202400Y-53796400D01*
X146202400Y-55423600D02*
G75*
G03X146202400Y-53796400I0J813600D01*
G01*
X145897600Y-53796400D02*
G75*
G03X145897600Y-55423600I0J-813600D01*
G01*
D11*
X149391666Y-85642142D02*
X149439285Y-85689761D01*
X149582142Y-85737380D01*
X149677380Y-85737380D01*
X149820238Y-85689761D01*
X149915476Y-85594523D01*
X149963095Y-85499285D01*
X150010714Y-85308809D01*
X150010714Y-85165952D01*
X149963095Y-84975476D01*
X149915476Y-84880238D01*
X149820238Y-84785000D01*
X149677380Y-84737380D01*
X149582142Y-84737380D01*
X149439285Y-84785000D01*
X149391666Y-84832619D01*
X148439285Y-85737380D02*
X149010714Y-85737380D01*
X148725000Y-85737380D02*
X148725000Y-84737380D01*
X148820238Y-84880238D01*
X148915476Y-84975476D01*
X149010714Y-85023095D01*
X164214380Y-102322333D02*
X163738190Y-101989000D01*
X164214380Y-101750904D02*
X163214380Y-101750904D01*
X163214380Y-102131857D01*
X163262000Y-102227095D01*
X163309619Y-102274714D01*
X163404857Y-102322333D01*
X163547714Y-102322333D01*
X163642952Y-102274714D01*
X163690571Y-102227095D01*
X163738190Y-102131857D01*
X163738190Y-101750904D01*
X164214380Y-103274714D02*
X164214380Y-102703285D01*
X164214380Y-102989000D02*
X163214380Y-102989000D01*
X163357238Y-102893761D01*
X163452476Y-102798523D01*
X163500095Y-102703285D01*
X166754380Y-102322333D02*
X166278190Y-101989000D01*
X166754380Y-101750904D02*
X165754380Y-101750904D01*
X165754380Y-102131857D01*
X165802000Y-102227095D01*
X165849619Y-102274714D01*
X165944857Y-102322333D01*
X166087714Y-102322333D01*
X166182952Y-102274714D01*
X166230571Y-102227095D01*
X166278190Y-102131857D01*
X166278190Y-101750904D01*
X165849619Y-102703285D02*
X165802000Y-102750904D01*
X165754380Y-102846142D01*
X165754380Y-103084238D01*
X165802000Y-103179476D01*
X165849619Y-103227095D01*
X165944857Y-103274714D01*
X166040095Y-103274714D01*
X166182952Y-103227095D01*
X166754380Y-102655666D01*
X166754380Y-103274714D01*
X184162380Y-102322333D02*
X183686190Y-101989000D01*
X184162380Y-101750904D02*
X183162380Y-101750904D01*
X183162380Y-102131857D01*
X183210000Y-102227095D01*
X183257619Y-102274714D01*
X183352857Y-102322333D01*
X183495714Y-102322333D01*
X183590952Y-102274714D01*
X183638571Y-102227095D01*
X183686190Y-102131857D01*
X183686190Y-101750904D01*
X183162380Y-102655666D02*
X183162380Y-103274714D01*
X183543333Y-102941380D01*
X183543333Y-103084238D01*
X183590952Y-103179476D01*
X183638571Y-103227095D01*
X183733809Y-103274714D01*
X183971904Y-103274714D01*
X184067142Y-103227095D01*
X184114761Y-103179476D01*
X184162380Y-103084238D01*
X184162380Y-102798523D01*
X184114761Y-102703285D01*
X184067142Y-102655666D01*
X186702380Y-102322333D02*
X186226190Y-101989000D01*
X186702380Y-101750904D02*
X185702380Y-101750904D01*
X185702380Y-102131857D01*
X185750000Y-102227095D01*
X185797619Y-102274714D01*
X185892857Y-102322333D01*
X186035714Y-102322333D01*
X186130952Y-102274714D01*
X186178571Y-102227095D01*
X186226190Y-102131857D01*
X186226190Y-101750904D01*
X186035714Y-103179476D02*
X186702380Y-103179476D01*
X185654761Y-102941380D02*
X186369047Y-102703285D01*
X186369047Y-103322333D01*
X165992380Y-112228333D02*
X165516190Y-111895000D01*
X165992380Y-111656904D02*
X164992380Y-111656904D01*
X164992380Y-112037857D01*
X165040000Y-112133095D01*
X165087619Y-112180714D01*
X165182857Y-112228333D01*
X165325714Y-112228333D01*
X165420952Y-112180714D01*
X165468571Y-112133095D01*
X165516190Y-112037857D01*
X165516190Y-111656904D01*
X164992380Y-113133095D02*
X164992380Y-112656904D01*
X165468571Y-112609285D01*
X165420952Y-112656904D01*
X165373333Y-112752142D01*
X165373333Y-112990238D01*
X165420952Y-113085476D01*
X165468571Y-113133095D01*
X165563809Y-113180714D01*
X165801904Y-113180714D01*
X165897142Y-113133095D01*
X165944761Y-113085476D01*
X165992380Y-112990238D01*
X165992380Y-112752142D01*
X165944761Y-112656904D01*
X165897142Y-112609285D01*
X194161666Y-104660380D02*
X194495000Y-104184190D01*
X194733095Y-104660380D02*
X194733095Y-103660380D01*
X194352142Y-103660380D01*
X194256904Y-103708000D01*
X194209285Y-103755619D01*
X194161666Y-103850857D01*
X194161666Y-103993714D01*
X194209285Y-104088952D01*
X194256904Y-104136571D01*
X194352142Y-104184190D01*
X194733095Y-104184190D01*
X193304523Y-103660380D02*
X193495000Y-103660380D01*
X193590238Y-103708000D01*
X193637857Y-103755619D01*
X193733095Y-103898476D01*
X193780714Y-104088952D01*
X193780714Y-104469904D01*
X193733095Y-104565142D01*
X193685476Y-104612761D01*
X193590238Y-104660380D01*
X193399761Y-104660380D01*
X193304523Y-104612761D01*
X193256904Y-104565142D01*
X193209285Y-104469904D01*
X193209285Y-104231809D01*
X193256904Y-104136571D01*
X193304523Y-104088952D01*
X193399761Y-104041333D01*
X193590238Y-104041333D01*
X193685476Y-104088952D01*
X193733095Y-104136571D01*
X193780714Y-104231809D01*
X146602142Y-83145333D02*
X146649761Y-83097714D01*
X146697380Y-82954857D01*
X146697380Y-82859619D01*
X146649761Y-82716761D01*
X146554523Y-82621523D01*
X146459285Y-82573904D01*
X146268809Y-82526285D01*
X146125952Y-82526285D01*
X145935476Y-82573904D01*
X145840238Y-82621523D01*
X145745000Y-82716761D01*
X145697380Y-82859619D01*
X145697380Y-82954857D01*
X145745000Y-83097714D01*
X145792619Y-83145333D01*
X145792619Y-83526285D02*
X145745000Y-83573904D01*
X145697380Y-83669142D01*
X145697380Y-83907238D01*
X145745000Y-84002476D01*
X145792619Y-84050095D01*
X145887857Y-84097714D01*
X145983095Y-84097714D01*
X146125952Y-84050095D01*
X146697380Y-83478666D01*
X146697380Y-84097714D01*
X162182380Y-112228333D02*
X161706190Y-111895000D01*
X162182380Y-111656904D02*
X161182380Y-111656904D01*
X161182380Y-112037857D01*
X161230000Y-112133095D01*
X161277619Y-112180714D01*
X161372857Y-112228333D01*
X161515714Y-112228333D01*
X161610952Y-112180714D01*
X161658571Y-112133095D01*
X161706190Y-112037857D01*
X161706190Y-111656904D01*
X161182380Y-112561666D02*
X161182380Y-113228333D01*
X162182380Y-112799761D01*
X158372380Y-112228333D02*
X157896190Y-111895000D01*
X158372380Y-111656904D02*
X157372380Y-111656904D01*
X157372380Y-112037857D01*
X157420000Y-112133095D01*
X157467619Y-112180714D01*
X157562857Y-112228333D01*
X157705714Y-112228333D01*
X157800952Y-112180714D01*
X157848571Y-112133095D01*
X157896190Y-112037857D01*
X157896190Y-111656904D01*
X157800952Y-112799761D02*
X157753333Y-112704523D01*
X157705714Y-112656904D01*
X157610476Y-112609285D01*
X157562857Y-112609285D01*
X157467619Y-112656904D01*
X157420000Y-112704523D01*
X157372380Y-112799761D01*
X157372380Y-112990238D01*
X157420000Y-113085476D01*
X157467619Y-113133095D01*
X157562857Y-113180714D01*
X157610476Y-113180714D01*
X157705714Y-113133095D01*
X157753333Y-113085476D01*
X157800952Y-112990238D01*
X157800952Y-112799761D01*
X157848571Y-112704523D01*
X157896190Y-112656904D01*
X157991428Y-112609285D01*
X158181904Y-112609285D01*
X158277142Y-112656904D01*
X158324761Y-112704523D01*
X158372380Y-112799761D01*
X158372380Y-112990238D01*
X158324761Y-113085476D01*
X158277142Y-113133095D01*
X158181904Y-113180714D01*
X157991428Y-113180714D01*
X157896190Y-113133095D01*
X157848571Y-113085476D01*
X157800952Y-112990238D01*
X185042380Y-112228333D02*
X184566190Y-111895000D01*
X185042380Y-111656904D02*
X184042380Y-111656904D01*
X184042380Y-112037857D01*
X184090000Y-112133095D01*
X184137619Y-112180714D01*
X184232857Y-112228333D01*
X184375714Y-112228333D01*
X184470952Y-112180714D01*
X184518571Y-112133095D01*
X184566190Y-112037857D01*
X184566190Y-111656904D01*
X185042380Y-112704523D02*
X185042380Y-112895000D01*
X184994761Y-112990238D01*
X184947142Y-113037857D01*
X184804285Y-113133095D01*
X184613809Y-113180714D01*
X184232857Y-113180714D01*
X184137619Y-113133095D01*
X184090000Y-113085476D01*
X184042380Y-112990238D01*
X184042380Y-112799761D01*
X184090000Y-112704523D01*
X184137619Y-112656904D01*
X184232857Y-112609285D01*
X184470952Y-112609285D01*
X184566190Y-112656904D01*
X184613809Y-112704523D01*
X184661428Y-112799761D01*
X184661428Y-112990238D01*
X184613809Y-113085476D01*
X184566190Y-113133095D01*
X184470952Y-113180714D01*
X197647142Y-96353333D02*
X197694761Y-96305714D01*
X197742380Y-96162857D01*
X197742380Y-96067619D01*
X197694761Y-95924761D01*
X197599523Y-95829523D01*
X197504285Y-95781904D01*
X197313809Y-95734285D01*
X197170952Y-95734285D01*
X196980476Y-95781904D01*
X196885238Y-95829523D01*
X196790000Y-95924761D01*
X196742380Y-96067619D01*
X196742380Y-96162857D01*
X196790000Y-96305714D01*
X196837619Y-96353333D01*
X197170952Y-96924761D02*
X197123333Y-96829523D01*
X197075714Y-96781904D01*
X196980476Y-96734285D01*
X196932857Y-96734285D01*
X196837619Y-96781904D01*
X196790000Y-96829523D01*
X196742380Y-96924761D01*
X196742380Y-97115238D01*
X196790000Y-97210476D01*
X196837619Y-97258095D01*
X196932857Y-97305714D01*
X196980476Y-97305714D01*
X197075714Y-97258095D01*
X197123333Y-97210476D01*
X197170952Y-97115238D01*
X197170952Y-96924761D01*
X197218571Y-96829523D01*
X197266190Y-96781904D01*
X197361428Y-96734285D01*
X197551904Y-96734285D01*
X197647142Y-96781904D01*
X197694761Y-96829523D01*
X197742380Y-96924761D01*
X197742380Y-97115238D01*
X197694761Y-97210476D01*
X197647142Y-97258095D01*
X197551904Y-97305714D01*
X197361428Y-97305714D01*
X197266190Y-97258095D01*
X197218571Y-97210476D01*
X197170952Y-97115238D01*
X154582857Y-97317142D02*
X154630476Y-97364761D01*
X154773333Y-97412380D01*
X154868571Y-97412380D01*
X155011428Y-97364761D01*
X155106666Y-97269523D01*
X155154285Y-97174285D01*
X155201904Y-96983809D01*
X155201904Y-96840952D01*
X155154285Y-96650476D01*
X155106666Y-96555238D01*
X155011428Y-96460000D01*
X154868571Y-96412380D01*
X154773333Y-96412380D01*
X154630476Y-96460000D01*
X154582857Y-96507619D01*
X153630476Y-97412380D02*
X154201904Y-97412380D01*
X153916190Y-97412380D02*
X153916190Y-96412380D01*
X154011428Y-96555238D01*
X154106666Y-96650476D01*
X154201904Y-96698095D01*
X152678095Y-97412380D02*
X153249523Y-97412380D01*
X152963809Y-97412380D02*
X152963809Y-96412380D01*
X153059047Y-96555238D01*
X153154285Y-96650476D01*
X153249523Y-96698095D01*
X169707142Y-111752142D02*
X169754761Y-111704523D01*
X169802380Y-111561666D01*
X169802380Y-111466428D01*
X169754761Y-111323571D01*
X169659523Y-111228333D01*
X169564285Y-111180714D01*
X169373809Y-111133095D01*
X169230952Y-111133095D01*
X169040476Y-111180714D01*
X168945238Y-111228333D01*
X168850000Y-111323571D01*
X168802380Y-111466428D01*
X168802380Y-111561666D01*
X168850000Y-111704523D01*
X168897619Y-111752142D01*
X169802380Y-112704523D02*
X169802380Y-112133095D01*
X169802380Y-112418809D02*
X168802380Y-112418809D01*
X168945238Y-112323571D01*
X169040476Y-112228333D01*
X169088095Y-112133095D01*
X168897619Y-113085476D02*
X168850000Y-113133095D01*
X168802380Y-113228333D01*
X168802380Y-113466428D01*
X168850000Y-113561666D01*
X168897619Y-113609285D01*
X168992857Y-113656904D01*
X169088095Y-113656904D01*
X169230952Y-113609285D01*
X169802380Y-113037857D01*
X169802380Y-113656904D01*
X196132142Y-63762142D02*
X196179761Y-63714523D01*
X196227380Y-63571666D01*
X196227380Y-63476428D01*
X196179761Y-63333571D01*
X196084523Y-63238333D01*
X195989285Y-63190714D01*
X195798809Y-63143095D01*
X195655952Y-63143095D01*
X195465476Y-63190714D01*
X195370238Y-63238333D01*
X195275000Y-63333571D01*
X195227380Y-63476428D01*
X195227380Y-63571666D01*
X195275000Y-63714523D01*
X195322619Y-63762142D01*
X196227380Y-64714523D02*
X196227380Y-64143095D01*
X196227380Y-64428809D02*
X195227380Y-64428809D01*
X195370238Y-64333571D01*
X195465476Y-64238333D01*
X195513095Y-64143095D01*
X195560714Y-65571666D02*
X196227380Y-65571666D01*
X195179761Y-65333571D02*
X195894047Y-65095476D01*
X195894047Y-65714523D01*
X181232380Y-111752142D02*
X180756190Y-111418809D01*
X181232380Y-111180714D02*
X180232380Y-111180714D01*
X180232380Y-111561666D01*
X180280000Y-111656904D01*
X180327619Y-111704523D01*
X180422857Y-111752142D01*
X180565714Y-111752142D01*
X180660952Y-111704523D01*
X180708571Y-111656904D01*
X180756190Y-111561666D01*
X180756190Y-111180714D01*
X181232380Y-112704523D02*
X181232380Y-112133095D01*
X181232380Y-112418809D02*
X180232380Y-112418809D01*
X180375238Y-112323571D01*
X180470476Y-112228333D01*
X180518095Y-112133095D01*
X180232380Y-113323571D02*
X180232380Y-113418809D01*
X180280000Y-113514047D01*
X180327619Y-113561666D01*
X180422857Y-113609285D01*
X180613333Y-113656904D01*
X180851428Y-113656904D01*
X181041904Y-113609285D01*
X181137142Y-113561666D01*
X181184761Y-113514047D01*
X181232380Y-113418809D01*
X181232380Y-113323571D01*
X181184761Y-113228333D01*
X181137142Y-113180714D01*
X181041904Y-113133095D01*
X180851428Y-113085476D01*
X180613333Y-113085476D01*
X180422857Y-113133095D01*
X180327619Y-113180714D01*
X180280000Y-113228333D01*
X180232380Y-113323571D01*
X181622380Y-111752142D02*
X181146190Y-111418809D01*
X181622380Y-111180714D02*
X180622380Y-111180714D01*
X180622380Y-111561666D01*
X180670000Y-111656904D01*
X180717619Y-111704523D01*
X180812857Y-111752142D01*
X180955714Y-111752142D01*
X181050952Y-111704523D01*
X181098571Y-111656904D01*
X181146190Y-111561666D01*
X181146190Y-111180714D01*
X181622380Y-112704523D02*
X181622380Y-112133095D01*
X181622380Y-112418809D02*
X180622380Y-112418809D01*
X180765238Y-112323571D01*
X180860476Y-112228333D01*
X180908095Y-112133095D01*
X181622380Y-113656904D02*
X181622380Y-113085476D01*
X181622380Y-113371190D02*
X180622380Y-113371190D01*
X180765238Y-113275952D01*
X180860476Y-113180714D01*
X180908095Y-113085476D01*
X173612380Y-111752142D02*
X173136190Y-111418809D01*
X173612380Y-111180714D02*
X172612380Y-111180714D01*
X172612380Y-111561666D01*
X172660000Y-111656904D01*
X172707619Y-111704523D01*
X172802857Y-111752142D01*
X172945714Y-111752142D01*
X173040952Y-111704523D01*
X173088571Y-111656904D01*
X173136190Y-111561666D01*
X173136190Y-111180714D01*
X173612380Y-112704523D02*
X173612380Y-112133095D01*
X173612380Y-112418809D02*
X172612380Y-112418809D01*
X172755238Y-112323571D01*
X172850476Y-112228333D01*
X172898095Y-112133095D01*
X172707619Y-113085476D02*
X172660000Y-113133095D01*
X172612380Y-113228333D01*
X172612380Y-113466428D01*
X172660000Y-113561666D01*
X172707619Y-113609285D01*
X172802857Y-113656904D01*
X172898095Y-113656904D01*
X173040952Y-113609285D01*
X173612380Y-113037857D01*
X173612380Y-113656904D01*
X174882380Y-101846142D02*
X174406190Y-101512809D01*
X174882380Y-101274714D02*
X173882380Y-101274714D01*
X173882380Y-101655666D01*
X173930000Y-101750904D01*
X173977619Y-101798523D01*
X174072857Y-101846142D01*
X174215714Y-101846142D01*
X174310952Y-101798523D01*
X174358571Y-101750904D01*
X174406190Y-101655666D01*
X174406190Y-101274714D01*
X174882380Y-102798523D02*
X174882380Y-102227095D01*
X174882380Y-102512809D02*
X173882380Y-102512809D01*
X174025238Y-102417571D01*
X174120476Y-102322333D01*
X174168095Y-102227095D01*
X173882380Y-103131857D02*
X173882380Y-103750904D01*
X174263333Y-103417571D01*
X174263333Y-103560428D01*
X174310952Y-103655666D01*
X174358571Y-103703285D01*
X174453809Y-103750904D01*
X174691904Y-103750904D01*
X174787142Y-103703285D01*
X174834761Y-103655666D01*
X174882380Y-103560428D01*
X174882380Y-103274714D01*
X174834761Y-103179476D01*
X174787142Y-103131857D01*
X181622380Y-101846142D02*
X181146190Y-101512809D01*
X181622380Y-101274714D02*
X180622380Y-101274714D01*
X180622380Y-101655666D01*
X180670000Y-101750904D01*
X180717619Y-101798523D01*
X180812857Y-101846142D01*
X180955714Y-101846142D01*
X181050952Y-101798523D01*
X181098571Y-101750904D01*
X181146190Y-101655666D01*
X181146190Y-101274714D01*
X181622380Y-102798523D02*
X181622380Y-102227095D01*
X181622380Y-102512809D02*
X180622380Y-102512809D01*
X180765238Y-102417571D01*
X180860476Y-102322333D01*
X180908095Y-102227095D01*
X180955714Y-103655666D02*
X181622380Y-103655666D01*
X180574761Y-103417571D02*
X181289047Y-103179476D01*
X181289047Y-103798523D01*
X158635380Y-89654142D02*
X158159190Y-89320809D01*
X158635380Y-89082714D02*
X157635380Y-89082714D01*
X157635380Y-89463666D01*
X157683000Y-89558904D01*
X157730619Y-89606523D01*
X157825857Y-89654142D01*
X157968714Y-89654142D01*
X158063952Y-89606523D01*
X158111571Y-89558904D01*
X158159190Y-89463666D01*
X158159190Y-89082714D01*
X158635380Y-90606523D02*
X158635380Y-90035095D01*
X158635380Y-90320809D02*
X157635380Y-90320809D01*
X157778238Y-90225571D01*
X157873476Y-90130333D01*
X157921095Y-90035095D01*
X157635380Y-91511285D02*
X157635380Y-91035095D01*
X158111571Y-90987476D01*
X158063952Y-91035095D01*
X158016333Y-91130333D01*
X158016333Y-91368428D01*
X158063952Y-91463666D01*
X158111571Y-91511285D01*
X158206809Y-91558904D01*
X158444904Y-91558904D01*
X158540142Y-91511285D01*
X158587761Y-91463666D01*
X158635380Y-91368428D01*
X158635380Y-91130333D01*
X158587761Y-91035095D01*
X158540142Y-90987476D01*
X194195380Y-105783142D02*
X193719190Y-105449809D01*
X194195380Y-105211714D02*
X193195380Y-105211714D01*
X193195380Y-105592666D01*
X193243000Y-105687904D01*
X193290619Y-105735523D01*
X193385857Y-105783142D01*
X193528714Y-105783142D01*
X193623952Y-105735523D01*
X193671571Y-105687904D01*
X193719190Y-105592666D01*
X193719190Y-105211714D01*
X194195380Y-106735523D02*
X194195380Y-106164095D01*
X194195380Y-106449809D02*
X193195380Y-106449809D01*
X193338238Y-106354571D01*
X193433476Y-106259333D01*
X193481095Y-106164095D01*
X193195380Y-107592666D02*
X193195380Y-107402190D01*
X193243000Y-107306952D01*
X193290619Y-107259333D01*
X193433476Y-107164095D01*
X193623952Y-107116476D01*
X194004904Y-107116476D01*
X194100142Y-107164095D01*
X194147761Y-107211714D01*
X194195380Y-107306952D01*
X194195380Y-107497428D01*
X194147761Y-107592666D01*
X194100142Y-107640285D01*
X194004904Y-107687904D01*
X193766809Y-107687904D01*
X193671571Y-107640285D01*
X193623952Y-107592666D01*
X193576333Y-107497428D01*
X193576333Y-107306952D01*
X193623952Y-107211714D01*
X193671571Y-107164095D01*
X193766809Y-107116476D01*
X182130380Y-89654142D02*
X181654190Y-89320809D01*
X182130380Y-89082714D02*
X181130380Y-89082714D01*
X181130380Y-89463666D01*
X181178000Y-89558904D01*
X181225619Y-89606523D01*
X181320857Y-89654142D01*
X181463714Y-89654142D01*
X181558952Y-89606523D01*
X181606571Y-89558904D01*
X181654190Y-89463666D01*
X181654190Y-89082714D01*
X182130380Y-90606523D02*
X182130380Y-90035095D01*
X182130380Y-90320809D02*
X181130380Y-90320809D01*
X181273238Y-90225571D01*
X181368476Y-90130333D01*
X181416095Y-90035095D01*
X181130380Y-90939857D02*
X181130380Y-91606523D01*
X182130380Y-91177952D01*
X194195380Y-97210642D02*
X193719190Y-96877309D01*
X194195380Y-96639214D02*
X193195380Y-96639214D01*
X193195380Y-97020166D01*
X193243000Y-97115404D01*
X193290619Y-97163023D01*
X193385857Y-97210642D01*
X193528714Y-97210642D01*
X193623952Y-97163023D01*
X193671571Y-97115404D01*
X193719190Y-97020166D01*
X193719190Y-96639214D01*
X194195380Y-98163023D02*
X194195380Y-97591595D01*
X194195380Y-97877309D02*
X193195380Y-97877309D01*
X193338238Y-97782071D01*
X193433476Y-97686833D01*
X193481095Y-97591595D01*
X193623952Y-98734452D02*
X193576333Y-98639214D01*
X193528714Y-98591595D01*
X193433476Y-98543976D01*
X193385857Y-98543976D01*
X193290619Y-98591595D01*
X193243000Y-98639214D01*
X193195380Y-98734452D01*
X193195380Y-98924928D01*
X193243000Y-99020166D01*
X193290619Y-99067785D01*
X193385857Y-99115404D01*
X193433476Y-99115404D01*
X193528714Y-99067785D01*
X193576333Y-99020166D01*
X193623952Y-98924928D01*
X193623952Y-98734452D01*
X193671571Y-98639214D01*
X193719190Y-98591595D01*
X193814428Y-98543976D01*
X194004904Y-98543976D01*
X194100142Y-98591595D01*
X194147761Y-98639214D01*
X194195380Y-98734452D01*
X194195380Y-98924928D01*
X194147761Y-99020166D01*
X194100142Y-99067785D01*
X194004904Y-99115404D01*
X193814428Y-99115404D01*
X193719190Y-99067785D01*
X193671571Y-99020166D01*
X193623952Y-98924928D01*
X170700380Y-89654142D02*
X170224190Y-89320809D01*
X170700380Y-89082714D02*
X169700380Y-89082714D01*
X169700380Y-89463666D01*
X169748000Y-89558904D01*
X169795619Y-89606523D01*
X169890857Y-89654142D01*
X170033714Y-89654142D01*
X170128952Y-89606523D01*
X170176571Y-89558904D01*
X170224190Y-89463666D01*
X170224190Y-89082714D01*
X170700380Y-90606523D02*
X170700380Y-90035095D01*
X170700380Y-90320809D02*
X169700380Y-90320809D01*
X169843238Y-90225571D01*
X169938476Y-90130333D01*
X169986095Y-90035095D01*
X170700380Y-91082714D02*
X170700380Y-91273190D01*
X170652761Y-91368428D01*
X170605142Y-91416047D01*
X170462285Y-91511285D01*
X170271809Y-91558904D01*
X169890857Y-91558904D01*
X169795619Y-91511285D01*
X169748000Y-91463666D01*
X169700380Y-91368428D01*
X169700380Y-91177952D01*
X169748000Y-91082714D01*
X169795619Y-91035095D01*
X169890857Y-90987476D01*
X170128952Y-90987476D01*
X170224190Y-91035095D01*
X170271809Y-91082714D01*
X170319428Y-91177952D01*
X170319428Y-91368428D01*
X170271809Y-91463666D01*
X170224190Y-91511285D01*
X170128952Y-91558904D01*
X194195380Y-89654142D02*
X193719190Y-89320809D01*
X194195380Y-89082714D02*
X193195380Y-89082714D01*
X193195380Y-89463666D01*
X193243000Y-89558904D01*
X193290619Y-89606523D01*
X193385857Y-89654142D01*
X193528714Y-89654142D01*
X193623952Y-89606523D01*
X193671571Y-89558904D01*
X193719190Y-89463666D01*
X193719190Y-89082714D01*
X193290619Y-90035095D02*
X193243000Y-90082714D01*
X193195380Y-90177952D01*
X193195380Y-90416047D01*
X193243000Y-90511285D01*
X193290619Y-90558904D01*
X193385857Y-90606523D01*
X193481095Y-90606523D01*
X193623952Y-90558904D01*
X194195380Y-89987476D01*
X194195380Y-90606523D01*
X193195380Y-91225571D02*
X193195380Y-91320809D01*
X193243000Y-91416047D01*
X193290619Y-91463666D01*
X193385857Y-91511285D01*
X193576333Y-91558904D01*
X193814428Y-91558904D01*
X194004904Y-91511285D01*
X194100142Y-91463666D01*
X194147761Y-91416047D01*
X194195380Y-91320809D01*
X194195380Y-91225571D01*
X194147761Y-91130333D01*
X194100142Y-91082714D01*
X194004904Y-91035095D01*
X193814428Y-90987476D01*
X193576333Y-90987476D01*
X193385857Y-91035095D01*
X193290619Y-91082714D01*
X193243000Y-91130333D01*
X193195380Y-91225571D01*
X149867857Y-85737380D02*
X150201190Y-85261190D01*
X150439285Y-85737380D02*
X150439285Y-84737380D01*
X150058333Y-84737380D01*
X149963095Y-84785000D01*
X149915476Y-84832619D01*
X149867857Y-84927857D01*
X149867857Y-85070714D01*
X149915476Y-85165952D01*
X149963095Y-85213571D01*
X150058333Y-85261190D01*
X150439285Y-85261190D01*
X149486904Y-84832619D02*
X149439285Y-84785000D01*
X149344047Y-84737380D01*
X149105952Y-84737380D01*
X149010714Y-84785000D01*
X148963095Y-84832619D01*
X148915476Y-84927857D01*
X148915476Y-85023095D01*
X148963095Y-85165952D01*
X149534523Y-85737380D01*
X148915476Y-85737380D01*
X147963095Y-85737380D02*
X148534523Y-85737380D01*
X148248809Y-85737380D02*
X148248809Y-84737380D01*
X148344047Y-84880238D01*
X148439285Y-84975476D01*
X148534523Y-85023095D01*
X149232857Y-95338780D02*
X149566190Y-94862590D01*
X149804285Y-95338780D02*
X149804285Y-94338780D01*
X149423333Y-94338780D01*
X149328095Y-94386400D01*
X149280476Y-94434019D01*
X149232857Y-94529257D01*
X149232857Y-94672114D01*
X149280476Y-94767352D01*
X149328095Y-94814971D01*
X149423333Y-94862590D01*
X149804285Y-94862590D01*
X148851904Y-94434019D02*
X148804285Y-94386400D01*
X148709047Y-94338780D01*
X148470952Y-94338780D01*
X148375714Y-94386400D01*
X148328095Y-94434019D01*
X148280476Y-94529257D01*
X148280476Y-94624495D01*
X148328095Y-94767352D01*
X148899523Y-95338780D01*
X148280476Y-95338780D01*
X147899523Y-94434019D02*
X147851904Y-94386400D01*
X147756666Y-94338780D01*
X147518571Y-94338780D01*
X147423333Y-94386400D01*
X147375714Y-94434019D01*
X147328095Y-94529257D01*
X147328095Y-94624495D01*
X147375714Y-94767352D01*
X147947142Y-95338780D01*
X147328095Y-95338780D01*
X161175380Y-89654142D02*
X160699190Y-89320809D01*
X161175380Y-89082714D02*
X160175380Y-89082714D01*
X160175380Y-89463666D01*
X160223000Y-89558904D01*
X160270619Y-89606523D01*
X160365857Y-89654142D01*
X160508714Y-89654142D01*
X160603952Y-89606523D01*
X160651571Y-89558904D01*
X160699190Y-89463666D01*
X160699190Y-89082714D01*
X160270619Y-90035095D02*
X160223000Y-90082714D01*
X160175380Y-90177952D01*
X160175380Y-90416047D01*
X160223000Y-90511285D01*
X160270619Y-90558904D01*
X160365857Y-90606523D01*
X160461095Y-90606523D01*
X160603952Y-90558904D01*
X161175380Y-89987476D01*
X161175380Y-90606523D01*
X160175380Y-90939857D02*
X160175380Y-91558904D01*
X160556333Y-91225571D01*
X160556333Y-91368428D01*
X160603952Y-91463666D01*
X160651571Y-91511285D01*
X160746809Y-91558904D01*
X160984904Y-91558904D01*
X161080142Y-91511285D01*
X161127761Y-91463666D01*
X161175380Y-91368428D01*
X161175380Y-91082714D01*
X161127761Y-90987476D01*
X161080142Y-90939857D01*
X180470380Y-89654142D02*
X179994190Y-89320809D01*
X180470380Y-89082714D02*
X179470380Y-89082714D01*
X179470380Y-89463666D01*
X179518000Y-89558904D01*
X179565619Y-89606523D01*
X179660857Y-89654142D01*
X179803714Y-89654142D01*
X179898952Y-89606523D01*
X179946571Y-89558904D01*
X179994190Y-89463666D01*
X179994190Y-89082714D01*
X179565619Y-90035095D02*
X179518000Y-90082714D01*
X179470380Y-90177952D01*
X179470380Y-90416047D01*
X179518000Y-90511285D01*
X179565619Y-90558904D01*
X179660857Y-90606523D01*
X179756095Y-90606523D01*
X179898952Y-90558904D01*
X180470380Y-89987476D01*
X180470380Y-90606523D01*
X179803714Y-91463666D02*
X180470380Y-91463666D01*
X179422761Y-91225571D02*
X180137047Y-90987476D01*
X180137047Y-91606523D01*
X192535380Y-97210642D02*
X192059190Y-96877309D01*
X192535380Y-96639214D02*
X191535380Y-96639214D01*
X191535380Y-97020166D01*
X191583000Y-97115404D01*
X191630619Y-97163023D01*
X191725857Y-97210642D01*
X191868714Y-97210642D01*
X191963952Y-97163023D01*
X192011571Y-97115404D01*
X192059190Y-97020166D01*
X192059190Y-96639214D01*
X191630619Y-97591595D02*
X191583000Y-97639214D01*
X191535380Y-97734452D01*
X191535380Y-97972547D01*
X191583000Y-98067785D01*
X191630619Y-98115404D01*
X191725857Y-98163023D01*
X191821095Y-98163023D01*
X191963952Y-98115404D01*
X192535380Y-97543976D01*
X192535380Y-98163023D01*
X191535380Y-99067785D02*
X191535380Y-98591595D01*
X192011571Y-98543976D01*
X191963952Y-98591595D01*
X191916333Y-98686833D01*
X191916333Y-98924928D01*
X191963952Y-99020166D01*
X192011571Y-99067785D01*
X192106809Y-99115404D01*
X192344904Y-99115404D01*
X192440142Y-99067785D01*
X192487761Y-99020166D01*
X192535380Y-98924928D01*
X192535380Y-98686833D01*
X192487761Y-98591595D01*
X192440142Y-98543976D01*
X169040380Y-89654142D02*
X168564190Y-89320809D01*
X169040380Y-89082714D02*
X168040380Y-89082714D01*
X168040380Y-89463666D01*
X168088000Y-89558904D01*
X168135619Y-89606523D01*
X168230857Y-89654142D01*
X168373714Y-89654142D01*
X168468952Y-89606523D01*
X168516571Y-89558904D01*
X168564190Y-89463666D01*
X168564190Y-89082714D01*
X168135619Y-90035095D02*
X168088000Y-90082714D01*
X168040380Y-90177952D01*
X168040380Y-90416047D01*
X168088000Y-90511285D01*
X168135619Y-90558904D01*
X168230857Y-90606523D01*
X168326095Y-90606523D01*
X168468952Y-90558904D01*
X169040380Y-89987476D01*
X169040380Y-90606523D01*
X168040380Y-91463666D02*
X168040380Y-91273190D01*
X168088000Y-91177952D01*
X168135619Y-91130333D01*
X168278476Y-91035095D01*
X168468952Y-90987476D01*
X168849904Y-90987476D01*
X168945142Y-91035095D01*
X168992761Y-91082714D01*
X169040380Y-91177952D01*
X169040380Y-91368428D01*
X168992761Y-91463666D01*
X168945142Y-91511285D01*
X168849904Y-91558904D01*
X168611809Y-91558904D01*
X168516571Y-91511285D01*
X168468952Y-91463666D01*
X168421333Y-91368428D01*
X168421333Y-91177952D01*
X168468952Y-91082714D01*
X168516571Y-91035095D01*
X168611809Y-90987476D01*
X192535380Y-89654142D02*
X192059190Y-89320809D01*
X192535380Y-89082714D02*
X191535380Y-89082714D01*
X191535380Y-89463666D01*
X191583000Y-89558904D01*
X191630619Y-89606523D01*
X191725857Y-89654142D01*
X191868714Y-89654142D01*
X191963952Y-89606523D01*
X192011571Y-89558904D01*
X192059190Y-89463666D01*
X192059190Y-89082714D01*
X191630619Y-90035095D02*
X191583000Y-90082714D01*
X191535380Y-90177952D01*
X191535380Y-90416047D01*
X191583000Y-90511285D01*
X191630619Y-90558904D01*
X191725857Y-90606523D01*
X191821095Y-90606523D01*
X191963952Y-90558904D01*
X192535380Y-89987476D01*
X192535380Y-90606523D01*
X191535380Y-90939857D02*
X191535380Y-91606523D01*
X192535380Y-91177952D01*
X192535380Y-105783142D02*
X192059190Y-105449809D01*
X192535380Y-105211714D02*
X191535380Y-105211714D01*
X191535380Y-105592666D01*
X191583000Y-105687904D01*
X191630619Y-105735523D01*
X191725857Y-105783142D01*
X191868714Y-105783142D01*
X191963952Y-105735523D01*
X192011571Y-105687904D01*
X192059190Y-105592666D01*
X192059190Y-105211714D01*
X191630619Y-106164095D02*
X191583000Y-106211714D01*
X191535380Y-106306952D01*
X191535380Y-106545047D01*
X191583000Y-106640285D01*
X191630619Y-106687904D01*
X191725857Y-106735523D01*
X191821095Y-106735523D01*
X191963952Y-106687904D01*
X192535380Y-106116476D01*
X192535380Y-106735523D01*
X191963952Y-107306952D02*
X191916333Y-107211714D01*
X191868714Y-107164095D01*
X191773476Y-107116476D01*
X191725857Y-107116476D01*
X191630619Y-107164095D01*
X191583000Y-107211714D01*
X191535380Y-107306952D01*
X191535380Y-107497428D01*
X191583000Y-107592666D01*
X191630619Y-107640285D01*
X191725857Y-107687904D01*
X191773476Y-107687904D01*
X191868714Y-107640285D01*
X191916333Y-107592666D01*
X191963952Y-107497428D01*
X191963952Y-107306952D01*
X192011571Y-107211714D01*
X192059190Y-107164095D01*
X192154428Y-107116476D01*
X192344904Y-107116476D01*
X192440142Y-107164095D01*
X192487761Y-107211714D01*
X192535380Y-107306952D01*
X192535380Y-107497428D01*
X192487761Y-107592666D01*
X192440142Y-107640285D01*
X192344904Y-107687904D01*
X192154428Y-107687904D01*
X192059190Y-107640285D01*
X192011571Y-107592666D01*
X191963952Y-107497428D01*
X149232857Y-94313380D02*
X149566190Y-93837190D01*
X149804285Y-94313380D02*
X149804285Y-93313380D01*
X149423333Y-93313380D01*
X149328095Y-93361000D01*
X149280476Y-93408619D01*
X149232857Y-93503857D01*
X149232857Y-93646714D01*
X149280476Y-93741952D01*
X149328095Y-93789571D01*
X149423333Y-93837190D01*
X149804285Y-93837190D01*
X148851904Y-93408619D02*
X148804285Y-93361000D01*
X148709047Y-93313380D01*
X148470952Y-93313380D01*
X148375714Y-93361000D01*
X148328095Y-93408619D01*
X148280476Y-93503857D01*
X148280476Y-93599095D01*
X148328095Y-93741952D01*
X148899523Y-94313380D01*
X148280476Y-94313380D01*
X147804285Y-94313380D02*
X147613809Y-94313380D01*
X147518571Y-94265761D01*
X147470952Y-94218142D01*
X147375714Y-94075285D01*
X147328095Y-93884809D01*
X147328095Y-93503857D01*
X147375714Y-93408619D01*
X147423333Y-93361000D01*
X147518571Y-93313380D01*
X147709047Y-93313380D01*
X147804285Y-93361000D01*
X147851904Y-93408619D01*
X147899523Y-93503857D01*
X147899523Y-93741952D01*
X147851904Y-93837190D01*
X147804285Y-93884809D01*
X147709047Y-93932428D01*
X147518571Y-93932428D01*
X147423333Y-93884809D01*
X147375714Y-93837190D01*
X147328095Y-93741952D01*
X187647857Y-52082380D02*
X187981190Y-51606190D01*
X188219285Y-52082380D02*
X188219285Y-51082380D01*
X187838333Y-51082380D01*
X187743095Y-51130000D01*
X187695476Y-51177619D01*
X187647857Y-51272857D01*
X187647857Y-51415714D01*
X187695476Y-51510952D01*
X187743095Y-51558571D01*
X187838333Y-51606190D01*
X188219285Y-51606190D01*
X187314523Y-51082380D02*
X186695476Y-51082380D01*
X187028809Y-51463333D01*
X186885952Y-51463333D01*
X186790714Y-51510952D01*
X186743095Y-51558571D01*
X186695476Y-51653809D01*
X186695476Y-51891904D01*
X186743095Y-51987142D01*
X186790714Y-52034761D01*
X186885952Y-52082380D01*
X187171666Y-52082380D01*
X187266904Y-52034761D01*
X187314523Y-51987142D01*
X186076428Y-51082380D02*
X185981190Y-51082380D01*
X185885952Y-51130000D01*
X185838333Y-51177619D01*
X185790714Y-51272857D01*
X185743095Y-51463333D01*
X185743095Y-51701428D01*
X185790714Y-51891904D01*
X185838333Y-51987142D01*
X185885952Y-52034761D01*
X185981190Y-52082380D01*
X186076428Y-52082380D01*
X186171666Y-52034761D01*
X186219285Y-51987142D01*
X186266904Y-51891904D01*
X186314523Y-51701428D01*
X186314523Y-51463333D01*
X186266904Y-51272857D01*
X186219285Y-51177619D01*
X186171666Y-51130000D01*
X186076428Y-51082380D01*
X161440857Y-51978142D02*
X161488476Y-52025761D01*
X161631333Y-52073380D01*
X161726571Y-52073380D01*
X161869428Y-52025761D01*
X161964666Y-51930523D01*
X162012285Y-51835285D01*
X162059904Y-51644809D01*
X162059904Y-51501952D01*
X162012285Y-51311476D01*
X161964666Y-51216238D01*
X161869428Y-51121000D01*
X161726571Y-51073380D01*
X161631333Y-51073380D01*
X161488476Y-51121000D01*
X161440857Y-51168619D01*
X160488476Y-52073380D02*
X161059904Y-52073380D01*
X160774190Y-52073380D02*
X160774190Y-51073380D01*
X160869428Y-51216238D01*
X160964666Y-51311476D01*
X161059904Y-51359095D01*
X159631333Y-51073380D02*
X159821809Y-51073380D01*
X159917047Y-51121000D01*
X159964666Y-51168619D01*
X160059904Y-51311476D01*
X160107523Y-51501952D01*
X160107523Y-51882904D01*
X160059904Y-51978142D01*
X160012285Y-52025761D01*
X159917047Y-52073380D01*
X159726571Y-52073380D01*
X159631333Y-52025761D01*
X159583714Y-51978142D01*
X159536095Y-51882904D01*
X159536095Y-51644809D01*
X159583714Y-51549571D01*
X159631333Y-51501952D01*
X159726571Y-51454333D01*
X159917047Y-51454333D01*
X160012285Y-51501952D01*
X160059904Y-51549571D01*
X160107523Y-51644809D01*
X161440857Y-49438142D02*
X161488476Y-49485761D01*
X161631333Y-49533380D01*
X161726571Y-49533380D01*
X161869428Y-49485761D01*
X161964666Y-49390523D01*
X162012285Y-49295285D01*
X162059904Y-49104809D01*
X162059904Y-48961952D01*
X162012285Y-48771476D01*
X161964666Y-48676238D01*
X161869428Y-48581000D01*
X161726571Y-48533380D01*
X161631333Y-48533380D01*
X161488476Y-48581000D01*
X161440857Y-48628619D01*
X160488476Y-49533380D02*
X161059904Y-49533380D01*
X160774190Y-49533380D02*
X160774190Y-48533380D01*
X160869428Y-48676238D01*
X160964666Y-48771476D01*
X161059904Y-48819095D01*
X160155142Y-48533380D02*
X159488476Y-48533380D01*
X159917047Y-49533380D01*
X161440857Y-54518142D02*
X161488476Y-54565761D01*
X161631333Y-54613380D01*
X161726571Y-54613380D01*
X161869428Y-54565761D01*
X161964666Y-54470523D01*
X162012285Y-54375285D01*
X162059904Y-54184809D01*
X162059904Y-54041952D01*
X162012285Y-53851476D01*
X161964666Y-53756238D01*
X161869428Y-53661000D01*
X161726571Y-53613380D01*
X161631333Y-53613380D01*
X161488476Y-53661000D01*
X161440857Y-53708619D01*
X160488476Y-54613380D02*
X161059904Y-54613380D01*
X160774190Y-54613380D02*
X160774190Y-53613380D01*
X160869428Y-53756238D01*
X160964666Y-53851476D01*
X161059904Y-53899095D01*
X159917047Y-54041952D02*
X160012285Y-53994333D01*
X160059904Y-53946714D01*
X160107523Y-53851476D01*
X160107523Y-53803857D01*
X160059904Y-53708619D01*
X160012285Y-53661000D01*
X159917047Y-53613380D01*
X159726571Y-53613380D01*
X159631333Y-53661000D01*
X159583714Y-53708619D01*
X159536095Y-53803857D01*
X159536095Y-53851476D01*
X159583714Y-53946714D01*
X159631333Y-53994333D01*
X159726571Y-54041952D01*
X159917047Y-54041952D01*
X160012285Y-54089571D01*
X160059904Y-54137190D01*
X160107523Y-54232428D01*
X160107523Y-54422904D01*
X160059904Y-54518142D01*
X160012285Y-54565761D01*
X159917047Y-54613380D01*
X159726571Y-54613380D01*
X159631333Y-54565761D01*
X159583714Y-54518142D01*
X159536095Y-54422904D01*
X159536095Y-54232428D01*
X159583714Y-54137190D01*
X159631333Y-54089571D01*
X159726571Y-54041952D01*
X191457857Y-52082380D02*
X191791190Y-51606190D01*
X192029285Y-52082380D02*
X192029285Y-51082380D01*
X191648333Y-51082380D01*
X191553095Y-51130000D01*
X191505476Y-51177619D01*
X191457857Y-51272857D01*
X191457857Y-51415714D01*
X191505476Y-51510952D01*
X191553095Y-51558571D01*
X191648333Y-51606190D01*
X192029285Y-51606190D01*
X191124523Y-51082380D02*
X190505476Y-51082380D01*
X190838809Y-51463333D01*
X190695952Y-51463333D01*
X190600714Y-51510952D01*
X190553095Y-51558571D01*
X190505476Y-51653809D01*
X190505476Y-51891904D01*
X190553095Y-51987142D01*
X190600714Y-52034761D01*
X190695952Y-52082380D01*
X190981666Y-52082380D01*
X191076904Y-52034761D01*
X191124523Y-51987142D01*
X189553095Y-52082380D02*
X190124523Y-52082380D01*
X189838809Y-52082380D02*
X189838809Y-51082380D01*
X189934047Y-51225238D01*
X190029285Y-51320476D01*
X190124523Y-51368095D01*
X165779142Y-102322333D02*
X165826761Y-102274714D01*
X165874380Y-102131857D01*
X165874380Y-102036619D01*
X165826761Y-101893761D01*
X165731523Y-101798523D01*
X165636285Y-101750904D01*
X165445809Y-101703285D01*
X165302952Y-101703285D01*
X165112476Y-101750904D01*
X165017238Y-101798523D01*
X164922000Y-101893761D01*
X164874380Y-102036619D01*
X164874380Y-102131857D01*
X164922000Y-102274714D01*
X164969619Y-102322333D01*
X164874380Y-102655666D02*
X164874380Y-103274714D01*
X165255333Y-102941380D01*
X165255333Y-103084238D01*
X165302952Y-103179476D01*
X165350571Y-103227095D01*
X165445809Y-103274714D01*
X165683904Y-103274714D01*
X165779142Y-103227095D01*
X165826761Y-103179476D01*
X165874380Y-103084238D01*
X165874380Y-102798523D01*
X165826761Y-102703285D01*
X165779142Y-102655666D01*
X173907142Y-102322333D02*
X173954761Y-102274714D01*
X174002380Y-102131857D01*
X174002380Y-102036619D01*
X173954761Y-101893761D01*
X173859523Y-101798523D01*
X173764285Y-101750904D01*
X173573809Y-101703285D01*
X173430952Y-101703285D01*
X173240476Y-101750904D01*
X173145238Y-101798523D01*
X173050000Y-101893761D01*
X173002380Y-102036619D01*
X173002380Y-102131857D01*
X173050000Y-102274714D01*
X173097619Y-102322333D01*
X173335714Y-103179476D02*
X174002380Y-103179476D01*
X172954761Y-102941380D02*
X173669047Y-102703285D01*
X173669047Y-103322333D01*
X205208095Y-77942380D02*
X205208095Y-76942380D01*
X204827142Y-76942380D01*
X204731904Y-76990000D01*
X204684285Y-77037619D01*
X204636666Y-77132857D01*
X204636666Y-77275714D01*
X204684285Y-77370952D01*
X204731904Y-77418571D01*
X204827142Y-77466190D01*
X205208095Y-77466190D01*
X204255714Y-77037619D02*
X204208095Y-76990000D01*
X204112857Y-76942380D01*
X203874761Y-76942380D01*
X203779523Y-76990000D01*
X203731904Y-77037619D01*
X203684285Y-77132857D01*
X203684285Y-77228095D01*
X203731904Y-77370952D01*
X204303333Y-77942380D01*
X203684285Y-77942380D01*
X146788095Y-77942380D02*
X146788095Y-76942380D01*
X146407142Y-76942380D01*
X146311904Y-76990000D01*
X146264285Y-77037619D01*
X146216666Y-77132857D01*
X146216666Y-77275714D01*
X146264285Y-77370952D01*
X146311904Y-77418571D01*
X146407142Y-77466190D01*
X146788095Y-77466190D01*
X145359523Y-76942380D02*
X145550000Y-76942380D01*
X145645238Y-76990000D01*
X145692857Y-77037619D01*
X145788095Y-77180476D01*
X145835714Y-77370952D01*
X145835714Y-77751904D01*
X145788095Y-77847142D01*
X145740476Y-77894761D01*
X145645238Y-77942380D01*
X145454761Y-77942380D01*
X145359523Y-77894761D01*
X145311904Y-77847142D01*
X145264285Y-77751904D01*
X145264285Y-77513809D01*
X145311904Y-77418571D01*
X145359523Y-77370952D01*
X145454761Y-77323333D01*
X145645238Y-77323333D01*
X145740476Y-77370952D01*
X145788095Y-77418571D01*
X145835714Y-77513809D01*
M02*
