G04 #@! TF.FileFunction,Other,Fab,Bot*
%FSLAX46Y46*%
G04 Gerber Fmt 4.6, Leading zero omitted, Abs format (unit mm)*
G04 Created by KiCad (PCBNEW (2016-08-15 BZR 7057)-product) date Tue Nov  8 12:42:18 2016*
%MOMM*%
%LPD*%
G01*
G04 APERTURE LIST*
%ADD10C,0.100000*%
%ADD11C,0.150000*%
%ADD12C,0.300000*%
%ADD13C,0.400000*%
G04 APERTURE END LIST*
D10*
D11*
X177002200Y-166007200D02*
X177002200Y-198007200D01*
X285002200Y-198007200D01*
X285002200Y-166007200D01*
X177002200Y-166007200D01*
D10*
D11*
X10000000Y-10000000D02*
X10000000Y-200007200D01*
X287002200Y-200007200D01*
X287002200Y-10000000D01*
X10000000Y-10000000D01*
D10*
D11*
X12000000Y-12000000D02*
X12000000Y-198007200D01*
X285002200Y-198007200D01*
X285002200Y-12000000D01*
X12000000Y-12000000D01*
D10*
D11*
X60000000Y-12000000D02*
X60000000Y-10000000D01*
D10*
D11*
X110000000Y-12000000D02*
X110000000Y-10000000D01*
D10*
D11*
X160000000Y-12000000D02*
X160000000Y-10000000D01*
D10*
D11*
X210000000Y-12000000D02*
X210000000Y-10000000D01*
D10*
D11*
X260000000Y-12000000D02*
X260000000Y-10000000D01*
D10*
D11*
X36065476Y-11588095D02*
X35322619Y-11588095D01*
X35694047Y-11588095D02*
X35694047Y-10288095D01*
X35570238Y-10473809D01*
X35446428Y-10597619D01*
X35322619Y-10659523D01*
D10*
D11*
X85322619Y-10411904D02*
X85384523Y-10350000D01*
X85508333Y-10288095D01*
X85817857Y-10288095D01*
X85941666Y-10350000D01*
X86003571Y-10411904D01*
X86065476Y-10535714D01*
X86065476Y-10659523D01*
X86003571Y-10845238D01*
X85260714Y-11588095D01*
X86065476Y-11588095D01*
D10*
D11*
X135260714Y-10288095D02*
X136065476Y-10288095D01*
X135632142Y-10783333D01*
X135817857Y-10783333D01*
X135941666Y-10845238D01*
X136003571Y-10907142D01*
X136065476Y-11030952D01*
X136065476Y-11340476D01*
X136003571Y-11464285D01*
X135941666Y-11526190D01*
X135817857Y-11588095D01*
X135446428Y-11588095D01*
X135322619Y-11526190D01*
X135260714Y-11464285D01*
D10*
D11*
X185941666Y-10721428D02*
X185941666Y-11588095D01*
X185632142Y-10226190D02*
X185322619Y-11154761D01*
X186127380Y-11154761D01*
D10*
D11*
X236003571Y-10288095D02*
X235384523Y-10288095D01*
X235322619Y-10907142D01*
X235384523Y-10845238D01*
X235508333Y-10783333D01*
X235817857Y-10783333D01*
X235941666Y-10845238D01*
X236003571Y-10907142D01*
X236065476Y-11030952D01*
X236065476Y-11340476D01*
X236003571Y-11464285D01*
X235941666Y-11526190D01*
X235817857Y-11588095D01*
X235508333Y-11588095D01*
X235384523Y-11526190D01*
X235322619Y-11464285D01*
D10*
D11*
X285941666Y-10288095D02*
X285694047Y-10288095D01*
X285570238Y-10350000D01*
X285508333Y-10411904D01*
X285384523Y-10597619D01*
X285322619Y-10845238D01*
X285322619Y-11340476D01*
X285384523Y-11464285D01*
X285446428Y-11526190D01*
X285570238Y-11588095D01*
X285817857Y-11588095D01*
X285941666Y-11526190D01*
X286003571Y-11464285D01*
X286065476Y-11340476D01*
X286065476Y-11030952D01*
X286003571Y-10907142D01*
X285941666Y-10845238D01*
X285817857Y-10783333D01*
X285570238Y-10783333D01*
X285446428Y-10845238D01*
X285384523Y-10907142D01*
X285322619Y-11030952D01*
D10*
D11*
X60000000Y-198007200D02*
X60000000Y-200007200D01*
D10*
D11*
X110000000Y-198007200D02*
X110000000Y-200007200D01*
D10*
D11*
X160000000Y-198007200D02*
X160000000Y-200007200D01*
D10*
D11*
X210000000Y-198007200D02*
X210000000Y-200007200D01*
D10*
D11*
X260000000Y-198007200D02*
X260000000Y-200007200D01*
D10*
D11*
X36065476Y-199595295D02*
X35322619Y-199595295D01*
X35694047Y-199595295D02*
X35694047Y-198295295D01*
X35570238Y-198481009D01*
X35446428Y-198604819D01*
X35322619Y-198666723D01*
D10*
D11*
X85322619Y-198419104D02*
X85384523Y-198357200D01*
X85508333Y-198295295D01*
X85817857Y-198295295D01*
X85941666Y-198357200D01*
X86003571Y-198419104D01*
X86065476Y-198542914D01*
X86065476Y-198666723D01*
X86003571Y-198852438D01*
X85260714Y-199595295D01*
X86065476Y-199595295D01*
D10*
D11*
X135260714Y-198295295D02*
X136065476Y-198295295D01*
X135632142Y-198790533D01*
X135817857Y-198790533D01*
X135941666Y-198852438D01*
X136003571Y-198914342D01*
X136065476Y-199038152D01*
X136065476Y-199347676D01*
X136003571Y-199471485D01*
X135941666Y-199533390D01*
X135817857Y-199595295D01*
X135446428Y-199595295D01*
X135322619Y-199533390D01*
X135260714Y-199471485D01*
D10*
D11*
X185941666Y-198728628D02*
X185941666Y-199595295D01*
X185632142Y-198233390D02*
X185322619Y-199161961D01*
X186127380Y-199161961D01*
D10*
D11*
X236003571Y-198295295D02*
X235384523Y-198295295D01*
X235322619Y-198914342D01*
X235384523Y-198852438D01*
X235508333Y-198790533D01*
X235817857Y-198790533D01*
X235941666Y-198852438D01*
X236003571Y-198914342D01*
X236065476Y-199038152D01*
X236065476Y-199347676D01*
X236003571Y-199471485D01*
X235941666Y-199533390D01*
X235817857Y-199595295D01*
X235508333Y-199595295D01*
X235384523Y-199533390D01*
X235322619Y-199471485D01*
D10*
D11*
X285941666Y-198295295D02*
X285694047Y-198295295D01*
X285570238Y-198357200D01*
X285508333Y-198419104D01*
X285384523Y-198604819D01*
X285322619Y-198852438D01*
X285322619Y-199347676D01*
X285384523Y-199471485D01*
X285446428Y-199533390D01*
X285570238Y-199595295D01*
X285817857Y-199595295D01*
X285941666Y-199533390D01*
X286003571Y-199471485D01*
X286065476Y-199347676D01*
X286065476Y-199038152D01*
X286003571Y-198914342D01*
X285941666Y-198852438D01*
X285817857Y-198790533D01*
X285570238Y-198790533D01*
X285446428Y-198852438D01*
X285384523Y-198914342D01*
X285322619Y-199038152D01*
D10*
D11*
X10000000Y-60000000D02*
X12000000Y-60000000D01*
D10*
D11*
X10000000Y-110000000D02*
X12000000Y-110000000D01*
D10*
D11*
X10000000Y-160000000D02*
X12000000Y-160000000D01*
D10*
D11*
X10690476Y-35216666D02*
X11309523Y-35216666D01*
X10566666Y-35588095D02*
X11000000Y-34288095D01*
X11433333Y-35588095D01*
D10*
D11*
X11092857Y-84907142D02*
X11278571Y-84969047D01*
X11340476Y-85030952D01*
X11402380Y-85154761D01*
X11402380Y-85340476D01*
X11340476Y-85464285D01*
X11278571Y-85526190D01*
X11154761Y-85588095D01*
X10659523Y-85588095D01*
X10659523Y-84288095D01*
X11092857Y-84288095D01*
X11216666Y-84350000D01*
X11278571Y-84411904D01*
X11340476Y-84535714D01*
X11340476Y-84659523D01*
X11278571Y-84783333D01*
X11216666Y-84845238D01*
X11092857Y-84907142D01*
X10659523Y-84907142D01*
D10*
D11*
X11402380Y-135464285D02*
X11340476Y-135526190D01*
X11154761Y-135588095D01*
X11030952Y-135588095D01*
X10845238Y-135526190D01*
X10721428Y-135402380D01*
X10659523Y-135278571D01*
X10597619Y-135030952D01*
X10597619Y-134845238D01*
X10659523Y-134597619D01*
X10721428Y-134473809D01*
X10845238Y-134350000D01*
X11030952Y-134288095D01*
X11154761Y-134288095D01*
X11340476Y-134350000D01*
X11402380Y-134411904D01*
D10*
D11*
X10659523Y-185588095D02*
X10659523Y-184288095D01*
X10969047Y-184288095D01*
X11154761Y-184350000D01*
X11278571Y-184473809D01*
X11340476Y-184597619D01*
X11402380Y-184845238D01*
X11402380Y-185030952D01*
X11340476Y-185278571D01*
X11278571Y-185402380D01*
X11154761Y-185526190D01*
X10969047Y-185588095D01*
X10659523Y-185588095D01*
D10*
D11*
X287002200Y-60000000D02*
X285002200Y-60000000D01*
D10*
D11*
X287002200Y-110000000D02*
X285002200Y-110000000D01*
D10*
D11*
X287002200Y-160000000D02*
X285002200Y-160000000D01*
D10*
D11*
X285692676Y-35216666D02*
X286311723Y-35216666D01*
X285568866Y-35588095D02*
X286002200Y-34288095D01*
X286435533Y-35588095D01*
D10*
D11*
X286095057Y-84907142D02*
X286280771Y-84969047D01*
X286342676Y-85030952D01*
X286404580Y-85154761D01*
X286404580Y-85340476D01*
X286342676Y-85464285D01*
X286280771Y-85526190D01*
X286156961Y-85588095D01*
X285661723Y-85588095D01*
X285661723Y-84288095D01*
X286095057Y-84288095D01*
X286218866Y-84350000D01*
X286280771Y-84411904D01*
X286342676Y-84535714D01*
X286342676Y-84659523D01*
X286280771Y-84783333D01*
X286218866Y-84845238D01*
X286095057Y-84907142D01*
X285661723Y-84907142D01*
D10*
D11*
X286404580Y-135464285D02*
X286342676Y-135526190D01*
X286156961Y-135588095D01*
X286033152Y-135588095D01*
X285847438Y-135526190D01*
X285723628Y-135402380D01*
X285661723Y-135278571D01*
X285599819Y-135030952D01*
X285599819Y-134845238D01*
X285661723Y-134597619D01*
X285723628Y-134473809D01*
X285847438Y-134350000D01*
X286033152Y-134288095D01*
X286156961Y-134288095D01*
X286342676Y-134350000D01*
X286404580Y-134411904D01*
D10*
D11*
X285661723Y-185588095D02*
X285661723Y-184288095D01*
X285971247Y-184288095D01*
X286156961Y-184350000D01*
X286280771Y-184473809D01*
X286342676Y-184597619D01*
X286404580Y-184845238D01*
X286404580Y-185030952D01*
X286342676Y-185278571D01*
X286280771Y-185402380D01*
X286156961Y-185526190D01*
X285971247Y-185588095D01*
X285661723Y-185588095D01*
D10*
D11*
X200434342Y-193785771D02*
X200434342Y-192285771D01*
X200791485Y-192285771D01*
X201005771Y-192357200D01*
X201148628Y-192500057D01*
X201220057Y-192642914D01*
X201291485Y-192928628D01*
X201291485Y-193142914D01*
X201220057Y-193428628D01*
X201148628Y-193571485D01*
X201005771Y-193714342D01*
X200791485Y-193785771D01*
X200434342Y-193785771D01*
X202577200Y-193785771D02*
X202577200Y-193000057D01*
X202505771Y-192857200D01*
X202362914Y-192785771D01*
X202077200Y-192785771D01*
X201934342Y-192857200D01*
X202577200Y-193714342D02*
X202434342Y-193785771D01*
X202077200Y-193785771D01*
X201934342Y-193714342D01*
X201862914Y-193571485D01*
X201862914Y-193428628D01*
X201934342Y-193285771D01*
X202077200Y-193214342D01*
X202434342Y-193214342D01*
X202577200Y-193142914D01*
X203077200Y-192785771D02*
X203648628Y-192785771D01*
X203291485Y-192285771D02*
X203291485Y-193571485D01*
X203362914Y-193714342D01*
X203505771Y-193785771D01*
X203648628Y-193785771D01*
X204720057Y-193714342D02*
X204577200Y-193785771D01*
X204291485Y-193785771D01*
X204148628Y-193714342D01*
X204077200Y-193571485D01*
X204077200Y-193000057D01*
X204148628Y-192857200D01*
X204291485Y-192785771D01*
X204577200Y-192785771D01*
X204720057Y-192857200D01*
X204791485Y-193000057D01*
X204791485Y-193142914D01*
X204077200Y-193285771D01*
X205434342Y-193642914D02*
X205505771Y-193714342D01*
X205434342Y-193785771D01*
X205362914Y-193714342D01*
X205434342Y-193642914D01*
X205434342Y-193785771D01*
X205434342Y-192857200D02*
X205505771Y-192928628D01*
X205434342Y-193000057D01*
X205362914Y-192928628D01*
X205434342Y-192857200D01*
X205434342Y-193000057D01*
D10*
D11*
X177002200Y-194507200D02*
X285002200Y-194507200D01*
D10*
D11*
X178434342Y-196585771D02*
X178434342Y-195085771D01*
X179291485Y-196585771D02*
X178648628Y-195728628D01*
X179291485Y-195085771D02*
X178434342Y-195942914D01*
X179934342Y-196585771D02*
X179934342Y-195585771D01*
X179934342Y-195085771D02*
X179862914Y-195157200D01*
X179934342Y-195228628D01*
X180005771Y-195157200D01*
X179934342Y-195085771D01*
X179934342Y-195228628D01*
X181505771Y-196442914D02*
X181434342Y-196514342D01*
X181220057Y-196585771D01*
X181077200Y-196585771D01*
X180862914Y-196514342D01*
X180720057Y-196371485D01*
X180648628Y-196228628D01*
X180577200Y-195942914D01*
X180577200Y-195728628D01*
X180648628Y-195442914D01*
X180720057Y-195300057D01*
X180862914Y-195157200D01*
X181077200Y-195085771D01*
X181220057Y-195085771D01*
X181434342Y-195157200D01*
X181505771Y-195228628D01*
X182791485Y-196585771D02*
X182791485Y-195800057D01*
X182720057Y-195657200D01*
X182577200Y-195585771D01*
X182291485Y-195585771D01*
X182148628Y-195657200D01*
X182791485Y-196514342D02*
X182648628Y-196585771D01*
X182291485Y-196585771D01*
X182148628Y-196514342D01*
X182077200Y-196371485D01*
X182077200Y-196228628D01*
X182148628Y-196085771D01*
X182291485Y-196014342D01*
X182648628Y-196014342D01*
X182791485Y-195942914D01*
X184148628Y-196585771D02*
X184148628Y-195085771D01*
X184148628Y-196514342D02*
X184005771Y-196585771D01*
X183720057Y-196585771D01*
X183577200Y-196514342D01*
X183505771Y-196442914D01*
X183434342Y-196300057D01*
X183434342Y-195871485D01*
X183505771Y-195728628D01*
X183577200Y-195657200D01*
X183720057Y-195585771D01*
X184005771Y-195585771D01*
X184148628Y-195657200D01*
X186005771Y-195800057D02*
X186505771Y-195800057D01*
X186720057Y-196585771D02*
X186005771Y-196585771D01*
X186005771Y-195085771D01*
X186720057Y-195085771D01*
X187362914Y-196442914D02*
X187434342Y-196514342D01*
X187362914Y-196585771D01*
X187291485Y-196514342D01*
X187362914Y-196442914D01*
X187362914Y-196585771D01*
X188077200Y-196585771D02*
X188077200Y-195085771D01*
X188434342Y-195085771D01*
X188648628Y-195157200D01*
X188791485Y-195300057D01*
X188862914Y-195442914D01*
X188934342Y-195728628D01*
X188934342Y-195942914D01*
X188862914Y-196228628D01*
X188791485Y-196371485D01*
X188648628Y-196514342D01*
X188434342Y-196585771D01*
X188077200Y-196585771D01*
X189577200Y-196442914D02*
X189648628Y-196514342D01*
X189577200Y-196585771D01*
X189505771Y-196514342D01*
X189577200Y-196442914D01*
X189577200Y-196585771D01*
X190220057Y-196157200D02*
X190934342Y-196157200D01*
X190077200Y-196585771D02*
X190577200Y-195085771D01*
X191077200Y-196585771D01*
X191577200Y-196442914D02*
X191648628Y-196514342D01*
X191577200Y-196585771D01*
X191505771Y-196514342D01*
X191577200Y-196442914D01*
X191577200Y-196585771D01*
X194577200Y-196585771D02*
X194577200Y-195085771D01*
X194720057Y-196014342D02*
X195148628Y-196585771D01*
X195148628Y-195585771D02*
X194577200Y-196157200D01*
X195791485Y-196585771D02*
X195791485Y-195585771D01*
X195791485Y-195085771D02*
X195720057Y-195157200D01*
X195791485Y-195228628D01*
X195862914Y-195157200D01*
X195791485Y-195085771D01*
X195791485Y-195228628D01*
X197148628Y-196514342D02*
X197005771Y-196585771D01*
X196720057Y-196585771D01*
X196577200Y-196514342D01*
X196505771Y-196442914D01*
X196434342Y-196300057D01*
X196434342Y-195871485D01*
X196505771Y-195728628D01*
X196577200Y-195657200D01*
X196720057Y-195585771D01*
X197005771Y-195585771D01*
X197148628Y-195657200D01*
X198434342Y-196585771D02*
X198434342Y-195800057D01*
X198362914Y-195657200D01*
X198220057Y-195585771D01*
X197934342Y-195585771D01*
X197791485Y-195657200D01*
X198434342Y-196514342D02*
X198291485Y-196585771D01*
X197934342Y-196585771D01*
X197791485Y-196514342D01*
X197720057Y-196371485D01*
X197720057Y-196228628D01*
X197791485Y-196085771D01*
X197934342Y-196014342D01*
X198291485Y-196014342D01*
X198434342Y-195942914D01*
X199791485Y-196585771D02*
X199791485Y-195085771D01*
X199791485Y-196514342D02*
X199648628Y-196585771D01*
X199362914Y-196585771D01*
X199220057Y-196514342D01*
X199148628Y-196442914D01*
X199077200Y-196300057D01*
X199077200Y-195871485D01*
X199148628Y-195728628D01*
X199220057Y-195657200D01*
X199362914Y-195585771D01*
X199648628Y-195585771D01*
X199791485Y-195657200D01*
X202077200Y-197157200D02*
X202005771Y-197085771D01*
X201862914Y-196871485D01*
X201791485Y-196728628D01*
X201720057Y-196514342D01*
X201648628Y-196157200D01*
X201648628Y-195871485D01*
X201720057Y-195514342D01*
X201791485Y-195300057D01*
X201862914Y-195157200D01*
X202005771Y-194942914D01*
X202077200Y-194871485D01*
X202577200Y-195228628D02*
X202648628Y-195157200D01*
X202791485Y-195085771D01*
X203148628Y-195085771D01*
X203291485Y-195157200D01*
X203362914Y-195228628D01*
X203434342Y-195371485D01*
X203434342Y-195514342D01*
X203362914Y-195728628D01*
X202505771Y-196585771D01*
X203434342Y-196585771D01*
X204362914Y-195085771D02*
X204505771Y-195085771D01*
X204648628Y-195157200D01*
X204720057Y-195228628D01*
X204791485Y-195371485D01*
X204862914Y-195657200D01*
X204862914Y-196014342D01*
X204791485Y-196300057D01*
X204720057Y-196442914D01*
X204648628Y-196514342D01*
X204505771Y-196585771D01*
X204362914Y-196585771D01*
X204220057Y-196514342D01*
X204148628Y-196442914D01*
X204077200Y-196300057D01*
X204005771Y-196014342D01*
X204005771Y-195657200D01*
X204077200Y-195371485D01*
X204148628Y-195228628D01*
X204220057Y-195157200D01*
X204362914Y-195085771D01*
X206291485Y-196585771D02*
X205434342Y-196585771D01*
X205862914Y-196585771D02*
X205862914Y-195085771D01*
X205720057Y-195300057D01*
X205577200Y-195442914D01*
X205434342Y-195514342D01*
X207577200Y-195085771D02*
X207291485Y-195085771D01*
X207148628Y-195157200D01*
X207077200Y-195228628D01*
X206934342Y-195442914D01*
X206862914Y-195728628D01*
X206862914Y-196300057D01*
X206934342Y-196442914D01*
X207005771Y-196514342D01*
X207148628Y-196585771D01*
X207434342Y-196585771D01*
X207577200Y-196514342D01*
X207648628Y-196442914D01*
X207720057Y-196300057D01*
X207720057Y-195942914D01*
X207648628Y-195800057D01*
X207577200Y-195728628D01*
X207434342Y-195657200D01*
X207148628Y-195657200D01*
X207005771Y-195728628D01*
X206934342Y-195800057D01*
X206862914Y-195942914D01*
X208362914Y-196014342D02*
X209505771Y-196014342D01*
X210505771Y-195085771D02*
X210648628Y-195085771D01*
X210791485Y-195157200D01*
X210862914Y-195228628D01*
X210934342Y-195371485D01*
X211005771Y-195657200D01*
X211005771Y-196014342D01*
X210934342Y-196300057D01*
X210862914Y-196442914D01*
X210791485Y-196514342D01*
X210648628Y-196585771D01*
X210505771Y-196585771D01*
X210362914Y-196514342D01*
X210291485Y-196442914D01*
X210220057Y-196300057D01*
X210148628Y-196014342D01*
X210148628Y-195657200D01*
X210220057Y-195371485D01*
X210291485Y-195228628D01*
X210362914Y-195157200D01*
X210505771Y-195085771D01*
X211862914Y-195728628D02*
X211720057Y-195657200D01*
X211648628Y-195585771D01*
X211577200Y-195442914D01*
X211577200Y-195371485D01*
X211648628Y-195228628D01*
X211720057Y-195157200D01*
X211862914Y-195085771D01*
X212148628Y-195085771D01*
X212291485Y-195157200D01*
X212362914Y-195228628D01*
X212434342Y-195371485D01*
X212434342Y-195442914D01*
X212362914Y-195585771D01*
X212291485Y-195657200D01*
X212148628Y-195728628D01*
X211862914Y-195728628D01*
X211720057Y-195800057D01*
X211648628Y-195871485D01*
X211577200Y-196014342D01*
X211577200Y-196300057D01*
X211648628Y-196442914D01*
X211720057Y-196514342D01*
X211862914Y-196585771D01*
X212148628Y-196585771D01*
X212291485Y-196514342D01*
X212362914Y-196442914D01*
X212434342Y-196300057D01*
X212434342Y-196014342D01*
X212362914Y-195871485D01*
X212291485Y-195800057D01*
X212148628Y-195728628D01*
X213077200Y-196014342D02*
X214220057Y-196014342D01*
X215720057Y-196585771D02*
X214862914Y-196585771D01*
X215291485Y-196585771D02*
X215291485Y-195085771D01*
X215148628Y-195300057D01*
X215005771Y-195442914D01*
X214862914Y-195514342D01*
X217077200Y-195085771D02*
X216362914Y-195085771D01*
X216291485Y-195800057D01*
X216362914Y-195728628D01*
X216505771Y-195657200D01*
X216862914Y-195657200D01*
X217005771Y-195728628D01*
X217077200Y-195800057D01*
X217148628Y-195942914D01*
X217148628Y-196300057D01*
X217077200Y-196442914D01*
X217005771Y-196514342D01*
X216862914Y-196585771D01*
X216505771Y-196585771D01*
X216362914Y-196514342D01*
X216291485Y-196442914D01*
X219434342Y-195800057D02*
X219648628Y-195871485D01*
X219720057Y-195942914D01*
X219791485Y-196085771D01*
X219791485Y-196300057D01*
X219720057Y-196442914D01*
X219648628Y-196514342D01*
X219505771Y-196585771D01*
X218934342Y-196585771D01*
X218934342Y-195085771D01*
X219434342Y-195085771D01*
X219577200Y-195157200D01*
X219648628Y-195228628D01*
X219720057Y-195371485D01*
X219720057Y-195514342D01*
X219648628Y-195657200D01*
X219577200Y-195728628D01*
X219434342Y-195800057D01*
X218934342Y-195800057D01*
X220291485Y-195085771D02*
X221291485Y-195085771D01*
X220291485Y-196585771D01*
X221291485Y-196585771D01*
X222720057Y-196585771D02*
X222220057Y-195871485D01*
X221862914Y-196585771D02*
X221862914Y-195085771D01*
X222434342Y-195085771D01*
X222577200Y-195157200D01*
X222648628Y-195228628D01*
X222720057Y-195371485D01*
X222720057Y-195585771D01*
X222648628Y-195728628D01*
X222577200Y-195800057D01*
X222434342Y-195871485D01*
X221862914Y-195871485D01*
X224362914Y-195085771D02*
X225362914Y-195085771D01*
X224720057Y-196585771D01*
X226220057Y-195085771D02*
X226362914Y-195085771D01*
X226505771Y-195157200D01*
X226577200Y-195228628D01*
X226648628Y-195371485D01*
X226720057Y-195657200D01*
X226720057Y-196014342D01*
X226648628Y-196300057D01*
X226577200Y-196442914D01*
X226505771Y-196514342D01*
X226362914Y-196585771D01*
X226220057Y-196585771D01*
X226077200Y-196514342D01*
X226005771Y-196442914D01*
X225934342Y-196300057D01*
X225862914Y-196014342D01*
X225862914Y-195657200D01*
X225934342Y-195371485D01*
X226005771Y-195228628D01*
X226077200Y-195157200D01*
X226220057Y-195085771D01*
X228077200Y-195085771D02*
X227362914Y-195085771D01*
X227291485Y-195800057D01*
X227362914Y-195728628D01*
X227505771Y-195657200D01*
X227862914Y-195657200D01*
X228005771Y-195728628D01*
X228077200Y-195800057D01*
X228148628Y-195942914D01*
X228148628Y-196300057D01*
X228077200Y-196442914D01*
X228005771Y-196514342D01*
X227862914Y-196585771D01*
X227505771Y-196585771D01*
X227362914Y-196514342D01*
X227291485Y-196442914D01*
X228648628Y-195085771D02*
X229648628Y-195085771D01*
X229005771Y-196585771D01*
X230077199Y-197157200D02*
X230148628Y-197085771D01*
X230291485Y-196871485D01*
X230362914Y-196728628D01*
X230434342Y-196514342D01*
X230505771Y-196157200D01*
X230505771Y-195871485D01*
X230434342Y-195514342D01*
X230362914Y-195300057D01*
X230291485Y-195157200D01*
X230148628Y-194942914D01*
X230077199Y-194871485D01*
X231220057Y-196014342D02*
X232362914Y-196014342D01*
X233077199Y-195585771D02*
X233077199Y-197085771D01*
X233077199Y-195657200D02*
X233220057Y-195585771D01*
X233505771Y-195585771D01*
X233648628Y-195657200D01*
X233720057Y-195728628D01*
X233791485Y-195871485D01*
X233791485Y-196300057D01*
X233720057Y-196442914D01*
X233648628Y-196514342D01*
X233505771Y-196585771D01*
X233220057Y-196585771D01*
X233077199Y-196514342D01*
X234434342Y-196585771D02*
X234434342Y-195585771D01*
X234434342Y-195871485D02*
X234505771Y-195728628D01*
X234577199Y-195657200D01*
X234720057Y-195585771D01*
X234862914Y-195585771D01*
X235577199Y-196585771D02*
X235434342Y-196514342D01*
X235362914Y-196442914D01*
X235291485Y-196300057D01*
X235291485Y-195871485D01*
X235362914Y-195728628D01*
X235434342Y-195657200D01*
X235577199Y-195585771D01*
X235791485Y-195585771D01*
X235934342Y-195657200D01*
X236005771Y-195728628D01*
X236077199Y-195871485D01*
X236077199Y-196300057D01*
X236005771Y-196442914D01*
X235934342Y-196514342D01*
X235791485Y-196585771D01*
X235577199Y-196585771D01*
X237362914Y-196585771D02*
X237362914Y-195085771D01*
X237362914Y-196514342D02*
X237220057Y-196585771D01*
X236934342Y-196585771D01*
X236791485Y-196514342D01*
X236720057Y-196442914D01*
X236648628Y-196300057D01*
X236648628Y-195871485D01*
X236720057Y-195728628D01*
X236791485Y-195657200D01*
X236934342Y-195585771D01*
X237220057Y-195585771D01*
X237362914Y-195657200D01*
X238720057Y-195585771D02*
X238720057Y-196585771D01*
X238077199Y-195585771D02*
X238077199Y-196371485D01*
X238148628Y-196514342D01*
X238291485Y-196585771D01*
X238505771Y-196585771D01*
X238648628Y-196514342D01*
X238720057Y-196442914D01*
X240077199Y-196514342D02*
X239934342Y-196585771D01*
X239648628Y-196585771D01*
X239505771Y-196514342D01*
X239434342Y-196442914D01*
X239362914Y-196300057D01*
X239362914Y-195871485D01*
X239434342Y-195728628D01*
X239505771Y-195657200D01*
X239648628Y-195585771D01*
X239934342Y-195585771D01*
X240077199Y-195657200D01*
X240505771Y-195585771D02*
X241077199Y-195585771D01*
X240720057Y-195085771D02*
X240720057Y-196371485D01*
X240791485Y-196514342D01*
X240934342Y-196585771D01*
X241077199Y-196585771D01*
D10*
D11*
X177002200Y-191507200D02*
X285002200Y-191507200D01*
D10*
D12*
X264411485Y-193785771D02*
X263911485Y-193071485D01*
X263554342Y-193785771D02*
X263554342Y-192285771D01*
X264125771Y-192285771D01*
X264268628Y-192357200D01*
X264340057Y-192428628D01*
X264411485Y-192571485D01*
X264411485Y-192785771D01*
X264340057Y-192928628D01*
X264268628Y-193000057D01*
X264125771Y-193071485D01*
X263554342Y-193071485D01*
X265625771Y-193714342D02*
X265482914Y-193785771D01*
X265197200Y-193785771D01*
X265054342Y-193714342D01*
X264982914Y-193571485D01*
X264982914Y-193000057D01*
X265054342Y-192857200D01*
X265197200Y-192785771D01*
X265482914Y-192785771D01*
X265625771Y-192857200D01*
X265697200Y-193000057D01*
X265697200Y-193142914D01*
X264982914Y-193285771D01*
X266197200Y-192785771D02*
X266554342Y-193785771D01*
X266911485Y-192785771D01*
X267482914Y-193642914D02*
X267554342Y-193714342D01*
X267482914Y-193785771D01*
X267411485Y-193714342D01*
X267482914Y-193642914D01*
X267482914Y-193785771D01*
X267482914Y-192857200D02*
X267554342Y-192928628D01*
X267482914Y-193000057D01*
X267411485Y-192928628D01*
X267482914Y-192857200D01*
X267482914Y-193000057D01*
D10*
D11*
X178362914Y-193714342D02*
X178577200Y-193785771D01*
X178934342Y-193785771D01*
X179077200Y-193714342D01*
X179148628Y-193642914D01*
X179220057Y-193500057D01*
X179220057Y-193357200D01*
X179148628Y-193214342D01*
X179077200Y-193142914D01*
X178934342Y-193071485D01*
X178648628Y-193000057D01*
X178505771Y-192928628D01*
X178434342Y-192857200D01*
X178362914Y-192714342D01*
X178362914Y-192571485D01*
X178434342Y-192428628D01*
X178505771Y-192357200D01*
X178648628Y-192285771D01*
X179005771Y-192285771D01*
X179220057Y-192357200D01*
X179862914Y-193785771D02*
X179862914Y-192785771D01*
X179862914Y-192285771D02*
X179791485Y-192357200D01*
X179862914Y-192428628D01*
X179934342Y-192357200D01*
X179862914Y-192285771D01*
X179862914Y-192428628D01*
X180434342Y-192785771D02*
X181220057Y-192785771D01*
X180434342Y-193785771D01*
X181220057Y-193785771D01*
X182362914Y-193714342D02*
X182220057Y-193785771D01*
X181934342Y-193785771D01*
X181791485Y-193714342D01*
X181720057Y-193571485D01*
X181720057Y-193000057D01*
X181791485Y-192857200D01*
X181934342Y-192785771D01*
X182220057Y-192785771D01*
X182362914Y-192857200D01*
X182434342Y-193000057D01*
X182434342Y-193142914D01*
X181720057Y-193285771D01*
X183077200Y-193642914D02*
X183148628Y-193714342D01*
X183077200Y-193785771D01*
X183005771Y-193714342D01*
X183077200Y-193642914D01*
X183077200Y-193785771D01*
X183077200Y-192857200D02*
X183148628Y-192928628D01*
X183077200Y-193000057D01*
X183005771Y-192928628D01*
X183077200Y-192857200D01*
X183077200Y-193000057D01*
X184862914Y-193357200D02*
X185577200Y-193357200D01*
X184720057Y-193785771D02*
X185220057Y-192285771D01*
X185720057Y-193785771D01*
X186862914Y-192785771D02*
X186862914Y-193785771D01*
X186505771Y-192214342D02*
X186148628Y-193285771D01*
X187077200Y-193285771D01*
D10*
D11*
X263434342Y-196585771D02*
X263434342Y-195085771D01*
X264791485Y-196585771D02*
X264791485Y-195085771D01*
X264791485Y-196514342D02*
X264648628Y-196585771D01*
X264362914Y-196585771D01*
X264220057Y-196514342D01*
X264148628Y-196442914D01*
X264077200Y-196300057D01*
X264077200Y-195871485D01*
X264148628Y-195728628D01*
X264220057Y-195657200D01*
X264362914Y-195585771D01*
X264648628Y-195585771D01*
X264791485Y-195657200D01*
X265505771Y-196442914D02*
X265577200Y-196514342D01*
X265505771Y-196585771D01*
X265434342Y-196514342D01*
X265505771Y-196442914D01*
X265505771Y-196585771D01*
X265505771Y-195657200D02*
X265577200Y-195728628D01*
X265505771Y-195800057D01*
X265434342Y-195728628D01*
X265505771Y-195657200D01*
X265505771Y-195800057D01*
X268148628Y-196585771D02*
X267291485Y-196585771D01*
X267720057Y-196585771D02*
X267720057Y-195085771D01*
X267577200Y-195300057D01*
X267434342Y-195442914D01*
X267291485Y-195514342D01*
X269862914Y-195014342D02*
X268577200Y-196942914D01*
X271148628Y-196585771D02*
X270291485Y-196585771D01*
X270720057Y-196585771D02*
X270720057Y-195085771D01*
X270577200Y-195300057D01*
X270434342Y-195442914D01*
X270291485Y-195514342D01*
D10*
D11*
X177002200Y-187507200D02*
X285002200Y-187507200D01*
D10*
D13*
X178714580Y-188211961D02*
X179857438Y-188211961D01*
X179036009Y-190211961D02*
X179286009Y-188211961D01*
X180274104Y-190211961D02*
X180440771Y-188878628D01*
X180524104Y-188211961D02*
X180416961Y-188307200D01*
X180500295Y-188402438D01*
X180607438Y-188307200D01*
X180524104Y-188211961D01*
X180500295Y-188402438D01*
X181107438Y-188878628D02*
X181869342Y-188878628D01*
X181476485Y-188211961D02*
X181262200Y-189926247D01*
X181333628Y-190116723D01*
X181512200Y-190211961D01*
X181702676Y-190211961D01*
X182655057Y-190211961D02*
X182476485Y-190116723D01*
X182405057Y-189926247D01*
X182619342Y-188211961D01*
X184190771Y-190116723D02*
X183988390Y-190211961D01*
X183607438Y-190211961D01*
X183428866Y-190116723D01*
X183357438Y-189926247D01*
X183452676Y-189164342D01*
X183571723Y-188973866D01*
X183774104Y-188878628D01*
X184155057Y-188878628D01*
X184333628Y-188973866D01*
X184405057Y-189164342D01*
X184381247Y-189354819D01*
X183405057Y-189545295D01*
X185155057Y-190021485D02*
X185238390Y-190116723D01*
X185131247Y-190211961D01*
X185047914Y-190116723D01*
X185155057Y-190021485D01*
X185131247Y-190211961D01*
X185286009Y-188973866D02*
X185369342Y-189069104D01*
X185262200Y-189164342D01*
X185178866Y-189069104D01*
X185286009Y-188973866D01*
X185262200Y-189164342D01*
D10*
D11*
X178934342Y-185600057D02*
X178434342Y-185600057D01*
X178434342Y-186385771D02*
X178434342Y-184885771D01*
X179148628Y-184885771D01*
X179720057Y-186385771D02*
X179720057Y-185385771D01*
X179720057Y-184885771D02*
X179648628Y-184957200D01*
X179720057Y-185028628D01*
X179791485Y-184957200D01*
X179720057Y-184885771D01*
X179720057Y-185028628D01*
X180648628Y-186385771D02*
X180505771Y-186314342D01*
X180434342Y-186171485D01*
X180434342Y-184885771D01*
X181791485Y-186314342D02*
X181648628Y-186385771D01*
X181362914Y-186385771D01*
X181220057Y-186314342D01*
X181148628Y-186171485D01*
X181148628Y-185600057D01*
X181220057Y-185457200D01*
X181362914Y-185385771D01*
X181648628Y-185385771D01*
X181791485Y-185457200D01*
X181862914Y-185600057D01*
X181862914Y-185742914D01*
X181148628Y-185885771D01*
X182505771Y-186242914D02*
X182577200Y-186314342D01*
X182505771Y-186385771D01*
X182434342Y-186314342D01*
X182505771Y-186242914D01*
X182505771Y-186385771D01*
X182505771Y-185457200D02*
X182577200Y-185528628D01*
X182505771Y-185600057D01*
X182434342Y-185528628D01*
X182505771Y-185457200D01*
X182505771Y-185600057D01*
X184291485Y-186314342D02*
X184434342Y-186385771D01*
X184720057Y-186385771D01*
X184862914Y-186314342D01*
X184934342Y-186171485D01*
X184934342Y-186100057D01*
X184862914Y-185957200D01*
X184720057Y-185885771D01*
X184505771Y-185885771D01*
X184362914Y-185814342D01*
X184291485Y-185671485D01*
X184291485Y-185600057D01*
X184362914Y-185457200D01*
X184505771Y-185385771D01*
X184720057Y-185385771D01*
X184862914Y-185457200D01*
X185362914Y-185385771D02*
X185934342Y-185385771D01*
X185577200Y-184885771D02*
X185577200Y-186171485D01*
X185648628Y-186314342D01*
X185791485Y-186385771D01*
X185934342Y-186385771D01*
X187005771Y-186314342D02*
X186862914Y-186385771D01*
X186577200Y-186385771D01*
X186434342Y-186314342D01*
X186362914Y-186171485D01*
X186362914Y-185600057D01*
X186434342Y-185457200D01*
X186577200Y-185385771D01*
X186862914Y-185385771D01*
X187005771Y-185457200D01*
X187077200Y-185600057D01*
X187077200Y-185742914D01*
X186362914Y-185885771D01*
X187720057Y-185385771D02*
X187720057Y-186885771D01*
X187720057Y-185457200D02*
X187862914Y-185385771D01*
X188148628Y-185385771D01*
X188291485Y-185457200D01*
X188362914Y-185528628D01*
X188434342Y-185671485D01*
X188434342Y-186100057D01*
X188362914Y-186242914D01*
X188291485Y-186314342D01*
X188148628Y-186385771D01*
X187862914Y-186385771D01*
X187720057Y-186314342D01*
X189077200Y-185385771D02*
X189077200Y-186885771D01*
X189077200Y-185457200D02*
X189220057Y-185385771D01*
X189505771Y-185385771D01*
X189648628Y-185457200D01*
X189720057Y-185528628D01*
X189791485Y-185671485D01*
X189791485Y-186100057D01*
X189720057Y-186242914D01*
X189648628Y-186314342D01*
X189505771Y-186385771D01*
X189220057Y-186385771D01*
X189077200Y-186314342D01*
X191005771Y-186314342D02*
X190862914Y-186385771D01*
X190577200Y-186385771D01*
X190434342Y-186314342D01*
X190362914Y-186171485D01*
X190362914Y-185600057D01*
X190434342Y-185457200D01*
X190577200Y-185385771D01*
X190862914Y-185385771D01*
X191005771Y-185457200D01*
X191077200Y-185600057D01*
X191077200Y-185742914D01*
X190362914Y-185885771D01*
X191720057Y-186385771D02*
X191720057Y-185385771D01*
X191720057Y-185671485D02*
X191791485Y-185528628D01*
X191862914Y-185457200D01*
X192005771Y-185385771D01*
X192148628Y-185385771D01*
X192648628Y-186242914D02*
X192720057Y-186314342D01*
X192648628Y-186385771D01*
X192577200Y-186314342D01*
X192648628Y-186242914D01*
X192648628Y-186385771D01*
X193362914Y-186385771D02*
X193362914Y-184885771D01*
X193505771Y-185814342D02*
X193934342Y-186385771D01*
X193934342Y-185385771D02*
X193362914Y-185957200D01*
X194577200Y-186385771D02*
X194577200Y-185385771D01*
X194577200Y-184885771D02*
X194505771Y-184957200D01*
X194577200Y-185028628D01*
X194648628Y-184957200D01*
X194577200Y-184885771D01*
X194577200Y-185028628D01*
X195934342Y-186314342D02*
X195791485Y-186385771D01*
X195505771Y-186385771D01*
X195362914Y-186314342D01*
X195291485Y-186242914D01*
X195220057Y-186100057D01*
X195220057Y-185671485D01*
X195291485Y-185528628D01*
X195362914Y-185457200D01*
X195505771Y-185385771D01*
X195791485Y-185385771D01*
X195934342Y-185457200D01*
X197220057Y-186385771D02*
X197220057Y-185600057D01*
X197148628Y-185457200D01*
X197005771Y-185385771D01*
X196720057Y-185385771D01*
X196577200Y-185457200D01*
X197220057Y-186314342D02*
X197077200Y-186385771D01*
X196720057Y-186385771D01*
X196577200Y-186314342D01*
X196505771Y-186171485D01*
X196505771Y-186028628D01*
X196577200Y-185885771D01*
X196720057Y-185814342D01*
X197077200Y-185814342D01*
X197220057Y-185742914D01*
X198577200Y-186385771D02*
X198577200Y-184885771D01*
X198577200Y-186314342D02*
X198434342Y-186385771D01*
X198148628Y-186385771D01*
X198005771Y-186314342D01*
X197934342Y-186242914D01*
X197862914Y-186100057D01*
X197862914Y-185671485D01*
X197934342Y-185528628D01*
X198005771Y-185457200D01*
X198148628Y-185385771D01*
X198434342Y-185385771D01*
X198577200Y-185457200D01*
X198934342Y-186528628D02*
X200077200Y-186528628D01*
X200434342Y-185385771D02*
X200434342Y-186885771D01*
X200434342Y-185457200D02*
X200577200Y-185385771D01*
X200862914Y-185385771D01*
X201005771Y-185457200D01*
X201077200Y-185528628D01*
X201148628Y-185671485D01*
X201148628Y-186100057D01*
X201077200Y-186242914D01*
X201005771Y-186314342D01*
X200862914Y-186385771D01*
X200577200Y-186385771D01*
X200434342Y-186314342D01*
X202434342Y-186314342D02*
X202291485Y-186385771D01*
X202005771Y-186385771D01*
X201862914Y-186314342D01*
X201791485Y-186242914D01*
X201720057Y-186100057D01*
X201720057Y-185671485D01*
X201791485Y-185528628D01*
X201862914Y-185457200D01*
X202005771Y-185385771D01*
X202291485Y-185385771D01*
X202434342Y-185457200D01*
X203077200Y-186385771D02*
X203077200Y-184885771D01*
X203077200Y-185457200D02*
X203220057Y-185385771D01*
X203505771Y-185385771D01*
X203648628Y-185457200D01*
X203720057Y-185528628D01*
X203791485Y-185671485D01*
X203791485Y-186100057D01*
X203720057Y-186242914D01*
X203648628Y-186314342D01*
X203505771Y-186385771D01*
X203220057Y-186385771D01*
X203077200Y-186314342D01*
D10*
D11*
X177002200Y-181507200D02*
X285002200Y-181507200D01*
D10*
D11*
X178362914Y-183614342D02*
X178577200Y-183685771D01*
X178934342Y-183685771D01*
X179077200Y-183614342D01*
X179148628Y-183542914D01*
X179220057Y-183400057D01*
X179220057Y-183257200D01*
X179148628Y-183114342D01*
X179077200Y-183042914D01*
X178934342Y-182971485D01*
X178648628Y-182900057D01*
X178505771Y-182828628D01*
X178434342Y-182757200D01*
X178362914Y-182614342D01*
X178362914Y-182471485D01*
X178434342Y-182328628D01*
X178505771Y-182257200D01*
X178648628Y-182185771D01*
X179005771Y-182185771D01*
X179220057Y-182257200D01*
X179862914Y-183685771D02*
X179862914Y-182185771D01*
X180505771Y-183685771D02*
X180505771Y-182900057D01*
X180434342Y-182757200D01*
X180291485Y-182685771D01*
X180077200Y-182685771D01*
X179934342Y-182757200D01*
X179862914Y-182828628D01*
X181791485Y-183614342D02*
X181648628Y-183685771D01*
X181362914Y-183685771D01*
X181220057Y-183614342D01*
X181148628Y-183471485D01*
X181148628Y-182900057D01*
X181220057Y-182757200D01*
X181362914Y-182685771D01*
X181648628Y-182685771D01*
X181791485Y-182757200D01*
X181862914Y-182900057D01*
X181862914Y-183042914D01*
X181148628Y-183185771D01*
X183077200Y-183614342D02*
X182934342Y-183685771D01*
X182648628Y-183685771D01*
X182505771Y-183614342D01*
X182434342Y-183471485D01*
X182434342Y-182900057D01*
X182505771Y-182757200D01*
X182648628Y-182685771D01*
X182934342Y-182685771D01*
X183077200Y-182757200D01*
X183148628Y-182900057D01*
X183148628Y-183042914D01*
X182434342Y-183185771D01*
X183577200Y-182685771D02*
X184148628Y-182685771D01*
X183791485Y-182185771D02*
X183791485Y-183471485D01*
X183862914Y-183614342D01*
X184005771Y-183685771D01*
X184148628Y-183685771D01*
X184648628Y-183542914D02*
X184720057Y-183614342D01*
X184648628Y-183685771D01*
X184577200Y-183614342D01*
X184648628Y-183542914D01*
X184648628Y-183685771D01*
X184648628Y-182757200D02*
X184720057Y-182828628D01*
X184648628Y-182900057D01*
X184577200Y-182828628D01*
X184648628Y-182757200D01*
X184648628Y-182900057D01*
D10*
D11*
X197002200Y-191507200D02*
X197002200Y-194507200D01*
D10*
D11*
X261002200Y-191507200D02*
X261002200Y-198007200D01*
X139700000Y-115570000D02*
G75*
G03X142240000Y-118110000I2540000J0D01*
G01*
X208280000Y-118110000D02*
G75*
G03X210820000Y-115570000I0J2540000D01*
G01*
X142240000Y-17780000D02*
G75*
G03X139700000Y-20320000I0J-2540000D01*
G01*
X210820000Y-115570000D02*
X210820000Y-20320000D01*
X210820000Y-20320000D02*
G75*
G03X208280000Y-17780000I-2540000J0D01*
G01*
X142240000Y-118110000D02*
X208280000Y-118110000D01*
X139700000Y-20320000D02*
X139700000Y-115570000D01*
X208280000Y-17780000D02*
X142240000Y-17780000D01*
X154940000Y-83312000D02*
G75*
G03X157480000Y-85852000I2540000J0D01*
G01*
X157480000Y-68072000D02*
G75*
G03X154940000Y-70612000I0J-2540000D01*
G01*
X193040000Y-85852000D02*
G75*
G03X195580000Y-83312000I0J2540000D01*
G01*
X195580000Y-70612000D02*
G75*
G03X193040000Y-68072000I-2540000J0D01*
G01*
X195580000Y-70612000D02*
X195580000Y-83312000D01*
X193040000Y-85852000D02*
X157480000Y-85852000D01*
X154940000Y-83312000D02*
X154940000Y-70612000D01*
X193040000Y-68072000D02*
X157480000Y-68072000D01*
X150772619Y-81537380D02*
X151344047Y-81537380D01*
X151058333Y-81537380D02*
X151058333Y-80537380D01*
X151153571Y-80680238D01*
X151248809Y-80775476D01*
X151344047Y-80823095D01*
X150153571Y-80537380D02*
X150058333Y-80537380D01*
X149963095Y-80585000D01*
X149915476Y-80632619D01*
X149867857Y-80727857D01*
X149820238Y-80918333D01*
X149820238Y-81156428D01*
X149867857Y-81346904D01*
X149915476Y-81442142D01*
X149963095Y-81489761D01*
X150058333Y-81537380D01*
X150153571Y-81537380D01*
X150248809Y-81489761D01*
X150296428Y-81442142D01*
X150344047Y-81346904D01*
X150391666Y-81156428D01*
X150391666Y-80918333D01*
X150344047Y-80727857D01*
X150296428Y-80632619D01*
X150248809Y-80585000D01*
X150153571Y-80537380D01*
X149201190Y-80537380D02*
X149105952Y-80537380D01*
X149010714Y-80585000D01*
X148963095Y-80632619D01*
X148915476Y-80727857D01*
X148867857Y-80918333D01*
X148867857Y-81156428D01*
X148915476Y-81346904D01*
X148963095Y-81442142D01*
X149010714Y-81489761D01*
X149105952Y-81537380D01*
X149201190Y-81537380D01*
X149296428Y-81489761D01*
X149344047Y-81442142D01*
X149391666Y-81346904D01*
X149439285Y-81156428D01*
X149439285Y-80918333D01*
X149391666Y-80727857D01*
X149344047Y-80632619D01*
X149296428Y-80585000D01*
X149201190Y-80537380D01*
X148010714Y-80870714D02*
X148010714Y-81537380D01*
X148439285Y-80870714D02*
X148439285Y-81394523D01*
X148391666Y-81489761D01*
X148296428Y-81537380D01*
X148153571Y-81537380D01*
X148058333Y-81489761D01*
X148010714Y-81442142D01*
X147201190Y-81013571D02*
X147534523Y-81013571D01*
X147534523Y-81537380D02*
X147534523Y-80537380D01*
X147058333Y-80537380D01*
X168414380Y-101798523D02*
X168414380Y-101227095D01*
X168414380Y-101512809D02*
X167414380Y-101512809D01*
X167557238Y-101417571D01*
X167652476Y-101322333D01*
X167700095Y-101227095D01*
X167414380Y-102417571D02*
X167414380Y-102512809D01*
X167462000Y-102608047D01*
X167509619Y-102655666D01*
X167604857Y-102703285D01*
X167795333Y-102750904D01*
X168033428Y-102750904D01*
X168223904Y-102703285D01*
X168319142Y-102655666D01*
X168366761Y-102608047D01*
X168414380Y-102512809D01*
X168414380Y-102417571D01*
X168366761Y-102322333D01*
X168319142Y-102274714D01*
X168223904Y-102227095D01*
X168033428Y-102179476D01*
X167795333Y-102179476D01*
X167604857Y-102227095D01*
X167509619Y-102274714D01*
X167462000Y-102322333D01*
X167414380Y-102417571D01*
X168414380Y-103179476D02*
X167414380Y-103179476D01*
X168414380Y-103750904D02*
X167842952Y-103322333D01*
X167414380Y-103750904D02*
X167985809Y-103179476D01*
X170954380Y-101798523D02*
X170954380Y-101227095D01*
X170954380Y-101512809D02*
X169954380Y-101512809D01*
X170097238Y-101417571D01*
X170192476Y-101322333D01*
X170240095Y-101227095D01*
X169954380Y-102417571D02*
X169954380Y-102512809D01*
X170002000Y-102608047D01*
X170049619Y-102655666D01*
X170144857Y-102703285D01*
X170335333Y-102750904D01*
X170573428Y-102750904D01*
X170763904Y-102703285D01*
X170859142Y-102655666D01*
X170906761Y-102608047D01*
X170954380Y-102512809D01*
X170954380Y-102417571D01*
X170906761Y-102322333D01*
X170859142Y-102274714D01*
X170763904Y-102227095D01*
X170573428Y-102179476D01*
X170335333Y-102179476D01*
X170144857Y-102227095D01*
X170049619Y-102274714D01*
X170002000Y-102322333D01*
X169954380Y-102417571D01*
X170954380Y-103179476D02*
X169954380Y-103179476D01*
X170954380Y-103750904D02*
X170382952Y-103322333D01*
X169954380Y-103750904D02*
X170525809Y-103179476D01*
X179962380Y-101798523D02*
X179962380Y-101227095D01*
X179962380Y-101512809D02*
X178962380Y-101512809D01*
X179105238Y-101417571D01*
X179200476Y-101322333D01*
X179248095Y-101227095D01*
X178962380Y-102417571D02*
X178962380Y-102512809D01*
X179010000Y-102608047D01*
X179057619Y-102655666D01*
X179152857Y-102703285D01*
X179343333Y-102750904D01*
X179581428Y-102750904D01*
X179771904Y-102703285D01*
X179867142Y-102655666D01*
X179914761Y-102608047D01*
X179962380Y-102512809D01*
X179962380Y-102417571D01*
X179914761Y-102322333D01*
X179867142Y-102274714D01*
X179771904Y-102227095D01*
X179581428Y-102179476D01*
X179343333Y-102179476D01*
X179152857Y-102227095D01*
X179057619Y-102274714D01*
X179010000Y-102322333D01*
X178962380Y-102417571D01*
X179962380Y-103179476D02*
X178962380Y-103179476D01*
X179962380Y-103750904D02*
X179390952Y-103322333D01*
X178962380Y-103750904D02*
X179533809Y-103179476D01*
X182502380Y-101798523D02*
X182502380Y-101227095D01*
X182502380Y-101512809D02*
X181502380Y-101512809D01*
X181645238Y-101417571D01*
X181740476Y-101322333D01*
X181788095Y-101227095D01*
X181502380Y-102417571D02*
X181502380Y-102512809D01*
X181550000Y-102608047D01*
X181597619Y-102655666D01*
X181692857Y-102703285D01*
X181883333Y-102750904D01*
X182121428Y-102750904D01*
X182311904Y-102703285D01*
X182407142Y-102655666D01*
X182454761Y-102608047D01*
X182502380Y-102512809D01*
X182502380Y-102417571D01*
X182454761Y-102322333D01*
X182407142Y-102274714D01*
X182311904Y-102227095D01*
X182121428Y-102179476D01*
X181883333Y-102179476D01*
X181692857Y-102227095D01*
X181597619Y-102274714D01*
X181550000Y-102322333D01*
X181502380Y-102417571D01*
X182502380Y-103179476D02*
X181502380Y-103179476D01*
X182502380Y-103750904D02*
X181930952Y-103322333D01*
X181502380Y-103750904D02*
X182073809Y-103179476D01*
X170192380Y-111704523D02*
X170192380Y-111133095D01*
X170192380Y-111418809D02*
X169192380Y-111418809D01*
X169335238Y-111323571D01*
X169430476Y-111228333D01*
X169478095Y-111133095D01*
X169192380Y-112323571D02*
X169192380Y-112418809D01*
X169240000Y-112514047D01*
X169287619Y-112561666D01*
X169382857Y-112609285D01*
X169573333Y-112656904D01*
X169811428Y-112656904D01*
X170001904Y-112609285D01*
X170097142Y-112561666D01*
X170144761Y-112514047D01*
X170192380Y-112418809D01*
X170192380Y-112323571D01*
X170144761Y-112228333D01*
X170097142Y-112180714D01*
X170001904Y-112133095D01*
X169811428Y-112085476D01*
X169573333Y-112085476D01*
X169382857Y-112133095D01*
X169287619Y-112180714D01*
X169240000Y-112228333D01*
X169192380Y-112323571D01*
X170192380Y-113085476D02*
X169192380Y-113085476D01*
X170192380Y-113656904D02*
X169620952Y-113228333D01*
X169192380Y-113656904D02*
X169763809Y-113085476D01*
X194685476Y-100460380D02*
X195256904Y-100460380D01*
X194971190Y-100460380D02*
X194971190Y-99460380D01*
X195066428Y-99603238D01*
X195161666Y-99698476D01*
X195256904Y-99746095D01*
X194066428Y-99460380D02*
X193971190Y-99460380D01*
X193875952Y-99508000D01*
X193828333Y-99555619D01*
X193780714Y-99650857D01*
X193733095Y-99841333D01*
X193733095Y-100079428D01*
X193780714Y-100269904D01*
X193828333Y-100365142D01*
X193875952Y-100412761D01*
X193971190Y-100460380D01*
X194066428Y-100460380D01*
X194161666Y-100412761D01*
X194209285Y-100365142D01*
X194256904Y-100269904D01*
X194304523Y-100079428D01*
X194304523Y-99841333D01*
X194256904Y-99650857D01*
X194209285Y-99555619D01*
X194161666Y-99508000D01*
X194066428Y-99460380D01*
X193304523Y-100460380D02*
X193304523Y-99460380D01*
X192733095Y-100460380D02*
X193161666Y-99888952D01*
X192733095Y-99460380D02*
X193304523Y-100031809D01*
X142497380Y-81764380D02*
X142497380Y-81192952D01*
X142497380Y-81478666D02*
X141497380Y-81478666D01*
X141640238Y-81383428D01*
X141735476Y-81288190D01*
X141783095Y-81192952D01*
X141497380Y-82383428D02*
X141497380Y-82478666D01*
X141545000Y-82573904D01*
X141592619Y-82621523D01*
X141687857Y-82669142D01*
X141878333Y-82716761D01*
X142116428Y-82716761D01*
X142306904Y-82669142D01*
X142402142Y-82621523D01*
X142449761Y-82573904D01*
X142497380Y-82478666D01*
X142497380Y-82383428D01*
X142449761Y-82288190D01*
X142402142Y-82240571D01*
X142306904Y-82192952D01*
X142116428Y-82145333D01*
X141878333Y-82145333D01*
X141687857Y-82192952D01*
X141592619Y-82240571D01*
X141545000Y-82288190D01*
X141497380Y-82383428D01*
X141497380Y-83335809D02*
X141497380Y-83431047D01*
X141545000Y-83526285D01*
X141592619Y-83573904D01*
X141687857Y-83621523D01*
X141878333Y-83669142D01*
X142116428Y-83669142D01*
X142306904Y-83621523D01*
X142402142Y-83573904D01*
X142449761Y-83526285D01*
X142497380Y-83431047D01*
X142497380Y-83335809D01*
X142449761Y-83240571D01*
X142402142Y-83192952D01*
X142306904Y-83145333D01*
X142116428Y-83097714D01*
X141878333Y-83097714D01*
X141687857Y-83145333D01*
X141592619Y-83192952D01*
X141545000Y-83240571D01*
X141497380Y-83335809D01*
X141830714Y-84526285D02*
X142497380Y-84526285D01*
X141830714Y-84097714D02*
X142354523Y-84097714D01*
X142449761Y-84145333D01*
X142497380Y-84240571D01*
X142497380Y-84383428D01*
X142449761Y-84478666D01*
X142402142Y-84526285D01*
X141973571Y-85335809D02*
X141973571Y-85002476D01*
X142497380Y-85002476D02*
X141497380Y-85002476D01*
X141497380Y-85478666D01*
X165382380Y-111680714D02*
X165382380Y-111204523D01*
X165858571Y-111156904D01*
X165810952Y-111204523D01*
X165763333Y-111299761D01*
X165763333Y-111537857D01*
X165810952Y-111633095D01*
X165858571Y-111680714D01*
X165953809Y-111728333D01*
X166191904Y-111728333D01*
X166287142Y-111680714D01*
X166334761Y-111633095D01*
X166382380Y-111537857D01*
X166382380Y-111299761D01*
X166334761Y-111204523D01*
X166287142Y-111156904D01*
X166382380Y-112680714D02*
X166382380Y-112109285D01*
X166382380Y-112395000D02*
X165382380Y-112395000D01*
X165525238Y-112299761D01*
X165620476Y-112204523D01*
X165668095Y-112109285D01*
X165382380Y-113299761D02*
X165382380Y-113395000D01*
X165430000Y-113490238D01*
X165477619Y-113537857D01*
X165572857Y-113585476D01*
X165763333Y-113633095D01*
X166001428Y-113633095D01*
X166191904Y-113585476D01*
X166287142Y-113537857D01*
X166334761Y-113490238D01*
X166382380Y-113395000D01*
X166382380Y-113299761D01*
X166334761Y-113204523D01*
X166287142Y-113156904D01*
X166191904Y-113109285D01*
X166001428Y-113061666D01*
X165763333Y-113061666D01*
X165572857Y-113109285D01*
X165477619Y-113156904D01*
X165430000Y-113204523D01*
X165382380Y-113299761D01*
X161572380Y-111680714D02*
X161572380Y-111204523D01*
X162048571Y-111156904D01*
X162000952Y-111204523D01*
X161953333Y-111299761D01*
X161953333Y-111537857D01*
X162000952Y-111633095D01*
X162048571Y-111680714D01*
X162143809Y-111728333D01*
X162381904Y-111728333D01*
X162477142Y-111680714D01*
X162524761Y-111633095D01*
X162572380Y-111537857D01*
X162572380Y-111299761D01*
X162524761Y-111204523D01*
X162477142Y-111156904D01*
X162572380Y-112680714D02*
X162572380Y-112109285D01*
X162572380Y-112395000D02*
X161572380Y-112395000D01*
X161715238Y-112299761D01*
X161810476Y-112204523D01*
X161858095Y-112109285D01*
X161572380Y-113299761D02*
X161572380Y-113395000D01*
X161620000Y-113490238D01*
X161667619Y-113537857D01*
X161762857Y-113585476D01*
X161953333Y-113633095D01*
X162191428Y-113633095D01*
X162381904Y-113585476D01*
X162477142Y-113537857D01*
X162524761Y-113490238D01*
X162572380Y-113395000D01*
X162572380Y-113299761D01*
X162524761Y-113204523D01*
X162477142Y-113156904D01*
X162381904Y-113109285D01*
X162191428Y-113061666D01*
X161953333Y-113061666D01*
X161762857Y-113109285D01*
X161667619Y-113156904D01*
X161620000Y-113204523D01*
X161572380Y-113299761D01*
X189242380Y-111704523D02*
X189242380Y-111133095D01*
X189242380Y-111418809D02*
X188242380Y-111418809D01*
X188385238Y-111323571D01*
X188480476Y-111228333D01*
X188528095Y-111133095D01*
X188242380Y-112323571D02*
X188242380Y-112418809D01*
X188290000Y-112514047D01*
X188337619Y-112561666D01*
X188432857Y-112609285D01*
X188623333Y-112656904D01*
X188861428Y-112656904D01*
X189051904Y-112609285D01*
X189147142Y-112561666D01*
X189194761Y-112514047D01*
X189242380Y-112418809D01*
X189242380Y-112323571D01*
X189194761Y-112228333D01*
X189147142Y-112180714D01*
X189051904Y-112133095D01*
X188861428Y-112085476D01*
X188623333Y-112085476D01*
X188432857Y-112133095D01*
X188337619Y-112180714D01*
X188290000Y-112228333D01*
X188242380Y-112323571D01*
X189242380Y-113085476D02*
X188242380Y-113085476D01*
X189242380Y-113656904D02*
X188670952Y-113228333D01*
X188242380Y-113656904D02*
X188813809Y-113085476D01*
X201942380Y-94972380D02*
X201942380Y-94400952D01*
X201942380Y-94686666D02*
X200942380Y-94686666D01*
X201085238Y-94591428D01*
X201180476Y-94496190D01*
X201228095Y-94400952D01*
X200942380Y-95591428D02*
X200942380Y-95686666D01*
X200990000Y-95781904D01*
X201037619Y-95829523D01*
X201132857Y-95877142D01*
X201323333Y-95924761D01*
X201561428Y-95924761D01*
X201751904Y-95877142D01*
X201847142Y-95829523D01*
X201894761Y-95781904D01*
X201942380Y-95686666D01*
X201942380Y-95591428D01*
X201894761Y-95496190D01*
X201847142Y-95448571D01*
X201751904Y-95400952D01*
X201561428Y-95353333D01*
X201323333Y-95353333D01*
X201132857Y-95400952D01*
X201037619Y-95448571D01*
X200990000Y-95496190D01*
X200942380Y-95591428D01*
X200942380Y-96543809D02*
X200942380Y-96639047D01*
X200990000Y-96734285D01*
X201037619Y-96781904D01*
X201132857Y-96829523D01*
X201323333Y-96877142D01*
X201561428Y-96877142D01*
X201751904Y-96829523D01*
X201847142Y-96781904D01*
X201894761Y-96734285D01*
X201942380Y-96639047D01*
X201942380Y-96543809D01*
X201894761Y-96448571D01*
X201847142Y-96400952D01*
X201751904Y-96353333D01*
X201561428Y-96305714D01*
X201323333Y-96305714D01*
X201132857Y-96353333D01*
X201037619Y-96400952D01*
X200990000Y-96448571D01*
X200942380Y-96543809D01*
X201275714Y-97734285D02*
X201942380Y-97734285D01*
X201275714Y-97305714D02*
X201799523Y-97305714D01*
X201894761Y-97353333D01*
X201942380Y-97448571D01*
X201942380Y-97591428D01*
X201894761Y-97686666D01*
X201847142Y-97734285D01*
X201418571Y-98543809D02*
X201418571Y-98210476D01*
X201942380Y-98210476D02*
X200942380Y-98210476D01*
X200942380Y-98686666D01*
X155487619Y-101612380D02*
X156059047Y-101612380D01*
X155773333Y-101612380D02*
X155773333Y-100612380D01*
X155868571Y-100755238D01*
X155963809Y-100850476D01*
X156059047Y-100898095D01*
X154868571Y-100612380D02*
X154773333Y-100612380D01*
X154678095Y-100660000D01*
X154630476Y-100707619D01*
X154582857Y-100802857D01*
X154535238Y-100993333D01*
X154535238Y-101231428D01*
X154582857Y-101421904D01*
X154630476Y-101517142D01*
X154678095Y-101564761D01*
X154773333Y-101612380D01*
X154868571Y-101612380D01*
X154963809Y-101564761D01*
X155011428Y-101517142D01*
X155059047Y-101421904D01*
X155106666Y-101231428D01*
X155106666Y-100993333D01*
X155059047Y-100802857D01*
X155011428Y-100707619D01*
X154963809Y-100660000D01*
X154868571Y-100612380D01*
X153916190Y-100612380D02*
X153820952Y-100612380D01*
X153725714Y-100660000D01*
X153678095Y-100707619D01*
X153630476Y-100802857D01*
X153582857Y-100993333D01*
X153582857Y-101231428D01*
X153630476Y-101421904D01*
X153678095Y-101517142D01*
X153725714Y-101564761D01*
X153820952Y-101612380D01*
X153916190Y-101612380D01*
X154011428Y-101564761D01*
X154059047Y-101517142D01*
X154106666Y-101421904D01*
X154154285Y-101231428D01*
X154154285Y-100993333D01*
X154106666Y-100802857D01*
X154059047Y-100707619D01*
X154011428Y-100660000D01*
X153916190Y-100612380D01*
X152725714Y-100945714D02*
X152725714Y-101612380D01*
X153154285Y-100945714D02*
X153154285Y-101469523D01*
X153106666Y-101564761D01*
X153011428Y-101612380D01*
X152868571Y-101612380D01*
X152773333Y-101564761D01*
X152725714Y-101517142D01*
X151916190Y-101088571D02*
X152249523Y-101088571D01*
X152249523Y-101612380D02*
X152249523Y-100612380D01*
X151773333Y-100612380D01*
X174002380Y-111752142D02*
X174002380Y-111180714D01*
X174002380Y-111466428D02*
X173002380Y-111466428D01*
X173145238Y-111371190D01*
X173240476Y-111275952D01*
X173288095Y-111180714D01*
X173002380Y-112371190D02*
X173002380Y-112466428D01*
X173050000Y-112561666D01*
X173097619Y-112609285D01*
X173192857Y-112656904D01*
X173383333Y-112704523D01*
X173621428Y-112704523D01*
X173811904Y-112656904D01*
X173907142Y-112609285D01*
X173954761Y-112561666D01*
X174002380Y-112466428D01*
X174002380Y-112371190D01*
X173954761Y-112275952D01*
X173907142Y-112228333D01*
X173811904Y-112180714D01*
X173621428Y-112133095D01*
X173383333Y-112133095D01*
X173192857Y-112180714D01*
X173097619Y-112228333D01*
X173050000Y-112275952D01*
X173002380Y-112371190D01*
X173335714Y-113561666D02*
X174002380Y-113561666D01*
X173335714Y-113133095D02*
X173859523Y-113133095D01*
X173954761Y-113180714D01*
X174002380Y-113275952D01*
X174002380Y-113418809D01*
X173954761Y-113514047D01*
X173907142Y-113561666D01*
X191027380Y-62238333D02*
X191027380Y-62857380D01*
X191408333Y-62524047D01*
X191408333Y-62666904D01*
X191455952Y-62762142D01*
X191503571Y-62809761D01*
X191598809Y-62857380D01*
X191836904Y-62857380D01*
X191932142Y-62809761D01*
X191979761Y-62762142D01*
X192027380Y-62666904D01*
X192027380Y-62381190D01*
X191979761Y-62285952D01*
X191932142Y-62238333D01*
X191027380Y-63190714D02*
X191027380Y-63809761D01*
X191408333Y-63476428D01*
X191408333Y-63619285D01*
X191455952Y-63714523D01*
X191503571Y-63762142D01*
X191598809Y-63809761D01*
X191836904Y-63809761D01*
X191932142Y-63762142D01*
X191979761Y-63714523D01*
X192027380Y-63619285D01*
X192027380Y-63333571D01*
X191979761Y-63238333D01*
X191932142Y-63190714D01*
X191027380Y-64428809D02*
X191027380Y-64524047D01*
X191075000Y-64619285D01*
X191122619Y-64666904D01*
X191217857Y-64714523D01*
X191408333Y-64762142D01*
X191646428Y-64762142D01*
X191836904Y-64714523D01*
X191932142Y-64666904D01*
X191979761Y-64619285D01*
X192027380Y-64524047D01*
X192027380Y-64428809D01*
X191979761Y-64333571D01*
X191932142Y-64285952D01*
X191836904Y-64238333D01*
X191646428Y-64190714D01*
X191408333Y-64190714D01*
X191217857Y-64238333D01*
X191122619Y-64285952D01*
X191075000Y-64333571D01*
X191027380Y-64428809D01*
X191360714Y-65190714D02*
X192360714Y-65190714D01*
X191408333Y-65190714D02*
X191360714Y-65285952D01*
X191360714Y-65476428D01*
X191408333Y-65571666D01*
X191455952Y-65619285D01*
X191551190Y-65666904D01*
X191836904Y-65666904D01*
X191932142Y-65619285D01*
X191979761Y-65571666D01*
X192027380Y-65476428D01*
X192027380Y-65285952D01*
X191979761Y-65190714D01*
X191503571Y-66428809D02*
X191503571Y-66095476D01*
X192027380Y-66095476D02*
X191027380Y-66095476D01*
X191027380Y-66571666D01*
X185432380Y-111704523D02*
X185432380Y-111133095D01*
X185432380Y-111418809D02*
X184432380Y-111418809D01*
X184575238Y-111323571D01*
X184670476Y-111228333D01*
X184718095Y-111133095D01*
X184432380Y-112323571D02*
X184432380Y-112418809D01*
X184480000Y-112514047D01*
X184527619Y-112561666D01*
X184622857Y-112609285D01*
X184813333Y-112656904D01*
X185051428Y-112656904D01*
X185241904Y-112609285D01*
X185337142Y-112561666D01*
X185384761Y-112514047D01*
X185432380Y-112418809D01*
X185432380Y-112323571D01*
X185384761Y-112228333D01*
X185337142Y-112180714D01*
X185241904Y-112133095D01*
X185051428Y-112085476D01*
X184813333Y-112085476D01*
X184622857Y-112133095D01*
X184527619Y-112180714D01*
X184480000Y-112228333D01*
X184432380Y-112323571D01*
X185432380Y-113085476D02*
X184432380Y-113085476D01*
X185432380Y-113656904D02*
X184860952Y-113228333D01*
X184432380Y-113656904D02*
X185003809Y-113085476D01*
X177422380Y-111704523D02*
X177422380Y-111133095D01*
X177422380Y-111418809D02*
X176422380Y-111418809D01*
X176565238Y-111323571D01*
X176660476Y-111228333D01*
X176708095Y-111133095D01*
X176422380Y-112323571D02*
X176422380Y-112418809D01*
X176470000Y-112514047D01*
X176517619Y-112561666D01*
X176612857Y-112609285D01*
X176803333Y-112656904D01*
X177041428Y-112656904D01*
X177231904Y-112609285D01*
X177327142Y-112561666D01*
X177374761Y-112514047D01*
X177422380Y-112418809D01*
X177422380Y-112323571D01*
X177374761Y-112228333D01*
X177327142Y-112180714D01*
X177231904Y-112133095D01*
X177041428Y-112085476D01*
X176803333Y-112085476D01*
X176612857Y-112133095D01*
X176517619Y-112180714D01*
X176470000Y-112228333D01*
X176422380Y-112323571D01*
X177422380Y-113085476D02*
X176422380Y-113085476D01*
X177422380Y-113656904D02*
X176850952Y-113228333D01*
X176422380Y-113656904D02*
X176993809Y-113085476D01*
X177812380Y-111704523D02*
X177812380Y-111133095D01*
X177812380Y-111418809D02*
X176812380Y-111418809D01*
X176955238Y-111323571D01*
X177050476Y-111228333D01*
X177098095Y-111133095D01*
X176812380Y-112323571D02*
X176812380Y-112418809D01*
X176860000Y-112514047D01*
X176907619Y-112561666D01*
X177002857Y-112609285D01*
X177193333Y-112656904D01*
X177431428Y-112656904D01*
X177621904Y-112609285D01*
X177717142Y-112561666D01*
X177764761Y-112514047D01*
X177812380Y-112418809D01*
X177812380Y-112323571D01*
X177764761Y-112228333D01*
X177717142Y-112180714D01*
X177621904Y-112133095D01*
X177431428Y-112085476D01*
X177193333Y-112085476D01*
X177002857Y-112133095D01*
X176907619Y-112180714D01*
X176860000Y-112228333D01*
X176812380Y-112323571D01*
X177812380Y-113085476D02*
X176812380Y-113085476D01*
X177812380Y-113656904D02*
X177240952Y-113228333D01*
X176812380Y-113656904D02*
X177383809Y-113085476D01*
X179082380Y-101822333D02*
X179082380Y-101250904D01*
X179082380Y-101536619D02*
X178082380Y-101536619D01*
X178225238Y-101441380D01*
X178320476Y-101346142D01*
X178368095Y-101250904D01*
X178082380Y-102727095D02*
X178082380Y-102250904D01*
X178558571Y-102203285D01*
X178510952Y-102250904D01*
X178463333Y-102346142D01*
X178463333Y-102584238D01*
X178510952Y-102679476D01*
X178558571Y-102727095D01*
X178653809Y-102774714D01*
X178891904Y-102774714D01*
X178987142Y-102727095D01*
X179034761Y-102679476D01*
X179082380Y-102584238D01*
X179082380Y-102346142D01*
X179034761Y-102250904D01*
X178987142Y-102203285D01*
X178082380Y-103393761D02*
X178082380Y-103489000D01*
X178130000Y-103584238D01*
X178177619Y-103631857D01*
X178272857Y-103679476D01*
X178463333Y-103727095D01*
X178701428Y-103727095D01*
X178891904Y-103679476D01*
X178987142Y-103631857D01*
X179034761Y-103584238D01*
X179082380Y-103489000D01*
X179082380Y-103393761D01*
X179034761Y-103298523D01*
X178987142Y-103250904D01*
X178891904Y-103203285D01*
X178701428Y-103155666D01*
X178463333Y-103155666D01*
X178272857Y-103203285D01*
X178177619Y-103250904D01*
X178130000Y-103298523D01*
X178082380Y-103393761D01*
X177422380Y-101822333D02*
X177422380Y-101250904D01*
X177422380Y-101536619D02*
X176422380Y-101536619D01*
X176565238Y-101441380D01*
X176660476Y-101346142D01*
X176708095Y-101250904D01*
X176422380Y-102727095D02*
X176422380Y-102250904D01*
X176898571Y-102203285D01*
X176850952Y-102250904D01*
X176803333Y-102346142D01*
X176803333Y-102584238D01*
X176850952Y-102679476D01*
X176898571Y-102727095D01*
X176993809Y-102774714D01*
X177231904Y-102774714D01*
X177327142Y-102727095D01*
X177374761Y-102679476D01*
X177422380Y-102584238D01*
X177422380Y-102346142D01*
X177374761Y-102250904D01*
X177327142Y-102203285D01*
X176422380Y-103393761D02*
X176422380Y-103489000D01*
X176470000Y-103584238D01*
X176517619Y-103631857D01*
X176612857Y-103679476D01*
X176803333Y-103727095D01*
X177041428Y-103727095D01*
X177231904Y-103679476D01*
X177327142Y-103631857D01*
X177374761Y-103584238D01*
X177422380Y-103489000D01*
X177422380Y-103393761D01*
X177374761Y-103298523D01*
X177327142Y-103250904D01*
X177231904Y-103203285D01*
X177041428Y-103155666D01*
X176803333Y-103155666D01*
X176612857Y-103203285D01*
X176517619Y-103250904D01*
X176470000Y-103298523D01*
X176422380Y-103393761D01*
X154435380Y-89606523D02*
X154435380Y-89035095D01*
X154435380Y-89320809D02*
X153435380Y-89320809D01*
X153578238Y-89225571D01*
X153673476Y-89130333D01*
X153721095Y-89035095D01*
X153435380Y-90225571D02*
X153435380Y-90320809D01*
X153483000Y-90416047D01*
X153530619Y-90463666D01*
X153625857Y-90511285D01*
X153816333Y-90558904D01*
X154054428Y-90558904D01*
X154244904Y-90511285D01*
X154340142Y-90463666D01*
X154387761Y-90416047D01*
X154435380Y-90320809D01*
X154435380Y-90225571D01*
X154387761Y-90130333D01*
X154340142Y-90082714D01*
X154244904Y-90035095D01*
X154054428Y-89987476D01*
X153816333Y-89987476D01*
X153625857Y-90035095D01*
X153530619Y-90082714D01*
X153483000Y-90130333D01*
X153435380Y-90225571D01*
X154435380Y-90987476D02*
X153435380Y-90987476D01*
X154435380Y-91558904D02*
X153863952Y-91130333D01*
X153435380Y-91558904D02*
X154006809Y-90987476D01*
X189995380Y-105735523D02*
X189995380Y-105164095D01*
X189995380Y-105449809D02*
X188995380Y-105449809D01*
X189138238Y-105354571D01*
X189233476Y-105259333D01*
X189281095Y-105164095D01*
X188995380Y-106354571D02*
X188995380Y-106449809D01*
X189043000Y-106545047D01*
X189090619Y-106592666D01*
X189185857Y-106640285D01*
X189376333Y-106687904D01*
X189614428Y-106687904D01*
X189804904Y-106640285D01*
X189900142Y-106592666D01*
X189947761Y-106545047D01*
X189995380Y-106449809D01*
X189995380Y-106354571D01*
X189947761Y-106259333D01*
X189900142Y-106211714D01*
X189804904Y-106164095D01*
X189614428Y-106116476D01*
X189376333Y-106116476D01*
X189185857Y-106164095D01*
X189090619Y-106211714D01*
X189043000Y-106259333D01*
X188995380Y-106354571D01*
X189995380Y-107116476D02*
X188995380Y-107116476D01*
X189995380Y-107687904D02*
X189423952Y-107259333D01*
X188995380Y-107687904D02*
X189566809Y-107116476D01*
X177930380Y-89606523D02*
X177930380Y-89035095D01*
X177930380Y-89320809D02*
X176930380Y-89320809D01*
X177073238Y-89225571D01*
X177168476Y-89130333D01*
X177216095Y-89035095D01*
X176930380Y-90225571D02*
X176930380Y-90320809D01*
X176978000Y-90416047D01*
X177025619Y-90463666D01*
X177120857Y-90511285D01*
X177311333Y-90558904D01*
X177549428Y-90558904D01*
X177739904Y-90511285D01*
X177835142Y-90463666D01*
X177882761Y-90416047D01*
X177930380Y-90320809D01*
X177930380Y-90225571D01*
X177882761Y-90130333D01*
X177835142Y-90082714D01*
X177739904Y-90035095D01*
X177549428Y-89987476D01*
X177311333Y-89987476D01*
X177120857Y-90035095D01*
X177025619Y-90082714D01*
X176978000Y-90130333D01*
X176930380Y-90225571D01*
X177930380Y-90987476D02*
X176930380Y-90987476D01*
X177930380Y-91558904D02*
X177358952Y-91130333D01*
X176930380Y-91558904D02*
X177501809Y-90987476D01*
X189995380Y-97163023D02*
X189995380Y-96591595D01*
X189995380Y-96877309D02*
X188995380Y-96877309D01*
X189138238Y-96782071D01*
X189233476Y-96686833D01*
X189281095Y-96591595D01*
X188995380Y-97782071D02*
X188995380Y-97877309D01*
X189043000Y-97972547D01*
X189090619Y-98020166D01*
X189185857Y-98067785D01*
X189376333Y-98115404D01*
X189614428Y-98115404D01*
X189804904Y-98067785D01*
X189900142Y-98020166D01*
X189947761Y-97972547D01*
X189995380Y-97877309D01*
X189995380Y-97782071D01*
X189947761Y-97686833D01*
X189900142Y-97639214D01*
X189804904Y-97591595D01*
X189614428Y-97543976D01*
X189376333Y-97543976D01*
X189185857Y-97591595D01*
X189090619Y-97639214D01*
X189043000Y-97686833D01*
X188995380Y-97782071D01*
X189995380Y-98543976D02*
X188995380Y-98543976D01*
X189995380Y-99115404D02*
X189423952Y-98686833D01*
X188995380Y-99115404D02*
X189566809Y-98543976D01*
X166500380Y-89606523D02*
X166500380Y-89035095D01*
X166500380Y-89320809D02*
X165500380Y-89320809D01*
X165643238Y-89225571D01*
X165738476Y-89130333D01*
X165786095Y-89035095D01*
X165500380Y-90225571D02*
X165500380Y-90320809D01*
X165548000Y-90416047D01*
X165595619Y-90463666D01*
X165690857Y-90511285D01*
X165881333Y-90558904D01*
X166119428Y-90558904D01*
X166309904Y-90511285D01*
X166405142Y-90463666D01*
X166452761Y-90416047D01*
X166500380Y-90320809D01*
X166500380Y-90225571D01*
X166452761Y-90130333D01*
X166405142Y-90082714D01*
X166309904Y-90035095D01*
X166119428Y-89987476D01*
X165881333Y-89987476D01*
X165690857Y-90035095D01*
X165595619Y-90082714D01*
X165548000Y-90130333D01*
X165500380Y-90225571D01*
X166500380Y-90987476D02*
X165500380Y-90987476D01*
X166500380Y-91558904D02*
X165928952Y-91130333D01*
X165500380Y-91558904D02*
X166071809Y-90987476D01*
X189995380Y-89606523D02*
X189995380Y-89035095D01*
X189995380Y-89320809D02*
X188995380Y-89320809D01*
X189138238Y-89225571D01*
X189233476Y-89130333D01*
X189281095Y-89035095D01*
X188995380Y-90225571D02*
X188995380Y-90320809D01*
X189043000Y-90416047D01*
X189090619Y-90463666D01*
X189185857Y-90511285D01*
X189376333Y-90558904D01*
X189614428Y-90558904D01*
X189804904Y-90511285D01*
X189900142Y-90463666D01*
X189947761Y-90416047D01*
X189995380Y-90320809D01*
X189995380Y-90225571D01*
X189947761Y-90130333D01*
X189900142Y-90082714D01*
X189804904Y-90035095D01*
X189614428Y-89987476D01*
X189376333Y-89987476D01*
X189185857Y-90035095D01*
X189090619Y-90082714D01*
X189043000Y-90130333D01*
X188995380Y-90225571D01*
X189995380Y-90987476D02*
X188995380Y-90987476D01*
X189995380Y-91558904D02*
X189423952Y-91130333D01*
X188995380Y-91558904D02*
X189566809Y-90987476D01*
X149963095Y-80537380D02*
X150439285Y-80537380D01*
X150486904Y-81013571D01*
X150439285Y-80965952D01*
X150344047Y-80918333D01*
X150105952Y-80918333D01*
X150010714Y-80965952D01*
X149963095Y-81013571D01*
X149915476Y-81108809D01*
X149915476Y-81346904D01*
X149963095Y-81442142D01*
X150010714Y-81489761D01*
X150105952Y-81537380D01*
X150344047Y-81537380D01*
X150439285Y-81489761D01*
X150486904Y-81442142D01*
X148963095Y-81537380D02*
X149534523Y-81537380D01*
X149248809Y-81537380D02*
X149248809Y-80537380D01*
X149344047Y-80680238D01*
X149439285Y-80775476D01*
X149534523Y-80823095D01*
X148534523Y-81537380D02*
X148534523Y-80537380D01*
X147963095Y-81537380D02*
X148391666Y-80965952D01*
X147963095Y-80537380D02*
X148534523Y-81108809D01*
X149756666Y-91138780D02*
X150328095Y-91138780D01*
X150042380Y-91138780D02*
X150042380Y-90138780D01*
X150137619Y-90281638D01*
X150232857Y-90376876D01*
X150328095Y-90424495D01*
X149137619Y-90138780D02*
X149042380Y-90138780D01*
X148947142Y-90186400D01*
X148899523Y-90234019D01*
X148851904Y-90329257D01*
X148804285Y-90519733D01*
X148804285Y-90757828D01*
X148851904Y-90948304D01*
X148899523Y-91043542D01*
X148947142Y-91091161D01*
X149042380Y-91138780D01*
X149137619Y-91138780D01*
X149232857Y-91091161D01*
X149280476Y-91043542D01*
X149328095Y-90948304D01*
X149375714Y-90757828D01*
X149375714Y-90519733D01*
X149328095Y-90329257D01*
X149280476Y-90234019D01*
X149232857Y-90186400D01*
X149137619Y-90138780D01*
X148185238Y-90138780D02*
X148090000Y-90138780D01*
X147994761Y-90186400D01*
X147947142Y-90234019D01*
X147899523Y-90329257D01*
X147851904Y-90519733D01*
X147851904Y-90757828D01*
X147899523Y-90948304D01*
X147947142Y-91043542D01*
X147994761Y-91091161D01*
X148090000Y-91138780D01*
X148185238Y-91138780D01*
X148280476Y-91091161D01*
X148328095Y-91043542D01*
X148375714Y-90948304D01*
X148423333Y-90757828D01*
X148423333Y-90519733D01*
X148375714Y-90329257D01*
X148328095Y-90234019D01*
X148280476Y-90186400D01*
X148185238Y-90138780D01*
X147423333Y-91138780D02*
X147423333Y-90138780D01*
X146851904Y-91138780D02*
X147280476Y-90567352D01*
X146851904Y-90138780D02*
X147423333Y-90710209D01*
X156975380Y-89606523D02*
X156975380Y-89035095D01*
X156975380Y-89320809D02*
X155975380Y-89320809D01*
X156118238Y-89225571D01*
X156213476Y-89130333D01*
X156261095Y-89035095D01*
X155975380Y-90225571D02*
X155975380Y-90320809D01*
X156023000Y-90416047D01*
X156070619Y-90463666D01*
X156165857Y-90511285D01*
X156356333Y-90558904D01*
X156594428Y-90558904D01*
X156784904Y-90511285D01*
X156880142Y-90463666D01*
X156927761Y-90416047D01*
X156975380Y-90320809D01*
X156975380Y-90225571D01*
X156927761Y-90130333D01*
X156880142Y-90082714D01*
X156784904Y-90035095D01*
X156594428Y-89987476D01*
X156356333Y-89987476D01*
X156165857Y-90035095D01*
X156070619Y-90082714D01*
X156023000Y-90130333D01*
X155975380Y-90225571D01*
X156975380Y-90987476D02*
X155975380Y-90987476D01*
X156975380Y-91558904D02*
X156403952Y-91130333D01*
X155975380Y-91558904D02*
X156546809Y-90987476D01*
X184670380Y-89606523D02*
X184670380Y-89035095D01*
X184670380Y-89320809D02*
X183670380Y-89320809D01*
X183813238Y-89225571D01*
X183908476Y-89130333D01*
X183956095Y-89035095D01*
X183670380Y-90225571D02*
X183670380Y-90320809D01*
X183718000Y-90416047D01*
X183765619Y-90463666D01*
X183860857Y-90511285D01*
X184051333Y-90558904D01*
X184289428Y-90558904D01*
X184479904Y-90511285D01*
X184575142Y-90463666D01*
X184622761Y-90416047D01*
X184670380Y-90320809D01*
X184670380Y-90225571D01*
X184622761Y-90130333D01*
X184575142Y-90082714D01*
X184479904Y-90035095D01*
X184289428Y-89987476D01*
X184051333Y-89987476D01*
X183860857Y-90035095D01*
X183765619Y-90082714D01*
X183718000Y-90130333D01*
X183670380Y-90225571D01*
X184670380Y-90987476D02*
X183670380Y-90987476D01*
X184670380Y-91558904D02*
X184098952Y-91130333D01*
X183670380Y-91558904D02*
X184241809Y-90987476D01*
X196735380Y-97163023D02*
X196735380Y-96591595D01*
X196735380Y-96877309D02*
X195735380Y-96877309D01*
X195878238Y-96782071D01*
X195973476Y-96686833D01*
X196021095Y-96591595D01*
X195735380Y-97782071D02*
X195735380Y-97877309D01*
X195783000Y-97972547D01*
X195830619Y-98020166D01*
X195925857Y-98067785D01*
X196116333Y-98115404D01*
X196354428Y-98115404D01*
X196544904Y-98067785D01*
X196640142Y-98020166D01*
X196687761Y-97972547D01*
X196735380Y-97877309D01*
X196735380Y-97782071D01*
X196687761Y-97686833D01*
X196640142Y-97639214D01*
X196544904Y-97591595D01*
X196354428Y-97543976D01*
X196116333Y-97543976D01*
X195925857Y-97591595D01*
X195830619Y-97639214D01*
X195783000Y-97686833D01*
X195735380Y-97782071D01*
X196735380Y-98543976D02*
X195735380Y-98543976D01*
X196735380Y-99115404D02*
X196163952Y-98686833D01*
X195735380Y-99115404D02*
X196306809Y-98543976D01*
X173240380Y-89606523D02*
X173240380Y-89035095D01*
X173240380Y-89320809D02*
X172240380Y-89320809D01*
X172383238Y-89225571D01*
X172478476Y-89130333D01*
X172526095Y-89035095D01*
X172240380Y-90225571D02*
X172240380Y-90320809D01*
X172288000Y-90416047D01*
X172335619Y-90463666D01*
X172430857Y-90511285D01*
X172621333Y-90558904D01*
X172859428Y-90558904D01*
X173049904Y-90511285D01*
X173145142Y-90463666D01*
X173192761Y-90416047D01*
X173240380Y-90320809D01*
X173240380Y-90225571D01*
X173192761Y-90130333D01*
X173145142Y-90082714D01*
X173049904Y-90035095D01*
X172859428Y-89987476D01*
X172621333Y-89987476D01*
X172430857Y-90035095D01*
X172335619Y-90082714D01*
X172288000Y-90130333D01*
X172240380Y-90225571D01*
X173240380Y-90987476D02*
X172240380Y-90987476D01*
X173240380Y-91558904D02*
X172668952Y-91130333D01*
X172240380Y-91558904D02*
X172811809Y-90987476D01*
X196735380Y-89606523D02*
X196735380Y-89035095D01*
X196735380Y-89320809D02*
X195735380Y-89320809D01*
X195878238Y-89225571D01*
X195973476Y-89130333D01*
X196021095Y-89035095D01*
X195735380Y-90225571D02*
X195735380Y-90320809D01*
X195783000Y-90416047D01*
X195830619Y-90463666D01*
X195925857Y-90511285D01*
X196116333Y-90558904D01*
X196354428Y-90558904D01*
X196544904Y-90511285D01*
X196640142Y-90463666D01*
X196687761Y-90416047D01*
X196735380Y-90320809D01*
X196735380Y-90225571D01*
X196687761Y-90130333D01*
X196640142Y-90082714D01*
X196544904Y-90035095D01*
X196354428Y-89987476D01*
X196116333Y-89987476D01*
X195925857Y-90035095D01*
X195830619Y-90082714D01*
X195783000Y-90130333D01*
X195735380Y-90225571D01*
X196735380Y-90987476D02*
X195735380Y-90987476D01*
X196735380Y-91558904D02*
X196163952Y-91130333D01*
X195735380Y-91558904D02*
X196306809Y-90987476D01*
X196735380Y-105735523D02*
X196735380Y-105164095D01*
X196735380Y-105449809D02*
X195735380Y-105449809D01*
X195878238Y-105354571D01*
X195973476Y-105259333D01*
X196021095Y-105164095D01*
X195735380Y-106354571D02*
X195735380Y-106449809D01*
X195783000Y-106545047D01*
X195830619Y-106592666D01*
X195925857Y-106640285D01*
X196116333Y-106687904D01*
X196354428Y-106687904D01*
X196544904Y-106640285D01*
X196640142Y-106592666D01*
X196687761Y-106545047D01*
X196735380Y-106449809D01*
X196735380Y-106354571D01*
X196687761Y-106259333D01*
X196640142Y-106211714D01*
X196544904Y-106164095D01*
X196354428Y-106116476D01*
X196116333Y-106116476D01*
X195925857Y-106164095D01*
X195830619Y-106211714D01*
X195783000Y-106259333D01*
X195735380Y-106354571D01*
X196735380Y-107116476D02*
X195735380Y-107116476D01*
X196735380Y-107687904D02*
X196163952Y-107259333D01*
X195735380Y-107687904D02*
X196306809Y-107116476D01*
X149613809Y-97846714D02*
X149613809Y-98513380D01*
X149851904Y-97465761D02*
X150090000Y-98180047D01*
X149470952Y-98180047D01*
X149090000Y-98418142D02*
X149042380Y-98465761D01*
X149090000Y-98513380D01*
X149137619Y-98465761D01*
X149090000Y-98418142D01*
X149090000Y-98513380D01*
X148709047Y-97513380D02*
X148042380Y-97513380D01*
X148470952Y-98513380D01*
X147661428Y-98513380D02*
X147661428Y-97513380D01*
X147090000Y-98513380D02*
X147518571Y-97941952D01*
X147090000Y-97513380D02*
X147661428Y-98084809D01*
X187695476Y-47882380D02*
X188266904Y-47882380D01*
X187981190Y-47882380D02*
X187981190Y-46882380D01*
X188076428Y-47025238D01*
X188171666Y-47120476D01*
X188266904Y-47168095D01*
X186790714Y-46882380D02*
X187266904Y-46882380D01*
X187314523Y-47358571D01*
X187266904Y-47310952D01*
X187171666Y-47263333D01*
X186933571Y-47263333D01*
X186838333Y-47310952D01*
X186790714Y-47358571D01*
X186743095Y-47453809D01*
X186743095Y-47691904D01*
X186790714Y-47787142D01*
X186838333Y-47834761D01*
X186933571Y-47882380D01*
X187171666Y-47882380D01*
X187266904Y-47834761D01*
X187314523Y-47787142D01*
X186314523Y-47882380D02*
X186314523Y-46882380D01*
X185743095Y-47882380D02*
X186171666Y-47310952D01*
X185743095Y-46882380D02*
X186314523Y-47453809D01*
X162345619Y-56273380D02*
X162917047Y-56273380D01*
X162631333Y-56273380D02*
X162631333Y-55273380D01*
X162726571Y-55416238D01*
X162821809Y-55511476D01*
X162917047Y-55559095D01*
X161726571Y-55273380D02*
X161631333Y-55273380D01*
X161536095Y-55321000D01*
X161488476Y-55368619D01*
X161440857Y-55463857D01*
X161393238Y-55654333D01*
X161393238Y-55892428D01*
X161440857Y-56082904D01*
X161488476Y-56178142D01*
X161536095Y-56225761D01*
X161631333Y-56273380D01*
X161726571Y-56273380D01*
X161821809Y-56225761D01*
X161869428Y-56178142D01*
X161917047Y-56082904D01*
X161964666Y-55892428D01*
X161964666Y-55654333D01*
X161917047Y-55463857D01*
X161869428Y-55368619D01*
X161821809Y-55321000D01*
X161726571Y-55273380D01*
X160774190Y-55273380D02*
X160678952Y-55273380D01*
X160583714Y-55321000D01*
X160536095Y-55368619D01*
X160488476Y-55463857D01*
X160440857Y-55654333D01*
X160440857Y-55892428D01*
X160488476Y-56082904D01*
X160536095Y-56178142D01*
X160583714Y-56225761D01*
X160678952Y-56273380D01*
X160774190Y-56273380D01*
X160869428Y-56225761D01*
X160917047Y-56178142D01*
X160964666Y-56082904D01*
X161012285Y-55892428D01*
X161012285Y-55654333D01*
X160964666Y-55463857D01*
X160917047Y-55368619D01*
X160869428Y-55321000D01*
X160774190Y-55273380D01*
X160012285Y-55606714D02*
X160012285Y-56273380D01*
X160012285Y-55701952D02*
X159964666Y-55654333D01*
X159869428Y-55606714D01*
X159726571Y-55606714D01*
X159631333Y-55654333D01*
X159583714Y-55749571D01*
X159583714Y-56273380D01*
X158774190Y-55749571D02*
X159107523Y-55749571D01*
X159107523Y-56273380D02*
X159107523Y-55273380D01*
X158631333Y-55273380D01*
X161393238Y-53733380D02*
X161964666Y-53733380D01*
X161678952Y-53733380D02*
X161678952Y-52733380D01*
X161774190Y-52876238D01*
X161869428Y-52971476D01*
X161964666Y-53019095D01*
X160536095Y-53066714D02*
X160536095Y-53733380D01*
X160964666Y-53066714D02*
X160964666Y-53590523D01*
X160917047Y-53685761D01*
X160821809Y-53733380D01*
X160678952Y-53733380D01*
X160583714Y-53685761D01*
X160536095Y-53638142D01*
X159726571Y-53209571D02*
X160059904Y-53209571D01*
X160059904Y-53733380D02*
X160059904Y-52733380D01*
X159583714Y-52733380D01*
X161869428Y-58813380D02*
X162440857Y-58813380D01*
X162155142Y-58813380D02*
X162155142Y-57813380D01*
X162250380Y-57956238D01*
X162345619Y-58051476D01*
X162440857Y-58099095D01*
X161250380Y-57813380D02*
X161155142Y-57813380D01*
X161059904Y-57861000D01*
X161012285Y-57908619D01*
X160964666Y-58003857D01*
X160917047Y-58194333D01*
X160917047Y-58432428D01*
X160964666Y-58622904D01*
X161012285Y-58718142D01*
X161059904Y-58765761D01*
X161155142Y-58813380D01*
X161250380Y-58813380D01*
X161345619Y-58765761D01*
X161393238Y-58718142D01*
X161440857Y-58622904D01*
X161488476Y-58432428D01*
X161488476Y-58194333D01*
X161440857Y-58003857D01*
X161393238Y-57908619D01*
X161345619Y-57861000D01*
X161250380Y-57813380D01*
X160059904Y-58146714D02*
X160059904Y-58813380D01*
X160488476Y-58146714D02*
X160488476Y-58670523D01*
X160440857Y-58765761D01*
X160345619Y-58813380D01*
X160202761Y-58813380D01*
X160107523Y-58765761D01*
X160059904Y-58718142D01*
X159250380Y-58289571D02*
X159583714Y-58289571D01*
X159583714Y-58813380D02*
X159583714Y-57813380D01*
X159107523Y-57813380D01*
X191076904Y-46882380D02*
X191553095Y-46882380D01*
X191600714Y-47358571D01*
X191553095Y-47310952D01*
X191457857Y-47263333D01*
X191219761Y-47263333D01*
X191124523Y-47310952D01*
X191076904Y-47358571D01*
X191029285Y-47453809D01*
X191029285Y-47691904D01*
X191076904Y-47787142D01*
X191124523Y-47834761D01*
X191219761Y-47882380D01*
X191457857Y-47882380D01*
X191553095Y-47834761D01*
X191600714Y-47787142D01*
X190600714Y-47882380D02*
X190600714Y-46882380D01*
X190029285Y-47882380D02*
X190457857Y-47310952D01*
X190029285Y-46882380D02*
X190600714Y-47453809D01*
X155392380Y-94972380D02*
X155392380Y-94400952D01*
X155392380Y-94686666D02*
X154392380Y-94686666D01*
X154535238Y-94591428D01*
X154630476Y-94496190D01*
X154678095Y-94400952D01*
X154392380Y-95591428D02*
X154392380Y-95686666D01*
X154440000Y-95781904D01*
X154487619Y-95829523D01*
X154582857Y-95877142D01*
X154773333Y-95924761D01*
X155011428Y-95924761D01*
X155201904Y-95877142D01*
X155297142Y-95829523D01*
X155344761Y-95781904D01*
X155392380Y-95686666D01*
X155392380Y-95591428D01*
X155344761Y-95496190D01*
X155297142Y-95448571D01*
X155201904Y-95400952D01*
X155011428Y-95353333D01*
X154773333Y-95353333D01*
X154582857Y-95400952D01*
X154487619Y-95448571D01*
X154440000Y-95496190D01*
X154392380Y-95591428D01*
X154392380Y-96543809D02*
X154392380Y-96639047D01*
X154440000Y-96734285D01*
X154487619Y-96781904D01*
X154582857Y-96829523D01*
X154773333Y-96877142D01*
X155011428Y-96877142D01*
X155201904Y-96829523D01*
X155297142Y-96781904D01*
X155344761Y-96734285D01*
X155392380Y-96639047D01*
X155392380Y-96543809D01*
X155344761Y-96448571D01*
X155297142Y-96400952D01*
X155201904Y-96353333D01*
X155011428Y-96305714D01*
X154773333Y-96305714D01*
X154582857Y-96353333D01*
X154487619Y-96400952D01*
X154440000Y-96448571D01*
X154392380Y-96543809D01*
X154725714Y-97734285D02*
X155392380Y-97734285D01*
X154725714Y-97305714D02*
X155249523Y-97305714D01*
X155344761Y-97353333D01*
X155392380Y-97448571D01*
X155392380Y-97591428D01*
X155344761Y-97686666D01*
X155297142Y-97734285D01*
X154868571Y-98543809D02*
X154868571Y-98210476D01*
X155392380Y-98210476D02*
X154392380Y-98210476D01*
X154392380Y-98686666D01*
X169802380Y-100941380D02*
X169802380Y-100369952D01*
X169802380Y-100655666D02*
X168802380Y-100655666D01*
X168945238Y-100560428D01*
X169040476Y-100465190D01*
X169088095Y-100369952D01*
X168802380Y-101560428D02*
X168802380Y-101655666D01*
X168850000Y-101750904D01*
X168897619Y-101798523D01*
X168992857Y-101846142D01*
X169183333Y-101893761D01*
X169421428Y-101893761D01*
X169611904Y-101846142D01*
X169707142Y-101798523D01*
X169754761Y-101750904D01*
X169802380Y-101655666D01*
X169802380Y-101560428D01*
X169754761Y-101465190D01*
X169707142Y-101417571D01*
X169611904Y-101369952D01*
X169421428Y-101322333D01*
X169183333Y-101322333D01*
X168992857Y-101369952D01*
X168897619Y-101417571D01*
X168850000Y-101465190D01*
X168802380Y-101560428D01*
X168802380Y-102512809D02*
X168802380Y-102608047D01*
X168850000Y-102703285D01*
X168897619Y-102750904D01*
X168992857Y-102798523D01*
X169183333Y-102846142D01*
X169421428Y-102846142D01*
X169611904Y-102798523D01*
X169707142Y-102750904D01*
X169754761Y-102703285D01*
X169802380Y-102608047D01*
X169802380Y-102512809D01*
X169754761Y-102417571D01*
X169707142Y-102369952D01*
X169611904Y-102322333D01*
X169421428Y-102274714D01*
X169183333Y-102274714D01*
X168992857Y-102322333D01*
X168897619Y-102369952D01*
X168850000Y-102417571D01*
X168802380Y-102512809D01*
X169135714Y-103703285D02*
X169802380Y-103703285D01*
X169135714Y-103274714D02*
X169659523Y-103274714D01*
X169754761Y-103322333D01*
X169802380Y-103417571D01*
X169802380Y-103560428D01*
X169754761Y-103655666D01*
X169707142Y-103703285D01*
X169278571Y-104512809D02*
X169278571Y-104179476D01*
X169802380Y-104179476D02*
X168802380Y-104179476D01*
X168802380Y-104655666D01*
X206589047Y-75847142D02*
X206636666Y-75894761D01*
X206779523Y-75942380D01*
X206874761Y-75942380D01*
X207017619Y-75894761D01*
X207112857Y-75799523D01*
X207160476Y-75704285D01*
X207208095Y-75513809D01*
X207208095Y-75370952D01*
X207160476Y-75180476D01*
X207112857Y-75085238D01*
X207017619Y-74990000D01*
X206874761Y-74942380D01*
X206779523Y-74942380D01*
X206636666Y-74990000D01*
X206589047Y-75037619D01*
X205970000Y-74942380D02*
X205779523Y-74942380D01*
X205684285Y-74990000D01*
X205589047Y-75085238D01*
X205541428Y-75275714D01*
X205541428Y-75609047D01*
X205589047Y-75799523D01*
X205684285Y-75894761D01*
X205779523Y-75942380D01*
X205970000Y-75942380D01*
X206065238Y-75894761D01*
X206160476Y-75799523D01*
X206208095Y-75609047D01*
X206208095Y-75275714D01*
X206160476Y-75085238D01*
X206065238Y-74990000D01*
X205970000Y-74942380D01*
X205112857Y-75942380D02*
X205112857Y-74942380D01*
X204541428Y-75942380D01*
X204541428Y-74942380D01*
X204065238Y-75942380D02*
X204065238Y-74942380D01*
X203493809Y-75942380D01*
X203493809Y-74942380D01*
X203255714Y-76037619D02*
X202493809Y-76037619D01*
X202112857Y-75370952D02*
X202208095Y-75323333D01*
X202255714Y-75275714D01*
X202303333Y-75180476D01*
X202303333Y-75132857D01*
X202255714Y-75037619D01*
X202208095Y-74990000D01*
X202112857Y-74942380D01*
X201922380Y-74942380D01*
X201827142Y-74990000D01*
X201779523Y-75037619D01*
X201731904Y-75132857D01*
X201731904Y-75180476D01*
X201779523Y-75275714D01*
X201827142Y-75323333D01*
X201922380Y-75370952D01*
X202112857Y-75370952D01*
X202208095Y-75418571D01*
X202255714Y-75466190D01*
X202303333Y-75561428D01*
X202303333Y-75751904D01*
X202255714Y-75847142D01*
X202208095Y-75894761D01*
X202112857Y-75942380D01*
X201922380Y-75942380D01*
X201827142Y-75894761D01*
X201779523Y-75847142D01*
X201731904Y-75751904D01*
X201731904Y-75561428D01*
X201779523Y-75466190D01*
X201827142Y-75418571D01*
X201922380Y-75370952D01*
X148169047Y-75847142D02*
X148216666Y-75894761D01*
X148359523Y-75942380D01*
X148454761Y-75942380D01*
X148597619Y-75894761D01*
X148692857Y-75799523D01*
X148740476Y-75704285D01*
X148788095Y-75513809D01*
X148788095Y-75370952D01*
X148740476Y-75180476D01*
X148692857Y-75085238D01*
X148597619Y-74990000D01*
X148454761Y-74942380D01*
X148359523Y-74942380D01*
X148216666Y-74990000D01*
X148169047Y-75037619D01*
X147550000Y-74942380D02*
X147359523Y-74942380D01*
X147264285Y-74990000D01*
X147169047Y-75085238D01*
X147121428Y-75275714D01*
X147121428Y-75609047D01*
X147169047Y-75799523D01*
X147264285Y-75894761D01*
X147359523Y-75942380D01*
X147550000Y-75942380D01*
X147645238Y-75894761D01*
X147740476Y-75799523D01*
X147788095Y-75609047D01*
X147788095Y-75275714D01*
X147740476Y-75085238D01*
X147645238Y-74990000D01*
X147550000Y-74942380D01*
X146692857Y-75942380D02*
X146692857Y-74942380D01*
X146121428Y-75942380D01*
X146121428Y-74942380D01*
X145645238Y-75942380D02*
X145645238Y-74942380D01*
X145073809Y-75942380D01*
X145073809Y-74942380D01*
X144835714Y-76037619D02*
X144073809Y-76037619D01*
X143692857Y-75370952D02*
X143788095Y-75323333D01*
X143835714Y-75275714D01*
X143883333Y-75180476D01*
X143883333Y-75132857D01*
X143835714Y-75037619D01*
X143788095Y-74990000D01*
X143692857Y-74942380D01*
X143502380Y-74942380D01*
X143407142Y-74990000D01*
X143359523Y-75037619D01*
X143311904Y-75132857D01*
X143311904Y-75180476D01*
X143359523Y-75275714D01*
X143407142Y-75323333D01*
X143502380Y-75370952D01*
X143692857Y-75370952D01*
X143788095Y-75418571D01*
X143835714Y-75466190D01*
X143883333Y-75561428D01*
X143883333Y-75751904D01*
X143835714Y-75847142D01*
X143788095Y-75894761D01*
X143692857Y-75942380D01*
X143502380Y-75942380D01*
X143407142Y-75894761D01*
X143359523Y-75847142D01*
X143311904Y-75751904D01*
X143311904Y-75561428D01*
X143359523Y-75466190D01*
X143407142Y-75418571D01*
X143502380Y-75370952D01*
M02*
